<svg width="19" height="20" viewBox="0 0 19 20" fill="none" xmlns="http://www.w3.org/2000/svg">
<path fill-rule="evenodd" clip-rule="evenodd" d="M7.69452 9.99644V16.4859C7.69452 16.5641 7.77298 16.6422 7.85144 16.6422H10.2837C10.3622 16.6422 10.4406 16.5641 10.4406 16.4859V9.91826H12.206C12.2845 9.91826 12.3629 9.84007 12.3629 9.76189L12.5199 7.76815C12.5199 7.65087 12.4414 7.57268 12.3629 7.57268H10.4406V6.16534C10.4406 5.85259 10.7153 5.57894 11.0291 5.57894H12.3629C12.4414 5.57894 12.5199 5.50076 12.5199 5.42257V3.42883C12.5199 3.35065 12.4414 3.27246 12.3629 3.27246H10.0876C8.75374 3.27246 7.65529 4.36706 7.65529 5.69622V7.61177H6.43915C6.36069 7.61177 6.28223 7.68996 6.28223 7.76815V9.72279C6.28223 9.80098 6.36069 9.87916 6.43915 9.87916H7.65529V9.99644H7.69452Z" fill="#7643FF"/>
</svg>
