<svg width="16" height="15" viewBox="0 0 16 15" fill="none" xmlns="http://www.w3.org/2000/svg">
<path d="M11.6453 3.07563C11.1714 3.07563 10.816 3.42938 10.816 3.90105C10.816 4.37272 11.1714 4.72647 11.6453 4.72647C12.1192 4.72647 12.4746 4.37272 12.4746 3.90105C12.4746 3.42938 12.0797 3.07563 11.6453 3.07563ZM7.9334 4.13688C5.99847 4.13688 4.45843 5.70912 4.45843 7.59579C4.45843 9.48247 6.03796 11.0547 7.9334 11.0547C9.86833 11.0547 11.4084 9.48247 11.4084 7.59579C11.4084 5.70912 9.86833 4.13688 7.9334 4.13688ZM7.9334 9.83622C6.70926 9.83622 5.68256 8.85358 5.68256 7.59579C5.68256 6.37731 6.66978 5.35536 7.9334 5.35536C9.15754 5.35536 10.1842 6.33801 10.1842 7.59579C10.1842 8.85358 9.15754 9.83622 7.9334 9.83622ZM15.0018 4.72647C15.0018 2.36812 13.1064 0.481445 10.7371 0.481445H5.12973C2.76043 0.481445 0.86499 2.36812 0.86499 4.72647V10.3079C0.86499 12.6662 2.76043 14.5529 5.12973 14.5529H10.7371C13.1064 14.5529 15.0018 12.6662 15.0018 10.3079V4.72647ZM13.6592 10.3079C13.6592 11.9194 12.3561 13.2165 10.7371 13.2165H5.12973C3.5107 13.2165 2.20759 11.9194 2.20759 10.3079V4.72647C2.20759 3.11493 3.5107 1.81784 5.12973 1.81784H10.7371C12.3561 1.81784 13.6592 3.11493 13.6592 4.72647V10.3079Z" fill="#7643FF"/>
</svg>
