<svg width="16" height="15" viewBox="0 0 16 15" fill="none" xmlns="http://www.w3.org/2000/svg">
<path d="M15.286 8.7797L15.286 13.9915C15.286 14.1376 15.1863 14.235 15.0366 14.235L12.2925 14.235C12.1429 14.235 12.0431 14.1376 12.0431 13.9915L12.0431 9.16937C12.0431 7.90295 11.5941 7.02621 10.3967 7.02621C9.4986 7.02621 8.99968 7.6107 8.75022 8.1952C8.65043 8.39003 8.65044 8.68228 8.65044 8.97453L8.65044 14.0402C8.65044 14.1863 8.55066 14.2837 8.40098 14.2837L5.65694 14.2837C5.50726 14.2837 5.40748 14.1863 5.40748 14.0402C5.40748 12.7738 5.45737 6.49042 5.40748 5.02917C5.40748 4.88305 5.50726 4.78563 5.65694 4.78563L8.40098 4.78563C8.55066 4.78563 8.65044 4.88305 8.65044 5.02917L8.65044 6.14946C8.65044 6.14946 8.65044 6.14946 8.65044 6.19817L8.65044 6.14946C9.09947 5.51625 9.84784 4.5908 11.5442 4.5908C13.6895 4.54209 15.286 5.90592 15.286 8.7797ZM0.617867 14.235L3.36191 14.235C3.51159 14.235 3.61137 14.1376 3.61137 13.9915L3.61137 4.98046C3.61137 4.83434 3.51159 4.73692 3.36191 4.73692L0.617867 4.73692C0.468192 4.73692 0.368408 4.83434 0.368408 4.98046L0.368408 13.9915C0.4183 14.1376 0.518083 14.235 0.617867 14.235Z" fill="#7643FF"/>
<path d="M3.66089 1.86298C3.66089 2.78844 2.86262 3.56776 1.91467 3.56776C0.966727 3.56776 0.168457 2.78844 0.168457 1.86298C0.168457 0.937531 0.966727 0.158203 1.91467 0.158203C2.86262 0.158203 3.66089 0.937531 3.66089 1.86298Z" fill="#7643FF"/>
</svg>
