<svg width="16" height="16" viewBox="0 0 16 16" fill="none" xmlns="http://www.w3.org/2000/svg">
<path d="M8.09381 0.367554C3.91936 0.367554 0.534668 3.7698 0.534668 7.96702C0.534668 12.1642 3.91936 15.5665 8.09381 15.5665C12.2683 15.5665 15.6521 12.1642 15.6521 7.96702C15.6521 3.7698 12.2683 0.367554 8.09381 0.367554ZM11.5597 11.3284C11.4243 11.5517 11.1337 11.6225 10.9117 11.4854C9.1372 10.3955 6.9033 10.1487 4.27227 10.7531C4.01864 10.8111 3.76592 10.6514 3.70815 10.3964C3.64949 10.1414 3.80834 9.8873 4.06197 9.82922C6.94121 9.16765 9.41158 9.45261 11.4036 10.6768C11.6256 10.8139 11.696 11.1052 11.5597 11.3284ZM12.4849 9.2584C12.3143 9.53791 11.9515 9.62594 11.6744 9.45442C9.64265 8.19843 6.54588 7.83452 4.1423 8.5687C3.83091 8.66308 3.50146 8.48611 3.40669 8.17393C3.31282 7.85993 3.48883 7.5296 3.80022 7.43431C6.54498 6.59759 9.95765 7.00234 12.2908 8.44437C12.5679 8.61589 12.6555 8.9798 12.4849 9.2584ZM12.5643 7.10398C10.1282 5.64925 6.10903 5.51584 3.78307 6.22551C3.4094 6.33895 3.01497 6.1275 2.90124 5.75179C2.78842 5.37609 2.99872 4.9795 3.37239 4.86516C6.04224 4.05022 10.4811 4.20722 13.2855 5.88157C13.6221 6.08213 13.7323 6.51864 13.5328 6.85532C13.3342 7.19291 12.8992 7.30454 12.5643 7.10398Z" fill="#7643FF"/>
</svg>
