<svg width="16" height="12" viewBox="0 0 16 12" fill="none" xmlns="http://www.w3.org/2000/svg">
<path d="M15.2566 1.8008C14.7826 2.01116 14.3086 2.13737 13.7914 2.22152C14.0069 2.17944 14.3517 1.75873 14.524 1.59044C14.7395 1.33801 14.9119 1.04351 14.9981 0.749006C14.9981 0.706935 15.0412 0.706935 14.9981 0.664863C14.955 0.664863 14.955 0.664863 14.9119 0.664863C14.3517 0.959365 13.7914 1.16972 13.1881 1.29594C13.145 1.29594 13.1019 1.29594 13.0588 1.25387C13.0157 1.2118 12.9726 1.12765 12.8865 1.08558C12.6279 0.875222 12.3693 0.706935 12.0677 0.58072C11.6798 0.412433 11.2058 0.370361 10.7748 0.370361C10.3439 0.412433 9.91296 0.496576 9.56821 0.706935C9.18036 0.917293 8.83561 1.16972 8.57704 1.5063C8.31848 1.84287 8.10301 2.22152 7.97373 2.64223C7.88754 3.06295 7.88754 3.44159 7.93063 3.86231C7.93063 3.94645 7.93063 3.94645 7.88753 3.94645C5.51736 3.60988 3.53503 2.76845 1.94055 1.00144C1.85436 0.917293 1.85435 0.917293 1.76817 1.00144C1.07866 2.01116 1.42341 3.65195 2.28529 4.45131C2.41458 4.57753 2.50077 4.66167 2.63005 4.74582C2.58695 4.74582 1.98364 4.70374 1.46651 4.45131C1.38032 4.40924 1.38032 4.45131 1.33722 4.49339C1.33722 4.6196 1.33722 4.70374 1.33722 4.82996C1.46651 5.88175 2.19911 6.80733 3.23337 7.18597C3.36265 7.22805 3.49193 7.27012 3.62122 7.31219C3.40574 7.35426 3.14718 7.39633 2.50077 7.35426C2.41458 7.35426 2.37148 7.39633 2.41458 7.4384C2.88861 8.74263 3.96597 9.16334 4.78476 9.3737C4.87094 9.3737 5.00023 9.3737 5.08641 9.41577C4.82785 9.79442 3.92287 10.0889 3.49193 10.2572C2.71624 10.5096 1.85436 10.6359 1.03557 10.5517C0.906284 10.5517 0.86319 10.5517 0.820096 10.5517C0.777002 10.5938 0.820098 10.5938 0.863193 10.6359C1.03557 10.7621 1.20794 10.8462 1.38032 10.9304C1.89745 11.1828 2.45768 11.4352 3.0179 11.5614C5.9483 12.3608 9.26655 11.7718 11.4644 9.62613C13.1881 7.94326 13.7914 5.62932 13.7914 3.31538C13.7914 3.23124 13.9207 3.18916 13.9638 3.14709C14.3948 2.81052 14.7826 2.43187 15.1274 1.96909C15.2135 1.88494 15.2135 1.8008 15.2135 1.75873C15.2997 1.75873 15.2997 1.75873 15.2566 1.8008Z" fill="#7643FF"/>
</svg>
