<svg width="20" height="20" viewBox="0 0 20 20" fill="none" xmlns="http://www.w3.org/2000/svg">
<path fillRule="evenodd" clipRule="evenodd" d="M8.73547 3.75271L9.0081 6.8354C9.0081 7.37812 9.45146 7.81812 10.0004 7.81812C10.5484 7.81812 10.9927 7.37812 10.9927 6.8354L11.2653 3.75271C11.2653 3.0609 10.6989 2.5 10.0004 2.5C9.30184 2.5 8.73547 3.0609 8.73547 3.75271ZM8.95844 17.0951C9.00532 17.1378 9.04126 17.1705 9.0582 17.1873C9.32623 17.3918 9.65394 17.5 10.0064 17.5C10.3222 17.5 10.638 17.4037 10.8932 17.2109C11.0703 17.0873 11.3549 16.8018 11.3549 16.8018C12.461 15.7909 14.1252 13.2764 14.6604 12.001C14.6714 12.001 14.9881 11.2428 15 10.8819V10.8337C15 10.2801 14.6842 9.76283 14.1739 9.49829C13.9628 9.38898 13.4458 9.28643 13.2006 9.23782C13.1216 9.22215 13.0709 9.21208 13.0677 9.2092C12.3389 9.10102 11.2209 9.02921 9.99449 9.02921C8.70571 9.02921 7.53993 9.10102 6.82302 9.23284C6.81109 9.23284 6.15476 9.36556 5.9363 9.45011C5.62053 9.58284 5.35249 9.82283 5.18267 10.1237C5.0615 10.3646 5 10.6174 5 10.8819C5.01285 11.1592 5.1946 11.6764 5.27997 11.881C5.81513 13.2282 7.5638 15.8037 8.63319 16.79C8.7445 16.9003 8.87064 17.0151 8.95844 17.0951Z" fill="#7643FF"/>
</svg>
