<svg width="24" height="24" viewBox="0 0 24 24" fill="none" xmlns="http://www.w3.org/2000/svg">
<path fill-rule="evenodd" clip-rule="evenodd" d="M2 12C2 6.48 6.49 2 12 2L12.2798 2.00384C17.6706 2.15216 22 6.57356 22 12C22 17.51 17.52 22 12 22C6.49 22 2 17.51 2 12ZM13.98 16C14.27 15.7 14.27 15.23 13.97 14.94L11.02 12L13.97 9.05997C14.27 8.76997 14.27 8.28997 13.98 7.99997C13.68 7.69997 13.21 7.69997 12.92 7.99997L9.43002 11.47C9.29002 11.61 9.21002 11.8 9.21002 12C9.21002 12.2 9.29002 12.39 9.43002 12.53L12.92 16C13.06 16.15 13.25 16.22 13.44 16.22C13.64 16.22 13.83 16.15 13.98 16Z" fill="#7643FF"/>
</svg>
