<svg width="18" height="20" viewBox="0 0 18 20" fill="none" xmlns="http://www.w3.org/2000/svg">
<path fillRule="evenodd" clipRule="evenodd" d="M0 14.8708V7.25781H18V14.9318C18 18.0708 16.0241 20.0008 12.8628 20.0008H5.12733C1.99561 20.0008 0 18.0308 0 14.8708ZM4.95938 12.4108C4.50494 12.4318 4.12953 12.0708 4.10977 11.6118C4.10977 11.1518 4.46542 10.7718 4.91987 10.7508C5.36443 10.7508 5.72997 11.1018 5.73985 11.5508C5.7596 12.0118 5.40395 12.3918 4.95938 12.4108ZM9.01976 12.4108C8.56531 12.4318 8.1899 12.0708 8.17014 11.6118C8.17014 11.1518 8.5258 10.7718 8.98024 10.7508C9.42481 10.7508 9.79034 11.1018 9.80022 11.5508C9.81998 12.0118 9.46432 12.3918 9.01976 12.4108ZM13.0505 16.0908C12.596 16.0808 12.2305 15.7008 12.2305 15.2408C12.2206 14.7808 12.5862 14.4018 13.0406 14.3918H13.0505C13.5148 14.3918 13.8902 14.7718 13.8902 15.2408C13.8902 15.7108 13.5148 16.0908 13.0505 16.0908ZM8.17014 15.2408C8.1899 15.7008 8.56531 16.0618 9.01976 16.0408C9.46432 16.0218 9.81998 15.6418 9.80022 15.1818C9.79034 14.7318 9.42481 14.3808 8.98024 14.3808C8.5258 14.4018 8.17014 14.7808 8.17014 15.2408ZM4.09989 15.2408C4.11965 15.7008 4.49506 16.0618 4.94951 16.0408C5.39407 16.0218 5.74973 15.6418 5.72997 15.1818C5.72009 14.7318 5.35456 14.3808 4.90999 14.3808C4.45554 14.4018 4.09989 14.7808 4.09989 15.2408ZM12.2404 11.6018C12.2404 11.1418 12.596 10.7718 13.0505 10.7618C13.4951 10.7618 13.8507 11.1208 13.8705 11.5618C13.8804 12.0218 13.5247 12.4018 13.0801 12.4108C12.6257 12.4208 12.2503 12.0708 12.2404 11.6118V11.6018Z" fill="#7643FF"/>
<path opacity="0.4" d="M0.00390625 7.25723C0.0167493 6.67023 0.0661455 5.50523 0.159011 5.13023C0.633215 3.02123 2.24353 1.68123 4.5454 1.49023H13.4565C15.7386 1.69123 17.3687 3.04023 17.8429 5.13023C17.9348 5.49523 17.9841 6.66923 17.997 7.25723H0.00390625Z" fill="#7643FF"/>
<path d="M5.30367 4.59C5.73836 4.59 6.06437 4.261 6.06437 3.82V0.771C6.06437 0.33 5.73836 0 5.30367 0C4.86898 0 4.54297 0.33 4.54297 0.771V3.82C4.54297 4.261 4.86898 4.59 5.30367 4.59Z" fill="#7643FF"/>
<path d="M12.6943 4.59C13.1191 4.59 13.455 4.261 13.455 3.82V0.771C13.455 0.33 13.1191 0 12.6943 0C12.2596 0 11.9336 0.33 11.9336 0.771V3.82C11.9336 4.261 12.2596 4.59 12.6943 4.59Z" fill="#7643FF"/>
</svg>
