<svg width="40" height="40" viewBox="0 0 40 40" fill="none" xmlns="http://www.w3.org/2000/svg">
<rect opacity="0.1" width="40" height="40" rx="10" fill="#56CCF2"/>
<path fillRule="evenodd" clipRule="evenodd" d="M15.0942 13.75H19.9209C21.9393 13.75 23.3485 15.1409 23.3485 17.1341V22.8659C23.3485 24.8591 21.9393 26.25 19.9209 26.25H15.0942C13.0759 26.25 11.6667 24.8591 11.6667 22.8659V17.1341C11.6667 15.1409 13.0759 13.75 15.0942 13.75ZM26.6317 15.7325C26.9975 15.5464 27.4267 15.5659 27.7759 15.7858C28.125 16.0049 28.3334 16.3856 28.3334 16.8019V23.1987C28.3334 23.6158 28.125 23.9956 27.7759 24.2148C27.585 24.334 27.3717 24.395 27.1567 24.395C26.9775 24.395 26.7983 24.3527 26.6308 24.2672L25.3967 23.6445C24.94 23.4127 24.6567 22.9474 24.6567 22.4305V17.5692C24.6567 17.0515 24.94 16.5862 25.3967 16.356L26.6317 15.7325Z" fill="#7643FF"/>
</svg>
