<svg width="24" height="24" viewBox="0 0 24 24" fill="none" xmlns="http://www.w3.org/2000/svg">
<path d="M11.5373 16.4839C11.4879 16.4353 11.2768 16.2518 11.1032 16.0808C10.0111 15.0784 8.22358 12.4636 7.67797 11.095C7.5903 10.8872 7.40474 10.3617 7.39282 10.0809C7.39282 9.81192 7.45411 9.55547 7.57838 9.31075C7.75202 9.00568 8.02526 8.76096 8.34786 8.62687C8.57172 8.54055 9.24161 8.40645 9.25352 8.40645C9.9864 8.27236 11.1772 8.19861 12.4932 8.19861C13.747 8.19861 14.8893 8.27236 15.6332 8.38215C15.6451 8.39472 16.4776 8.52881 16.7627 8.67548C17.2837 8.9445 17.6071 9.46998 17.6071 10.0323V10.0809C17.5943 10.4472 17.2709 11.2174 17.259 11.2174C16.7125 12.5122 15.0127 15.0667 13.8831 16.0934C13.8831 16.0934 13.5929 16.3825 13.4116 16.5082C13.1511 16.7043 12.8285 16.8015 12.5059 16.8015C12.1459 16.8015 11.8105 16.6918 11.5373 16.4839Z" fill="#7643FF"/>
</svg>
