<svg width="16" height="16" viewBox="0 0 16 16" fill="none" xmlns="http://www.w3.org/2000/svg">
<path fillRule="evenodd" clipRule="evenodd" d="M7.99998 14.6668C4.31998 14.6668 1.33331 11.6868 1.33331 8.00016C1.33331 4.32016 4.31998 1.3335 7.99998 1.3335C11.6866 1.3335 14.6666 4.32016 14.6666 8.00016C14.6666 11.6868 11.6866 14.6668 7.99998 14.6668ZM10.1267 10.4734C10.2067 10.5201 10.2933 10.5468 10.3867 10.5468C10.5533 10.5468 10.72 10.4601 10.8133 10.3001C10.9533 10.0668 10.88 9.7601 10.64 9.61344L8.26668 8.2001V5.1201C8.26668 4.8401 8.04001 4.6201 7.76668 4.6201C7.49334 4.6201 7.26668 4.8401 7.26668 5.1201V8.48677C7.26668 8.6601 7.36001 8.8201 7.51335 8.91344L10.1267 10.4734Z" fill="#7643FF"/>
</svg>
