<svg width="67" height="37" viewBox="0 0 67 37" fill="none" xmlns="http://www.w3.org/2000/svg">
<path fillRule="evenodd" clipRule="evenodd" d="M0.846191 7.82692V7.11539C0.846191 3.18567 4.03186 0 7.96158 0H59.1923C63.1221 0 66.3077 3.18567 66.3077 7.11538V7.82692V12.0962V29.8846C66.3077 33.8143 63.1221 37 59.1923 37H7.96157C4.03186 37 0.846191 33.8143 0.846191 29.8846V12.0962V7.82692ZM1.55773 12.0962V29.8846C1.55773 33.4214 4.42483 36.2885 7.96157 36.2885H59.1923C62.7291 36.2885 65.5962 33.4214 65.5962 29.8846V12.0962H1.55773Z" fill="url(#paint0_linear)"/>
<path fillRule="evenodd" clipRule="evenodd" d="M21.8027 23.2868C21.8027 27.5602 18.968 31.3975 14.8958 32.6832C14.7867 32.7363 14.6677 32.7661 14.5486 32.7661H14.5485C14.4681 32.7661 14.3877 32.7661 14.3073 32.7333C14.2719 32.7235 14.2374 32.7117 14.2039 32.6979C10.1066 31.427 7.25 27.5766 7.25 23.2868V18.3024C7.25 17.9464 7.47251 17.5904 7.82854 17.4568L9.60869 16.7893C10.0537 16.6113 10.5878 16.8338 10.7658 17.3233C10.9438 17.7684 10.7213 18.3024 10.2317 18.4805L9.03015 18.9255V23.2868C9.03015 26.7606 11.2756 29.8531 14.5264 30.9521C17.7771 29.8531 20.0226 26.7606 20.0226 23.2868V18.9255L14.5041 16.8338L12.4125 17.6349C11.9674 17.8129 11.4334 17.5904 11.2554 17.1008C11.0774 16.6558 11.2999 16.1217 11.7894 15.9437L14.1926 15.0091C14.4151 14.9201 14.6377 14.9201 14.8157 15.0091L21.2242 17.4568C21.5802 17.5904 21.8027 17.9019 21.8027 18.3024V23.2868ZM14.1039 27.2922C14.2374 27.3812 14.3709 27.4257 14.5489 27.4257C14.8159 27.4257 15.1275 27.2922 15.3055 27.0252L17.3972 23.5984C17.5307 23.3314 17.5752 22.9754 17.3972 22.7083C17.2636 22.4413 16.9521 22.2633 16.6406 22.2633H14.1039L15.3055 20.4386C15.5725 19.9936 15.439 19.4596 15.0385 19.1925C14.5934 18.9255 14.0594 19.059 13.7924 19.4596L11.7007 22.6638C11.5227 22.9308 11.4782 23.2869 11.6562 23.5539C11.8342 23.8209 12.1457 23.9989 12.4572 23.9989H15.0385L13.7924 26.0906C13.5698 26.4911 13.7033 27.0252 14.1039 27.2922Z" fill="url(#paint1_linear)"/>
<path d="M12.7542 7.86541C12.6304 7.86541 12.5301 7.82912 12.4532 7.75654C12.3806 7.6797 12.3444 7.57724 12.3444 7.44916V3.70291C12.3444 3.5791 12.3785 3.48304 12.4468 3.41474C12.5194 3.34643 12.6176 3.31227 12.7414 3.31227H14.3167C14.7992 3.31227 15.1749 3.43395 15.4438 3.67729C15.7128 3.91637 15.8473 4.25364 15.8473 4.6891C15.8473 5.12456 15.7128 5.46397 15.4438 5.70731C15.1749 5.95066 14.7992 6.07233 14.3167 6.07233H13.1705V7.44916C13.1705 7.57724 13.132 7.6797 13.0552 7.75654C12.9826 7.82912 12.8823 7.86541 12.7542 7.86541ZM14.2143 5.43835C14.7821 5.43835 15.066 5.19074 15.066 4.6955C15.066 4.20027 14.7821 3.95266 14.2143 3.95266H13.1705V5.43835H14.2143Z" fill="white"/>
<path d="M20.1837 7.30827C20.2349 7.38512 20.2605 7.45983 20.2605 7.53241C20.2605 7.6306 20.22 7.71172 20.1388 7.77576C20.062 7.83979 19.9702 7.87181 19.8635 7.87181C19.7952 7.87181 19.729 7.85687 19.665 7.82699C19.6052 7.79283 19.554 7.74374 19.5113 7.6797L18.6596 6.38612C18.5742 6.2495 18.4824 6.15345 18.3842 6.09795C18.2903 6.04245 18.1665 6.0147 18.0128 6.0147H17.3852V7.44916C17.3852 7.57724 17.3489 7.6797 17.2763 7.75654C17.2037 7.82912 17.1056 7.86541 16.9817 7.86541C16.8579 7.86541 16.7576 7.82912 16.6808 7.75654C16.6082 7.6797 16.5719 7.57724 16.5719 7.44916V3.70291C16.5719 3.5791 16.6061 3.48304 16.6744 3.41474C16.7469 3.34643 16.8451 3.31227 16.9689 3.31227H18.5699C19.0822 3.31227 19.4707 3.42754 19.7354 3.65808C20.0044 3.88435 20.1388 4.21308 20.1388 4.64427C20.1388 4.99435 20.0385 5.28252 19.8379 5.50879C19.6415 5.73079 19.3618 5.87381 18.999 5.93785C19.1228 5.96774 19.2316 6.0211 19.3256 6.09795C19.4195 6.17479 19.5113 6.28152 19.6009 6.41814L20.1837 7.30827ZM18.4546 5.38072C18.7663 5.38072 18.9947 5.32308 19.1398 5.20781C19.285 5.08827 19.3576 4.90683 19.3576 4.66349C19.3576 4.41587 19.285 4.23656 19.1398 4.12556C18.9947 4.01029 18.7663 3.95266 18.4546 3.95266H17.3788V5.38072H18.4546Z" fill="white"/>
<path d="M21.4344 7.86541C21.3106 7.86541 21.2103 7.82699 21.1334 7.75014C21.0609 7.67329 21.0246 7.57297 21.0246 7.44916V3.6901C21.0246 3.56629 21.0609 3.4681 21.1334 3.39552C21.2103 3.31868 21.3106 3.28025 21.4344 3.28025C21.5625 3.28025 21.6628 3.31868 21.7354 3.39552C21.8122 3.4681 21.8507 3.56629 21.8507 3.6901V7.44916C21.8507 7.57297 21.8122 7.67329 21.7354 7.75014C21.6628 7.82699 21.5625 7.86541 21.4344 7.86541Z" fill="white"/>
<path d="M26.1108 3.49158C26.1791 3.34643 26.2923 3.27385 26.4502 3.27385C26.557 3.27385 26.653 3.308 26.7384 3.37631C26.8238 3.44462 26.8665 3.53 26.8665 3.63247C26.8665 3.67943 26.8537 3.73279 26.8281 3.79256L25.0542 7.60925C25.0158 7.69037 24.956 7.75441 24.8749 7.80137C24.798 7.84406 24.7148 7.86541 24.6251 7.86541C24.5355 7.86541 24.4501 7.84406 24.369 7.80137C24.2921 7.75441 24.2345 7.69037 24.1961 7.60925L22.4286 3.79256C22.403 3.73279 22.3902 3.68156 22.3902 3.63887C22.3902 3.53214 22.4329 3.44462 22.5183 3.37631C22.6079 3.308 22.7083 3.27385 22.8193 3.27385C22.8918 3.27385 22.958 3.29306 23.0178 3.33149C23.0818 3.36564 23.1309 3.419 23.1651 3.49158L24.6379 6.76395L26.1108 3.49158Z" fill="white"/>
<path d="M31.0577 7.33389C31.0833 7.38939 31.0961 7.44489 31.0961 7.50039C31.0961 7.59858 31.0556 7.68183 30.9744 7.75014C30.8976 7.81845 30.8079 7.8526 30.7055 7.8526C30.6372 7.8526 30.5731 7.83552 30.5134 7.80137C30.4536 7.76295 30.4066 7.70531 30.3725 7.62847L29.9883 6.77035H27.7341L27.3499 7.62847C27.3157 7.70531 27.2688 7.76295 27.209 7.80137C27.1492 7.83552 27.083 7.8526 27.0105 7.8526C26.9123 7.8526 26.8226 7.81845 26.7415 7.75014C26.6604 7.68183 26.6198 7.59858 26.6198 7.50039C26.6198 7.44489 26.6326 7.38939 26.6583 7.33389L28.4257 3.53641C28.4641 3.45102 28.5218 3.38699 28.5986 3.34429C28.6797 3.29733 28.7651 3.27385 28.8548 3.27385C28.9444 3.27385 29.0277 3.29733 29.1045 3.34429C29.1856 3.38699 29.2454 3.45102 29.2838 3.53641L31.0577 7.33389ZM28.0159 6.12997H29.7065L28.8612 4.22802L28.0159 6.12997Z" fill="white"/>
<path d="M33.5919 7.88462C33.1564 7.88462 32.7743 7.7907 32.4456 7.60285C32.1211 7.415 31.8714 7.14604 31.6963 6.79597C31.5213 6.44589 31.4338 6.03604 31.4338 5.56643C31.4338 5.09681 31.5213 4.6891 31.6963 4.34329C31.8714 3.99322 32.1211 3.72425 32.4456 3.53641C32.7743 3.34856 33.1564 3.25464 33.5919 3.25464C33.8736 3.25464 34.1383 3.29733 34.3859 3.38272C34.6336 3.46383 34.8534 3.58337 35.0455 3.74133C35.101 3.78402 35.1395 3.82885 35.1608 3.87581C35.1822 3.92277 35.1928 3.98041 35.1928 4.04872C35.1928 4.14264 35.1672 4.22162 35.116 4.28566C35.0648 4.3497 35.0029 4.38172 34.9303 4.38172C34.8449 4.38172 34.7574 4.35183 34.6677 4.29206C34.4841 4.15545 34.3134 4.06152 34.1554 4.01029C33.9974 3.95479 33.8224 3.92704 33.6303 3.92704C33.1863 3.92704 32.849 4.06579 32.6185 4.34329C32.3922 4.62079 32.2791 5.0285 32.2791 5.56643C32.2791 6.10862 32.3922 6.51847 32.6185 6.79597C32.849 7.07347 33.1863 7.21222 33.6303 7.21222C33.8139 7.21222 33.9825 7.18447 34.1362 7.12897C34.2942 7.07347 34.4713 6.97954 34.6677 6.8472C34.7104 6.82158 34.7531 6.80024 34.7958 6.78316C34.8385 6.76608 34.8833 6.75754 34.9303 6.75754C35.0029 6.75754 35.0648 6.78956 35.116 6.8536C35.1672 6.91764 35.1928 6.99662 35.1928 7.09054C35.1928 7.15458 35.1822 7.21222 35.1608 7.26345C35.1395 7.31041 35.101 7.35524 35.0455 7.39793C34.8534 7.55589 34.6336 7.67756 34.3859 7.76295C34.1383 7.84406 33.8736 7.88462 33.5919 7.88462Z" fill="white"/>
<path d="M36.3246 7.86541C36.2008 7.86541 36.1005 7.82699 36.0236 7.75014C35.9511 7.67329 35.9148 7.57297 35.9148 7.44916V3.6901C35.9148 3.56629 35.9511 3.4681 36.0236 3.39552C36.1005 3.31868 36.2008 3.28025 36.3246 3.28025C36.4527 3.28025 36.553 3.31868 36.6256 3.39552C36.7024 3.4681 36.7409 3.56629 36.7409 3.6901V7.44916C36.7409 7.57297 36.7024 7.67329 36.6256 7.75014C36.553 7.82699 36.4527 7.86541 36.3246 7.86541Z" fill="white"/>
<path d="M38.1129 7.82699C37.9891 7.82699 37.8909 7.79283 37.8183 7.72452C37.75 7.65622 37.7158 7.56016 37.7158 7.43635V3.70291C37.7158 3.5791 37.75 3.48304 37.8183 3.41474C37.8909 3.34643 37.9891 3.31227 38.1129 3.31227H39.3809C40.1194 3.31227 40.6915 3.51079 41.0971 3.90783C41.5069 4.3006 41.7118 4.85347 41.7118 5.56643C41.7118 6.28366 41.5069 6.84079 41.0971 7.23783C40.6915 7.6306 40.1194 7.82699 39.3809 7.82699H38.1129ZM39.3296 7.15458C40.367 7.15458 40.8858 6.6252 40.8858 5.56643C40.8858 4.51193 40.367 3.98468 39.3296 3.98468H38.5419V7.15458H39.3296Z" fill="white"/>
<path d="M46.5232 7.33389C46.5489 7.38939 46.5617 7.44489 46.5617 7.50039C46.5617 7.59858 46.5211 7.68183 46.44 7.75014C46.3631 7.81845 46.2735 7.8526 46.171 7.8526C46.1027 7.8526 46.0387 7.83552 45.9789 7.80137C45.9191 7.76295 45.8722 7.70531 45.838 7.62847L45.4538 6.77035H43.1996L42.8154 7.62847C42.7813 7.70531 42.7343 7.76295 42.6745 7.80137C42.6148 7.83552 42.5486 7.8526 42.476 7.8526C42.3778 7.8526 42.2882 7.81845 42.207 7.75014C42.1259 7.68183 42.0854 7.59858 42.0854 7.50039C42.0854 7.44489 42.0982 7.38939 42.1238 7.33389L43.8913 3.53641C43.9297 3.45102 43.9873 3.38699 44.0642 3.34429C44.1453 3.29733 44.2307 3.27385 44.3203 3.27385C44.41 3.27385 44.4932 3.29733 44.5701 3.34429C44.6512 3.38699 44.711 3.45102 44.7494 3.53641L46.5232 7.33389ZM43.4814 6.12997H45.172L44.3267 4.22802L43.4814 6.12997Z" fill="white"/>
<path d="M47.5811 7.82699C47.4573 7.82699 47.3591 7.79283 47.2865 7.72452C47.2182 7.65622 47.184 7.56016 47.184 7.43635V3.70291C47.184 3.5791 47.2182 3.48304 47.2865 3.41474C47.3591 3.34643 47.4573 3.31227 47.5811 3.31227H48.849C49.5876 3.31227 50.1597 3.51079 50.5653 3.90783C50.9751 4.3006 51.18 4.85347 51.18 5.56643C51.18 6.28366 50.9751 6.84079 50.5653 7.23783C50.1597 7.6306 49.5876 7.82699 48.849 7.82699H47.5811ZM48.7978 7.15458C49.8352 7.15458 50.3539 6.6252 50.3539 5.56643C50.3539 4.51193 49.8352 3.98468 48.7978 3.98468H48.0101V7.15458H48.7978Z" fill="white"/>
<path d="M52.409 7.82699C52.2852 7.82699 52.187 7.79283 52.1144 7.72452C52.0461 7.65622 52.0119 7.56016 52.0119 7.43635V3.70291C52.0119 3.5791 52.0461 3.48304 52.1144 3.41474C52.187 3.34643 52.2852 3.31227 52.409 3.31227H54.7208C54.8446 3.31227 54.9406 3.34002 55.0089 3.39552C55.0772 3.45102 55.1114 3.53 55.1114 3.63247C55.1114 3.7392 55.0772 3.82245 55.0089 3.88222C54.9406 3.93772 54.8446 3.96547 54.7208 3.96547H52.8188V5.20781H54.5927C54.7165 5.20781 54.8126 5.23556 54.8809 5.29106C54.9492 5.34656 54.9833 5.42768 54.9833 5.53441C54.9833 5.63687 54.9492 5.71585 54.8809 5.77135C54.8126 5.82685 54.7165 5.8546 54.5927 5.8546H52.8188V7.17379H54.7208C54.8446 7.17379 54.9406 7.20368 55.0089 7.26345C55.0772 7.31895 55.1114 7.40006 55.1114 7.50679C55.1114 7.60925 55.0772 7.68824 55.0089 7.74374C54.9406 7.79924 54.8446 7.82699 54.7208 7.82699H52.409Z" fill="white"/>
<path d="M32.0263 23.5718C32.5387 23.5718 32.7948 23.7895 32.7948 24.225C32.7948 24.6775 32.5387 24.9038 32.0263 24.9038H27.6973C27.1765 24.9038 26.9161 24.6775 26.9161 24.225C26.9161 23.7895 27.1765 23.5718 27.6973 23.5718H29.0293V17.7315L27.7998 18.4871C27.6803 18.5554 27.5735 18.5896 27.4796 18.5896C27.3003 18.5896 27.1466 18.5127 27.0185 18.359C26.899 18.2053 26.8392 18.0346 26.8392 17.8467C26.8392 17.5991 26.9502 17.407 27.1722 17.2704L29.1574 16.0408C29.4136 15.8871 29.6569 15.8103 29.8875 15.8103C30.1265 15.8103 30.3187 15.8829 30.4638 16.028C30.609 16.1732 30.6815 16.3738 30.6815 16.63V23.5718H32.0263Z" fill="url(#paint2_linear)"/>
<path d="M37.1316 25.019C36.0643 25.019 35.2489 24.6263 34.6853 23.8407C34.1218 23.0466 33.84 21.894 33.84 20.3826C33.84 18.8799 34.1218 17.7357 34.6853 16.9502C35.2489 16.1561 36.0643 15.7591 37.1316 15.7591C38.1989 15.7591 39.0143 16.1561 39.5779 16.9502C40.1414 17.7357 40.4232 18.8799 40.4232 20.3826C40.4232 21.8854 40.1414 23.0338 39.5779 23.8279C39.0143 24.622 38.1989 25.019 37.1316 25.019ZM37.1316 23.7255C37.7122 23.7255 38.1349 23.4608 38.3996 22.9314C38.6643 22.3935 38.7966 21.5439 38.7966 20.3826C38.7966 19.2129 38.6643 18.3676 38.3996 17.8467C38.1349 17.3173 37.7122 17.0526 37.1316 17.0526C36.551 17.0526 36.1283 17.3173 35.8637 17.8467C35.599 18.3761 35.4666 19.2214 35.4666 20.3826C35.4666 21.5439 35.599 22.3935 35.8637 22.9314C36.1283 23.4608 36.551 23.7255 37.1316 23.7255Z" fill="url(#paint3_linear)"/>
<path d="M44.8112 25.019C43.7439 25.019 42.9285 24.6263 42.365 23.8407C41.8014 23.0466 41.5196 21.894 41.5196 20.3826C41.5196 18.8799 41.8014 17.7357 42.365 16.9502C42.9285 16.1561 43.7439 15.7591 44.8112 15.7591C45.8785 15.7591 46.694 16.1561 47.2575 16.9502C47.821 17.7357 48.1028 18.8799 48.1028 20.3826C48.1028 21.8854 47.821 23.0338 47.2575 23.8279C46.694 24.622 45.8785 25.019 44.8112 25.019ZM44.8112 23.7255C45.3918 23.7255 45.8145 23.4608 46.0792 22.9314C46.3439 22.3935 46.4762 21.5439 46.4762 20.3826C46.4762 19.2129 46.3439 18.3676 46.0792 17.8467C45.8145 17.3173 45.3918 17.0526 44.8112 17.0526C44.2306 17.0526 43.808 17.3173 43.5433 17.8467C43.2786 18.3761 43.1462 19.2214 43.1462 20.3826C43.1462 21.5439 43.2786 22.3935 43.5433 22.9314C43.808 23.4608 44.2306 23.7255 44.8112 23.7255Z" fill="url(#paint4_linear)"/>
<path d="M52.9007 24.7245C52.8238 24.8611 52.7299 24.9635 52.6189 25.0318C52.5079 25.1001 52.3969 25.1343 52.2859 25.1343C52.1322 25.1343 51.9956 25.0788 51.8761 24.9678C51.7651 24.8568 51.7096 24.7159 51.7096 24.5451C51.7096 24.4 51.7523 24.2548 51.8376 24.1097L56.4996 16.0536C56.5765 15.917 56.6704 15.8146 56.7814 15.7463C56.8924 15.678 57.0034 15.6438 57.1144 15.6438C57.2681 15.6438 57.4005 15.6993 57.5115 15.8103C57.631 15.9213 57.6908 16.0622 57.6908 16.233C57.6908 16.3781 57.6481 16.5233 57.5627 16.6684L52.9007 24.7245ZM51.479 21.2664C50.7618 21.2664 50.2025 21.0316 49.8012 20.562C49.3999 20.0923 49.1993 19.405 49.1993 18.4999C49.1993 17.6034 49.3999 16.9203 49.8012 16.4507C50.2025 15.9811 50.7618 15.7463 51.479 15.7463C52.1963 15.7463 52.7555 15.9811 53.1568 16.4507C53.5667 16.9203 53.7716 17.6034 53.7716 18.4999C53.7716 19.405 53.5667 20.0923 53.1568 20.562C52.7555 21.0316 52.1963 21.2664 51.479 21.2664ZM51.479 20.229C51.8035 20.229 52.0383 20.0966 52.1835 19.8319C52.3371 19.5587 52.414 19.1147 52.414 18.4999C52.414 17.9022 52.3371 17.4668 52.1835 17.1935C52.0298 16.9203 51.795 16.7837 51.479 16.7837C51.1631 16.7837 50.9283 16.9203 50.7746 17.1935C50.6295 17.4582 50.5569 17.8937 50.5569 18.4999C50.5569 19.1147 50.6295 19.5587 50.7746 19.8319C50.9283 20.0966 51.1631 20.229 51.479 20.229ZM57.9213 24.9934C57.2041 24.9934 56.6448 24.7586 56.2435 24.289C55.8422 23.8194 55.6415 23.1278 55.6415 22.2141C55.6415 21.3176 55.8422 20.6388 56.2435 20.1777C56.6533 19.7081 57.2126 19.4733 57.9213 19.4733C58.6385 19.4733 59.1978 19.7081 59.5991 20.1777C60.0004 20.6473 60.2011 21.3304 60.2011 22.227C60.2011 23.132 60.0004 23.8194 59.5991 24.289C59.1978 24.7586 58.6385 24.9934 57.9213 24.9934ZM57.9213 23.956C58.2372 23.956 58.472 23.8236 58.6257 23.559C58.7794 23.2857 58.8563 22.8417 58.8563 22.227C58.8563 21.6293 58.7794 21.1938 58.6257 20.9206C58.472 20.6473 58.2372 20.5107 57.9213 20.5107C57.6054 20.5107 57.3706 20.6473 57.2169 20.9206C57.0632 21.1938 56.9863 21.6293 56.9863 22.227C56.9863 22.8417 57.0632 23.2857 57.2169 23.559C57.3706 23.8236 57.6054 23.956 57.9213 23.956Z" fill="url(#paint5_linear)"/>
<path d="M30.8627 32.7877C30.507 32.7877 30.1654 32.7355 29.8381 32.6311C29.5156 32.522 29.257 32.3773 29.0625 32.1971C28.9914 32.1307 28.9558 32.0477 28.9558 31.948C28.9558 31.8816 28.9748 31.8247 29.0127 31.7773C29.0507 31.7251 29.0957 31.699 29.1479 31.699C29.2096 31.699 29.276 31.7251 29.3472 31.7773C29.7883 32.1188 30.2911 32.2896 30.8556 32.2896C31.2636 32.2896 31.5766 32.2113 31.7948 32.0548C32.0131 31.8982 32.1222 31.6753 32.1222 31.3859C32.1222 31.2199 32.07 31.0871 31.9656 30.9875C31.8613 30.8831 31.7237 30.8001 31.5529 30.7384C31.3822 30.6768 31.1521 30.6127 30.8627 30.5463C30.4738 30.4562 30.1536 30.3613 29.9022 30.2617C29.6555 30.1621 29.4539 30.0198 29.2973 29.8348C29.1456 29.6498 29.0697 29.4079 29.0697 29.109C29.0697 28.8244 29.1456 28.573 29.2973 28.3548C29.4539 28.1318 29.6697 27.9611 29.9448 27.8425C30.2247 27.7191 30.5425 27.6575 30.8983 27.6575C31.2304 27.6575 31.5387 27.7097 31.8233 27.814C32.1127 27.9136 32.3546 28.0583 32.5491 28.248C32.625 28.3239 32.6629 28.407 32.6629 28.4971C32.6629 28.5635 32.644 28.6228 32.606 28.675C32.5681 28.7224 32.523 28.7461 32.4708 28.7461C32.4186 28.7461 32.3498 28.72 32.2645 28.6679C32.032 28.4781 31.8162 28.3453 31.617 28.2694C31.4177 28.1935 31.1782 28.1555 30.8983 28.1555C30.5046 28.1555 30.1986 28.2386 29.9804 28.4046C29.7622 28.5659 29.6531 28.7936 29.6531 29.0877C29.6531 29.3391 29.748 29.5288 29.9377 29.6569C30.1322 29.7802 30.4287 29.8893 30.8272 29.9842C31.2588 30.0886 31.598 30.1858 31.8447 30.2759C32.0913 30.3613 32.2953 30.4918 32.4566 30.6673C32.6226 30.8428 32.7056 31.0776 32.7056 31.3717C32.7056 31.6516 32.6273 31.8982 32.4708 32.1117C32.319 32.3252 32.1032 32.4912 31.8233 32.6098C31.5434 32.7284 31.2232 32.7877 30.8627 32.7877Z" fill="url(#paint6_linear)"/>
<path d="M33.9521 32.7307C33.862 32.7307 33.7885 32.7047 33.7316 32.6525C33.6794 32.6003 33.6533 32.5315 33.6533 32.4461V27.999C33.6533 27.9136 33.6794 27.8448 33.7316 27.7927C33.7885 27.7405 33.862 27.7144 33.9521 27.7144H36.6133C36.6987 27.7144 36.7651 27.7357 36.8125 27.7784C36.86 27.8211 36.8837 27.8804 36.8837 27.9563C36.8837 28.0322 36.86 28.0915 36.8125 28.1342C36.7651 28.1769 36.6987 28.1982 36.6133 28.1982H34.2296V29.9415H36.471C36.5564 29.9415 36.6228 29.9629 36.6702 30.0055C36.7177 30.0482 36.7414 30.1075 36.7414 30.1834C36.7414 30.2593 36.7177 30.3186 36.6702 30.3613C36.6228 30.404 36.5564 30.4254 36.471 30.4254H34.2296V32.2469H36.6133C36.6987 32.2469 36.7651 32.2682 36.8125 32.3109C36.86 32.3489 36.8837 32.4082 36.8837 32.4888C36.8837 32.5647 36.86 32.624 36.8125 32.6667C36.7651 32.7094 36.6987 32.7307 36.6133 32.7307H33.9521Z" fill="url(#paint7_linear)"/>
<path d="M41.4953 30.1194C41.5665 30.1194 41.6234 30.1407 41.6661 30.1834C41.7135 30.2261 41.7373 30.2854 41.7373 30.3613V32.133C41.7373 32.2469 41.7183 32.3323 41.6803 32.3892C41.6471 32.4461 41.5831 32.4912 41.4882 32.5244C41.2985 32.605 41.0684 32.6691 40.798 32.7165C40.5276 32.7639 40.2573 32.7877 39.9869 32.7877C39.4888 32.7877 39.0595 32.6857 38.699 32.4817C38.3385 32.2777 38.061 31.9836 37.8665 31.5994C37.6768 31.2152 37.5819 30.755 37.5819 30.219C37.5819 29.6925 37.6768 29.2371 37.8665 28.8529C38.0562 28.4686 38.329 28.1745 38.6848 27.9705C39.0405 27.7618 39.458 27.6575 39.9371 27.6575C40.2691 27.6575 40.5775 27.7097 40.8621 27.814C41.1467 27.9136 41.3862 28.0583 41.5807 28.248C41.6614 28.3287 41.7017 28.4117 41.7017 28.4971C41.7017 28.5635 41.6827 28.6228 41.6448 28.675C41.6068 28.7224 41.5594 28.7461 41.5025 28.7461C41.4455 28.7461 41.3791 28.7177 41.3032 28.6607C41.0566 28.471 40.8336 28.3405 40.6344 28.2694C40.4351 28.1935 40.2051 28.1555 39.9442 28.1555C39.3797 28.1555 38.9457 28.3334 38.6421 28.6892C38.3432 29.045 38.1938 29.5549 38.1938 30.219C38.1938 30.8973 38.3456 31.4144 38.6492 31.7702C38.9575 32.1212 39.4082 32.2967 40.0011 32.2967C40.4423 32.2967 40.8431 32.2303 41.2036 32.0975V30.5748H40.1648C40.0841 30.5748 40.0201 30.5534 39.9726 30.5107C39.9252 30.468 39.9015 30.4135 39.9015 30.3471C39.9015 30.2759 39.9252 30.2214 39.9726 30.1834C40.0201 30.1407 40.0841 30.1194 40.1648 30.1194H41.4953Z" fill="url(#paint8_linear)"/>
<path d="M44.8725 32.7877C44.2179 32.7877 43.7222 32.6169 43.3854 32.2754C43.0486 31.9338 42.8802 31.431 42.8802 30.7669V27.9777C42.8802 27.8875 42.9063 27.8164 42.9585 27.7642C43.0107 27.7073 43.0818 27.6788 43.172 27.6788C43.2573 27.6788 43.3261 27.7073 43.3783 27.7642C43.4305 27.8164 43.4566 27.8875 43.4566 27.9777V30.8167C43.4566 31.3053 43.5752 31.6729 43.8123 31.9196C44.0543 32.1663 44.4077 32.2896 44.8725 32.2896C45.3374 32.2896 45.6884 32.1663 45.9256 31.9196C46.1628 31.6729 46.2814 31.3053 46.2814 30.8167V27.9777C46.2814 27.8875 46.3075 27.8164 46.3597 27.7642C46.4166 27.7073 46.4877 27.6788 46.5731 27.6788C46.6632 27.6788 46.7344 27.7073 46.7866 27.7642C46.8388 27.8164 46.8648 27.8875 46.8648 27.9777V30.7669C46.8648 31.4263 46.6941 31.9291 46.3525 32.2754C46.0157 32.6169 45.5224 32.7877 44.8725 32.7877Z" fill="url(#paint9_linear)"/>
<path d="M51.8928 32.3679C51.926 32.42 51.9426 32.4746 51.9426 32.5315C51.9426 32.6027 51.9142 32.662 51.8572 32.7094C51.8051 32.7521 51.7434 32.7734 51.6722 32.7734C51.5631 32.7734 51.4777 32.726 51.4161 32.6311L50.4626 31.1227C50.3393 30.9282 50.2112 30.7954 50.0784 30.7242C49.9456 30.6483 49.7653 30.6104 49.5376 30.6104H48.6411V32.4675C48.6411 32.5576 48.615 32.6311 48.5628 32.688C48.5106 32.7402 48.4418 32.7663 48.3565 32.7663C48.2663 32.7663 48.1952 32.7402 48.143 32.688C48.0908 32.6311 48.0647 32.5576 48.0647 32.4675V27.999C48.0647 27.9136 48.0908 27.8448 48.143 27.7927C48.1999 27.7405 48.2734 27.7144 48.3636 27.7144H50.1282C50.6737 27.7144 51.0888 27.8354 51.3734 28.0773C51.6627 28.3192 51.8074 28.675 51.8074 29.1446C51.8074 29.543 51.6912 29.8632 51.4588 30.1052C51.2311 30.3471 50.9038 30.4941 50.4768 30.5463C50.5954 30.5843 50.7022 30.6459 50.797 30.7313C50.8919 30.8167 50.9868 30.9353 51.0817 31.0871L51.8928 32.3679ZM50.0784 30.1265C50.4674 30.1265 50.7567 30.0459 50.9465 29.8846C51.141 29.7233 51.2382 29.479 51.2382 29.1517C51.2382 28.8291 51.1433 28.5896 50.9536 28.433C50.7638 28.2765 50.4721 28.1982 50.0784 28.1982H48.6411V30.1265H50.0784Z" fill="url(#paint10_linear)"/>
<path d="M55.007 32.7877C54.5421 32.7877 54.1365 32.6833 53.7902 32.4746C53.4487 32.2659 53.1854 31.9694 53.0004 31.5852C52.8154 31.2009 52.7229 30.7479 52.7229 30.2261C52.7229 29.6996 52.813 29.2442 52.9933 28.86C53.1783 28.471 53.4416 28.1745 53.7831 27.9705C54.1294 27.7618 54.5373 27.6575 55.007 27.6575C55.4766 27.6575 55.8821 27.7618 56.2237 27.9705C56.57 28.1745 56.8332 28.471 57.0135 28.86C57.1985 29.2442 57.291 29.6972 57.291 30.219C57.291 30.7408 57.1985 31.1962 57.0135 31.5852C56.8285 31.9694 56.5629 32.2659 56.2166 32.4746C55.875 32.6833 55.4718 32.7877 55.007 32.7877ZM55.007 32.2896C55.5382 32.2896 55.9509 32.1117 56.245 31.7559C56.5439 31.3954 56.6933 30.8831 56.6933 30.219C56.6933 29.5549 56.5463 29.045 56.2521 28.6892C55.958 28.3334 55.543 28.1555 55.007 28.1555C54.4757 28.1555 54.0606 28.3358 53.7618 28.6963C53.4677 29.0521 53.3206 29.5597 53.3206 30.219C53.3206 30.8784 53.4677 31.3883 53.7618 31.7488C54.0606 32.1093 54.4757 32.2896 55.007 32.2896Z" fill="url(#paint11_linear)"/>
<defs>
<linearGradient id="paint0_linear" x1="0.846191" y1="0" x2="90.82" y2="53.447" gradientUnits="userSpaceOnUse">
<stop stop-color="#00A9E0"/>
<stop offset="0.507654" stop-color="#8C38B6"/>
<stop offset="1" stop-color="#EE2737"/>
</linearGradient>
<linearGradient id="paint1_linear" x1="7.25" y1="14.9424" x2="34.6073" y2="24.558" gradientUnits="userSpaceOnUse">
<stop stop-color="#00A9E0"/>
<stop offset="0.507654" stop-color="#8C38B6"/>
<stop offset="1" stop-color="#EE2737"/>
</linearGradient>
<linearGradient id="paint2_linear" x1="26.8392" y1="15.6438" x2="60.4484" y2="16.6202" gradientUnits="userSpaceOnUse">
<stop stop-color="#00A9E0"/>
<stop offset="0.515625" stop-color="#8C38B6"/>
<stop offset="1" stop-color="#EE2737"/>
</linearGradient>
<linearGradient id="paint3_linear" x1="26.8392" y1="15.6438" x2="60.4484" y2="16.6202" gradientUnits="userSpaceOnUse">
<stop stop-color="#00A9E0"/>
<stop offset="0.515625" stop-color="#8C38B6"/>
<stop offset="1" stop-color="#EE2737"/>
</linearGradient>
<linearGradient id="paint4_linear" x1="26.8392" y1="15.6438" x2="60.4484" y2="16.6202" gradientUnits="userSpaceOnUse">
<stop stop-color="#00A9E0"/>
<stop offset="0.515625" stop-color="#8C38B6"/>
<stop offset="1" stop-color="#EE2737"/>
</linearGradient>
<linearGradient id="paint5_linear" x1="26.8392" y1="15.6438" x2="60.4484" y2="16.6202" gradientUnits="userSpaceOnUse">
<stop stop-color="#00A9E0"/>
<stop offset="0.515625" stop-color="#8C38B6"/>
<stop offset="1" stop-color="#EE2737"/>
</linearGradient>
<linearGradient id="paint6_linear" x1="28.9558" y1="27.6575" x2="57.4658" y2="28.9588" gradientUnits="userSpaceOnUse">
<stop stop-color="#00A9E0"/>
<stop offset="0.515625" stop-color="#8C38B6"/>
<stop offset="1" stop-color="#EE2737"/>
</linearGradient>
<linearGradient id="paint7_linear" x1="28.9558" y1="27.6575" x2="57.4658" y2="28.9588" gradientUnits="userSpaceOnUse">
<stop stop-color="#00A9E0"/>
<stop offset="0.515625" stop-color="#8C38B6"/>
<stop offset="1" stop-color="#EE2737"/>
</linearGradient>
<linearGradient id="paint8_linear" x1="28.9558" y1="27.6575" x2="57.4658" y2="28.9588" gradientUnits="userSpaceOnUse">
<stop stop-color="#00A9E0"/>
<stop offset="0.515625" stop-color="#8C38B6"/>
<stop offset="1" stop-color="#EE2737"/>
</linearGradient>
<linearGradient id="paint9_linear" x1="28.9558" y1="27.6575" x2="57.4658" y2="28.9588" gradientUnits="userSpaceOnUse">
<stop stop-color="#00A9E0"/>
<stop offset="0.515625" stop-color="#8C38B6"/>
<stop offset="1" stop-color="#EE2737"/>
</linearGradient>
<linearGradient id="paint10_linear" x1="28.9558" y1="27.6575" x2="57.4658" y2="28.9588" gradientUnits="userSpaceOnUse">
<stop stop-color="#00A9E0"/>
<stop offset="0.515625" stop-color="#8C38B6"/>
<stop offset="1" stop-color="#EE2737"/>
</linearGradient>
<linearGradient id="paint11_linear" x1="28.9558" y1="27.6575" x2="57.4658" y2="28.9588" gradientUnits="userSpaceOnUse">
<stop stop-color="#00A9E0"/>
<stop offset="0.515625" stop-color="#8C38B6"/>
<stop offset="1" stop-color="#EE2737"/>
</linearGradient>
</defs>
</svg>
