<svg width="66" height="37" viewBox="0 0 66 37" fill="none" xmlns="http://www.w3.org/2000/svg">
<path fillRule="evenodd" clipRule="evenodd" d="M14.8604 17.0769C13.9874 17.0769 13.2689 17.6951 13.0965 18.5048H16.6247C16.451 17.6842 15.7198 17.0769 14.8604 17.0769ZM14.8604 14.2307C12.3874 14.2307 10.4121 16.1452 10.2253 18.5129C8.41404 18.6372 6.94226 20.1846 6.94226 22.023V28.6435C6.94226 30.6027 8.50124 32.1617 10.4604 32.1617H19.218C21.1772 32.1617 22.7361 30.6027 22.7361 28.6435V22.023C22.7361 20.1574 21.3226 18.6547 19.4959 18.5154C19.309 16.0913 17.2744 14.2307 14.8604 14.2307ZM10.4604 21.351C10.115 21.351 9.78841 21.6776 9.78841 22.023V28.6435C9.78841 29.0308 10.0731 29.3155 10.4604 29.3155H19.218C19.6053 29.3155 19.89 29.0308 19.89 28.6435V22.023C19.89 21.6357 19.6053 21.351 19.218 21.351H10.4604ZM16.2833 24.0342C16.2833 23.2483 15.6462 22.6111 14.8602 22.6111C14.0743 22.6111 13.4371 23.2483 13.4371 24.0342V26.4645C13.4371 27.2505 14.0743 27.8876 14.8602 27.8876C15.6462 27.8876 16.2833 27.2505 16.2833 26.4645V24.0342Z" fill="url(#paint0_linear)"/>
<path fillRule="evenodd" clipRule="evenodd" d="M0.538452 7.11539V7.82692V12.0962V29.8846C0.538452 33.8143 3.72412 37 7.65384 37H58.8846C62.8143 37 66 33.8143 66 29.8846V12.0962V7.82692V7.11538C66 3.18567 62.8143 0 58.8846 0H7.65384C3.72412 0 0.538452 3.18567 0.538452 7.11539ZM1.24999 29.8846V12.0962H65.2885V29.8846C65.2885 33.4214 62.4214 36.2885 58.8846 36.2885H7.65384C4.11709 36.2885 1.24999 33.4214 1.24999 29.8846ZM12.0764 8.4552C12.4009 8.55339 12.736 8.60249 13.0818 8.60249C13.4746 8.60249 13.8076 8.54272 14.0808 8.42318C14.3541 8.30364 14.5569 8.14355 14.6892 7.94289C14.8258 7.74224 14.8941 7.5181 14.8941 7.27049C14.8941 6.98018 14.8173 6.74964 14.6636 6.57887C14.5142 6.4081 14.3327 6.28216 14.1193 6.20105C13.9058 6.11566 13.6326 6.03455 13.2996 5.9577C13.0562 5.89793 12.8641 5.84457 12.7232 5.7976C12.5823 5.75064 12.4649 5.68661 12.371 5.60549C12.2813 5.52437 12.2365 5.41978 12.2365 5.2917C12.2365 5.10812 12.3155 4.96084 12.4735 4.84984C12.6357 4.73884 12.8812 4.68334 13.2099 4.68334C13.4106 4.68334 13.6176 4.71322 13.8311 4.77299C14.0445 4.83276 14.2495 4.92028 14.4459 5.03555L14.7084 4.38876C14.5163 4.26068 14.2879 4.16249 14.0232 4.09418C13.7585 4.02587 13.4895 3.99172 13.2163 3.99172C12.8235 3.99172 12.4905 4.05149 12.2173 4.17103C11.9484 4.29057 11.7456 4.4528 11.6089 4.65772C11.4766 4.85837 11.4104 5.08251 11.4104 5.33012C11.4104 5.6247 11.4851 5.85951 11.6346 6.03455C11.7883 6.20532 11.9697 6.33126 12.1789 6.41237C12.3924 6.49349 12.6699 6.5746 13.0114 6.65572C13.2547 6.71549 13.4469 6.76885 13.5877 6.81582C13.7286 6.86278 13.8439 6.92895 13.9335 7.01434C14.0275 7.09545 14.0744 7.20005 14.0744 7.32812C14.0744 7.50316 13.9912 7.64405 13.8247 7.75078C13.6624 7.85751 13.4148 7.91087 13.0818 7.91087C12.8129 7.91087 12.5439 7.86605 12.2749 7.77639C12.0103 7.68247 11.7861 7.56293 11.6025 7.41778L11.3144 8.06457C11.5022 8.2268 11.7562 8.35701 12.0764 8.4552ZM16.5521 4.05576H15.7196V8.53845H16.5521V4.05576ZM18.6739 4.76018H17.1882V4.05576H20.9921V4.76018H19.5064V8.53845H18.6739V4.76018ZM24.9789 8.53845V7.84043H22.4494V6.60449H24.6139V5.91928H22.4494V4.75378H24.8893V4.05576H21.6169V8.53845H24.9789ZM29.0664 8.60249C28.7206 8.60249 28.3855 8.55339 28.061 8.4552C27.7408 8.35701 27.4868 8.2268 27.299 8.06457L27.5871 7.41778C27.7707 7.56293 27.9949 7.68247 28.2595 7.77639C28.5285 7.86605 28.7975 7.91087 29.0664 7.91087C29.3994 7.91087 29.647 7.85751 29.8093 7.75078C29.9758 7.64405 30.059 7.50316 30.059 7.32812C30.059 7.20005 30.0121 7.09545 29.9181 7.01434C29.8285 6.92895 29.7132 6.86278 29.5723 6.81582C29.4315 6.76885 29.2393 6.71549 28.996 6.65572C28.6545 6.5746 28.377 6.49349 28.1635 6.41237C27.9543 6.33126 27.7729 6.20532 27.6192 6.03455C27.4697 5.85951 27.395 5.6247 27.395 5.33012C27.395 5.08251 27.4612 4.85837 27.5935 4.65772C27.7302 4.4528 27.933 4.29057 28.2019 4.17103C28.4751 4.05149 28.8081 3.99172 29.2009 3.99172C29.4741 3.99172 29.7431 4.02587 30.0078 4.09418C30.2725 4.16249 30.5009 4.26068 30.693 4.38876L30.4305 5.03555C30.2341 4.92028 30.0291 4.83276 29.8157 4.77299C29.6022 4.71322 29.3952 4.68334 29.1945 4.68334C28.8658 4.68334 28.6203 4.73884 28.4581 4.84984C28.3001 4.96084 28.2211 5.10812 28.2211 5.2917C28.2211 5.41978 28.266 5.52437 28.3556 5.60549C28.4495 5.68661 28.5669 5.75064 28.7078 5.7976C28.8487 5.84457 29.0408 5.89793 29.2842 5.9577C29.6172 6.03455 29.8904 6.11566 30.1039 6.20105C30.3173 6.28216 30.4988 6.4081 30.6482 6.57887C30.8019 6.74964 30.8787 6.98018 30.8787 7.27049C30.8787 7.5181 30.8104 7.74224 30.6738 7.94289C30.5415 8.14355 30.3387 8.30364 30.0654 8.42318C29.7922 8.54272 29.4592 8.60249 29.0664 8.60249ZM35.0662 8.53845V7.84043H32.5367V6.60449H34.7012V5.91928H32.5367V4.75378H34.9766V4.05576H31.7042V8.53845H35.0662ZM39.0366 6.24587H39.8242V8.03255C39.5937 8.21612 39.3247 8.35701 39.0174 8.4552C38.71 8.55339 38.3941 8.60249 38.0696 8.60249C37.6128 8.60249 37.2008 8.5043 36.8336 8.30791C36.4665 8.10726 36.1783 7.83189 35.9691 7.48182C35.7599 7.13174 35.6553 6.73684 35.6553 6.2971C35.6553 5.85737 35.7599 5.46247 35.9691 5.11239C36.1783 4.76232 36.4665 4.48909 36.8336 4.2927C37.2051 4.09205 37.6213 3.99172 38.0824 3.99172C38.4581 3.99172 38.7996 4.05362 39.107 4.17743C39.4144 4.30124 39.6727 4.48268 39.8819 4.72176L39.3568 5.23407C39.0152 4.89253 38.6032 4.72176 38.1208 4.72176C37.8049 4.72176 37.5231 4.78793 37.2755 4.92028C37.0322 5.05262 36.8401 5.23834 36.6992 5.47741C36.5626 5.71649 36.4942 5.98972 36.4942 6.2971C36.4942 6.59595 36.5626 6.86491 36.6992 7.10399C36.8401 7.34307 37.0322 7.53091 37.2755 7.66753C37.5231 7.80414 37.8028 7.87245 38.1144 7.87245C38.4645 7.87245 38.7719 7.7956 39.0366 7.64191V6.24587ZM41.4025 8.08378C41.7484 8.42959 42.2308 8.60249 42.8498 8.60249C43.4688 8.60249 43.9491 8.42959 44.2907 8.08378C44.6365 7.7337 44.8094 7.2342 44.8094 6.58528V4.05576H43.9897V6.55326C43.9897 7.43272 43.6119 7.87245 42.8562 7.87245C42.0963 7.87245 41.7163 7.43272 41.7163 6.55326V4.05576H40.8838V6.58528C40.8838 7.2342 41.0567 7.7337 41.4025 8.08378ZM48.9082 8.53845L47.9925 7.22566C47.9541 7.22993 47.8964 7.23207 47.8196 7.23207H46.8078V8.53845H45.9753V4.05576H47.8196C48.2081 4.05576 48.5454 4.1198 48.8314 4.24787C49.1217 4.37595 49.3437 4.55953 49.4974 4.7986C49.6511 5.03768 49.7279 5.32159 49.7279 5.65032C49.7279 5.98759 49.6447 6.27789 49.4782 6.52124C49.316 6.76459 49.0812 6.94603 48.7738 7.06557L49.8048 8.53845H48.9082ZM48.889 5.65032C48.889 5.36428 48.7951 5.14441 48.6073 4.99072C48.4194 4.83703 48.1441 4.76018 47.7812 4.76018H46.8078V6.54686H47.7812C48.1441 6.54686 48.4194 6.47001 48.6073 6.31632C48.7951 6.15835 48.889 5.93635 48.889 5.65032ZM51.5175 8.30791C51.8846 8.5043 52.2966 8.60249 52.7534 8.60249C53.2102 8.60249 53.6222 8.5043 53.9894 8.30791C54.3565 8.10726 54.6447 7.83189 54.8539 7.48182C55.0631 7.13174 55.1677 6.73684 55.1677 6.2971C55.1677 5.85737 55.0631 5.46247 54.8539 5.11239C54.6447 4.76232 54.3565 4.48909 53.9894 4.2927C53.6222 4.09205 53.2102 3.99172 52.7534 3.99172C52.2966 3.99172 51.8846 4.09205 51.5175 4.2927C51.1503 4.48909 50.8621 4.76445 50.6529 5.1188C50.4438 5.46887 50.3392 5.86164 50.3392 6.2971C50.3392 6.73257 50.4438 7.12747 50.6529 7.48182C50.8621 7.83189 51.1503 8.10726 51.5175 8.30791ZM53.5603 7.67393C53.3212 7.80628 53.0523 7.87245 52.7534 7.87245C52.4546 7.87245 52.1856 7.80628 51.9465 7.67393C51.7074 7.53732 51.5196 7.34947 51.383 7.11039C51.2464 6.86705 51.1781 6.59595 51.1781 6.2971C51.1781 5.99826 51.2464 5.7293 51.383 5.49022C51.5196 5.24687 51.7074 5.05903 51.9465 4.92668C52.1856 4.79007 52.4546 4.72176 52.7534 4.72176C53.0523 4.72176 53.3212 4.79007 53.5603 4.92668C53.7994 5.05903 53.9872 5.24687 54.1238 5.49022C54.2604 5.7293 54.3288 5.99826 54.3288 6.2971C54.3288 6.59595 54.2604 6.86705 54.1238 7.11039C53.9872 7.34947 53.7994 7.53732 53.5603 7.67393Z" fill="url(#paint1_linear)"/>
<path d="M32.0014 25.8034C31.1352 25.8034 30.2951 25.6886 29.4811 25.459C28.6776 25.2189 28.0305 24.9111 27.54 24.5354L28.401 22.6256C28.8706 22.97 29.4289 23.2466 30.076 23.4553C30.723 23.664 31.37 23.7684 32.017 23.7684C32.7371 23.7684 33.2693 23.664 33.6137 23.4553C33.9581 23.2361 34.1303 22.9491 34.1303 22.5943C34.1303 22.3334 34.0259 22.1195 33.8172 21.9525C33.6189 21.7751 33.3581 21.6342 33.0345 21.5299C32.7215 21.4255 32.2936 21.3107 31.7509 21.1855C30.9161 20.9872 30.2325 20.7889 29.7003 20.5906C29.168 20.3923 28.7089 20.074 28.3227 19.6357C27.947 19.1974 27.7592 18.613 27.7592 17.8825C27.7592 17.2459 27.9314 16.6719 28.2758 16.1606C28.6202 15.6388 29.1367 15.2266 29.8255 14.9239C30.5247 14.6213 31.3752 14.47 32.3771 14.47C33.0763 14.47 33.7598 14.5535 34.4277 14.7204C35.0956 14.8874 35.68 15.1274 36.181 15.4405L35.3983 17.3659C34.386 16.792 33.3737 16.505 32.3614 16.505C31.6518 16.505 31.1248 16.6198 30.7804 16.8494C30.4464 17.0789 30.2795 17.3816 30.2795 17.7573C30.2795 18.133 30.4725 18.4147 30.8587 18.6026C31.2552 18.78 31.8553 18.9574 32.6588 19.1348C33.4937 19.3331 34.1773 19.5314 34.7095 19.7297C35.2417 19.9279 35.6957 20.241 36.0714 20.6689C36.4575 21.0968 36.6506 21.676 36.6506 22.4065C36.6506 23.0326 36.4732 23.6066 36.1183 24.1284C35.774 24.6398 35.2522 25.0468 34.553 25.3494C33.8538 25.652 33.0032 25.8034 32.0014 25.8034Z" fill="url(#paint2_linear)"/>
<path d="M41.9838 25.8034C41.1176 25.8034 40.2775 25.6886 39.4635 25.459C38.6599 25.2189 38.0129 24.9111 37.5224 24.5354L38.3834 22.6256C38.853 22.97 39.4113 23.2466 40.0583 23.4553C40.7054 23.664 41.3524 23.7684 41.9994 23.7684C42.7195 23.7684 43.2517 23.664 43.5961 23.4553C43.9405 23.2361 44.1127 22.9491 44.1127 22.5943C44.1127 22.3334 44.0083 22.1195 43.7996 21.9525C43.6013 21.7751 43.3404 21.6342 43.0169 21.5299C42.7038 21.4255 42.276 21.3107 41.7333 21.1855C40.8984 20.9872 40.2149 20.7889 39.6827 20.5906C39.1504 20.3923 38.6912 20.074 38.3051 19.6357C37.9294 19.1974 37.7416 18.613 37.7416 17.8825C37.7416 17.2459 37.9138 16.6719 38.2582 16.1606C38.6025 15.6388 39.1191 15.2266 39.8079 14.9239C40.5071 14.6213 41.3576 14.47 42.3595 14.47C43.0587 14.47 43.7422 14.5535 44.4101 14.7204C45.078 14.8874 45.6624 15.1274 46.1633 15.4405L45.3807 17.3659C44.3684 16.792 43.3561 16.505 42.3438 16.505C41.6342 16.505 41.1072 16.6198 40.7628 16.8494C40.4288 17.0789 40.2618 17.3816 40.2618 17.7573C40.2618 18.133 40.4549 18.4147 40.841 18.6026C41.2376 18.78 41.8377 18.9574 42.6412 19.1348C43.4761 19.3331 44.1597 19.5314 44.6919 19.7297C45.2241 19.9279 45.6781 20.241 46.0538 20.6689C46.4399 21.0968 46.633 21.676 46.633 22.4065C46.633 23.0326 46.4556 23.6066 46.1007 24.1284C45.7563 24.6398 45.2346 25.0468 44.5353 25.3494C43.8361 25.652 42.9856 25.8034 41.9838 25.8034Z" fill="url(#paint3_linear)"/>
<path d="M48.3658 14.6578H50.9017V23.5492H56.3962V25.6155H48.3658V14.6578Z" fill="url(#paint4_linear)"/>
<path d="M30.3234 32.1736V32.7307H27.1022V32.2952L28.9273 30.5342C29.1493 30.3207 29.2988 30.1371 29.3756 29.9835C29.4525 29.8255 29.4909 29.6675 29.4909 29.5096C29.4909 29.2748 29.4076 29.0933 29.2411 28.9652C29.0789 28.8329 28.8441 28.7667 28.5367 28.7667C28.0415 28.7667 27.6594 28.929 27.3904 29.2534L26.955 28.8756C27.13 28.6621 27.3584 28.4956 27.6402 28.3761C27.9262 28.2565 28.2443 28.1968 28.5943 28.1968C29.064 28.1968 29.4375 28.3099 29.715 28.5362C29.9925 28.7582 30.1313 29.0613 30.1313 29.4455C30.1313 29.6846 30.08 29.9109 29.9776 30.1243C29.8751 30.3378 29.6809 30.5811 29.3948 30.8544L28.0244 32.1736H30.3234Z" fill="url(#paint5_linear)"/>
<path d="M32.1307 30.0347C32.771 30.0347 33.2407 30.1564 33.5395 30.3997C33.8426 30.6388 33.9942 30.9675 33.9942 31.3859C33.9942 31.6506 33.9301 31.8897 33.8021 32.1031C33.6783 32.3123 33.4883 32.4788 33.2321 32.6026C32.9802 32.7222 32.6686 32.7819 32.2972 32.7819C31.9812 32.7819 31.676 32.735 31.3814 32.641C31.0868 32.5429 30.8435 32.4084 30.6514 32.2376L30.946 31.7317C31.0996 31.8769 31.296 31.9943 31.5351 32.0839C31.7742 32.1693 32.0261 32.212 32.2908 32.212C32.628 32.212 32.8885 32.1415 33.072 32.0007C33.2599 31.8555 33.3538 31.6591 33.3538 31.4115C33.3538 31.1425 33.2513 30.9398 33.0464 30.8031C32.8415 30.6623 32.4914 30.5918 31.9962 30.5918H30.978L31.2149 28.248H33.7444V28.8051H31.7528L31.6312 30.0347H32.1307Z" fill="url(#paint6_linear)"/>
<path d="M36.4611 30.0091C36.7556 30.0091 37.0182 30.0646 37.2487 30.1756C37.4835 30.2866 37.6671 30.4467 37.7995 30.6559C37.9318 30.8608 37.998 31.0977 37.998 31.3667C37.998 31.6485 37.9275 31.8961 37.7867 32.1095C37.65 32.323 37.4601 32.4895 37.2167 32.609C36.9776 32.7243 36.7087 32.7819 36.4098 32.7819C35.8079 32.7819 35.3425 32.5877 35.0138 32.1992C34.6893 31.8107 34.5271 31.26 34.5271 30.547C34.5271 30.0475 34.6146 29.6227 34.7897 29.2726C34.969 28.9183 35.2166 28.6515 35.5325 28.4721C35.8527 28.2886 36.2241 28.1968 36.6468 28.1968C36.8645 28.1968 37.0694 28.2203 37.2615 28.2672C37.4537 28.3099 37.6202 28.374 37.761 28.4593L37.5177 28.9588C37.3042 28.818 37.0182 28.7475 36.6596 28.7475C36.1942 28.7475 35.8292 28.8927 35.5645 29.183C35.2998 29.469 35.1675 29.8874 35.1675 30.4381C35.1675 30.5064 35.1696 30.5598 35.1739 30.5982C35.302 30.4061 35.477 30.261 35.699 30.1628C35.9253 30.0603 36.1793 30.0091 36.4611 30.0091ZM36.3842 32.2632C36.6788 32.2632 36.9179 32.1842 37.1015 32.0263C37.285 31.8683 37.3768 31.657 37.3768 31.3923C37.3768 31.1276 37.2829 30.9184 37.095 30.7647C36.9115 30.6068 36.6639 30.5278 36.3522 30.5278C36.1515 30.5278 35.9722 30.5662 35.8143 30.643C35.6606 30.7199 35.5389 30.8245 35.4493 30.9568C35.3639 31.0892 35.3212 31.2365 35.3212 31.3987C35.3212 31.5567 35.3617 31.7018 35.4429 31.8342C35.5282 31.9622 35.6499 32.0668 35.8079 32.148C35.9701 32.2248 36.1622 32.2632 36.3842 32.2632Z" fill="url(#paint7_linear)"/>
<path d="M43.5805 30.4061C43.8409 30.4787 44.0458 30.611 44.1953 30.8031C44.3447 30.991 44.4194 31.2301 44.4194 31.5204C44.4194 31.9089 44.2721 32.2077 43.9775 32.4169C43.6872 32.6261 43.2624 32.7307 42.7032 32.7307H40.5643V28.248H42.5751C43.0874 28.248 43.4823 28.3505 43.7598 28.5554C44.0416 28.7603 44.1825 29.0442 44.1825 29.4071C44.1825 29.6419 44.127 29.8447 44.016 30.0155C43.9092 30.1862 43.7641 30.3165 43.5805 30.4061ZM41.2047 28.7667V30.2012H42.5175C42.8462 30.2012 43.0981 30.1414 43.2731 30.0219C43.4524 29.8981 43.5421 29.7188 43.5421 29.484C43.5421 29.2491 43.4524 29.072 43.2731 28.9524C43.0981 28.8286 42.8462 28.7667 42.5175 28.7667H41.2047ZM42.6776 32.212C43.0404 32.212 43.3137 32.1522 43.4972 32.0327C43.6808 31.9131 43.7726 31.7253 43.7726 31.4691C43.7726 30.9696 43.4076 30.7199 42.6776 30.7199H41.2047V32.212H42.6776Z" fill="url(#paint8_linear)"/>
<path d="M45.4109 28.248H46.0513V32.7307H45.4109V28.248Z" fill="url(#paint9_linear)"/>
<path d="M48.2835 28.8051H46.7466V28.248H50.4544V28.8051H48.9175V32.7307H48.2835V28.8051Z" fill="url(#paint10_linear)"/>
<path d="M52.402 32.7819C52.0647 32.7819 51.7381 32.7307 51.4222 32.6282C51.1105 32.5215 50.8651 32.3849 50.6858 32.2184L50.9227 31.7189C51.0935 31.8726 51.3112 31.9985 51.5759 32.0967C51.8449 32.1906 52.1202 32.2376 52.402 32.2376C52.7734 32.2376 53.0509 32.1757 53.2345 32.0519C53.4181 31.9238 53.5099 31.7552 53.5099 31.546C53.5099 31.3923 53.4586 31.2685 53.3562 31.1746C53.258 31.0764 53.1342 31.0017 52.9847 30.9504C52.8396 30.8992 52.6325 30.8416 52.3636 30.7775C52.0263 30.6964 51.7531 30.6153 51.5439 30.5342C51.339 30.4531 51.1618 30.3293 51.0124 30.1628C50.8672 29.992 50.7946 29.7636 50.7946 29.4775C50.7946 29.2385 50.8565 29.0229 50.9803 28.8308C51.1084 28.6386 51.3005 28.485 51.5567 28.3697C51.8128 28.2544 52.1309 28.1968 52.5109 28.1968C52.7756 28.1968 53.036 28.2309 53.2921 28.2992C53.5483 28.3675 53.7681 28.4657 53.9517 28.5938L53.7404 29.1061C53.5525 28.9866 53.3519 28.8969 53.1384 28.8372C52.925 28.7731 52.7158 28.7411 52.5109 28.7411C52.148 28.7411 51.8747 28.8073 51.6912 28.9396C51.5119 29.072 51.4222 29.2427 51.4222 29.4519C51.4222 29.6056 51.4734 29.7316 51.5759 29.8298C51.6784 29.9237 51.8043 29.9984 51.9537 30.0539C52.1074 30.1051 52.3145 30.1606 52.5749 30.2204C52.9122 30.3015 53.1833 30.3826 53.3882 30.4637C53.5931 30.5449 53.7681 30.6687 53.9133 30.8352C54.0627 31.0017 54.1374 31.2258 54.1374 31.5076C54.1374 31.7424 54.0734 31.958 53.9453 32.1544C53.8172 32.3465 53.623 32.5002 53.3626 32.6154C53.1021 32.7264 52.782 32.7819 52.402 32.7819Z" fill="url(#paint11_linear)"/>
<defs>
<linearGradient id="paint0_linear" x1="6.94226" y1="14.2307" x2="52.725" y2="35.5013" gradientUnits="userSpaceOnUse">
<stop stop-color="#00A9E0"/>
<stop offset="0.507654" stop-color="#8C38B6"/>
<stop offset="1" stop-color="#EE2737"/>
</linearGradient>
<linearGradient id="paint1_linear" x1="0.538452" y1="0" x2="90.5123" y2="53.447" gradientUnits="userSpaceOnUse">
<stop stop-color="#00A9E0"/>
<stop offset="0.507654" stop-color="#8C38B6"/>
<stop offset="1" stop-color="#EE2737"/>
</linearGradient>
<linearGradient id="paint2_linear" x1="27.54" y1="14.47" x2="56.6218" y2="15.0819" gradientUnits="userSpaceOnUse">
<stop stop-color="#00A9E0"/>
<stop offset="0.515625" stop-color="#8C38B6"/>
<stop offset="1" stop-color="#EE2737"/>
</linearGradient>
<linearGradient id="paint3_linear" x1="27.54" y1="14.47" x2="56.6218" y2="15.0819" gradientUnits="userSpaceOnUse">
<stop stop-color="#00A9E0"/>
<stop offset="0.515625" stop-color="#8C38B6"/>
<stop offset="1" stop-color="#EE2737"/>
</linearGradient>
<linearGradient id="paint4_linear" x1="27.54" y1="14.47" x2="56.6218" y2="15.0819" gradientUnits="userSpaceOnUse">
<stop stop-color="#00A9E0"/>
<stop offset="0.515625" stop-color="#8C38B6"/>
<stop offset="1" stop-color="#EE2737"/>
</linearGradient>
<linearGradient id="paint5_linear" x1="26.955" y1="28.1968" x2="54.2964" y2="29.5364" gradientUnits="userSpaceOnUse">
<stop stop-color="#00A9E0"/>
<stop offset="0.515625" stop-color="#8C38B6"/>
<stop offset="1" stop-color="#EE2737"/>
</linearGradient>
<linearGradient id="paint6_linear" x1="26.955" y1="28.1968" x2="54.2964" y2="29.5364" gradientUnits="userSpaceOnUse">
<stop stop-color="#00A9E0"/>
<stop offset="0.515625" stop-color="#8C38B6"/>
<stop offset="1" stop-color="#EE2737"/>
</linearGradient>
<linearGradient id="paint7_linear" x1="26.955" y1="28.1968" x2="54.2964" y2="29.5364" gradientUnits="userSpaceOnUse">
<stop stop-color="#00A9E0"/>
<stop offset="0.515625" stop-color="#8C38B6"/>
<stop offset="1" stop-color="#EE2737"/>
</linearGradient>
<linearGradient id="paint8_linear" x1="26.955" y1="28.1968" x2="54.2964" y2="29.5364" gradientUnits="userSpaceOnUse">
<stop stop-color="#00A9E0"/>
<stop offset="0.515625" stop-color="#8C38B6"/>
<stop offset="1" stop-color="#EE2737"/>
</linearGradient>
<linearGradient id="paint9_linear" x1="26.955" y1="28.1968" x2="54.2964" y2="29.5364" gradientUnits="userSpaceOnUse">
<stop stop-color="#00A9E0"/>
<stop offset="0.515625" stop-color="#8C38B6"/>
<stop offset="1" stop-color="#EE2737"/>
</linearGradient>
<linearGradient id="paint10_linear" x1="26.955" y1="28.1968" x2="54.2964" y2="29.5364" gradientUnits="userSpaceOnUse">
<stop stop-color="#00A9E0"/>
<stop offset="0.515625" stop-color="#8C38B6"/>
<stop offset="1" stop-color="#EE2737"/>
</linearGradient>
<linearGradient id="paint11_linear" x1="26.955" y1="28.1968" x2="54.2964" y2="29.5364" gradientUnits="userSpaceOnUse">
<stop stop-color="#00A9E0"/>
<stop offset="0.515625" stop-color="#8C38B6"/>
<stop offset="1" stop-color="#EE2737"/>
</linearGradient>
</defs>
</svg>
