<svg width="440" height="456" viewBox="0 0 440 456" fill="none" xmlns="http://www.w3.org/2000/svg">
<g clipPath="url(#clip0)">
<path opacity="0.46" d="M382.552 243.966C307.077 207.844 185.812 209.651 111.719 247.879C37.6254 286.409 39.006 346.912 114.48 383.034C189.954 419.156 311.219 417.35 385.083 379.121C459.406 340.591 458.026 280.088 382.552 243.966Z" fill="url(#paint0_linear)"/>
<path opacity="0.46" d="M376.794 252.23C306.734 216.412 194.284 217.917 125.696 256.143C57.1076 294.368 58.2851 354.266 128.051 390.083C198.111 425.901 310.56 424.095 379.149 386.171C447.737 348.246 446.559 288.048 376.794 252.23Z" fill="#95B1E9"/>
<path d="M277.582 189.924C234.604 169.457 165.427 170.661 123.037 192.031C92.7171 207.381 84.7691 229.354 98.3102 248.015C103.02 239.286 112.146 230.558 125.981 223.635C168.076 201.963 237.253 201.061 280.525 221.528C292.889 227.247 301.426 234.169 306.724 241.694C316.144 223.334 306.43 203.769 277.582 189.924Z" fill="#CE7436"/>
<path d="M341.461 305.203L339.989 229.655L62.6923 228.752L64.1642 307.611C63.2811 329.584 77.1165 351.255 105.67 367.508C160.423 398.51 248.146 397.005 301.721 364.198C328.214 347.944 341.167 327.176 341.167 306.407V305.805C341.461 305.805 341.461 305.504 341.461 305.203Z" fill="url(#paint1_linear)"/>
<path d="M298.191 170.962C243.732 139.96 155.716 141.766 102.14 174.574C48.5649 207.382 49.448 259.152 104.201 290.455C158.954 321.457 246.676 319.952 300.251 287.144C353.827 254.035 352.944 202.265 298.191 170.962Z" fill="#EFF3F9"/>
<path d="M277.587 189.924C234.609 169.457 165.432 170.661 123.337 192.031C88.0129 210.09 82.7142 236.878 106.853 257.045C111.562 260.958 117.744 264.87 124.809 268.181C167.787 288.649 236.964 287.445 279.354 266.074C285.535 262.763 290.834 259.453 295.249 255.841C320.271 234.47 314.384 207.381 277.587 189.924Z" fill="url(#paint2_linear)"/>
<path d="M199.87 310.019C271.241 310.019 329.098 250.861 329.098 177.885C329.098 104.909 271.241 45.75 199.87 45.75C128.499 45.75 70.6413 104.909 70.6413 177.885C70.6413 250.861 128.499 310.019 199.87 310.019Z" fill="url(#paint3_linear)"/>
<path d="M259.335 60.499C263.162 63.5089 267.577 66.2178 271.11 69.8297C334.105 134.844 298.192 216.713 271.11 242.297C236.963 273.901 203.11 278.416 186.92 277.814C165.431 277.814 145.413 272.095 126.868 261.259C118.92 254.939 110.678 248.618 102.73 242.297C88.0113 226.947 77.7083 209.188 72.1153 188.42C71.8209 185.41 71.2322 182.701 70.9378 179.691C71.8209 251.929 129.517 310.321 200.166 310.321C271.698 310.321 329.395 251.026 329.395 178.186C329.395 126.717 300.841 82.4713 259.335 60.499Z" fill="#445DCF"/>
<path d="M261.69 196.245C260.807 195.342 260.218 196.546 259.335 195.944C258.452 195.342 256.98 194.74 256.391 195.643C255.802 196.546 254.919 196.546 255.508 195.041C255.802 193.536 254.036 193.837 253.153 192.934C252.564 192.031 251.681 192.031 249.62 191.429C247.56 190.827 246.971 190.526 246.088 190.225C245.205 190.225 244.911 192.332 243.733 192.934C242.556 193.536 244.91 190.225 244.322 189.623C243.733 189.021 240.789 189.322 239.906 188.42C238.729 187.517 238.14 189.623 236.374 191.73C234.608 193.837 235.196 192.031 236.962 189.924C238.729 188.119 239.612 187.216 240.201 186.012C240.789 184.808 239.612 184.507 238.14 183.604C236.668 182.4 237.257 180.594 236.079 179.089C235.196 177.885 234.608 179.089 234.019 177.584C233.43 176.079 230.486 175.176 228.426 173.972C226.365 172.768 225.776 173.671 224.599 174.273C223.421 175.176 219.889 174.273 219.889 173.671C219.595 172.768 219.595 173.069 217.828 172.768C216.062 172.467 216.357 172.768 216.357 171.263C216.357 169.758 214.59 169.156 213.118 168.554C211.647 167.952 211.647 167.952 211.058 166.748C210.764 165.243 210.469 165.243 207.231 164.641C204.287 164.039 205.17 161.932 201.932 161.631C198.694 161.33 200.166 162.534 198.989 163.738C197.517 164.942 195.751 163.437 194.573 161.932C193.396 160.728 193.396 162.233 190.746 162.534C188.391 162.835 188.98 162.835 189.275 161.33C189.569 159.825 187.803 159.825 186.331 159.524C184.565 159.223 181.915 159.825 181.032 160.427C180.149 161.029 181.326 164.641 181.032 165.845C180.738 167.049 177.5 165.243 178.972 163.738C180.149 161.932 179.855 161.631 179.266 160.126C178.677 158.622 181.032 158.321 181.326 157.117C181.621 155.913 179.266 157.117 178.383 158.02C177.205 159.223 176.028 158.923 175.145 159.223C174.85 159.524 173.673 159.524 172.495 159.524C171.318 159.524 169.846 160.427 169.846 162.233C169.846 163.738 169.846 164.942 168.669 164.942C167.491 164.942 166.608 165.845 166.314 167.049C166.019 168.554 164.253 164.942 162.192 164.039C160.132 163.136 158.66 164.039 157.188 164.942C155.716 165.544 154.539 165.544 152.773 164.942C151.006 164.34 149.535 161.932 149.24 160.126C148.946 158.02 150.418 156.816 150.418 155.01C150.418 153.505 151.301 152.301 151.301 150.796C151.301 149.291 151.006 149.893 151.889 148.689C152.773 147.786 149.24 147.485 147.768 146.883C146.002 146.281 143.058 147.184 140.703 147.184C138.348 147.184 138.348 147.184 139.526 146.281C140.703 145.077 141.881 142.067 143.058 139.659C144.236 137.251 144.825 135.746 146.002 133.037C147.474 130.328 144.53 132.435 143.647 132.736C142.764 133.037 140.409 132.134 138.643 132.435C136.877 132.736 136.288 137.251 133.344 139.358C130.4 141.465 130.989 139.057 128.045 139.358C125.396 139.659 124.513 136.95 123.63 135.445C122.747 133.639 123.041 130.629 123.041 130.629C123.041 127.62 127.457 117.988 128.34 117.386C129.223 116.784 130.695 116.483 133.933 115.279C137.171 114.075 137.171 114.677 139.82 115.279C142.175 115.881 141.587 115.279 143.353 114.075C145.119 112.871 144.53 113.473 147.474 112.57C150.418 111.968 149.535 113.172 151.889 114.075C154.244 114.978 154.244 114.376 155.716 115.279C157.188 116.182 155.716 120.095 156.305 120.998C156.894 121.901 157.777 123.707 159.837 124.911C161.898 125.814 162.192 121.6 162.487 120.396C162.487 119.192 162.192 116.784 161.604 115.279C161.015 113.774 160.426 112.57 160.721 110.463C161.015 108.356 166.608 105.045 170.729 103.841C174.85 102.938 175.733 101.132 175.145 99.6274C174.556 98.4235 175.145 96.3166 175.145 95.4136C175.145 94.8116 175.145 94.2096 176.028 94.8116C176.617 95.1126 177.794 93.9086 179.266 93.3067C181.032 92.7047 180.443 91.1997 181.915 90.2968C183.387 89.6948 184.565 89.9958 186.625 89.6948C188.686 89.6948 184.27 86.0829 188.98 84.8789C193.396 83.675 195.162 84.5779 195.456 83.374C195.751 82.17 196.045 82.471 197.517 82.17C198.989 82.17 197.517 82.772 196.045 83.976C194.573 85.1799 196.634 86.0829 198.694 85.7819C200.755 85.1799 202.816 83.976 203.993 83.374C205.171 82.772 206.642 83.374 206.642 82.17C206.642 80.9661 204.287 80.9661 203.404 80.9661C202.227 80.9661 202.816 80.6651 201.638 80.3641C200.755 80.0631 200.755 79.4611 200.166 78.8591C199.283 78.2572 200.166 77.9562 200.166 77.3542C200.166 76.4512 201.049 77.0532 201.932 75.8492C202.816 74.9463 199.872 74.3443 197.811 74.6453C195.751 74.9463 193.396 75.5482 192.218 76.1502C191.041 76.7522 190.158 77.0532 190.452 76.4512C190.452 76.1502 192.807 74.6453 193.984 74.6453C195.162 74.6453 195.456 74.6453 196.339 74.0433C196.928 73.4413 196.634 72.8393 199.872 72.8393C203.11 72.8393 206.937 73.7423 208.997 72.2374C211.058 70.7324 211.647 71.0334 213.707 70.7324C216.062 70.1304 215.473 68.6255 215.473 68.0235C215.179 67.4215 214.002 67.1205 213.707 66.5185C213.413 66.2176 212.824 66.2175 212.235 66.2175C211.647 66.2175 212.53 65.9166 211.352 65.0136C210.175 63.8096 207.82 64.4116 207.231 63.8096C205.465 63.2077 205.171 63.2076 204.287 63.2076C203.404 63.2076 203.993 62.6057 204.287 62.0037C204.876 61.4017 201.344 59.8968 199.577 58.3918C197.811 56.8869 198.106 58.3918 197.811 59.2948C197.517 60.1978 195.751 60.1977 195.162 60.4987C194.573 60.7997 193.69 60.1977 193.101 59.5958C192.513 58.9938 192.513 58.3918 192.807 57.4888C193.101 56.5859 192.218 56.8869 191.335 57.4888C190.746 58.0908 189.274 56.2849 188.391 55.6829C187.508 55.0809 183.681 55.3819 182.798 55.3819C181.915 55.3819 181.326 55.6829 181.326 57.4888C181.326 58.9938 180.443 58.3918 179.855 59.8968C179.266 61.4017 181.326 61.4017 181.326 62.3047C181.326 63.2077 178.972 64.4116 176.911 64.7126C174.556 65.0136 175.145 69.5284 175.145 70.7324C175.145 71.9364 173.967 72.8393 172.79 72.8393C171.612 72.5383 171.024 69.2274 171.024 67.4215C171.318 65.6156 171.024 64.7126 169.552 65.0136C168.08 65.3146 167.491 64.7126 166.314 64.4116C165.136 63.8096 164.842 64.4116 163.959 62.9067C163.076 61.4017 161.015 62.0037 159.837 62.6057C158.954 63.2076 158.66 63.2076 159.249 61.7027C159.543 60.4987 158.66 60.7997 159.249 59.8968C159.837 58.6928 163.076 57.7898 165.136 57.1878C167.197 56.8869 167.491 56.5859 168.963 55.6829C170.435 55.0809 172.201 55.6829 172.79 55.0809C173.673 54.4789 175.145 53.576 175.733 53.275C176.322 52.974 177.205 53.576 178.088 52.974C178.972 52.673 181.326 52.673 181.915 52.071C182.504 51.469 181.032 50.8671 181.621 50.2651C182.21 49.6631 183.681 50.5661 184.859 50.8671C185.742 51.168 185.742 50.2651 186.036 49.6631C186.625 49.0611 186.625 50.2651 187.803 51.168C188.98 52.071 185.153 51.168 186.036 52.071C186.92 52.974 189.863 50.5661 190.746 51.469C191.335 52.071 184.565 53.275 183.387 53.877C182.21 54.1779 183.093 54.7799 185.448 54.7799C187.803 54.7799 189.274 55.3819 190.452 55.9839C191.629 56.5859 196.045 57.1878 196.928 56.2849C197.811 55.3819 193.396 55.3819 193.396 55.0809C193.396 54.4789 196.634 55.3819 197.517 54.7799C198.4 54.1779 196.339 54.1779 195.162 53.275C194.279 52.372 197.222 52.673 198.989 53.275C200.755 53.877 200.166 52.974 200.461 52.372C200.755 51.77 198.989 51.77 196.634 51.168C194.279 50.5661 195.751 50.5661 196.045 49.9641C196.339 49.3621 193.984 49.3621 192.218 49.0611C190.452 48.7601 190.452 48.4591 191.041 47.5562C191.629 46.6532 188.98 47.2552 187.803 47.8572C186.92 48.1581 186.625 48.4591 185.153 47.8572C183.387 47.2552 181.032 49.9641 180.738 49.0611C180.443 48.1581 179.266 48.7601 178.088 49.0611C176.911 49.3621 178.383 49.9641 178.972 50.8671C179.855 51.77 176.911 52.071 176.322 52.372C175.733 52.974 174.85 52.372 175.733 51.77C176.617 51.168 176.322 50.5661 175.145 50.5661C173.967 50.5661 172.495 52.071 171.907 52.071C171.318 52.071 171.907 51.469 171.907 50.5661C171.612 49.3621 169.846 52.071 168.963 52.673C168.08 53.275 166.314 52.673 164.842 53.275C163.37 53.877 161.309 53.877 160.426 53.576C159.543 53.275 160.426 52.974 162.487 52.372C164.547 51.77 162.192 51.469 160.132 52.372C158.071 53.275 158.071 53.275 158.071 54.1779C158.071 55.0809 156.894 54.7799 155.422 54.1779C154.244 53.576 153.361 55.6829 152.773 54.7799C152.478 54.1779 151.889 54.4789 151.889 54.4789C132.755 62.3047 116.859 76.1502 116.859 76.1502C113.327 78.8591 113.327 82.17 110.383 83.976C107.44 85.7819 105.379 91.1997 103.024 94.2096C100.669 97.2195 99.1972 104.142 100.08 106.55C100.963 108.958 98.9028 115.279 99.4915 116.784C100.08 118.59 98.0197 119.794 98.6084 121.6C99.1972 123.105 99.4915 124.309 99.1972 127.319C98.9028 130.328 102.73 131.231 103.907 129.726C104.79 128.522 102.141 116.182 102.73 114.978C103.318 113.774 103.907 115.58 103.613 117.386C103.318 119.192 105.379 124.61 106.262 127.62C107.145 130.629 105.968 133.94 106.262 138.455C106.556 142.97 120.392 147.786 122.158 148.388C123.924 148.99 124.219 145.679 125.985 146.281C127.751 146.883 130.989 151.699 133.344 152.301C135.699 152.903 135.405 153.806 137.171 154.107C138.937 154.107 139.82 158.02 141.587 158.321C143.353 158.922 142.47 158.622 142.175 159.524C141.881 160.427 142.175 162.233 144.236 163.136C146.002 164.039 145.119 165.845 146.885 167.651C148.651 169.156 150.123 168.554 152.184 169.457C154.244 170.36 154.833 172.467 157.188 170.059C159.249 167.651 158.954 167.651 161.015 169.156C163.37 170.661 161.898 176.079 161.309 179.089C161.015 182.4 156.011 183.303 155.128 185.711C154.244 188.42 153.656 195.342 152.184 196.847C150.712 198.352 152.773 201.362 152.773 206.78C153.067 211.897 160.426 218.218 164.253 223.936C168.08 229.655 179.855 232.966 181.621 237.782C183.387 242.598 181.032 257.647 181.326 259.152C181.621 260.958 181.032 264.269 181.621 266.376C182.21 268.784 180.149 274.202 179.56 274.503C179.266 274.804 179.266 274.804 179.266 275.406C179.266 275.707 178.972 275.707 178.383 276.008C177.794 276.309 179.266 279.018 179.266 279.62C179.56 280.221 179.266 280.522 178.677 281.124C177.794 281.726 178.088 282.629 178.383 283.231C178.383 283.833 178.677 284.736 177.794 285.639C176.911 286.542 176.911 287.445 178.088 287.445C179.266 287.746 179.266 286.241 179.855 284.736C180.443 283.231 180.738 285.037 180.443 286.241C180.149 287.445 180.149 289.251 180.149 290.455C180.149 291.659 178.972 290.154 178.677 289.552C178.383 288.95 177.794 290.455 177.205 291.057C176.617 291.659 174.85 291.358 174.85 291.659C174.85 292.261 176.617 292.261 177.205 291.96C177.794 291.659 178.088 291.659 178.677 291.96C179.266 292.261 178.383 292.562 178.383 292.863C178.383 293.164 178.383 293.465 177.5 293.465C176.617 293.465 176.617 294.368 177.205 294.669C177.794 294.97 177.5 294.669 178.088 295.572C178.677 296.174 178.677 296.776 178.383 297.077C178.088 297.679 179.266 298.281 180.149 298.281C181.032 298.281 180.738 298.883 180.443 299.485C180.149 300.087 179.56 300.388 183.681 302.194C187.803 304 193.984 303.398 195.162 302.796C196.339 302.194 191.335 299.485 190.158 297.98C188.98 296.475 194.868 294.97 196.045 293.465C197.222 291.96 193.984 291.057 196.339 289.853C198.4 288.95 200.461 287.144 200.461 285.338C200.461 283.532 202.521 284.134 203.993 282.629C205.465 281.124 202.816 280.522 206.054 280.522C208.997 280.522 214.885 276.911 216.062 276.61C217.24 276.008 216.062 274.804 214.885 272.697C213.707 270.59 214.296 271.493 217.534 272.095C220.772 272.998 220.772 271.493 224.01 268.483C227.248 265.473 226.071 264.871 228.426 263.366C230.781 261.861 229.309 263.667 227.837 265.774C226.66 267.881 235.196 267.881 237.551 258.851C239.906 249.822 249.915 248.618 252.564 241.394C255.213 234.17 273.17 223.936 275.525 208.887C278.469 194.439 262.573 196.847 261.69 196.245Z" fill="url(#paint4_linear)"/>
<path d="M174.556 55.9834C174.556 55.9834 173.085 55.6825 173.379 56.2844C173.673 56.8864 174.556 56.8864 174.851 56.5854C175.145 56.2844 175.734 56.2844 175.734 55.9834C175.439 55.9834 174.851 55.9834 174.556 55.9834Z" fill="url(#paint5_linear)"/>
<path d="M178.675 55.6822C178.381 55.3812 177.498 54.4783 176.32 55.3812C176.026 55.6822 175.437 56.2842 176.026 55.9832C176.615 55.9832 177.204 55.9832 177.792 55.9832C178.381 55.9832 179.264 55.9832 178.675 55.6822Z" fill="url(#paint6_linear)"/>
<path d="M179.856 55.0811C179.562 55.0811 179.562 55.0811 179.267 55.382C178.973 55.683 179.267 55.984 179.562 55.984C180.15 55.984 180.15 55.382 179.856 55.0811Z" fill="url(#paint7_linear)"/>
<path d="M179.559 56.5859C179.264 56.5859 178.97 57.1878 178.97 57.4888C178.97 57.7898 179.264 57.7898 179.853 57.7898C180.148 57.7898 180.736 57.7898 180.736 57.1878C180.148 56.5859 180.148 56.2849 179.559 56.5859Z" fill="url(#paint8_linear)"/>
<path d="M176.619 56.5854C176.324 56.5854 175.441 56.8864 175.441 57.1874C175.441 57.4884 175.736 57.7894 176.324 57.7894C176.913 57.7894 177.208 57.7894 177.502 57.4884C177.796 57.1874 178.091 57.1874 177.796 56.8864C177.502 56.2844 176.913 56.2844 176.619 56.5854Z" fill="url(#paint9_linear)"/>
<path d="M208.109 78.8588C207.815 77.9558 208.109 77.0529 207.52 76.7519C206.931 76.4509 207.226 76.7519 206.637 77.3539C206.048 77.6548 205.165 78.5578 205.165 78.8588C205.165 79.1598 206.343 80.0628 206.343 80.3637C206.637 80.6647 206.637 80.0628 206.931 80.0628C207.226 80.3637 207.226 80.6647 207.815 80.6647C208.698 80.3637 208.992 80.3637 208.698 79.7618C208.698 79.4608 208.403 80.0628 208.109 78.8588Z" fill="url(#paint10_linear)"/>
<path d="M219.589 73.742C218.411 73.14 216.645 73.14 215.762 73.14C214.879 73.14 213.113 73.14 213.701 72.538C214.29 71.635 215.762 69.8291 214.879 69.8291C213.996 69.8291 213.113 70.7321 211.935 70.7321C211.052 70.7321 211.641 71.936 211.052 72.538C210.463 73.14 210.463 74.344 210.169 74.6449C209.58 74.9459 208.403 74.9459 208.403 75.5479C208.403 76.1499 210.169 75.2469 209.875 75.8489C209.58 76.4509 208.108 76.7519 208.403 77.0529C208.697 77.3539 210.169 77.3539 211.641 77.0529C213.113 76.7519 213.407 77.0529 213.701 77.3539C213.996 77.6549 214.585 77.6548 215.173 77.6548C215.762 77.6548 216.645 77.0529 216.056 77.6548C215.468 77.9558 214.585 78.5578 214.879 78.8588C215.173 79.1598 215.468 79.7618 216.056 79.1598C216.939 78.5578 218.411 78.2568 218.706 77.6548C219 77.0529 220.178 76.7519 219.589 76.1499C219 75.5479 219 75.2469 219.589 74.9459C220.178 74.6449 220.766 74.344 219.589 73.742Z" fill="url(#paint11_linear)"/>
<path d="M221.06 76.7523C220.177 76.4513 219.589 77.6553 219 77.9563C218.706 78.5583 219.294 78.5583 219.589 79.1603C219.589 79.7622 221.06 79.4612 221.649 79.1603C222.238 78.8593 222.238 77.0533 222.532 76.4513C222.827 75.8493 221.355 77.0533 221.06 76.7523Z" fill="url(#paint12_linear)"/>
<path d="M174.848 135.445C174.259 135.144 172.493 133.037 171.021 132.736C169.255 132.736 168.666 131.231 166.606 130.629C164.545 130.027 163.367 128.522 161.601 128.522C159.835 128.221 156.597 127.619 153.359 128.221C150.121 128.522 151.004 128.823 148.943 130.027C146.588 131.532 148.06 132.736 148.943 133.037C149.826 133.338 154.242 131.532 156.597 132.134C158.952 132.736 161.012 133.338 162.19 133.338C163.367 133.338 163.367 135.144 164.545 135.746C165.722 136.348 164.545 137.853 165.134 137.853C165.722 137.552 171.315 138.154 174.554 137.853C177.792 137.251 175.437 135.746 174.848 135.445Z" fill="url(#paint13_linear)"/>
<path d="M186.029 138.154C184.557 137.251 181.908 136.95 180.73 136.649C178.964 136.348 177.198 137.853 177.198 139.057C177.198 140.261 173.96 140.261 172.782 140.261C171.605 140.562 172.488 142.067 174.548 142.368C176.609 142.669 179.258 142.669 180.436 143.873C181.319 145.077 182.791 142.97 184.262 142.368C185.734 141.766 186.617 141.766 188.384 142.368C190.15 142.97 189.561 142.067 190.15 140.863C190.444 139.659 187.501 139.057 186.029 138.154Z" fill="url(#paint14_linear)"/>
<path d="M194.571 141.465C193.688 141.465 192.511 141.465 191.922 142.067C191.333 142.669 193.1 143.572 193.983 143.572C195.16 143.873 195.16 144.174 196.043 143.873C196.926 143.572 197.515 143.271 198.104 142.669C198.398 142.368 196.338 141.465 194.571 141.465Z" fill="url(#paint15_linear)"/>
<path d="M165.727 122.503C163.372 121.901 163.667 124.008 164.255 125.513C164.844 127.018 165.433 127.319 167.199 127.319C168.965 127.319 168.082 124.61 167.788 124.008C167.493 122.804 166.61 122.503 165.727 122.503Z" fill="url(#paint16_linear)"/>
<path d="M226.361 49.3618C222.829 48.7598 219.885 48.1578 213.998 46.9539C207.816 46.0509 204.283 46.3519 202.223 46.3519C200.162 46.6529 198.102 46.6529 197.219 46.6529C195.747 46.6529 193.981 46.6529 192.509 46.9539C191.037 47.2548 193.686 47.8568 195.747 48.1578C198.102 48.7598 200.751 47.8568 203.695 47.8568C206.638 47.8568 206.933 49.3618 208.699 49.6628C210.465 50.2647 208.405 50.5657 209.582 50.8667C210.76 51.1677 209.877 51.4687 210.76 51.7697C211.643 52.3717 212.231 53.5756 216.647 55.9836C221.063 58.3915 221.063 57.4885 223.418 58.0905C225.773 58.6925 227.833 59.5954 229.599 59.8964C231.66 60.1974 229.599 55.6826 229.305 54.4786C229.011 52.9737 232.837 54.1776 232.543 52.9737C232.249 51.7697 234.309 52.9737 236.075 52.0707C237.842 51.1677 230.188 49.9638 226.361 49.3618Z" fill="url(#paint17_linear)"/>
<path d="M245.494 54.7802C244.022 54.1782 240.49 52.9743 240.49 54.1782C240.49 55.3822 240.784 56.2852 241.667 56.5862C245.2 57.1881 247.26 57.4891 246.966 56.8871C247.26 56.2852 246.966 55.3822 245.494 54.7802Z" fill="url(#paint18_linear)"/>
<path d="M272.572 69.8297C269.629 69.8297 265.213 68.6257 267.862 71.9366C269.923 74.3445 271.1 75.5485 272.867 76.4514C274.633 77.0534 276.988 77.6554 276.399 74.9465C275.516 71.9366 275.81 69.8297 272.572 69.8297Z" fill="url(#paint19_linear)"/>
<path d="M298.776 96.3167C296.716 93.0058 297.01 90.2969 294.655 88.792C292.3 87.287 275.816 68.3246 281.114 79.4613C281.997 80.9662 288.768 86.0831 287.002 86.3841C284.941 86.685 284.352 87.588 286.413 89.9959C288.473 92.4039 291.123 93.0058 291.712 96.3167C292.3 99.3266 293.772 100.832 295.833 101.735C297.893 102.638 297.305 101.133 298.482 102.036C299.66 102.939 300.248 103.54 300.248 101.434C299.954 99.0256 300.543 99.6276 298.776 96.3167Z" fill="url(#paint20_linear)"/>
<path d="M306.137 103.54C297.011 92.4031 303.193 103.841 300.544 103.841C297.894 103.54 297.894 103.54 297.894 104.744C297.6 107.754 299.366 112.268 299.072 114.977C298.777 117.686 298.483 119.793 298.483 120.094C298.778 120.395 298.483 120.395 301.427 121.298C304.665 122.201 304.959 123.104 303.193 123.104C301.427 122.803 300.249 122.201 300.838 124.007C301.427 125.813 300.249 126.716 300.249 128.221C300.544 129.726 303.487 132.435 300.838 132.435C298.483 132.435 296.423 131.532 297.6 136.649C298.777 141.465 299.661 145.979 299.661 148.989C299.661 151.999 302.016 157.718 305.548 164.039C309.08 170.36 312.024 176.981 315.557 175.175C319.089 173.369 319.678 170.36 321.738 173.068C323.799 175.777 326.743 177.583 327.037 172.767C327.331 167.952 328.509 163.136 325.86 151.096C323.505 138.756 315.262 114.676 306.137 103.54Z" fill="url(#paint21_linear)"/>
<path d="M209.295 297.377C208.118 297.678 207.823 297.377 206.646 297.678C206.057 297.678 204.879 297.377 204.291 296.775C203.702 296.173 203.702 297.377 203.702 297.979C203.702 298.581 203.113 298.882 202.524 298.882C201.936 298.882 203.113 300.387 203.702 300.086C204.291 300.086 205.468 299.785 205.468 300.086C205.468 300.387 206.351 300.387 206.646 300.387C206.94 300.086 209.884 299.484 211.356 299.785C212.533 299.785 211.356 298.581 212.239 298.28C213.122 297.377 210.472 297.076 209.295 297.377Z" fill="url(#paint22_linear)"/>
<path d="M241.666 298.582C240.488 298.281 239.605 298.582 239.605 298.582C238.428 298.582 238.428 299.786 238.722 300.087C239.017 300.689 240.194 301.291 240.783 301.291C241.372 301.291 243.432 300.689 242.843 299.786C242.255 299.485 242.843 298.883 241.666 298.582Z" fill="url(#paint23_linear)"/>
<path d="M289.066 143.271C288.478 143.571 287.594 144.173 288.183 144.775C288.478 145.377 289.361 145.678 289.655 145.076C289.949 144.173 289.361 143.271 289.066 143.271Z" fill="url(#paint24_linear)"/>
<path d="M288.77 147.484C289.064 148.387 289.653 148.688 289.947 148.387C290.242 148.086 290.83 147.484 290.242 147.183C289.947 146.882 288.77 147.183 288.77 147.484Z" fill="url(#paint25_linear)"/>
<path d="M291.423 147.484C291.423 147.785 290.54 148.688 291.129 148.989C292.012 149.591 292.012 148.989 292.306 148.086C292.306 147.484 291.718 147.183 291.423 147.484Z" fill="url(#paint26_linear)"/>
<path d="M292.594 147.184C292.594 147.485 292.889 148.087 293.183 148.087C293.478 148.087 293.772 147.786 293.478 147.184C293.478 147.184 292.889 146.883 292.594 147.184Z" fill="url(#paint27_linear)"/>
<path d="M292.599 145.077C292.305 145.077 292.305 145.378 292.305 145.679C292.305 145.98 292.894 146.582 293.188 145.98C293.777 145.679 292.894 145.077 292.599 145.077Z" fill="url(#paint28_linear)"/>
<path d="M292.31 143.873C292.016 143.873 291.427 144.174 291.722 144.776C292.016 145.077 292.605 145.077 292.899 145.077C293.193 144.776 293.193 144.475 293.193 144.475C292.899 143.873 292.31 143.572 292.31 143.873Z" fill="url(#paint29_linear)"/>
<path d="M290.531 144.775C290.237 145.076 289.648 144.775 290.237 145.678C290.826 146.28 291.12 146.882 291.414 146.28C291.709 145.678 292.003 145.377 291.709 145.377C291.414 145.076 290.826 144.474 290.531 144.775Z" fill="url(#paint30_linear)"/>
<path opacity="0.52" d="M198.695 0.300781C100.081 0.300781 20.0126 86.9859 20.0126 193.536C20.0126 300.087 100.081 386.772 198.695 386.772C297.309 386.772 377.378 300.388 377.378 193.536C377.378 86.9859 297.604 0.300781 198.695 0.300781Z" fill="url(#paint31_linear)"/>
<g opacity="0.55">
<path opacity="0.55" d="M320.27 89.0929C314.088 77.6553 307.023 67.1207 298.781 57.188C290.538 47.5563 281.119 38.5266 270.521 31.0019C269.344 30.0989 267.872 29.4969 266.695 28.5939C265.223 27.691 264.045 26.788 262.573 25.885L258.452 23.4771C257.863 23.1761 256.98 22.5741 256.392 22.2731L254.331 21.0692L250.21 18.9622C248.738 18.3603 247.266 17.7583 245.794 17.1563C242.851 15.6514 239.907 14.7484 236.963 13.8454C224.6 9.63155 211.942 7.52462 199.284 7.22363C186.626 7.22363 173.968 9.33056 161.604 13.2434C149.535 17.1563 138.055 23.1761 127.457 30.3999C116.86 37.9246 107.44 46.6533 98.9034 56.285C90.3667 65.9167 83.0075 76.7523 76.8257 88.19C70.6439 99.3266 65.6396 111.065 61.5184 123.406C57.3972 135.746 54.4535 148.388 52.3929 161.331C50.3323 174.273 49.4492 187.216 49.7436 200.158C49.7436 213.101 50.9211 226.043 53.2761 238.986L56.2198 238.384C53.8648 225.742 52.6873 212.8 52.6873 200.158C52.6873 187.216 53.2761 174.574 55.3366 161.632C57.1029 148.99 60.0466 136.348 64.1678 124.309C67.9946 112.269 73.2932 100.23 79.475 89.0929C85.6568 77.9563 92.7217 67.1207 100.964 57.489C109.206 47.8573 118.626 39.1286 128.929 31.9048C139.232 24.6811 150.713 18.9622 162.487 14.7484C174.557 10.8355 186.92 8.72858 199.578 8.72858C212.236 8.72858 224.6 10.8355 236.669 14.7484C239.612 15.9523 242.556 16.8553 245.5 18.0593C246.972 18.6613 248.444 19.2632 249.915 19.8652L254.037 21.9721L256.097 23.1761C256.686 23.4771 257.569 24.0791 258.158 24.3801L261.985 27.089C263.456 27.9919 264.634 28.8949 266.106 29.7979C267.283 30.7009 268.755 31.6038 269.933 32.5068C280.236 39.7306 289.655 48.4593 297.898 58.091C306.14 67.7226 313.499 78.5583 319.681 89.6949C332.045 112.269 339.993 137.251 343.82 162.836C345.586 175.477 346.469 188.42 346.469 201.362C346.174 214.305 344.997 227.247 342.936 239.889C345.291 227.247 346.469 214.305 346.763 201.362C346.763 188.42 346.174 175.477 344.408 162.836C340.287 136.95 332.633 111.667 320.27 89.0929Z" fill="white"/>
</g>
<g opacity="0.55">
<path opacity="0.55" d="M247.268 105.346C245.207 92.7044 242.558 80.3638 239.32 68.0232C237.553 62.0034 235.787 55.9836 233.727 49.9638C231.666 43.944 229.311 38.2252 226.367 32.5064C223.424 26.7875 220.185 21.3697 216.064 16.5539C214.004 14.146 211.649 12.039 208.705 10.2331C206.056 8.42715 202.818 7.22319 199.58 7.22319C196.341 6.9222 193.103 8.12616 190.16 9.63111C187.216 11.1361 184.861 13.243 182.8 15.6509C178.385 20.4668 175.147 25.8846 172.203 31.3024C166.61 42.74 162.489 54.7796 159.251 66.8192C156.013 79.1598 153.363 91.5004 151.303 103.841C149.242 116.483 147.77 128.823 146.593 141.465C144.238 166.748 143.355 192.031 143.944 217.314C144.532 242.597 146.299 267.881 149.831 292.863C146.593 267.881 144.827 242.597 144.532 217.314C144.238 192.031 145.121 166.748 147.476 141.465C148.654 128.823 150.42 116.182 152.48 103.841C154.541 91.5004 157.19 78.8588 160.428 66.8192C163.666 54.7796 167.788 42.74 173.675 31.6034C176.619 26.1856 179.857 20.7677 183.978 16.2529C186.039 14.146 188.393 12.039 191.043 10.5341C193.692 9.02913 196.636 8.42715 199.58 8.42715C202.523 8.42715 205.467 9.63111 207.822 11.1361C210.471 12.641 212.532 14.7479 214.592 17.1559C218.714 21.6707 221.952 27.0885 224.601 32.8073C227.25 38.5262 229.605 44.245 231.666 50.2648C233.726 56.2846 235.493 62.3044 237.259 68.3242C240.497 80.3638 242.852 93.0054 244.913 105.346C246.973 117.687 248.445 130.328 249.622 142.97C251.977 168.253 252.566 193.536 251.977 218.819C251.389 244.102 249.622 269.386 246.09 294.368L249.328 294.97C252.861 269.687 254.627 244.403 254.921 219.12C255.216 193.837 254.332 168.253 251.977 143.271C250.8 130.328 249.328 117.988 247.268 105.346Z" fill="white"/>
</g>
<g opacity="0.55">
<path opacity="0.55" d="M371.198 146.882L370.903 148.688C370.609 149.892 370.609 151.096 370.315 151.999L369.432 155.31C369.137 155.912 369.137 156.514 369.137 156.815L368.548 158.32C368.254 159.524 367.96 160.427 367.371 161.631C366.488 163.738 365.605 165.845 364.427 167.952C363.838 168.855 363.544 170.059 362.955 170.962L361.189 173.972C360.895 174.574 360.6 174.875 360.306 175.477L359.423 176.981L357.362 179.69L355.302 182.399C354.713 183.302 353.83 184.205 353.241 185.108C351.769 186.613 350.297 188.419 348.531 189.924C342.055 196.245 334.99 201.663 327.337 206.478C319.683 211.294 311.735 215.207 303.493 218.819C287.008 225.742 269.934 230.859 252.272 233.869C243.441 235.374 234.61 236.577 225.779 237.48C216.948 238.082 208.117 238.684 198.991 238.684C190.16 238.684 181.035 238.383 172.203 237.48C163.372 236.577 154.541 235.374 145.71 233.869C136.879 232.364 128.342 230.257 119.806 227.849C111.269 225.441 102.732 222.431 94.4897 218.819C86.2473 215.207 78.2993 211.294 70.6457 206.478C62.9921 201.663 55.9272 196.245 49.451 189.924C47.6848 188.419 46.213 186.613 44.7411 185.108C43.858 184.205 43.2693 183.302 42.6805 182.399L40.6199 179.69L38.5594 176.981L37.6762 175.477C37.3819 174.875 37.0875 174.574 36.7931 173.972L35.0269 170.962C34.4382 170.059 33.8494 168.855 33.5551 167.952C32.3776 165.845 31.7888 163.738 30.6114 161.631C30.317 160.728 30.0226 159.524 29.4339 158.32L28.8451 156.815C28.5508 156.213 28.5508 155.611 28.5508 155.31L27.6677 151.999C27.3733 150.795 27.3733 149.892 27.0789 148.688L26.7845 146.882C26.7845 146.28 26.7845 145.679 26.7845 145.077L26.4902 141.766V145.077C26.4902 145.679 26.4902 146.28 26.4902 146.882L26.7845 148.688C26.7845 149.892 27.0789 151.096 27.0789 151.999L27.6677 155.31C27.962 156.514 28.2564 157.417 28.5508 158.621C28.8451 159.825 29.1395 160.728 29.4339 161.932C30.317 164.039 30.9057 166.146 32.0832 168.253C32.6719 169.156 32.9663 170.36 33.5551 171.263L35.3213 174.273C35.6157 174.875 35.91 175.176 36.2044 175.778L37.0875 177.282L39.1481 179.991L41.2087 182.7C41.7974 183.603 42.6805 184.506 43.2693 185.409C44.7411 187.215 46.213 189.021 47.9792 190.526C54.4553 197.148 61.5202 202.566 69.1739 207.682C76.8275 212.498 84.7755 216.712 93.0179 220.625C101.26 224.237 109.797 227.548 118.334 229.956C126.87 232.665 135.702 234.772 144.533 236.276C153.364 237.781 162.195 239.286 171.32 239.888C180.151 240.791 189.277 241.092 198.402 241.092C207.528 241.092 216.359 240.49 225.484 239.888C234.316 238.985 243.441 237.781 252.272 236.276C261.103 234.772 269.934 232.364 278.471 229.956C287.008 227.247 295.545 224.237 303.787 220.625C312.029 217.013 319.977 212.799 327.631 207.682C335.285 202.867 342.349 197.148 348.826 190.526C350.592 189.021 352.064 187.215 353.536 185.409C354.419 184.506 355.007 183.603 355.596 182.7L357.657 179.991L359.717 177.282L360.6 175.778C360.895 175.176 361.189 174.875 361.484 174.273L363.25 171.263C363.838 170.36 364.133 169.156 364.722 168.253C365.899 166.146 366.488 164.039 367.371 161.932C367.665 160.728 367.96 159.825 368.254 158.621C368.548 157.417 368.843 156.514 369.137 155.31L369.726 151.999C370.02 150.795 370.02 149.591 370.02 148.688L371.198 146.882C371.492 146.28 371.492 145.679 371.492 145.077V141.766L371.198 145.077C371.198 145.979 371.198 146.581 371.198 146.882Z" fill="white"/>
</g>
<g opacity="0.55">
<path opacity="0.55" d="M322.334 80.6651C318.507 85.7819 313.797 90.2968 308.793 94.2096C303.494 98.1225 298.195 101.132 292.308 103.841C286.421 106.55 280.533 108.958 274.646 111.065C262.577 114.978 249.919 117.687 237.261 119.493C231.079 120.396 224.603 120.998 218.127 121.6C211.65 121.901 205.469 122.202 198.993 122.202C192.516 122.202 186.335 121.901 179.858 121.6C173.382 120.998 167.201 120.396 160.724 119.493C148.067 117.687 135.703 114.978 123.339 111.065C117.158 108.958 111.27 106.851 105.677 103.841C99.7898 101.132 94.1968 97.8215 89.1925 94.2096C83.8938 90.5977 79.1839 86.0829 75.6514 80.6651C73.8852 77.9562 72.4134 75.2473 71.2359 71.9364C70.0584 68.9265 69.4697 65.6156 69.4697 62.3047C69.4697 65.6156 70.0584 68.9265 70.9415 71.9364C71.8246 74.9463 73.5908 77.9562 75.0627 80.9661C78.5951 86.3839 83.3051 91.1997 88.6037 95.1126C98.9067 103.239 110.976 108.657 123.045 113.172C135.114 117.386 148.067 120.396 160.724 122.202C167.201 123.105 173.677 123.707 179.858 124.309C186.335 124.911 192.811 124.911 199.287 124.911C205.763 124.911 212.239 124.61 218.715 124.309C225.192 123.707 231.668 123.105 237.849 122.202C250.507 120.095 263.165 117.386 275.529 113.172C287.598 108.958 299.667 103.239 309.97 95.1126C315.269 91.1997 319.684 86.3839 323.511 80.9661C325.277 78.2572 326.749 75.2473 327.632 71.9364C328.515 68.6255 329.104 65.6156 329.104 62.3047C329.104 65.6156 328.221 68.9265 327.338 71.9364C325.866 75.2473 324.1 77.9562 322.334 80.6651Z" fill="white"/>
</g>
<g opacity="0.55">
<path opacity="0.55" d="M230.197 13.8456C229.609 14.1466 229.02 14.4475 228.431 14.7485C227.254 15.3505 225.782 15.6515 224.31 15.6515C221.661 16.2535 218.717 16.5545 216.068 16.8555C213.124 17.1565 210.475 17.1565 207.531 17.4574C204.587 17.4574 201.938 17.7584 198.994 17.7584C196.05 17.7584 193.401 17.7584 190.457 17.7584C187.514 17.7584 184.864 17.4574 181.921 17.1565C179.271 16.8555 176.328 16.5545 173.678 15.9525C172.206 15.6515 171.029 15.3505 169.557 15.0495C168.968 14.7485 168.38 14.4475 167.791 14.1466C167.202 13.8456 166.613 13.2436 166.613 12.6416C166.613 13.5446 166.908 14.1466 167.497 14.7485C168.085 15.3505 168.674 15.6515 169.263 15.9525C170.44 16.5545 171.912 17.1565 173.384 17.7584C176.033 18.6614 178.977 19.2634 181.921 19.8654C184.864 20.4673 187.514 20.7683 190.457 21.0693C193.401 21.3703 196.05 21.3703 198.994 21.3703C201.938 21.3703 204.587 21.3703 207.531 21.0693C210.475 20.7683 213.124 20.4673 216.068 19.8654C219.011 19.2634 221.661 18.6614 224.604 17.7584C226.076 17.1565 227.254 16.8555 228.726 15.9525C229.314 15.6515 229.903 15.0495 230.492 14.7485C231.08 14.1466 231.669 13.5446 231.375 12.6416C231.375 12.9426 230.786 13.5446 230.197 13.8456Z" fill="white"/>
</g>
<path opacity="0.46" d="M351 456H440L432.525 436H353.753L351 456Z" fill="url(#paint32_linear)"/>
<path d="M312.035 123.105C310.857 120.396 305.558 109.259 301.143 110.764C299.965 111.065 291.429 103.54 293.195 111.366C293.489 112.871 290.251 111.968 290.84 113.473C291.723 115.881 294.667 122.503 297.316 125.212C298.199 126.415 299.377 127.017 299.082 127.619C299.082 127.619 294.667 122.503 294.078 123.105C292.9 124.309 297.61 134.542 301.143 133.338C302.909 132.736 305.558 133.639 306.442 134.241C313.212 139.96 334.407 162.835 334.407 162.835L345.593 154.709C345.887 154.709 315.273 129.726 312.035 123.105Z" fill="#D7B6F7"/>
<path d="M312.035 123.105C310.857 120.396 305.558 109.259 301.143 110.764C299.965 111.065 291.429 103.54 293.195 111.366C293.489 112.871 290.251 111.968 290.84 113.473C290.84 113.774 291.134 114.075 291.134 114.376C292.9 112.871 295.844 112.57 297.905 114.075C298.199 114.075 298.494 114.075 298.788 114.075C299.965 114.376 300.848 114.376 302.026 114.978C303.792 115.881 305.558 117.386 306.442 119.192C307.325 120.998 308.208 123.105 308.502 125.212C309.385 125.212 310.563 125.513 311.74 126.415C315.861 129.726 318.511 133.037 321.749 136.95C324.398 140.562 340.294 152.903 343.532 155.913L345.593 154.408C345.887 154.709 315.273 129.726 312.035 123.105Z" fill="#C8ACE3"/>
<path d="M322.636 134.241C323.225 133.639 323.225 132.435 322.636 131.833C321.753 130.93 320.281 129.727 318.515 127.921C317.926 127.319 317.337 127.319 316.749 127.62C312.922 129.426 308.801 134.241 307.329 137.251C307.034 137.853 307.034 138.455 307.329 138.756C308.506 140.863 309.684 142.97 310.567 144.174C311.155 145.077 312.333 145.378 313.216 144.475L322.636 134.241Z" fill="#445DCF"/>
<path d="M394.162 176.982C393.574 168.253 393.279 164.942 376.795 164.34C372.085 164.039 363.842 162.233 354.717 160.126C340.881 148.087 326.163 134.241 324.397 132.435C321.159 129.726 307.912 139.659 310.856 145.98C314.388 153.505 330.284 167.651 343.825 179.089C345.591 180.594 347.946 181.798 350.301 182.4C366.197 186.012 381.21 189.021 387.098 189.924C400.639 191.73 394.751 184.206 394.162 176.982Z" fill="#F5F9FE"/>
<path d="M375.032 426.201C375.032 426.201 362.374 429.813 354.132 428.609C345.89 427.706 348.833 434.027 351.188 436.435C353.543 438.843 362.374 442.455 369.439 441.853C374.738 441.552 379.742 447.271 384.452 445.164C391.223 441.853 389.162 438.241 388.279 432.522C387.396 426.803 390.045 424.395 390.045 424.395L377.387 419.58L375.032 426.201Z" fill="url(#paint33_linear)"/>
<path d="M364.437 354.265C366.203 367.508 372.679 426.803 372.679 426.803C374.151 431.318 378.567 435.231 389.458 435.231C389.458 435.231 396.523 392.19 396.523 380.451C396.523 359.382 393.58 348.546 389.458 341.924C386.22 335.603 362.082 336.506 364.437 354.265Z" fill="url(#paint34_linear)"/>
<path d="M377.675 252.53C365.9 252.53 357.658 267.58 358.541 278.716C359.424 290.154 362.368 350.352 365.9 359.984C369.727 369.615 391.216 370.518 393.865 356.673C395.337 349.148 397.692 287.144 397.692 281.124C397.692 266.677 391.804 252.53 377.675 252.53Z" fill="url(#paint35_linear)"/>
<path d="M358.841 434.329L345.889 430.717L344.417 437.038C344.417 437.038 332.054 441.552 323.811 441.251C315.569 440.95 319.102 446.97 321.456 449.077C323.811 451.184 333.231 454.194 340.002 452.99C345.3 452.087 350.599 457.806 355.309 455.097C361.785 451.184 359.43 447.873 357.958 442.154C356.192 437.038 358.841 434.329 358.841 434.329Z" fill="url(#paint36_linear)"/>
<path d="M334.411 362.392C336.177 375.636 341.77 436.737 341.77 436.737C343.242 441.252 348.246 443.358 359.432 443.358C359.432 443.358 366.497 400.317 366.497 388.578C366.497 367.509 363.553 356.673 359.432 350.051C356.194 344.032 332.056 344.634 334.411 362.392Z" fill="url(#paint37_linear)"/>
<path d="M347.647 260.657C335.872 260.657 332.34 263.065 332.34 280.523C332.34 291.96 332.045 358.479 335.872 368.111C339.699 377.742 361.188 378.645 363.837 364.8C365.309 357.275 374.729 289.552 374.435 283.532C373.846 272.095 362.071 260.657 347.647 260.657Z" fill="url(#paint38_linear)"/>
<path d="M385.618 162.233C376.493 161.33 367.662 164.34 364.129 167.952C358.536 173.671 348.528 173.972 339.991 189.623C331.454 205.275 332.337 263.968 331.16 289.251C353.532 299.485 398.276 278.415 398.276 278.415C397.982 254.938 392.094 243.199 395.627 226.946C399.159 208.586 401.22 164.039 385.618 162.233Z" fill="#F5F9FE"/>
<path d="M360.605 203.469C371.202 194.44 359.722 183.303 350.596 184.507C348.241 184.808 344.415 186.313 339.999 189.022C339.999 189.323 339.705 189.323 339.705 189.624C336.761 195.342 334.7 206.479 333.523 219.723C346.181 212.499 356.778 206.78 360.605 203.469Z" fill="#DFE6F8"/>
<path d="M380.62 162.233C375.91 158.019 375.321 151.698 375.321 151.698L361.191 158.621C363.841 165.845 360.897 167.651 356.187 172.166C357.07 171.564 360.308 169.156 368.845 171.263C378.559 173.671 385.33 166.447 380.62 162.233Z" fill="#C8ACE3"/>
<path d="M380.617 162.233C375.907 158.019 375.318 151.698 375.318 151.698C375.318 151.698 370.608 153.203 366.781 155.31C368.842 156.514 370.314 158.32 370.314 160.728C370.608 164.039 369.725 167.049 367.37 169.156C366.781 169.758 365.898 170.059 365.015 170.36C366.193 170.36 367.37 170.661 368.842 170.962C378.556 173.671 385.327 166.447 380.617 162.233Z" fill="#D7B6F7"/>
<path d="M358.247 125.512C356.776 127.017 355.009 131.833 355.009 133.639C355.009 134.843 355.009 136.047 355.009 137.251C355.009 138.455 353.538 139.659 352.949 141.164C352.36 142.669 352.654 146.281 352.949 148.388C353.243 150.495 352.36 154.407 352.949 155.912C353.832 158.019 365.018 162.534 377.382 157.718C377.382 157.718 380.031 152.301 384.741 146.582C397.104 132.134 373.555 108.356 358.247 125.512Z" fill="#D7B6F7"/>
<path d="M356.776 155.611C356.187 154.106 357.07 150.193 356.776 148.086C356.481 145.979 356.187 142.367 356.776 140.863C357.364 139.358 358.836 138.154 358.836 136.95C358.836 135.746 358.836 134.843 358.836 133.338C358.836 131.532 362.074 125.211 362.074 125.211C363.252 124.308 364.429 124.007 365.607 123.706C362.957 123.405 360.602 124.007 358.247 125.512C358.247 125.512 355.009 131.833 355.009 133.639C355.009 134.843 355.009 136.047 355.009 137.251C355.009 138.455 353.538 139.659 352.949 141.164C352.36 142.668 352.654 146.28 352.949 148.387C353.243 150.494 352.36 154.407 352.949 155.912C353.832 157.417 360.602 160.728 369.728 159.524C362.369 159.223 357.364 156.815 356.776 155.611Z" fill="#C8ACE3"/>
<path d="M359.727 123.706C360.022 125.813 360.316 129.124 362.671 131.231C364.732 133.338 359.727 138.455 361.494 139.057C365.026 140.261 365.909 133.037 368.558 137.251C370.03 139.358 366.792 144.174 365.615 145.98C364.143 147.786 366.792 149.893 370.325 151.096C372.974 151.999 379.156 152.3 380.628 151.999C380.628 151.999 383.571 148.388 384.455 146.883C385.632 145.378 390.342 140.562 388.281 130.027C385.926 119.192 357.372 106.249 359.727 123.706Z" fill="#6F00DE"/>
<path d="M302.614 201.663C302.614 201.663 278.77 189.021 272.588 183.001C271.705 182.098 270.528 179.389 270.822 177.583C271.411 173.972 261.108 170.36 260.225 171.865C259.636 172.467 265.229 176.379 265.229 176.379C264.64 176.68 263.757 175.777 262.58 174.874C259.341 172.467 252.571 170.36 250.216 169.758C248.744 169.457 249.922 172.768 248.45 172.467C240.796 171.564 249.038 179.088 249.038 180.593C248.155 185.108 260.813 189.924 263.463 190.827C270.528 193.235 296.138 214.304 296.138 214.304L302.614 201.663Z" fill="#D7B6F7"/>
<path d="M297.313 211.596C293.781 208.887 290.837 205.275 287.01 202.867C282.595 200.158 269.348 192.934 265.816 189.322C264.932 188.419 264.344 187.216 264.344 186.313C262.283 186.313 259.928 185.711 258.162 184.808C256.101 183.905 254.629 182.4 253.158 180.594C252.569 179.691 251.98 178.487 251.686 177.283C251.686 176.982 251.391 176.681 251.391 176.38C249.92 174.574 249.625 171.564 250.803 169.457C250.508 169.457 250.214 169.156 249.92 169.156C248.448 168.855 249.625 172.166 248.153 171.865C240.5 170.962 248.742 178.487 248.742 179.992C247.859 184.507 260.517 189.322 263.166 190.225C270.231 192.633 295.841 213.703 295.841 213.703L297.313 211.596Z" fill="#C8ACE3"/>
<path d="M277.596 201.362L284.366 189.022C284.955 188.119 284.661 187.216 283.777 186.614C282.6 186.012 280.834 185.109 279.068 183.905C278.479 183.604 277.596 183.604 277.301 184.206C274.063 187.216 271.12 192.633 270.531 195.643C270.531 196.245 270.531 196.847 270.825 197.148C272.591 198.954 274.063 200.76 275.241 201.663C275.535 202.566 277.007 202.265 277.596 201.362Z" fill="#8A44CF"/>
<path d="M351.18 180.293C344.115 181.196 326.453 193.837 312.323 203.168C298.487 194.74 288.773 188.119 285.241 186.614C281.414 184.808 270.817 197.75 275.232 203.168C279.648 208.285 294.366 218.218 310.557 225.742C312.617 226.645 315.266 226.645 317.327 225.441C335.284 214.305 355.301 204.372 360.894 199.556C371.786 190.226 360.305 179.089 351.18 180.293Z" fill="#F5F9FE"/>
<path opacity="0.46" d="M301.735 432.522L279.657 412.055L103.329 415.065C97.4419 415.065 91.5546 414.162 85.6672 412.356C77.1304 409.647 65.0612 407.841 51.8146 407.841C26.2044 407.841 5.59845 414.463 5.59845 422.289C5.59845 430.416 26.2044 436.736 51.8146 436.736C64.7669 436.736 94.4983 436.134 103.035 433.425L301.735 432.522Z" fill="url(#paint39_linear)"/>
<path d="M68.2945 170.962C66.5282 176.68 58.8746 187.516 49.7491 198.352C45.628 203.469 51.8097 211.896 58.2859 208.284C64.762 204.672 75.9481 173.37 75.9481 173.37C73.0044 168.253 68.2945 170.962 68.2945 170.962Z" fill="#D7B6F7"/>
<path d="M84.1891 158.621C82.7172 158.32 80.0679 160.728 78.8904 161.932C77.4186 163.136 76.8298 160.126 77.7129 156.514C78.596 152.902 84.1891 147.485 82.7172 146.582C81.8341 145.98 78.8904 150.193 76.5354 152.601C73.8861 155.611 73.2974 152.902 72.1199 153.203C70.9424 153.504 66.8212 158.019 66.5269 159.223C66.2325 160.728 69.4706 165.845 67.9987 172.166C67.7043 173.37 75.6523 174.574 75.6523 174.574C75.6523 174.574 80.6566 166.146 81.2454 163.738C82.1285 161.029 85.3666 158.621 84.1891 158.621Z" fill="#D7B6F7"/>
<path d="M84.1932 158.621C82.7213 158.32 80.072 160.728 78.8945 161.932C77.4227 163.136 76.8339 160.126 77.717 156.514C78.6001 152.902 84.1932 147.485 82.7213 146.582C81.8382 145.98 78.8945 150.193 76.5395 152.601C73.8902 155.611 73.3015 152.902 72.124 153.203C71.2409 153.504 68.5915 155.912 67.4141 157.718C68.5915 157.417 69.4747 156.514 70.0634 157.417C70.6521 158.32 72.124 157.116 72.7127 158.32C73.0071 158.621 75.0677 158.019 75.9508 159.825C76.5395 161.932 73.8902 164.942 74.1846 166.748C74.7733 169.457 74.7733 170.36 74.1846 171.564C75.3621 171.865 75.6564 174.273 75.6564 174.273C75.6564 174.273 80.6607 165.845 81.2495 163.437C82.1326 161.029 85.3707 158.621 84.1932 158.621Z" fill="#C8ACE3"/>
<path d="M74.1796 171.263C73.8853 172.467 73.5909 173.37 73.0021 174.574C72.119 176.079 71.5303 177.583 70.3528 178.787C68.5866 182.399 66.2316 186.011 64.4654 188.72C61.5217 193.536 59.7555 199.556 55.0456 202.867C53.8681 203.77 52.3962 204.071 51.2188 204.372C52.6906 207.382 55.0456 209.789 58.2836 207.983C64.7598 204.372 75.9459 173.069 75.9459 173.069C75.3571 172.467 74.7684 171.564 74.1796 171.263Z" fill="#C8ACE3"/>
<path d="M26.2006 299.785C26.2006 299.785 33.2655 316.34 27.6725 328.078C18.547 347.041 21.4907 388.276 20.902 393.092C20.0189 397.908 29.4387 403.025 31.7937 393.393C34.1486 383.761 45.0403 341.322 49.7502 331.088C54.4602 320.854 52.6939 301.892 52.6939 301.892L26.2006 299.785Z" fill="#D7B6F7"/>
<path d="M45.9278 312.728C50.3434 321.156 55.0533 346.138 52.6983 361.789C50.3434 377.441 55.6421 407.841 55.9364 412.657C55.9364 417.472 65.3563 421.686 65.945 412.054C66.5337 402.122 71.538 362.692 74.4817 351.857C77.4254 341.021 72.4212 307.912 72.4212 307.912C72.4212 307.912 41.5123 304.3 45.9278 312.728Z" fill="#D7B6F7"/>
<path d="M72.4167 425.599C66.235 421.687 66.8237 410.249 66.8237 410.249C58.5813 410.55 55.0489 409.045 55.0489 409.045C55.0489 412.657 51.2221 418.677 50.6333 423.793C50.339 428.609 54.1658 431.318 54.1658 435.532H57.4039L55.6376 425.9C61.2307 425.9 68.0012 435.532 75.0661 435.532C82.131 435.532 84.1916 433.124 84.7803 431.017C85.0747 428.609 78.5985 429.512 72.4167 425.599Z" fill="url(#paint40_linear)"/>
<path d="M38.2715 406.938C32.0897 403.025 32.6784 391.588 32.6784 391.588C24.4361 391.889 20.9036 390.384 20.9036 390.384C20.9036 393.996 17.0768 400.016 16.4881 405.132C16.1937 409.948 20.0205 412.657 20.0205 416.871H23.2586L21.4924 407.239C27.0854 407.239 33.8559 416.871 40.9208 416.871C47.9857 416.871 50.0463 414.463 50.635 412.356C50.9294 409.647 44.4533 410.851 38.2715 406.938Z" fill="url(#paint41_linear)"/>
<path d="M53.8697 173.069C53.5753 170.962 55.0472 169.156 55.0472 169.156C55.0472 169.156 42.0949 152.602 42.978 161.331C44.1554 170.059 42.6836 178.487 42.6836 178.487C47.9823 177.584 57.4021 179.992 57.4021 179.992C55.6359 179.39 54.164 174.875 53.8697 173.069Z" fill="#C8ACE3"/>
<path d="M31.4981 227.849C31.4981 227.849 29.4375 235.674 24.1389 245.005C18.8402 254.336 13.5415 268.181 15.6021 279.017C17.3683 289.552 13.5415 331.389 9.71472 352.76C9.71472 352.76 28.26 356.371 35.3249 361.488C60.052 379.247 86.5453 362.692 86.5453 362.692C86.5453 317.243 68 257.948 64.1732 231.762L31.4981 227.849Z" fill="url(#paint42_linear)"/>
<path d="M69.7727 202.566C68.3009 198.352 67.4178 194.138 65.6515 187.517C63.8853 180.895 52.9936 176.681 42.985 178.186C31.799 179.992 30.0327 196.546 30.0327 206.78C30.0327 216.412 30.9159 227.247 25.6172 242.598C37.392 253.433 56.8204 258.55 69.184 251.928C67.7121 241.394 62.7078 223.936 64.7684 216.111C64.7684 214.907 73.0108 210.994 69.7727 202.566Z" fill="url(#paint43_linear)"/>
<path d="M62.1168 149.592C62.4112 148.388 62.1168 145.98 62.1168 144.776C60.9394 134.542 46.5152 143.873 41.5109 152.301C36.5066 160.728 56.8182 175.778 60.9394 168.253C65.9437 159.525 63.5887 152.903 63.2943 152.602C62.4112 151.398 61.8225 150.796 62.1168 149.592Z" fill="#D7B6F7"/>
<path d="M62.1097 149.591C62.4041 148.388 62.1097 145.98 62.1097 144.776C61.2266 136.649 52.1011 140.863 45.625 147.184C45.9194 147.184 46.2137 147.184 46.8025 147.184C47.3912 147.184 48.2743 147.485 48.8631 147.485C49.4518 147.184 50.0406 146.883 50.6293 146.582C52.1011 146.281 56.5167 145.378 57.9886 145.679C60.9323 146.582 60.0491 150.795 61.521 154.106C62.9928 157.417 61.2266 161.631 60.3435 164.039C59.166 166.748 57.1054 168.855 54.4561 169.457C57.3998 170.36 60.0491 170.059 61.2266 167.952C66.2309 159.223 63.876 152.601 63.5816 152.3C62.4041 151.397 61.8154 150.795 62.1097 149.591Z" fill="#C8ACE3"/>
<path d="M47.6899 133.94C36.7982 136.95 33.2658 130.328 27.3784 143.271C22.6684 154.106 14.1317 143.873 9.42178 156.514C4.71186 169.156 10.0105 165.544 2.94563 177.283C-3.23614 187.215 3.53437 196.847 5.88934 203.168C8.53867 209.79 12.9542 212.8 7.36119 222.431C7.36119 222.431 30.3221 222.13 28.5558 206.479C26.7896 190.827 41.2138 198.352 40.0363 187.516C39.1532 178.788 50.0449 182.4 49.7505 176.681C49.4561 171.263 59.7591 168.554 52.6942 158.621C48.573 152.602 64.1746 148.99 63.5859 142.368C62.7028 138.154 58.5816 130.93 47.6899 133.94Z" fill="#8000FF"/>
<path d="M54.1584 153.805C53.8641 152.902 51.5091 151.397 50.9204 153.203C50.0372 155.009 50.9204 157.718 51.8035 159.524C52.981 161.33 53.8641 160.728 53.8641 159.825C53.5697 158.621 54.7472 156.514 54.1584 153.805Z" fill="#D7B6F7"/>
<path d="M66.8231 202.265C66.2343 188.72 61.8188 183.604 58.8751 183.303C50.9271 183.002 46.5115 190.526 48.2778 201.964C49.7496 212.8 53.282 228.15 61.5244 239.588C64.7625 244.103 71.2386 231.461 70.6499 228.15C70.3555 224.538 67.4118 213.703 66.8231 202.265Z" fill="#D7B6F7"/>
<path d="M125.113 239.588C123.347 238.083 119.52 234.17 115.693 233.869C112.161 233.267 106.568 234.17 107.745 232.966C108.923 231.461 110.689 229.655 110.395 228.15C110.395 226.645 108.923 229.956 106.568 230.558C104.213 231.16 98.0312 235.675 98.0312 235.675C98.0312 235.675 98.0313 242.899 99.2087 242.899C100.386 242.899 103.624 243.802 105.979 244.103C108.629 244.404 113.633 248.317 114.222 247.414C115.105 246.511 118.932 242.598 119.226 241.394C119.52 240.19 115.399 235.374 118.637 238.083C122.464 240.491 126.291 240.491 125.113 239.588Z" fill="#D7B6F7"/>
<path d="M106.267 241.394C104.206 239.889 106.267 238.986 103.029 238.384C101.557 238.083 100.085 238.986 98.9077 239.287C98.6133 239.287 98.9077 242.899 99.4964 242.899C100.674 242.899 103.912 243.802 106.267 244.103C108.916 244.404 113.921 248.317 114.509 247.414C115.392 246.511 119.219 242.598 119.514 241.394C119.514 241.093 119.219 240.19 118.925 239.588C118.042 243.802 106.856 241.695 106.267 241.394Z" fill="#C8ACE3"/>
<path d="M100.083 234.772C94.196 235.374 76.5338 228.752 70.0576 227.849C67.1139 227.247 56.5166 235.675 62.404 240.19C68.2914 244.704 100.672 243.199 100.672 243.199C104.205 238.083 100.083 234.772 100.083 234.772Z" fill="#D7B6F7"/>
<path d="M60.6403 227.247C59.4629 222.732 57.6966 220.023 54.7529 216.11C50.3374 209.79 49.4543 204.071 48.8655 196.245C48.8655 195.041 48.5712 193.536 48.2768 192.031C47.6881 194.74 47.6881 198.051 47.9824 201.362C49.4543 212.198 52.9867 227.548 61.2291 238.986C62.9953 241.394 65.6446 238.986 67.7052 235.675C67.1165 235.374 66.2334 235.073 65.6446 234.471C63.2897 233.267 61.5235 230.558 60.6403 227.247Z" fill="#C8ACE3"/>
<path d="M82.4252 238.383C77.1265 237.48 70.6504 238.383 65.9404 235.072C64.7629 234.169 63.5855 233.266 62.9967 232.062C60.6418 234.771 59.7587 237.781 62.408 240.189C68.2954 244.704 100.676 243.199 100.676 243.199C102.148 241.393 102.148 239.888 101.854 238.684C98.0268 241.092 88.9013 239.587 82.4252 238.383Z" fill="#C8ACE3"/>
</g>
<defs>
<linearGradient id="paint0_linear" x1="54.8936" y1="347.688" x2="501.848" y2="301.479" gradientUnits="userSpaceOnUse">
<stop stop-color="#8390AC"/>
<stop offset="1" stop-color="#8390AC" stop-opacity="0"/>
</linearGradient>
<linearGradient id="paint1_linear" x1="62.712" y1="309.523" x2="341.456" y2="309.523" gradientUnits="userSpaceOnUse">
<stop offset="2e-06" stop-color="#F3E6FF"/>
<stop offset="1" stop-color="#BE9CDF"/>
</linearGradient>
<linearGradient id="paint2_linear" x1="201.244" y1="172.163" x2="201.244" y2="258.022" gradientUnits="userSpaceOnUse">
<stop stop-color="#7900F2"/>
<stop offset="1" stop-color="#003286"/>
</linearGradient>
<linearGradient id="paint3_linear" x1="70.6819" y1="177.912" x2="329.349" y2="177.912" gradientUnits="userSpaceOnUse">
<stop offset="8e-08" stop-color="#445DCF"/>
<stop offset="1" stop-color="#6A7FFF"/>
</linearGradient>
<linearGradient id="paint4_linear" x1="115.861" y1="99.582" x2="246.834" y2="227.674" gradientUnits="userSpaceOnUse">
<stop offset="8e-08" stop-color="#3BA2A9"/>
<stop offset="1" stop-color="#00E7D5"/>
</linearGradient>
<linearGradient id="paint5_linear" x1="173.35" y1="56.3868" x2="175.687" y2="56.3868" gradientUnits="userSpaceOnUse">
<stop offset="8e-08" stop-color="#3BA2A9"/>
<stop offset="1" stop-color="#00E7D5"/>
</linearGradient>
<linearGradient id="paint6_linear" x1="175.764" y1="55.6341" x2="178.939" y2="55.6341" gradientUnits="userSpaceOnUse">
<stop offset="8e-08" stop-color="#3BA2A9"/>
<stop offset="1" stop-color="#00E7D5"/>
</linearGradient>
<linearGradient id="paint7_linear" x1="179.185" y1="55.6084" x2="180.019" y2="55.6084" gradientUnits="userSpaceOnUse">
<stop offset="8e-08" stop-color="#3BA2A9"/>
<stop offset="1" stop-color="#00E7D5"/>
</linearGradient>
<linearGradient id="paint8_linear" x1="178.816" y1="57.0536" x2="180.452" y2="57.0536" gradientUnits="userSpaceOnUse">
<stop offset="8e-08" stop-color="#3BA2A9"/>
<stop offset="1" stop-color="#00E7D5"/>
</linearGradient>
<linearGradient id="paint9_linear" x1="175.32" y1="57.0363" x2="177.745" y2="57.0363" gradientUnits="userSpaceOnUse">
<stop offset="8e-08" stop-color="#3BA2A9"/>
<stop offset="1" stop-color="#00E7D5"/>
</linearGradient>
<linearGradient id="paint10_linear" x1="205.286" y1="78.8296" x2="209.176" y2="78.8296" gradientUnits="userSpaceOnUse">
<stop offset="8e-08" stop-color="#3BA2A9"/>
<stop offset="1" stop-color="#00E7D5"/>
</linearGradient>
<linearGradient id="paint11_linear" x1="208.77" y1="74.4243" x2="220.397" y2="74.4243" gradientUnits="userSpaceOnUse">
<stop offset="8e-08" stop-color="#3BA2A9"/>
<stop offset="1" stop-color="#00E7D5"/>
</linearGradient>
<linearGradient id="paint12_linear" x1="218.959" y1="77.9229" x2="222.579" y2="77.9229" gradientUnits="userSpaceOnUse">
<stop offset="8e-08" stop-color="#3BA2A9"/>
<stop offset="1" stop-color="#00E7D5"/>
</linearGradient>
<linearGradient id="paint13_linear" x1="147.721" y1="132.826" x2="176.189" y2="132.826" gradientUnits="userSpaceOnUse">
<stop offset="8e-08" stop-color="#3BA2A9"/>
<stop offset="1" stop-color="#00E7D5"/>
</linearGradient>
<linearGradient id="paint14_linear" x1="172.146" y1="140.659" x2="190.022" y2="140.659" gradientUnits="userSpaceOnUse">
<stop offset="8e-08" stop-color="#3BA2A9"/>
<stop offset="1" stop-color="#00E7D5"/>
</linearGradient>
<linearGradient id="paint15_linear" x1="191.819" y1="142.746" x2="198.153" y2="142.746" gradientUnits="userSpaceOnUse">
<stop offset="8e-08" stop-color="#3BA2A9"/>
<stop offset="1" stop-color="#00E7D5"/>
</linearGradient>
<linearGradient id="paint16_linear" x1="163.917" y1="124.73" x2="168.282" y2="124.73" gradientUnits="userSpaceOnUse">
<stop offset="8e-08" stop-color="#723BA9"/>
<stop offset="1" stop-color="#00E7D5"/>
</linearGradient>
<linearGradient id="paint17_linear" x1="192.103" y1="53.2876" x2="236.222" y2="53.2876" gradientUnits="userSpaceOnUse">
<stop offset="8e-08" stop-color="#3BA2A9"/>
<stop offset="1" stop-color="#00E7D5"/>
</linearGradient>
<linearGradient id="paint18_linear" x1="240.608" y1="55.5483" x2="247.346" y2="55.5483" gradientUnits="userSpaceOnUse">
<stop offset="8e-08" stop-color="#3BA2A9"/>
<stop offset="1" stop-color="#00E7D5"/>
</linearGradient>
<linearGradient id="paint19_linear" x1="267.129" y1="73.2092" x2="276.521" y2="73.2092" gradientUnits="userSpaceOnUse">
<stop offset="8e-08" stop-color="#3BA2A9"/>
<stop offset="1" stop-color="#00E7D5"/>
</linearGradient>
<linearGradient id="paint20_linear" x1="280.096" y1="89.3488" x2="300.166" y2="89.3488" gradientUnits="userSpaceOnUse">
<stop offset="8e-08" stop-color="#3BA2A9"/>
<stop offset="1" stop-color="#00E7D5"/>
</linearGradient>
<linearGradient id="paint21_linear" x1="297.354" y1="137.04" x2="327.857" y2="137.04" gradientUnits="userSpaceOnUse">
<stop offset="8e-08" stop-color="#3BA2A9"/>
<stop offset="1" stop-color="#00E7D5"/>
</linearGradient>
<linearGradient id="paint22_linear" x1="202.498" y1="298.355" x2="212.386" y2="298.355" gradientUnits="userSpaceOnUse">
<stop offset="8e-08" stop-color="#3BA2A9"/>
<stop offset="1" stop-color="#00E7D5"/>
</linearGradient>
<linearGradient id="paint23_linear" x1="238.625" y1="300.186" x2="242.911" y2="300.186" gradientUnits="userSpaceOnUse">
<stop offset="8e-08" stop-color="#3BA2A9"/>
<stop offset="1" stop-color="#00E7D5"/>
</linearGradient>
<linearGradient id="paint24_linear" x1="287.964" y1="144.33" x2="289.718" y2="144.33" gradientUnits="userSpaceOnUse">
<stop offset="8e-08" stop-color="#3BA2A9"/>
<stop offset="1" stop-color="#00E7D5"/>
</linearGradient>
<linearGradient id="paint25_linear" x1="288.828" y1="147.897" x2="290.496" y2="147.897" gradientUnits="userSpaceOnUse">
<stop offset="8e-08" stop-color="#3BA2A9"/>
<stop offset="1" stop-color="#00E7D5"/>
</linearGradient>
<linearGradient id="paint26_linear" x1="291.021" y1="148.284" x2="292.3" y2="148.284" gradientUnits="userSpaceOnUse">
<stop offset="8e-08" stop-color="#3BA2A9"/>
<stop offset="1" stop-color="#00E7D5"/>
</linearGradient>
<linearGradient id="paint27_linear" x1="292.705" y1="147.618" x2="293.739" y2="147.618" gradientUnits="userSpaceOnUse">
<stop offset="8e-08" stop-color="#3BA2A9"/>
<stop offset="1" stop-color="#00E7D5"/>
</linearGradient>
<linearGradient id="paint28_linear" x1="292.416" y1="145.742" x2="293.41" y2="145.742" gradientUnits="userSpaceOnUse">
<stop offset="8e-08" stop-color="#723BA9"/>
<stop offset="1" stop-color="#00E7D5"/>
</linearGradient>
<linearGradient id="paint29_linear" x1="291.549" y1="144.284" x2="292.957" y2="144.284" gradientUnits="userSpaceOnUse">
<stop offset="8e-08" stop-color="#723BA9"/>
<stop offset="1" stop-color="#00E7D5"/>
</linearGradient>
<linearGradient id="paint30_linear" x1="289.856" y1="145.524" x2="291.618" y2="145.524" gradientUnits="userSpaceOnUse">
<stop offset="8e-08" stop-color="#723BA9"/>
<stop offset="1" stop-color="#00E7D5"/>
</linearGradient>
<linearGradient id="paint31_linear" x1="20.0568" y1="193.557" x2="377.474" y2="193.557" gradientUnits="userSpaceOnUse">
<stop stop-color="#7400E7" stop-opacity="0"/>
<stop offset="1" stop-color="#00E7D5"/>
</linearGradient>
<linearGradient id="paint32_linear" x1="352.676" y1="445.539" x2="438.803" y2="445.626" gradientUnits="userSpaceOnUse">
<stop stop-color="#8390AC"/>
<stop offset="1" stop-color="#8390AC" stop-opacity="0"/>
</linearGradient>
<linearGradient id="paint33_linear" x1="348.641" y1="432.937" x2="389.83" y2="432.937" gradientUnits="userSpaceOnUse">
<stop stop-color="#0085F2"/>
<stop offset="1" stop-color="#003286"/>
</linearGradient>
<linearGradient id="paint34_linear" x1="377.6" y1="430.023" x2="384.718" y2="278.499" gradientUnits="userSpaceOnUse">
<stop offset="2e-06" stop-color="#D4AEFA"/>
<stop offset="1" stop-color="#A0C2EA"/>
</linearGradient>
<linearGradient id="paint35_linear" x1="371.039" y1="437.023" x2="378.982" y2="267.947" gradientUnits="userSpaceOnUse">
<stop offset="2e-06" stop-color="#D4AEFA"/>
<stop offset="0.192823" stop-color="#CAB2F7"/>
<stop offset="1" stop-color="#A0C2EA"/>
</linearGradient>
<linearGradient id="paint36_linear" x1="318.165" y1="443.45" x2="359.177" y2="443.45" gradientUnits="userSpaceOnUse">
<stop stop-color="#7900F2"/>
<stop offset="1" stop-color="#003286"/>
</linearGradient>
<linearGradient id="paint37_linear" x1="334.36" y1="395.026" x2="366.624" y2="395.026" gradientUnits="userSpaceOnUse">
<stop offset="2e-06" stop-color="#D4AEFA"/>
<stop offset="1" stop-color="#A0C2EA"/>
</linearGradient>
<linearGradient id="paint38_linear" x1="332.394" y1="317.935" x2="374.386" y2="317.935" gradientUnits="userSpaceOnUse">
<stop offset="2e-06" stop-color="#D4AEFA"/>
<stop offset="1" stop-color="#A0C2EA"/>
</linearGradient>
<linearGradient id="paint39_linear" x1="11.165" y1="422.12" x2="297.851" y2="422.969" gradientUnits="userSpaceOnUse">
<stop stop-color="#8390AC"/>
<stop offset="1" stop-color="#8390AC" stop-opacity="0"/>
</linearGradient>
<linearGradient id="paint40_linear" x1="50.4067" y1="422.246" x2="84.5996" y2="422.246" gradientUnits="userSpaceOnUse">
<stop offset="8e-08" stop-color="#723BA9"/>
<stop offset="1" stop-color="#00E7D5"/>
</linearGradient>
<linearGradient id="paint41_linear" x1="16.2134" y1="403.448" x2="50.4066" y2="403.448" gradientUnits="userSpaceOnUse">
<stop offset="8e-08" stop-color="#723BA9"/>
<stop offset="1" stop-color="#00E7D5"/>
</linearGradient>
<linearGradient id="paint42_linear" x1="9.5749" y1="298.663" x2="86.6216" y2="298.663" gradientUnits="userSpaceOnUse">
<stop stop-color="#AB57FF"/>
<stop offset="1" stop-color="#697CE3"/>
</linearGradient>
<linearGradient id="paint43_linear" x1="77.6248" y1="216.512" x2="25.5981" y2="216.512" gradientUnits="userSpaceOnUse">
<stop offset="8e-08" stop-color="#3BA2A9"/>
<stop offset="1" stop-color="#00E7D5"/>
</linearGradient>
<clipPath id="clip0">
<rect width="440" height="456" fill="white"/>
</clipPath>
</defs>
</svg>
