<svg width="87" height="59" viewBox="0 0 87 59" fill="none" xmlns="http://www.w3.org/2000/svg">
<path fill-rule="evenodd" clip-rule="evenodd" d="M8.98921 0.666504H77.4455C82.4092 0.681726 86.4272 4.70585 86.4348 9.66955V49.3016C86.4196 54.2599 82.4038 58.2756 77.4455 58.2908H8.98921C4.03091 58.2756 0.0151863 54.2599 0 49.3016V9.65572C0.0151863 4.69742 4.03091 0.681692 8.98921 0.666504ZM77.4383 54.7021C80.4193 54.6983 82.8349 52.2827 82.8387 49.3017H82.8525V9.66961C82.8487 6.6886 80.4331 4.27297 77.4521 4.26916H8.99579C6.02019 4.28058 3.61296 6.69399 3.60917 9.66961V49.3017C3.61296 52.2773 6.02019 54.6907 8.99579 54.7021H77.4383Z" fill="#7643FF"/>
<path fill-rule="evenodd" clip-rule="evenodd" d="M1.8013 11.4707H84.6335C85.6283 11.4707 86.4348 12.2772 86.4348 13.272V24.0763C86.4348 25.0712 85.6283 25.8776 84.6335 25.8776H1.8013C0.80647 25.8776 0 25.0712 0 24.0763V13.272C0 12.2772 0.80647 11.4707 1.8013 11.4707ZM3.60917 22.275H82.8387V15.0733H3.60917V22.275Z" fill="#7643FF"/>
<path d="M34.2033 36.6821H12.5946C11.5997 36.6821 10.7933 37.4886 10.7933 38.4834C10.7933 39.4783 11.5997 40.2847 12.5946 40.2847H34.2033C35.1981 40.2847 36.0046 39.4783 36.0046 38.4834C36.0046 37.4886 35.1981 36.6821 34.2033 36.6821Z" fill="#7643FF"/>
<path d="M34.2033 43.8843H12.5946C11.951 43.8843 11.3564 44.2276 11.0346 44.7849C10.7128 45.3423 10.7128 46.0289 11.0346 46.5862C11.3564 47.1436 11.951 47.4869 12.5946 47.4869H34.2033C34.8468 47.4869 35.4415 47.1436 35.7632 46.5862C36.085 46.0289 36.085 45.3423 35.7632 44.7849C35.4415 44.2276 34.8468 43.8843 34.2033 43.8843Z" fill="#7643FF"/>
<path fill-rule="evenodd" clip-rule="evenodd" d="M66.6231 33.0796H70.2257C71.6616 33.0796 73.0386 33.6507 74.053 34.667C75.0673 35.6834 75.6358 37.0614 75.6331 38.4973V42.0861C75.6292 45.0684 73.2115 47.4846 70.2292 47.4865H66.6266C63.6442 47.4846 61.2265 45.0684 61.2227 42.0861V38.4835C61.2246 35.5011 63.6407 33.0834 66.6231 33.0796ZM66.6182 43.8701H70.2208C71.2156 43.8701 72.0221 43.0637 72.0221 42.0688V38.4974C72.0221 38.0196 71.8323 37.5615 71.4945 37.2236C71.1567 36.8858 70.6985 36.6961 70.2208 36.6961H66.6182C65.6234 36.6961 64.8169 37.5025 64.8169 38.4974V42.0688C64.8169 43.0637 65.6234 43.8701 66.6182 43.8701Z" fill="#7643FF"/>
</svg>
