<svg width="100" height="92" viewBox="0 0 100 92" fill="none" xmlns="http://www.w3.org/2000/svg">
<g clipPath="url(#clip0)">
<path d="M97.1 54.6602C94.45 52.0102 89.1 50.0802 85.1 49.1602C84.5604 49.0467 84.0768 48.7494 83.7321 48.3189C83.3874 47.8885 83.2029 47.3517 83.21 46.8002V45.5402C85.8989 43.4692 87.6889 40.444 88.21 37.0902C92.33 27.6002 90.02 21.9102 87.35 18.8102C83.05 13.8102 75.48 12.6702 70.23 14.1102C67.05 14.9802 64.89 16.7702 64.23 19.1102H64.03C63.2567 19.1565 62.5015 19.3637 61.8128 19.7184C61.124 20.0731 60.5168 20.5676 60.03 21.1702C58.9236 20.5626 57.7486 20.0893 56.53 19.7602C50.9899 18.3577 45.1389 18.8614 39.92 21.1902C39.5134 20.4662 38.9164 19.8673 38.1936 19.4583C37.4709 19.0494 36.6501 18.846 35.82 18.8702C35.07 16.6702 32.95 14.9602 29.82 14.1102C24.57 12.6702 17.01 13.8302 12.7 18.8102C10.02 21.9102 7.70002 27.6002 11.84 37.0902C12.3611 40.444 14.1512 43.4692 16.84 45.5402V46.8002C16.8472 47.3517 16.6626 47.8885 16.3179 48.3189C15.9732 48.7494 15.4897 49.0467 14.95 49.1602C10.87 50.0802 5.57002 52.0102 2.95002 54.6602C0.430019 57.1302 0.450019 58.7002 0.490019 61.0902C0.490019 61.4002 0.490019 61.7402 0.490019 62.0902H3.49002C3.49002 61.7102 3.49002 61.3502 3.49002 61.0302C3.49002 58.9102 3.49002 58.3402 5.02002 56.7702C7.22002 54.5702 12.09 52.8702 15.59 52.0802C15.7901 52.0281 15.9871 51.9647 16.18 51.8902C18.2222 54.1233 21.0389 55.4938 24.0564 55.7223C27.0738 55.9509 30.0648 55.0203 32.42 53.1202C33.4454 57.041 35.7638 60.5009 39 62.9402V65.0002C39.015 65.9103 38.7128 66.7971 38.1454 67.5087C37.5779 68.2203 36.7806 68.7123 35.89 68.9002C30.25 70.1702 22.89 72.8202 19.31 76.4502C16 79.7302 16.08 81.8402 16.13 85.0002C16.13 85.4402 16.13 85.9202 16.13 86.4302H19.13C19.13 85.9002 19.13 85.4302 19.13 84.9502C19.13 81.9502 19.06 80.9502 21.45 78.5402C24.63 75.3602 31.58 72.9202 36.57 71.8002C36.9594 71.7124 37.3408 71.5919 37.71 71.4402C39.2249 73.1693 41.0916 74.5549 43.1853 75.5041C45.2789 76.4534 47.5512 76.9444 49.85 76.9444C52.1488 76.9444 54.4211 76.4534 56.5148 75.5041C58.6084 74.5549 60.4752 73.1693 61.99 71.4402C62.3654 71.5965 62.7535 71.7202 63.15 71.8102C68.15 72.9302 75.09 75.3702 78.27 78.5502C80.65 81.0002 80.63 82.0002 80.58 85.0002C80.58 85.4602 80.58 85.9502 80.58 86.4802H83.58C83.58 85.9602 83.58 85.4802 83.58 85.0502C83.63 81.8602 83.67 79.7502 80.38 76.4702C76.75 72.8402 69.44 70.1902 63.8 68.9202C62.9061 68.7317 62.106 68.2367 61.5382 67.521C60.9703 66.8053 60.6703 65.9137 60.69 65.0002V62.8402C63.9413 60.3472 66.2449 56.8196 67.22 52.8402C69.5723 54.8638 72.6205 55.8912 75.7178 55.7045C78.8151 55.5178 81.7178 54.1317 83.81 51.8402C84.0029 51.9147 84.1999 51.9781 84.4 52.0302C87.9 52.8202 92.77 54.5202 94.97 56.7202C96.54 58.2902 96.53 58.8602 96.5 60.9802C96.5 61.3102 96.5 61.6602 96.5 62.0402H99.5C99.5 61.6702 99.5 61.3402 99.5 61.0402C99.55 58.7002 99.57 57.1302 97.1 54.6602ZM85.32 35.1002C85.3233 36.7853 84.9099 38.445 84.1167 39.9316C83.3234 41.4182 82.1748 42.6857 80.7732 43.621C79.3717 44.5564 77.7605 45.1307 76.0833 45.2928C74.4061 45.455 72.7148 45.1998 71.16 44.5502C72.5126 40.454 72.5962 36.0448 71.4 31.9002C75.63 32.7702 80.4 32.0102 83.04 28.6602C83.51 28.7902 84.63 29.6602 85.32 32.5302V35.1002ZM64.39 22.1002C65.19 21.9802 66.69 21.7602 66.96 20.2302C67.23 18.7002 68.67 17.6602 70.96 17.0302C75.19 15.8702 81.56 16.8002 85.01 20.8002C85.9549 21.9523 86.647 23.29 87.0415 24.7268C87.4361 26.1636 87.5241 27.6672 87.3 29.1402C86.02 26.4802 84.3 25.8502 83.46 25.7102C82.9645 25.5979 82.4469 25.6328 81.9708 25.8104C81.4948 25.988 81.0809 26.3008 80.78 26.7102C78.7 29.4202 73.53 30.0002 69.23 28.0702C68.6298 27.4907 67.9119 27.047 67.1252 26.7692C66.3384 26.4914 65.5011 26.386 64.67 26.4602H64.61C64.2176 25.1149 63.4717 23.8994 62.45 22.9402C62.6967 22.671 62.9963 22.4556 63.3302 22.3076C63.664 22.1596 64.0248 22.0822 64.39 22.0802V22.1002ZM55.71 22.6702C59.16 23.6102 61.36 25.4202 61.76 27.6702C62.09 29.5402 63.89 29.5102 64.67 29.5102C65.329 29.4111 66.0022 29.5343 66.5835 29.8602C67.1647 30.1861 67.6209 30.6963 67.88 31.3102C69.1 33.4302 70.22 39.1402 67.76 45.2502V45.0002C67.2458 41.3506 65.3527 38.0368 62.47 35.7402C61.8077 35.1754 61.0218 34.7743 60.1758 34.5693C59.3298 34.3643 58.4474 34.3612 57.6 34.5602C57.2287 34.6682 56.9135 34.9154 56.72 35.2502C56.0277 36.4644 55.0431 37.4863 53.8556 38.2233C52.6681 38.9602 51.3153 39.3889 49.92 39.4702C48.3532 39.5175 46.7997 39.1705 45.4019 38.4611C44.0041 37.7518 42.8069 36.7027 41.92 35.4102C41.7243 35.1451 41.4466 34.9518 41.13 34.8602H41.23C40.7629 34.6322 40.2499 34.5137 39.73 34.5137C39.2102 34.5137 38.6972 34.6322 38.23 34.8602C36.23 35.7802 34.36 38.6402 32.64 43.5902C31.18 37.2902 32.12 32.0302 35.45 28.1802C40.4 22.3202 49.6 21.0002 55.71 22.6502V22.6702ZM15 20.7702C18.46 16.7702 24.82 15.8402 29.05 17.0002C31.34 17.6302 32.8 18.8002 33.05 20.2002C33.1771 20.7432 33.5064 21.2173 33.971 21.5257C34.4356 21.8342 35.0003 21.9538 35.55 21.8602C35.8773 21.8007 36.215 21.8403 36.5196 21.9739C36.8243 22.1075 37.0821 22.3291 37.26 22.6102C35.7153 23.5828 34.3206 24.7753 33.12 26.1502L33.06 26.2202C28.75 28.6002 21.94 28.7502 19.36 25.3602C19.1637 24.9326 18.8431 24.5741 18.4399 24.3315C18.0367 24.0888 17.5698 23.9734 17.1 24.0002C15.82 24.1102 14.59 25.1702 12.76 29.5602C12.28 26.0002 13 23.0002 15 20.7702ZM14.7 35.0902V32.9002C15.3275 31.0024 16.1661 29.1809 17.2 27.4702C20.08 30.9202 25.6 31.6502 30.45 30.4702C28.98 33.8102 28.31 38.3002 29.67 44.1902C28.1114 45.0216 26.3635 45.4338 24.5976 45.3867C22.8318 45.3396 21.1084 44.8346 19.5963 43.9213C18.0842 43.008 16.8353 41.7177 15.9717 40.1766C15.1081 38.6356 14.6596 36.8967 14.67 35.1302L14.7 35.0902ZM18.7 50.0902C19.338 49.2676 19.7235 48.2776 19.81 47.2402C21.5058 47.9614 23.3351 48.3155 25.1775 48.2793C27.0199 48.2431 28.8338 47.8174 30.5 47.0302C30.79 47.9402 31.14 48.8902 31.5 49.8602C30.6844 50.7376 29.7003 51.4415 28.6065 51.9298C27.5127 52.4181 26.3316 52.6809 25.1339 52.7023C23.9362 52.7238 22.7465 52.5036 21.6359 52.0547C20.5252 51.6059 19.5165 50.9378 18.67 50.0902H18.7ZM59.53 69.7102C58.3001 71.0508 56.8049 72.1212 55.1394 72.8534C53.4739 73.5857 51.6744 73.9638 49.855 73.9638C48.0357 73.9638 46.2362 73.5857 44.5706 72.8534C42.9051 72.1212 41.41 71.0508 40.18 69.7102C41.3515 68.4213 42.0005 66.742 42 65.0002V64.7702C44.4422 65.9608 47.1251 66.5746 49.842 66.5642C52.5589 66.5538 55.2371 65.9195 57.67 64.7102V65.0002C57.6805 66.7473 58.344 68.4274 59.53 69.7102ZM49.79 63.5602C45.8118 63.5602 41.9965 61.9799 39.1834 59.1668C36.3704 56.3538 34.79 52.5385 34.79 48.5602V46.3302C37.03 39.1002 38.86 37.7702 39.37 37.5402C39.4592 37.4936 39.5596 37.4728 39.66 37.4802C40.8493 39.0832 42.4143 40.3694 44.2173 41.2256C46.0203 42.0817 48.0061 42.4817 50 42.3902C51.7646 42.2896 53.4815 41.779 55.0143 40.8989C56.547 40.0188 57.8535 38.7935 58.83 37.3202C59.4792 37.4041 60.0922 37.6673 60.6 38.0802C62.71 39.6402 64.68 43.1602 64.72 45.4602V48.6002C64.7095 52.5594 63.1341 56.3539 60.3373 59.1563C57.5405 61.9587 53.7492 63.5418 49.79 63.5602V63.5602ZM68.62 50.0002C69.1628 49.1386 69.6504 48.2435 70.08 47.3202C71.6907 47.9791 73.4158 48.313 75.156 48.3027C76.8962 48.2925 78.6172 47.9381 80.22 47.2602C80.3065 48.2976 80.6921 49.2876 81.33 50.1102C80.4941 50.9482 79.4995 51.611 78.4043 52.0599C77.3092 52.5088 76.1355 52.7347 74.9519 52.7245C73.7684 52.7142 72.5988 52.468 71.5115 52.0003C70.4243 51.5325 69.4413 50.8525 68.62 50.0002V50.0002Z" fill="#7643FF"/>
</g>
<defs>
<clipPath id="clip0">
<rect width="100" height="92" fill="white"/>
</clipPath>
</defs>
</svg>
