<svg width="74" height="74" viewBox="0 0 74 74" fill="none" xmlns="http://www.w3.org/2000/svg">
<path d="M73.5063 60.2334L71.25 55.7188V41.7021C71.246 39.5912 70.5445 37.5412 69.2552 35.8731C67.9659 34.2049 66.1617 33.0129 64.125 32.4836V5.95745C64.1231 4.37801 63.497 2.86381 62.3839 1.74699C61.2708 0.630157 59.7617 0.00189192 58.1875 0H15.4375C13.8634 0.00189192 12.3542 0.630157 11.2411 1.74699C10.128 2.86381 9.50189 4.37801 9.5 5.95745V32.4836C7.46334 33.0129 5.65912 34.2049 4.36983 35.8731C3.08054 37.5412 2.37898 39.5912 2.375 41.7021V55.7188L0.124688 60.2334C0.0425164 60.3988 -0.000171352 60.5811 5.16931e-07 60.766V72.6809C5.16931e-07 72.9969 0.125112 73.2999 0.347811 73.5234C0.570511 73.7468 0.872556 73.8723 1.1875 73.8723H17.8125C18.0332 73.8724 18.2495 73.8109 18.4372 73.6945C18.625 73.5781 18.7767 73.4115 18.8753 73.2135C19.1315 72.6939 19.5279 72.2569 20.0193 71.9521C20.5107 71.6473 21.0775 71.487 21.6553 71.4894H21.9688C22.6894 71.4916 23.4033 71.3502 24.069 71.0735C24.7348 70.7967 25.3392 70.3901 25.8471 69.8773L28.9916 66.7234H44.6334L47.7767 69.8773C48.2848 70.3903 48.8894 70.7969 49.5554 71.0737C50.2213 71.3504 50.9354 71.4917 51.6563 71.4894H51.9709C52.5487 71.487 53.1155 71.6473 53.6069 71.9521C54.0983 72.2569 54.4947 72.6939 54.7509 73.2135C54.8494 73.4113 55.0009 73.5778 55.1884 73.6942C55.3759 73.8105 55.592 73.8722 55.8125 73.8723H72.4375C72.7525 73.8723 73.0545 73.7468 73.2772 73.5234C73.4999 73.2999 73.625 72.9969 73.625 72.6809V60.766C73.627 60.5816 73.5864 60.3993 73.5063 60.2334ZM11.875 5.95745C11.875 5.00944 12.2503 4.10026 12.9184 3.42992C13.5865 2.75957 14.4927 2.38298 15.4375 2.38298H58.1875C59.1323 2.38298 60.0385 2.75957 60.7066 3.42992C61.3747 4.10026 61.75 5.00944 61.75 5.95745V32.1702H59.375V8.34043C59.375 8.02442 59.2499 7.72136 59.0272 7.49792C58.8045 7.27447 58.5025 7.14894 58.1875 7.14894H15.4375C15.1226 7.14894 14.8205 7.27447 14.5978 7.49792C14.3751 7.72136 14.25 8.02442 14.25 8.34043V32.1702H11.875V5.95745ZM57 41.5329V54.8085H16.625V41.5329C17.6434 41.2729 18.5464 40.6798 19.1913 39.8473C19.8363 39.0149 20.1864 37.9906 20.1864 36.9362C20.1864 35.8818 19.8363 34.8575 19.1913 34.025C18.5464 33.1926 17.6434 32.5995 16.625 32.3394V9.53192H57V32.3394C55.9816 32.5995 55.0786 33.1926 54.4337 34.025C53.7887 34.8575 53.4386 35.8818 53.4386 36.9362C53.4386 37.9906 53.7887 39.0149 54.4337 39.8473C55.0786 40.6798 55.9816 41.2729 57 41.5329ZM24.168 68.1925C23.8799 68.4833 23.5372 68.7138 23.1597 68.8707C22.7822 69.0275 22.3774 69.1077 21.9688 69.1064H21.6541C20.7643 69.1034 19.8873 69.319 19.0996 69.7344C18.312 70.1497 17.6377 70.7523 17.1356 71.4894H2.375V61.0472L4.62531 56.5326C4.70749 56.3672 4.75017 56.1848 4.75 56V41.7021C4.75189 39.8067 5.50316 37.9894 6.83895 36.6492C8.17474 35.3089 9.98591 34.5551 11.875 34.5532H15.4375C16.0674 34.5532 16.6715 34.8043 17.1169 35.2512C17.5623 35.698 17.8125 36.3042 17.8125 36.9362C17.8125 37.5682 17.5623 38.1743 17.1169 38.6212C16.6715 39.0681 16.0674 39.3192 15.4375 39.3192H13.0625C12.1177 39.3192 11.2115 39.6957 10.5434 40.3661C9.87533 41.0364 9.5 41.9456 9.5 42.8936V60.766C9.50189 62.3454 10.128 63.8596 11.2411 64.9764C12.3542 66.0933 13.8634 66.7215 15.4375 66.7234H25.6334L24.168 68.1925ZM15.4375 64.3404C14.4927 64.3404 13.5865 63.9638 12.9184 63.2935C12.2503 62.6231 11.875 61.714 11.875 60.766V42.8936C11.875 42.5776 12.0001 42.2746 12.2228 42.0511C12.4455 41.8277 12.7476 41.7021 13.0625 41.7021H14.25V56C14.25 56.316 14.3751 56.6191 14.5978 56.8425C14.8205 57.066 15.1226 57.1915 15.4375 57.1915H58.1875C58.5025 57.1915 58.8045 57.066 59.0272 56.8425C59.2499 56.6191 59.375 56.316 59.375 56V41.7021H60.5625C60.8775 41.7021 61.1795 41.8277 61.4022 42.0511C61.6249 42.2746 61.75 42.5776 61.75 42.8936V60.766C61.75 61.714 61.3747 62.6231 60.7066 63.2935C60.0385 63.9638 59.1323 64.3404 58.1875 64.3404H15.4375ZM71.25 71.4894H56.4882C55.9867 70.7531 55.3133 70.1511 54.5268 69.7357C53.7403 69.3204 52.8645 69.1043 51.9757 69.1064H51.6563C51.2476 69.1077 50.8428 69.0275 50.4653 68.8707C50.0878 68.7138 49.7451 68.4833 49.457 68.1925L47.9916 66.7234H58.1875C59.7617 66.7215 61.2708 66.0933 62.3839 64.9764C63.497 63.8596 64.1231 62.3454 64.125 60.766V42.8936C64.125 41.9456 63.7497 41.0364 63.0816 40.3661C62.4135 39.6957 61.5073 39.3192 60.5625 39.3192H58.1875C57.5576 39.3192 56.9535 39.0681 56.5081 38.6212C56.0627 38.1743 55.8125 37.5682 55.8125 36.9362C55.8125 36.3042 56.0627 35.698 56.5081 35.2512C56.9535 34.8043 57.5576 34.5532 58.1875 34.5532H61.75C63.6391 34.5551 65.4503 35.3089 66.7861 36.6492C68.1218 37.9894 68.8731 39.8067 68.875 41.7021V56C68.873 56.1844 68.9136 56.3667 68.9938 56.5326L71.25 61.0472V71.4894Z" fill="#7643FF"/>
</svg>
