<svg width="194" height="180" viewBox="0 0 194 180" fill="none" xmlns="http://www.w3.org/2000/svg">
<path d="M193.756 41.0454C193.102 34.0772 190.977 27.7648 187.462 22.2722C180.594 11.451 170.703 4.64669 158.113 1.94138C151.164 0.465755 142.989 0.87565 136.286 3.08909C132.198 4.40075 128.519 5.95836 124.922 7.51596C123.042 8.33575 121.162 9.15554 119.281 9.89335C114.213 11.9428 108 13.0905 100.397 13.4185C93.857 13.7464 87.4805 12.9266 80.2047 10.9591C75.9536 9.81137 72.3566 8.08981 68.5961 6.36825C67.0428 5.63044 65.4895 4.89263 63.9363 4.23679C59.8487 2.43325 51.6737 -0.436015 43.1716 0.0558595C38.5936 0.383776 35.0783 0.87565 32.217 1.77742C22.8157 4.72867 15.7034 9.48346 9.89907 16.6976C3.44076 24.6496 -2.69054 39.4878 1.2335 55.3098C4.99403 70.312 15.0494 78.7558 22.3252 83.7565C27.312 87.1996 31.236 90.4788 34.6695 94.1679C38.5936 98.2668 41.6183 103.513 43.7438 107.694C47.6679 115.155 49.8751 123.352 51.0197 134.42C51.1014 135.403 51.1832 136.387 51.2649 137.371C51.4284 139.912 51.6737 142.536 52.2459 145.323C53.4722 151.061 56.3335 157.046 60.2575 162.293C63.8545 167.047 68.3508 170.982 73.6646 173.934C80.2864 177.623 86.4177 179.59 92.4673 179.918C93.53 180 94.5928 180 95.6555 180C102.032 180 108.082 178.77 113.641 176.475C125.086 171.556 133.506 162.784 138.002 150.979C139.147 147.864 140.291 144.503 140.618 140.978C141.272 133.19 142.417 125.976 143.643 121.057C144.297 118.68 145.278 116.384 146.177 114.253L146.75 112.941C150.919 103.186 157.704 94.8237 166.942 87.9375C168.25 86.9537 169.558 86.0519 170.948 85.0682C174.3 82.7728 177.733 80.3954 180.594 77.5261C190.568 67.6066 195.146 54.9819 193.756 41.0454ZM132.525 128.271C131.462 134.01 130.481 139.42 128.192 143.601C122.797 153.685 114.049 160.489 103.504 162.702C99.4161 163.522 94.2658 163.604 89.933 162.784C82.5754 161.473 77.0981 158.521 70.8033 152.619C65.5713 147.7 62.3013 141.388 60.9115 133.518C60.5845 131.796 60.421 130.075 60.1757 128.271C59.8487 125.566 59.44 122.697 58.786 119.909C56.9057 111.957 53.7992 104.579 49.2211 97.1191C45.0519 90.4788 39.9833 84.7403 34.0155 79.9855C32.9528 79.1657 31.9718 78.3459 30.909 77.6081C28.947 76.1325 27.0667 74.7388 25.4317 73.1812C19.0551 66.7868 12.8421 54.326 16.2756 40.5535C20.1179 25.0595 30.909 15.5499 47.3409 13.2545L47.9949 13.0905C56.6605 12.5167 62.71 14.9761 69.0866 17.5174C72.5201 18.993 76.0354 20.3867 80.0412 21.3704C85.9272 22.7641 92.6308 23.5019 99.2526 23.5019C99.2526 23.5019 99.2526 23.5019 99.3343 23.5019C105.466 23.5019 111.842 22.6001 118.219 20.8785C120.753 20.1407 123.206 19.157 125.495 18.1732C128.192 17.0255 130.645 15.9598 133.343 15.304C137.021 14.4022 144.215 13.1725 150.755 14.7301C160.811 17.1075 168.168 22.4362 173.4 30.88C178.142 39.1599 179.777 46.7839 178.469 54.408C176.834 63.4257 172.256 69.984 168.659 73.8371C166.86 75.8046 164.653 77.4441 162.364 79.1657L160.32 80.6413C150.592 88.1834 143.398 96.8732 138.575 107.285C136.94 110.728 135.55 114.909 134.324 119.335C133.588 122.287 133.016 125.32 132.525 128.271Z" fill="url(#paint0_linear)"/>
<path d="M148.794 77.9331C151.329 75.6377 154.026 73.2603 156.479 70.2271C158.441 67.7677 164.736 58.914 161.711 47.027C159.913 39.9768 155.334 33.7464 149.04 30.0573C142.254 26.2043 134.079 25.5485 125.168 28.3358C118.955 30.2213 111.434 32.2708 103.423 32.6807C94.5937 33.0906 86.5822 32.5167 79.6334 30.8771C76.7721 30.2213 74.0743 29.4015 71.213 28.4177L69.4963 27.8439C66.1445 26.7782 61.3212 25.6305 56.8249 25.9584C47.0966 26.7782 39.9843 31.287 35.0792 39.8128C32.6267 43.9938 31.4822 49.0765 31.7275 54.2412C32.0545 60.7175 34.5887 66.3741 39.4938 71.4568C40.72 72.7684 41.9463 73.9981 43.1726 75.2278C45.2163 77.3593 47.2601 79.4087 49.3039 81.7042C57.8059 90.9678 63.8555 101.953 67.7795 115.398C68.27 117.119 68.6788 118.923 69.0058 120.644C69.4145 122.612 69.8233 124.579 70.3955 126.301C71.7853 130.564 73.3386 133.433 75.5458 135.974C80.8596 142.205 87.6449 145.648 95.0025 145.976C95.3295 145.976 95.7382 145.976 96.0652 145.976C107.592 145.976 117.811 139.008 121.735 128.35C122.389 126.547 122.879 124.661 123.452 122.53C123.86 120.972 124.269 119.415 124.76 117.775C127.294 109.659 129.665 103.757 132.281 99.2477C134.079 96.1325 135.551 93.5911 137.268 91.2137C137.595 90.7219 138.003 90.23 138.412 89.7381C139.066 88.9183 139.72 88.1805 140.211 87.3607C142.5 83.5897 145.524 80.8844 148.794 77.9331ZM115.44 115.807C112.742 121.71 109.309 125.399 104.159 127.694C98.6813 130.154 91.1602 129.662 86.0099 126.465C81.7589 123.841 78.7341 119.251 76.8538 112.528C73.0933 99.4936 67.3708 88.5084 58.7052 77.8511C57.6424 76.5395 56.4162 75.2278 55.1899 73.9161C50.3666 68.8334 45.3798 63.5048 46.6061 54.3231C47.8323 45.4694 55.0264 38.9111 64.5095 38.0093C67.616 37.7634 70.559 38.5832 73.3386 39.321L74.7283 39.7309C86.3369 42.7641 99.744 43.6659 110.535 42.0263C112.906 41.6984 115.195 41.1245 117.402 40.5506C122.225 39.321 126.804 38.1733 131.627 39.321C137.186 40.6326 141.927 44.2397 144.462 49.1585C145.851 51.8638 146.669 54.2412 146.587 58.4221C146.587 65.5543 142.5 69.9811 138.903 73.9161C137.349 75.5557 135.878 77.4412 134.57 79.0808L133.017 80.9663C127.131 88.1805 122.798 95.7226 118.547 106.216C117.974 107.61 117.566 109.249 117.075 110.807C116.585 112.61 116.094 114.332 115.44 115.807Z" fill="url(#paint1_linear)"/>
<path d="M125.168 75.1459C127.702 72.0307 131.953 66.866 130.727 60.5536C129.582 54.6511 124.187 50.4702 117.565 50.4702C115.521 50.4702 113.232 50.7981 111.107 51.208C109.717 51.4539 108.327 51.6999 106.937 51.7819C100.316 52.4377 92.4675 52.2737 85.3552 51.4539C84.2924 51.29 83.1479 51.126 82.0034 50.8801C79.6326 50.3882 77.1801 49.9783 74.4823 50.0603C69.2503 50.3062 65.081 53.2575 63.2825 57.8483C62.3832 60.2257 62.3832 64.4066 63.3642 66.948C64.5087 69.8992 66.5525 72.1947 68.2693 74.2441C69.005 75.0639 69.659 75.8837 70.2313 76.7035C74.3188 82.1961 78.3246 89.1643 81.5129 96.3785C82.0034 97.4442 82.4939 98.7559 82.9026 100.068C83.9654 102.937 85.0282 105.97 86.6632 108.02C88.7069 110.561 92.5492 112.692 96.6368 112.692C97.6178 112.692 98.6805 112.528 99.7433 112.282C106.12 110.561 108.572 104.412 110.616 99.4937C114.213 90.7219 118.955 82.524 124.268 75.9657L125.168 75.1459ZM100.561 94.493C97.4543 96.7064 93.2032 95.8046 90.8325 92.4435C90.1784 91.5417 89.5244 90.1481 88.9522 88.9184C88.6252 88.1806 88.2164 87.3608 87.8894 86.705C85.7639 82.688 83.6384 79.0809 81.0224 75.0639L80.6136 74.4081C79.1421 72.2766 77.4253 69.6533 78.0794 66.6201C78.5699 64.1607 80.9406 62.0292 83.4749 61.6194C84.8647 61.4554 86.6632 61.6194 88.3799 61.7013C89.0339 61.7833 89.6879 61.7833 90.2602 61.8653C91.8135 61.9473 93.4485 62.0293 95.1652 62.0293L97.6995 62.1112C99.498 62.1932 101.378 62.1112 103.259 62.0293C106.365 61.8653 109.472 61.7013 111.434 62.3572C113.968 63.177 116.993 66.5381 115.848 70.5551C115.439 72.0307 114.377 73.5063 113.314 75.0639C112.987 75.5558 112.66 76.0477 112.333 76.5396C111.025 78.507 109.717 80.7205 108.327 83.0979C107.755 84.0816 107.183 85.1474 106.61 86.2951C104.73 89.3283 102.768 92.9354 100.561 94.493Z" fill="url(#paint2_linear)"/>
<defs>
<linearGradient id="paint0_linear" x1="49.876" y1="-19.3847" x2="191.379" y2="193.051" gradientUnits="userSpaceOnUse">
<stop stop-color="#00A9E0"/>
<stop offset="0.3939" stop-color="#6638B6"/>
<stop offset="0.6816" stop-color="#EE2737"/>
</linearGradient>
<linearGradient id="paint1_linear" x1="47.1399" y1="-17.5651" x2="188.642" y2="194.871" gradientUnits="userSpaceOnUse">
<stop stop-color="#00A9E0"/>
<stop offset="0.3939" stop-color="#6638B6"/>
<stop offset="0.6816" stop-color="#EE2737"/>
</linearGradient>
<linearGradient id="paint2_linear" x1="43.5045" y1="-15.1434" x2="185.006" y2="197.293" gradientUnits="userSpaceOnUse">
<stop stop-color="#00A9E0"/>
<stop offset="0.3939" stop-color="#6638B6"/>
<stop offset="0.6816" stop-color="#EE2737"/>
</linearGradient>
</defs>
</svg>
