<svg width="23" height="24" viewBox="0 0 23 24" fill="none" xmlns="http://www.w3.org/2000/svg">
<path fill-rule="evenodd" clip-rule="evenodd" d="M9.20942 11.9646V19.7316C9.20942 19.8251 9.30333 19.9187 9.39723 19.9187H12.3083C12.4022 19.9187 12.4961 19.8251 12.4961 19.7316V11.8711H14.609C14.7029 11.8711 14.7969 11.7775 14.7969 11.6839L14.9847 9.29769C14.9847 9.15732 14.8908 9.06375 14.7969 9.06375H12.4961V7.37935C12.4961 7.00504 12.8248 6.67752 13.2004 6.67752H14.7969C14.8908 6.67752 14.9847 6.58395 14.9847 6.49037V4.10415C14.9847 4.01057 14.8908 3.91699 14.7969 3.91699H12.0736C10.4772 3.91699 9.16247 5.22707 9.16247 6.81789V9.11053H7.70692C7.61301 9.11053 7.5191 9.20411 7.5191 9.29769V11.6371C7.5191 11.7307 7.61301 11.8243 7.70692 11.8243H9.16247V11.9646H9.20942Z" fill="url(#paint0_linear)"/>
<defs>
<linearGradient id="paint0_linear" x1="7.5191" y1="3.91699" x2="24.2936" y2="10.3795" gradientUnits="userSpaceOnUse">
<stop stop-color="#00A9E0"/>
<stop offset="0.507654" stop-color="#8C38B6"/>
<stop offset="1" stop-color="#EE2737"/>
</linearGradient>
</defs>
</svg>
