<svg width="35" height="36" viewBox="0 0 35 36" fill="none" xmlns="http://www.w3.org/2000/svg">
<path d="M17.3966 0C20.8374 0 24.2008 1.04563 27.0617 3.00466C29.9225 4.96368 32.1523 7.74813 33.469 11.0059C34.7857 14.2636 35.1302 17.8483 34.459 21.3067C33.7877 24.7651 32.1309 27.9419 29.6979 30.4353C27.2649 32.9286 24.1652 34.6266 20.7905 35.3146C17.4159 36.0025 13.918 35.6494 10.7392 34.3C7.56041 32.9506 4.84343 30.6655 2.93186 27.7336C1.02029 24.8017 0 21.3547 0 17.8286C0 13.1001 1.83285 8.56537 5.09535 5.22187C8.35786 1.87836 12.7828 0 17.3966 0V0Z" fill="#F6F1F1"/>
<path d="M25.9774 13.6485C25.9167 13.0291 25.7195 12.468 25.3933 11.9798C24.7562 11.0179 23.8384 10.413 22.6703 10.1726C22.0255 10.0414 21.267 10.0778 20.6451 10.2746C20.2658 10.3912 19.9245 10.5296 19.5907 10.6681C19.4163 10.741 19.2418 10.8138 19.0674 10.8794C18.5971 11.0616 18.0206 11.1636 17.3152 11.1928C16.7084 11.2219 16.1167 11.149 15.4417 10.9741C15.0472 10.8721 14.7135 10.7191 14.3646 10.5661C14.2205 10.5005 14.0763 10.4349 13.9322 10.3766C13.553 10.2163 12.7945 9.96124 12.0056 10.005C11.5808 10.0341 11.2547 10.0778 10.9892 10.158C10.1169 10.4203 9.45701 10.843 8.91847 11.4842C8.31925 12.1911 7.75036 13.51 8.11445 14.9164C8.46336 16.25 9.39633 17.0005 10.0714 17.445C10.5341 17.7511 10.8982 18.0426 11.2168 18.3705C11.5808 18.7348 11.8615 19.2012 12.0587 19.5728C12.4228 20.236 12.6276 20.9647 12.7338 21.9484C12.7414 22.0359 12.749 22.1233 12.7565 22.2107C12.7717 22.4366 12.7945 22.6698 12.8476 22.9176C12.9613 23.4277 13.2268 23.9596 13.5909 24.426C13.9246 24.8486 14.3418 25.1984 14.8349 25.4608C15.4493 25.7887 16.0181 25.9636 16.5794 25.9927C16.678 26 16.7766 26 16.8753 26C17.4669 26 18.0282 25.8907 18.544 25.6867C19.6059 25.2494 20.3872 24.4697 20.8043 23.4204C20.9105 23.1435 21.0167 22.8447 21.0471 22.5314C21.1077 21.8391 21.2139 21.1978 21.3277 20.7606C21.3884 20.5493 21.4794 20.3453 21.5629 20.1558L21.616 20.0392C22.0028 19.1721 22.6324 18.4288 23.4895 17.8167C23.6108 17.7292 23.7322 17.6491 23.8611 17.5616C24.1721 17.3576 24.4907 17.1463 24.7562 16.8912C25.6816 16.0095 26.1063 14.8873 25.9774 13.6485ZM20.2961 21.4019C20.1975 21.912 20.1065 22.3929 19.8941 22.7646C19.3935 23.6609 18.5819 24.2657 17.6034 24.4624C17.2242 24.5353 16.7463 24.5426 16.3443 24.4697C15.6616 24.3531 15.1534 24.0908 14.5694 23.5661C14.0839 23.1289 13.7805 22.5678 13.6516 21.8683C13.6212 21.7152 13.6061 21.5622 13.5833 21.4019C13.553 21.1614 13.515 20.9064 13.4544 20.6586C13.2799 19.9518 12.9917 19.2959 12.5669 18.6328C12.1801 18.0426 11.7098 17.5325 11.1561 17.1098C11.0575 17.037 10.9665 16.9641 10.8678 16.8985C10.6858 16.7673 10.5113 16.6435 10.3596 16.505C9.768 15.9366 9.19153 14.829 9.51011 13.6048C9.86661 12.2275 10.8678 11.3822 12.3925 11.1782L12.4531 11.1636C13.2572 11.1126 13.8185 11.3312 14.4101 11.5571C14.7287 11.6883 15.0548 11.8121 15.4265 11.8996C15.9726 12.0235 16.5946 12.0891 17.209 12.0891C17.209 12.0891 17.209 12.0891 17.2166 12.0891C17.7855 12.0891 18.3771 12.0089 18.9687 11.8559C19.2039 11.7903 19.4314 11.7028 19.6438 11.6154C19.8941 11.5134 20.1217 11.4186 20.372 11.3604C20.7133 11.2802 21.3808 11.1709 21.9876 11.3093C22.9206 11.5207 23.6033 11.9943 24.0887 12.7449C24.5286 13.4809 24.6803 14.1586 24.559 14.8363C24.4073 15.6378 23.9825 16.2208 23.6488 16.5633C23.4819 16.7382 23.2771 16.8839 23.0647 17.037L22.8751 17.1681C21.9725 17.8385 21.305 18.611 20.8574 19.5364C20.7057 19.8425 20.5768 20.2141 20.463 20.6076C20.3947 20.8699 20.3417 21.1396 20.2961 21.4019Z" fill="url(#paint0_linear)"/>
<path d="M21.8056 16.9275C22.0407 16.7235 22.291 16.5122 22.5186 16.2426C22.7006 16.0239 23.2847 15.2369 23.004 14.1803C22.8372 13.5536 22.4124 12.9998 21.8283 12.6719C21.1988 12.3294 20.4403 12.2711 19.6135 12.5189C19.037 12.6865 18.3392 12.8687 17.5958 12.9051C16.7766 12.9415 16.0333 12.8905 15.3886 12.7448C15.1231 12.6865 14.8728 12.6136 14.6073 12.5262L14.448 12.4752C14.137 12.3804 13.6895 12.2784 13.2723 12.3076C12.3697 12.3804 11.7098 12.7812 11.2547 13.5391C11.0271 13.9107 10.9209 14.3625 10.9437 14.8216C10.974 15.3973 11.2092 15.9001 11.6643 16.3519C11.7781 16.4685 11.8918 16.5778 12.0056 16.6871C12.1952 16.8765 12.3849 17.0587 12.5745 17.2627C13.3633 18.0862 13.9246 19.0626 14.2887 20.2577C14.3342 20.4107 14.3722 20.5711 14.4025 20.7241C14.4404 20.899 14.4784 21.0739 14.5314 21.2269C14.6604 21.6058 14.8045 21.8609 15.0093 22.0868C15.5023 22.6406 16.1319 22.9466 16.8146 22.9758C16.8449 22.9758 16.8828 22.9758 16.9132 22.9758C17.9827 22.9758 18.9308 22.3564 19.2949 21.4091C19.3556 21.2487 19.4011 21.0811 19.4542 20.8917C19.4921 20.7532 19.53 20.6148 19.5756 20.469C19.8107 19.7476 20.0307 19.2229 20.2734 18.8222C20.4403 18.5453 20.5768 18.3194 20.7361 18.108C20.7664 18.0643 20.8043 18.0206 20.8423 17.9769C20.9029 17.904 20.9636 17.8384 21.0091 17.7655C21.2215 17.4303 21.5022 17.1899 21.8056 16.9275ZM18.7108 20.2941C18.4605 20.8188 18.142 21.1467 17.6641 21.3508C17.1559 21.5694 16.4581 21.5257 15.9802 21.2415C15.5858 21.0083 15.3051 20.6002 15.1307 20.0027C14.7818 18.844 14.2508 17.8676 13.4468 16.9202C13.3482 16.8037 13.2344 16.6871 13.1206 16.5705C12.6731 16.1187 12.2104 15.645 12.3242 14.8289C12.438 14.0419 13.1054 13.4589 13.9853 13.3788C14.2736 13.3569 14.5466 13.4298 14.8045 13.4953L14.9335 13.5318C16.0105 13.8014 17.2545 13.8816 18.2557 13.7358C18.4757 13.7067 18.6881 13.6557 18.8929 13.6046C19.3404 13.4953 19.7652 13.3933 20.2127 13.4953C20.7285 13.6119 21.1684 13.9326 21.4036 14.3698C21.5325 14.6103 21.6084 14.8216 21.6008 15.1932C21.6008 15.8272 21.2215 16.2207 20.8878 16.5705C20.7437 16.7162 20.6071 16.8838 20.4858 17.0296L20.3416 17.1972C19.7955 17.8384 19.3935 18.5088 18.9991 19.4416C18.946 19.5654 18.9081 19.7112 18.8625 19.8496C18.817 20.01 18.7715 20.163 18.7108 20.2941Z" fill="url(#paint1_linear)"/>
<path d="M19.6135 16.6797C19.8487 16.4028 20.2431 15.9437 20.1293 15.3826C20.0231 14.858 19.5225 14.4863 18.9081 14.4863C18.7185 14.4863 18.5061 14.5155 18.3089 14.5519C18.1799 14.5738 18.051 14.5956 17.922 14.6029C17.3077 14.6612 16.5795 14.6467 15.9196 14.5738C15.821 14.5592 15.7148 14.5446 15.6086 14.5228C15.3886 14.4791 15.1611 14.4426 14.9108 14.4499C14.4253 14.4718 14.0385 14.7341 13.8716 15.1422C13.7882 15.3535 13.7882 15.7251 13.8792 15.951C13.9854 16.2134 14.175 16.4174 14.3343 16.5996C14.4026 16.6725 14.4632 16.7453 14.5163 16.8182C14.8956 17.3064 15.2673 17.9258 15.5631 18.5671C15.6086 18.6618 15.6541 18.7784 15.692 18.895C15.7906 19.15 15.8892 19.4197 16.0409 19.6018C16.2306 19.8277 16.5871 20.0172 16.9663 20.0172C17.0573 20.0172 17.156 20.0026 17.2546 19.9808C17.8462 19.8277 18.0738 19.2812 18.2634 18.844C18.5971 18.0643 19.0371 17.3356 19.5301 16.7526L19.6135 16.6797ZM17.3304 18.3995C17.0422 18.5962 16.6477 18.5161 16.4278 18.2173C16.3671 18.1371 16.3064 18.0133 16.2533 17.904C16.223 17.8384 16.1851 17.7655 16.1547 17.7072C15.9575 17.3501 15.7603 17.0295 15.5176 16.6725L15.4796 16.6142C15.3431 16.4247 15.1838 16.1915 15.2445 15.9219C15.29 15.7033 15.51 15.5138 15.7451 15.4774C15.8741 15.4628 16.0409 15.4774 16.2002 15.4847C16.2609 15.492 16.3216 15.492 16.3747 15.4992C16.5188 15.5065 16.6705 15.5138 16.8298 15.5138L17.0649 15.5211C17.2318 15.5284 17.4063 15.5211 17.5807 15.5138C17.869 15.4992 18.1572 15.4847 18.3392 15.543C18.5744 15.6158 18.855 15.9146 18.7488 16.2717C18.7109 16.4028 18.6123 16.534 18.5137 16.6725C18.4833 16.7162 18.453 16.7599 18.4227 16.8036C18.3013 16.9785 18.1799 17.1753 18.051 17.3866C17.9979 17.474 17.9448 17.5688 17.8917 17.6708C17.7173 17.9404 17.5352 18.261 17.3304 18.3995Z" fill="url(#paint2_linear)"/>
<defs>
<linearGradient id="paint0_linear" x1="12.6277" y1="8.27692" x2="24.99" y2="27.6494" gradientUnits="userSpaceOnUse">
<stop stop-color="#00A9E0"/>
<stop offset="0.3939" stop-color="#6638B6"/>
<stop offset="0.6816" stop-color="#EE2737"/>
</linearGradient>
<linearGradient id="paint1_linear" x1="12.3737" y1="8.4388" x2="24.7359" y2="27.8114" gradientUnits="userSpaceOnUse">
<stop stop-color="#00A9E0"/>
<stop offset="0.3939" stop-color="#6638B6"/>
<stop offset="0.6816" stop-color="#EE2737"/>
</linearGradient>
<linearGradient id="paint2_linear" x1="12.0365" y1="8.65402" x2="24.3987" y2="28.0266" gradientUnits="userSpaceOnUse">
<stop stop-color="#00A9E0"/>
<stop offset="0.3939" stop-color="#6638B6"/>
<stop offset="0.6816" stop-color="#EE2737"/>
</linearGradient>
</defs>
</svg>
