<svg width="18" height="19" viewBox="0 0 18 19" fill="none" xmlns="http://www.w3.org/2000/svg">
<path d="M13.3837 3.9069C12.7954 3.9069 12.3542 4.34658 12.3542 4.93281C12.3542 5.51905 12.7954 5.95872 13.3837 5.95872C13.972 5.95872 14.4132 5.51905 14.4132 4.93281C14.4132 4.34658 13.923 3.9069 13.3837 3.9069ZM8.7754 5.22593C6.3732 5.22593 4.46124 7.18004 4.46124 9.52498C4.46124 11.8699 6.42222 13.824 8.7754 13.824C11.1776 13.824 13.0896 11.8699 13.0896 9.52498C13.0896 7.18004 11.1776 5.22593 8.7754 5.22593ZM8.7754 12.3096C7.25564 12.3096 5.98099 11.0883 5.98099 9.52498C5.98099 8.01054 7.20661 6.74037 8.7754 6.74037C10.2952 6.74037 11.5698 7.96169 11.5698 9.52498C11.5698 11.0883 10.2952 12.3096 8.7754 12.3096ZM17.5508 5.95872C17.5508 3.02755 15.1976 0.682617 12.2561 0.682617H5.29465C2.35317 0.682617 0 3.02755 0 5.95872V12.8958C0 15.827 2.35317 18.1719 5.29465 18.1719H12.2561C15.1976 18.1719 17.5508 15.827 17.5508 12.8958V5.95872ZM15.884 12.8958C15.884 14.8988 14.2662 16.5109 12.2561 16.5109H5.29465C3.28464 16.5109 1.66683 14.8988 1.66683 12.8958V5.95872C1.66683 3.95576 3.28464 2.34361 5.29465 2.34361H12.2561C14.2662 2.34361 15.884 3.95576 15.884 5.95872V12.8958Z" fill="url(#paint0_linear)"/>
<defs>
<linearGradient id="paint0_linear" x1="0" y1="0.682617" x2="35.9422" y2="13.7206" gradientUnits="userSpaceOnUse">
<stop stop-color="#00A9E0"/>
<stop offset="0.507654" stop-color="#8C38B6"/>
<stop offset="1" stop-color="#EE2737"/>
</linearGradient>
</defs>
</svg>
