<svg width="19" height="20" viewBox="0 0 19 20" fill="none" xmlns="http://www.w3.org/2000/svg">
<path d="M9.38465 0.298828C4.20208 0.298828 0 4.52745 0 9.74414C0 14.9608 4.20208 19.1895 9.38465 19.1895C14.5672 19.1895 18.7682 14.9608 18.7682 9.74414C18.7682 4.52745 14.5672 0.298828 9.38465 0.298828ZM13.6876 13.922C13.5195 14.1995 13.1587 14.2875 12.883 14.1171C10.68 12.7625 7.90664 12.4557 4.64022 13.2069C4.32535 13.2791 4.01159 13.0806 3.93987 12.7636C3.86704 12.4467 4.06426 12.1308 4.37913 12.0587C7.9537 11.2364 11.0207 11.5906 13.4937 13.1121C13.7694 13.2825 13.8568 13.6445 13.6876 13.922ZM14.8362 11.3492C14.6244 11.6966 14.1739 11.806 13.8299 11.5928C11.3075 10.0318 7.4629 9.57946 4.47886 10.492C4.09227 10.6093 3.68327 10.3893 3.56561 10.0013C3.44907 9.61104 3.66758 9.20048 4.05417 9.08204C7.46178 8.04209 11.6986 8.54515 14.5952 10.3374C14.9392 10.5506 15.0479 11.0029 14.8362 11.3492ZM14.9348 8.67148C11.9104 6.8634 6.92055 6.69759 4.03288 7.57964C3.56897 7.72063 3.07929 7.45782 2.9381 6.99086C2.79803 6.52389 3.05912 6.03098 3.52303 5.88886C6.83763 4.87598 12.3485 5.07111 15.8301 7.15215C16.2481 7.40142 16.3848 7.94396 16.1371 8.36242C15.8906 8.78201 15.3505 8.92075 14.9348 8.67148Z" fill="url(#paint0_linear)"/>
<defs>
<linearGradient id="paint0_linear" x1="0" y1="0.298828" x2="18.922" y2="0.454195" gradientUnits="userSpaceOnUse">
<stop stop-color="#00A9E0"/>
<stop offset="1" stop-color="#8C38B6"/>
</linearGradient>
</defs>
</svg>
