<svg width="35" height="20" viewBox="0 0 35 20" fill="none" xmlns="http://www.w3.org/2000/svg">
<g clipPath="url(#clip0)">
<path d="M34.1096 0H-0.263428V19.9038H34.1096V0Z" fill="#3C9242"/>
<path d="M5.05615 9.95194L16.923 17.4667L28.7899 9.95194L16.923 2.43723L5.05615 9.95194Z" fill="#EDC226"/>
<path d="M21.9357 9.95192C21.9357 12.6938 19.685 14.9279 16.9229 14.9279C14.1608 14.9279 11.9102 12.6938 11.9102 9.95192C11.9102 7.21007 14.1608 4.97597 16.9229 4.97597C19.685 4.97597 21.9357 7.21007 21.9357 9.95192Z" fill="#2D146E"/>
<path d="M14.0587 7.81934C13.4449 7.81934 12.9334 7.81934 12.3196 7.92089C12.2173 8.12399 12.115 8.42864 12.0127 8.63174C12.6265 8.53019 13.3426 8.42864 13.9564 8.42864C16.9231 8.42864 19.5829 9.54569 21.6289 11.3736C21.7312 11.0689 21.7312 10.8658 21.8335 10.5612C19.7875 8.83484 17.0254 7.81934 14.0587 7.81934Z" fill="white"/>
<path fill-rule="evenodd" clip-rule="evenodd" d="M12.6263 8.53024C12.7286 8.53024 12.8308 8.42869 12.8308 8.22558C12.8308 8.12403 12.7286 8.02248 12.6263 8.02248C12.5239 8.02248 12.4216 8.12403 12.4216 8.32713C12.4216 8.42869 12.5239 8.53024 12.6263 8.53024ZM12.6263 8.42869C12.7286 8.42869 12.7286 8.32714 12.7286 8.22558C12.7286 8.12403 12.6263 8.12403 12.6263 8.12403C12.5239 8.12403 12.5239 8.22558 12.5239 8.32713C12.5239 8.32713 12.5239 8.42869 12.6263 8.42869Z" fill="#3C9242"/>
<path fill-rule="evenodd" clip-rule="evenodd" d="M13.0357 8.4287L13.138 8.2256H13.3426C13.4449 8.2256 13.4449 8.12404 13.4449 8.02249C13.4449 7.92094 13.3426 7.92094 13.2403 7.92094H12.9333L13.0357 8.4287ZM13.0357 8.2256H13.2403C13.2403 8.2256 13.3426 8.22559 13.3426 8.12404C13.3426 8.12404 13.3426 8.02249 13.2403 8.02249H13.0357V8.2256Z" fill="#3C9242"/>
<path d="M13.4448 8.42865C13.4448 8.3271 13.4448 8.22555 13.3425 8.22555H13.2402C13.3425 8.22555 13.3425 8.3271 13.4448 8.42865Z" fill="#3C9242"/>
<path fill-rule="evenodd" clip-rule="evenodd" d="M13.6494 8.4287H13.854C13.9563 8.4287 14.0586 8.32715 14.0586 8.2256V8.12404C14.0586 8.02249 13.9563 7.92094 13.854 7.92094H13.6494V8.4287ZM13.7517 8.32715H13.854C13.9563 8.32715 13.9563 8.2256 13.9563 8.2256C13.9563 8.12404 13.854 8.12404 13.854 8.12404H13.7517V8.32715Z" fill="#3C9242"/>
<path d="M14.2634 8.4287H14.6726V8.32715H14.2634V8.2256H14.5703V8.12404H14.3657V8.02249H14.6726V7.92094H14.2634V8.4287Z" fill="#3C9242"/>
<path d="M14.8772 8.4287L14.9795 8.12404V8.4287H15.0818L15.1841 8.12404V8.4287H15.2864V8.02249H15.1841L15.0818 8.32715L14.9795 7.92094H14.8772V8.4287Z" fill="#3C9242"/>
<path d="M15.7979 8.53022L16.2071 8.63177V8.53022L15.9001 8.42867V8.32712L16.1048 8.42867L16.2071 8.32712H15.9001L16.0024 8.22557H16.2071L15.9001 8.12402L15.7979 8.53022Z" fill="#3C9242"/>
<path fill-rule="evenodd" clip-rule="evenodd" d="M16.7188 8.7333L16.8211 8.63175H17.0256C17.1279 8.63175 17.2302 8.63175 17.2302 8.5302C17.2302 8.42865 17.2302 8.3271 17.1279 8.3271L16.8211 8.22555L16.7188 8.7333ZM16.9233 8.42865H17.1279H17.2302V8.3271H17.0256L16.9233 8.42865Z" fill="#3C9242"/>
<path fill-rule="evenodd" clip-rule="evenodd" d="M17.3323 8.83489L17.4346 8.73334L17.6392 8.83489C17.7415 8.83489 17.8438 8.83489 17.8438 8.73334C17.8438 8.63179 17.8438 8.53024 17.7415 8.53024L17.4346 8.42869L17.3323 8.83489ZM17.4346 8.63179L17.6392 8.73334H17.7415V8.63179L17.5369 8.53024L17.4346 8.63179Z" fill="#3C9242"/>
<path d="M17.7414 9.03795C17.7414 8.9364 17.8437 8.83485 17.7414 8.83485H17.6392C17.6392 8.7333 17.6392 8.9364 17.7414 9.03795Z" fill="#3C9242"/>
<path fill-rule="evenodd" clip-rule="evenodd" d="M18.0483 9.1395C18.1506 9.1395 18.253 9.1395 18.3553 9.03795C18.3553 8.9364 18.3553 8.7333 18.253 8.7333C18.1507 8.7333 18.0483 8.7333 17.946 8.83485C17.946 8.9364 17.9461 9.03795 18.0483 9.1395ZM18.1507 9.03795C18.253 9.03795 18.253 9.03795 18.3553 8.9364C18.3553 8.83485 18.3553 8.7333 18.253 8.7333C18.1507 8.7333 18.1506 8.7333 18.0483 8.83485C18.0483 8.9364 18.0484 9.03795 18.1507 9.03795Z" fill="#3C9242"/>
<path fill-rule="evenodd" clip-rule="evenodd" d="M18.6622 9.34264C18.7645 9.34264 18.8668 9.34264 18.9691 9.24109C18.9691 9.13954 18.9691 8.93644 18.8668 8.93644C18.7646 8.93644 18.6622 8.93644 18.5599 9.03799C18.4577 9.13954 18.56 9.34264 18.6622 9.34264ZM18.6622 9.24109C18.7645 9.24109 18.7646 9.24109 18.8668 9.13954C18.8668 9.03799 18.8668 8.93644 18.7645 8.93644C18.6623 8.93644 18.6622 8.93644 18.5599 9.03799C18.5599 9.13954 18.6622 9.24109 18.6622 9.24109Z" fill="#3C9242"/>
<path d="M18.7644 9.13952L18.969 9.24107H18.8667H18.7644V9.13952Z" fill="#3C9242"/>
<path d="M18.8667 9.24106H18.969L18.8667 9.44416H18.7644L18.8667 9.24106Z" fill="#3C9242"/>
<path fill-rule="evenodd" clip-rule="evenodd" d="M18.969 9.54572L19.1736 9.44417L19.3782 9.54572C19.4805 9.54572 19.5828 9.54572 19.5828 9.44417C19.5828 9.34262 19.5828 9.24107 19.4805 9.24107L19.1736 9.13952L18.969 9.54572ZM19.1736 9.34262L19.3782 9.44417H19.4805V9.34262L19.2759 9.24107L19.1736 9.34262Z" fill="#3C9242"/>
<path d="M19.3784 9.64723C19.3784 9.54568 19.4808 9.44413 19.3784 9.44413L19.2761 9.34258C19.3784 9.44413 19.2761 9.54568 19.3784 9.64723Z" fill="#3C9242"/>
<path d="M19.583 9.74878L19.8899 9.95188H19.9922L19.6853 9.74878V9.64723L19.9922 9.74878L19.7876 9.54568V9.44413L20.0945 9.64723V9.54568L19.7876 9.34258L19.583 9.74878Z" fill="#3C9242"/>
<path d="M20.1967 10.0534C20.1967 10.0534 20.1967 10.155 20.299 10.155C20.4013 10.155 20.4013 10.155 20.4013 10.155C20.5036 10.0534 20.1967 9.9519 20.1967 9.85035C20.299 9.7488 20.4013 9.85035 20.5036 9.85035C20.6059 9.85035 20.6059 9.9519 20.6059 10.0534L20.5036 9.9519V9.85035H20.4013C20.4013 9.9519 20.6059 10.0534 20.6059 10.155C20.5036 10.2565 20.4013 10.2565 20.299 10.155C20.1967 10.155 20.0944 10.0534 20.1967 10.0534Z" fill="#3C9242"/>
<path d="M20.7081 10.3581V10.4597C20.8104 10.4597 20.8104 10.4597 20.8104 10.4597C20.9127 10.3581 20.6058 10.2566 20.7081 10.155C20.8104 10.0535 20.9126 10.155 21.0149 10.155C21.1172 10.155 21.1172 10.2566 21.1172 10.3581L21.0149 10.2566V10.155H20.9127C20.9127 10.2566 21.1172 10.3581 21.0149 10.4597C20.9126 10.5612 20.8104 10.4597 20.7081 10.4597C20.7081 10.4597 20.6058 10.3581 20.7081 10.3581Z" fill="#3C9242"/>
<path fill-rule="evenodd" clip-rule="evenodd" d="M21.2195 10.8659C21.3218 10.9674 21.4241 10.8659 21.5264 10.7643C21.6287 10.6628 21.6287 10.5612 21.5264 10.4597C21.4241 10.3581 21.3218 10.4597 21.2195 10.5612C21.1172 10.6628 21.1172 10.8659 21.2195 10.8659ZM21.3218 10.8659C21.4241 10.8659 21.4241 10.8659 21.5264 10.8659C21.6287 10.7643 21.5264 10.7643 21.5264 10.6628C21.4241 10.6628 21.4241 10.6628 21.3218 10.6628C21.2196 10.6628 21.2196 10.7643 21.3218 10.8659Z" fill="#3C9242"/>
<path d="M12.8313 8.83483L12.729 9.03793H12.8313V8.83483Z" fill="white"/>
<path d="M12.8313 8.83483V9.03793H12.729L12.8313 8.83483Z" fill="white"/>
<path d="M13.0357 8.93644H12.8311V9.03799L13.0357 8.93644Z" fill="white"/>
<path d="M13.0359 8.93644L12.8313 9.13954L12.729 9.03799L13.0359 8.93644Z" fill="white"/>
<path d="M12.6267 8.93644L12.729 9.13954L12.8313 9.03799L12.6267 8.93644Z" fill="white"/>
<path d="M12.6267 8.93644H12.8313V9.03799L12.6267 8.93644Z" fill="white"/>
<path d="M12.9336 9.24108L12.8313 9.03798H12.729L12.9336 9.24108Z" fill="white"/>
<path d="M12.9336 9.24108L12.729 9.13953L12.8313 9.03798L12.9336 9.24108Z" fill="white"/>
<path d="M12.729 9.24108L12.8313 9.13953V9.03798L12.729 9.24108Z" fill="white"/>
<path d="M12.729 9.24108V9.03798H12.8313L12.729 9.24108Z" fill="white"/>
<path d="M13.2405 10.9674L13.1382 11.1705H13.2405V10.9674Z" fill="white"/>
<path d="M13.2402 10.9674L13.3426 11.1705H13.2402V10.9674Z" fill="white"/>
<path d="M13.4448 11.069H13.2402V11.1705L13.4448 11.069Z" fill="white"/>
<path d="M13.4448 11.069L13.2402 11.1705V11.069H13.4448Z" fill="white"/>
<path d="M13.0356 11.069L13.2403 11.1705V11.069H13.0356Z" fill="white"/>
<path d="M13.0356 11.069H13.2403V11.1705L13.0356 11.069Z" fill="white"/>
<path d="M13.3426 11.2721V11.069L13.2402 11.1705L13.3426 11.2721Z" fill="white"/>
<path d="M13.3426 11.2721L13.2402 11.1705V11.069L13.3426 11.2721Z" fill="white"/>
<path d="M13.1382 11.2721L13.3428 11.1705L13.2405 11.069L13.1382 11.2721Z" fill="white"/>
<path d="M13.1382 11.2721V11.069L13.3428 11.1705L13.1382 11.2721Z" fill="white"/>
<path d="M12.6267 11.4752L12.729 11.5768H12.6267V11.4752Z" fill="white"/>
<path d="M12.729 11.6783L12.6267 11.5767L12.729 11.6783Z" fill="white"/>
<path d="M12.729 11.6783L12.6267 11.5767L12.729 11.6783Z" fill="white"/>
<path d="M12.5242 11.6783L12.6265 11.5767L12.5242 11.6783Z" fill="white"/>
<path d="M12.5242 11.6783L12.6265 11.5767L12.5242 11.6783Z" fill="white"/>
<path d="M13.8542 10.7643H13.752V10.8659L13.8542 10.7643Z" fill="white"/>
<path d="M13.8542 10.7643L13.752 10.8659L13.8542 10.7643Z" fill="white"/>
<path d="M13.6494 10.7643L13.7517 10.8659L13.6494 10.7643Z" fill="white"/>
<path d="M13.6494 10.7643H13.7517V10.8659L13.6494 10.7643Z" fill="white"/>
<path d="M13.6494 10.8659H13.7517V10.7643L13.6494 10.8659Z" fill="white"/>
<path d="M14.2634 11.4752V11.5768L14.3658 11.6783L14.2634 11.4752Z" fill="white"/>
<path d="M14.2634 11.4752L14.3658 11.5768L14.2634 11.6783V11.4752Z" fill="white"/>
<path d="M14.4681 11.5767H14.2634V11.6783L14.4681 11.5767Z" fill="white"/>
<path d="M14.4681 11.5767L14.3657 11.6783L14.2634 11.5767H14.4681Z" fill="white"/>
<path d="M14.1609 11.5767L14.2632 11.6783L14.3655 11.5767H14.1609Z" fill="white"/>
<path d="M14.1609 11.5767H14.2632V11.6783L14.1609 11.5767Z" fill="white"/>
<path d="M14.3658 11.7798V11.5767L14.2634 11.6783L14.3658 11.7798Z" fill="white"/>
<path d="M14.3658 11.7798L14.2634 11.6783V11.5767L14.3658 11.7798Z" fill="white"/>
<path d="M14.1609 11.7798L14.3655 11.6783L14.2632 11.5767L14.1609 11.7798Z" fill="white"/>
<path d="M14.1609 11.7798L14.2632 11.5767L14.3655 11.6783L14.1609 11.7798Z" fill="white"/>
<path d="M14.1609 11.9829L14.0586 12.0845L14.1609 12.186V11.9829Z" fill="white"/>
<path d="M14.2632 12.0845H14.1609V12.186L14.2632 12.0845Z" fill="white"/>
<path d="M14.2632 12.0845L14.1609 12.186V12.0845H14.2632Z" fill="white"/>
<path d="M13.9563 12.0845L14.1609 12.186V12.0845H13.9563Z" fill="white"/>
<path d="M13.9563 12.0845H14.1609V12.186L13.9563 12.0845Z" fill="white"/>
<path d="M14.2632 12.2876L14.1609 12.0845H14.0586L14.2632 12.2876Z" fill="white"/>
<path d="M14.2632 12.2876L14.0586 12.186L14.1609 12.0845L14.2632 12.2876Z" fill="white"/>
<path d="M14.0586 12.2876L14.1609 12.186V12.0845L14.0586 12.2876Z" fill="white"/>
<path d="M14.0586 12.2876V12.0845H14.1609L14.0586 12.2876Z" fill="white"/>
<path d="M18.4578 8.22555L18.3555 8.42865H18.4578V8.22555Z" fill="white"/>
<path d="M18.4575 8.22555L18.5598 8.42865H18.4575V8.22555Z" fill="white"/>
<path d="M18.6621 8.32709H18.4575V8.42864L18.6621 8.32709Z" fill="white"/>
<path d="M18.6621 8.32709L18.4575 8.42864V8.32709H18.6621Z" fill="white"/>
<path d="M18.2529 8.32709L18.4575 8.42864V8.32709H18.2529Z" fill="white"/>
<path d="M18.2529 8.32709H18.4575V8.42864L18.2529 8.32709Z" fill="white"/>
<path d="M18.5598 8.53019L18.4575 8.32709V8.42864L18.5598 8.53019Z" fill="white"/>
<path d="M18.5601 8.53019L18.3555 8.42864L18.4578 8.32709L18.5601 8.53019Z" fill="white"/>
<path d="M18.3555 8.53019L18.4578 8.42864V8.32709L18.3555 8.53019Z" fill="white"/>
<path d="M18.3555 8.53019V8.32709L18.4578 8.42864L18.3555 8.53019Z" fill="white"/>
<path d="M20.4014 11.4752L20.2991 11.6783H20.4014V11.4752Z" fill="white"/>
<path d="M20.4014 11.4752L20.5036 11.6783H20.4014V11.4752Z" fill="white"/>
<path d="M20.6059 11.5767H20.4014V11.6783L20.6059 11.5767Z" fill="white"/>
<path d="M20.6059 11.5767L20.4014 11.7798V11.6783L20.6059 11.5767Z" fill="white"/>
<path d="M20.1968 11.5767L20.4013 11.7798V11.6783L20.1968 11.5767Z" fill="white"/>
<path d="M20.1968 11.5767H20.4013V11.6783L20.1968 11.5767Z" fill="white"/>
<path d="M20.5036 11.8814V11.6783H20.4014L20.5036 11.8814Z" fill="white"/>
<path d="M20.5036 11.8814L20.4014 11.7798V11.6783L20.5036 11.8814Z" fill="white"/>
<path d="M20.2991 11.8814L20.4014 11.7798V11.6783L20.2991 11.8814Z" fill="white"/>
<path d="M20.2991 11.8814V11.6783H20.4014L20.2991 11.8814Z" fill="white"/>
<path d="M21.1174 11.5767L21.0151 11.6783L21.1174 11.7798V11.5767Z" fill="white"/>
<path d="M21.2198 11.6783H21.1174V11.7798L21.2198 11.6783Z" fill="white"/>
<path d="M21.2198 11.6783L21.1174 11.7798V11.6783H21.2198Z" fill="white"/>
<path d="M20.9131 11.6783L21.1177 11.7798V11.6783H20.9131Z" fill="white"/>
<path d="M20.9131 11.6783H21.1177V11.7798L20.9131 11.6783Z" fill="white"/>
<path d="M21.2198 11.8814L21.1174 11.6783V11.7798L21.2198 11.8814Z" fill="white"/>
<path d="M21.2198 11.8814L21.1174 11.7798V11.6783L21.2198 11.8814Z" fill="white"/>
<path d="M21.0151 11.8814L21.1174 11.7798V11.6783L21.0151 11.8814Z" fill="white"/>
<path d="M21.0151 11.8814V11.6783L21.1174 11.7798L21.0151 11.8814Z" fill="white"/>
<path d="M20.6057 11.9829L20.708 12.0845L20.6057 12.186V11.9829Z" fill="white"/>
<path d="M20.8103 12.0845H20.6057V12.186L20.8103 12.0845Z" fill="white"/>
<path d="M20.8103 12.0845L20.6057 12.186V12.0845H20.8103Z" fill="white"/>
<path d="M20.4014 12.0845L20.6059 12.186V12.0845H20.4014Z" fill="white"/>
<path d="M20.4014 12.0845H20.6059V12.186L20.4014 12.0845Z" fill="white"/>
<path d="M20.708 12.2876V12.0845H20.6057L20.708 12.2876Z" fill="white"/>
<path d="M20.708 12.2876L20.6057 12.186V12.0845L20.708 12.2876Z" fill="white"/>
<path d="M20.5034 12.2876L20.6057 12.186V12.0845L20.5034 12.2876Z" fill="white"/>
<path d="M20.5034 12.2876L20.6057 12.0845L20.5034 12.2876Z" fill="white"/>
<path d="M19.3784 12.9985V13.2016H19.4806L19.3784 12.9985Z" fill="white"/>
<path d="M19.3784 12.9985L19.4806 13.2016H19.3784V12.9985Z" fill="white"/>
<path d="M19.583 13.1H19.3784V13.2015L19.583 13.1Z" fill="white"/>
<path d="M19.583 13.1L19.3784 13.2015V13.1H19.583Z" fill="white"/>
<path d="M19.2761 13.1L19.3785 13.2015V13.1H19.2761Z" fill="white"/>
<path d="M19.2761 13.1H19.3785V13.2015L19.2761 13.1Z" fill="white"/>
<path d="M19.4806 13.3031V13.1L19.3784 13.2015L19.4806 13.3031Z" fill="white"/>
<path d="M19.4806 13.3031L19.3784 13.2015V13.1L19.4806 13.3031Z" fill="white"/>
<path d="M19.2761 13.3031L19.4807 13.2015L19.3784 13.1L19.2761 13.3031Z" fill="white"/>
<path d="M19.2761 13.3031L19.3784 13.1L19.4807 13.2015L19.2761 13.3031Z" fill="white"/>
<path d="M19.3784 13.5062L19.4806 13.6078L19.3784 13.7093V13.5062Z" fill="white"/>
<path d="M19.4806 13.6077H19.3784V13.7093L19.4806 13.6077Z" fill="white"/>
<path d="M19.4806 13.6077L19.3784 13.7093V13.6077H19.4806Z" fill="white"/>
<path d="M19.2761 13.6077L19.3785 13.7093V13.6077H19.2761Z" fill="white"/>
<path d="M19.2761 13.6077H19.3785V13.7093L19.2761 13.6077Z" fill="white"/>
<path d="M19.4806 13.8108V13.6077L19.3784 13.7093L19.4806 13.8108Z" fill="white"/>
<path d="M19.4806 13.8108L19.3784 13.7093V13.6077L19.4806 13.8108Z" fill="white"/>
<path d="M19.2761 13.8108L19.3785 13.7093V13.6077L19.2761 13.8108Z" fill="white"/>
<path d="M19.2761 13.8108L19.3785 13.6077V13.7093L19.2761 13.8108Z" fill="white"/>
<path d="M19.8899 12.5922L19.9922 12.7953H19.8899V12.5922Z" fill="white"/>
<path d="M19.9922 12.6938H19.8899V12.7953L19.9922 12.6938Z" fill="white"/>
<path d="M19.9922 12.6938L19.8899 12.7953L19.9922 12.6938Z" fill="white"/>
<path d="M19.7876 12.6938L19.8899 12.7953L19.7876 12.6938Z" fill="white"/>
<path d="M19.7876 12.6938H19.8899V12.7953L19.7876 12.6938Z" fill="white"/>
<path d="M19.9922 12.8969L19.8899 12.7953L19.9922 12.8969Z" fill="white"/>
<path d="M19.9922 12.8969L19.8899 12.7953L19.9922 12.8969Z" fill="white"/>
<path d="M19.7876 12.8969L19.8899 12.7953L19.7876 12.8969Z" fill="white"/>
<path d="M19.7876 12.8969L19.8899 12.7953L19.7876 12.8969Z" fill="white"/>
<path d="M20.2991 12.3891L20.1968 12.4906H20.2991V12.3891Z" fill="white"/>
<path d="M20.2991 12.3891L20.4014 12.4906H20.2991V12.3891Z" fill="white"/>
<path d="M20.5037 12.4907H20.2991V12.5922L20.5037 12.4907Z" fill="white"/>
<path d="M20.5037 12.4907L20.2991 12.5922V12.4907H20.5037Z" fill="white"/>
<path d="M20.0945 12.4907L20.2991 12.5922V12.4907H20.0945Z" fill="white"/>
<path d="M20.0945 12.4907H20.2991V12.5922L20.0945 12.4907Z" fill="white"/>
<path d="M20.4014 12.6938V12.4907H20.2991L20.4014 12.6938Z" fill="white"/>
<path d="M20.4014 12.6938L20.2991 12.5922V12.4907L20.4014 12.6938Z" fill="white"/>
<path d="M20.1968 12.6938L20.2991 12.5922V12.4907L20.1968 12.6938Z" fill="white"/>
<path d="M20.1968 12.6938L20.2991 12.4907L20.1968 12.6938Z" fill="white"/>
<path d="M19.4806 12.5922H19.3784V12.6938L19.4806 12.5922Z" fill="white"/>
<path d="M19.4806 12.5922L19.3784 12.6938L19.4806 12.5922Z" fill="white"/>
<path d="M19.2761 12.5922L19.3785 12.6938L19.2761 12.5922Z" fill="white"/>
<path d="M19.2761 12.5922H19.3785V12.6938L19.2761 12.5922Z" fill="white"/>
<path d="M19.4806 12.7953L19.3784 12.6938L19.4806 12.7953Z" fill="white"/>
<path d="M19.4806 12.7953L19.3784 12.6938L19.4806 12.7953Z" fill="white"/>
<path d="M19.2761 12.7953L19.3785 12.6938L19.2761 12.7953Z" fill="white"/>
<path d="M19.2761 12.7953L19.3785 12.6938L19.2761 12.7953Z" fill="white"/>
<path d="M14.9792 9.95195L15.0815 10.1551H14.9792V9.95195Z" fill="white"/>
<path d="M15.1839 10.0535H14.9792V10.155L15.1839 10.0535Z" fill="white"/>
<path d="M15.1839 10.0535L14.9792 10.155L15.1839 10.0535Z" fill="white"/>
<path d="M14.7749 10.0535L14.9795 10.155L14.7749 10.0535Z" fill="white"/>
<path d="M14.7749 10.0535H14.9795V10.155L14.7749 10.0535Z" fill="white"/>
<path d="M15.0815 10.2566V10.155H14.9792L15.0815 10.2566Z" fill="white"/>
<path d="M15.0815 10.2566L14.9792 10.155L15.0815 10.2566Z" fill="white"/>
<path d="M14.8772 10.2566L14.9795 10.155L14.8772 10.2566Z" fill="white"/>
<path d="M14.8772 10.2566L14.9795 10.155L14.8772 10.2566Z" fill="white"/>
<path d="M18.3552 9.64726H18.2529V9.74881L18.3552 9.64726Z" fill="white"/>
<path d="M18.3552 9.64726L18.2529 9.74881V9.64726H18.3552Z" fill="white"/>
<path d="M18.1509 9.64726L18.2532 9.74881V9.64726H18.1509Z" fill="white"/>
<path d="M18.1509 9.64726H18.2532V9.74881L18.1509 9.64726Z" fill="white"/>
<path d="M18.3552 9.85036L18.2529 9.64726L18.3552 9.85036Z" fill="white"/>
<path d="M18.3552 9.85036L18.2529 9.74881V9.64726L18.3552 9.85036Z" fill="white"/>
<path d="M18.1509 9.85036L18.2532 9.74881V9.64726L18.1509 9.85036Z" fill="white"/>
<path d="M18.1509 9.85036L18.2532 9.64726L18.1509 9.85036Z" fill="white"/>
<path d="M16.9231 11.9829L16.8208 12.186H16.9231V11.9829Z" fill="white"/>
<path d="M16.9231 11.9829V12.186H16.8208L16.9231 11.9829Z" fill="white"/>
<path d="M17.1274 12.0845H16.9229V12.186L17.1274 12.0845Z" fill="white"/>
<path d="M17.1277 12.0845L16.9231 12.186H16.8208L17.1277 12.0845Z" fill="white"/>
<path d="M16.7188 12.0845L16.821 12.186H16.9233L16.7188 12.0845Z" fill="white"/>
<path d="M16.7188 12.0845H16.9233V12.186L16.7188 12.0845Z" fill="white"/>
<path d="M17.0254 12.3891L16.9231 12.186H16.8208L17.0254 12.3891Z" fill="white"/>
<path d="M17.0254 12.3891L16.8208 12.186L16.9231 12.0845L17.0254 12.3891Z" fill="white"/>
<path d="M16.7188 12.3891L16.9233 12.186V12.0845L16.7188 12.3891Z" fill="white"/>
<path d="M16.7188 12.3891L16.821 12.186H16.9233L16.7188 12.3891Z" fill="white"/>
<path d="M17.4343 10.9674V11.1705H17.5367L17.4343 10.9674Z" fill="white"/>
<path d="M17.4343 10.9674L17.5367 11.1705H17.4343V10.9674Z" fill="white"/>
<path d="M17.639 11.1705L17.5367 11.2721L17.4343 11.1705H17.639Z" fill="white"/>
<path d="M17.3323 11.1705L17.4345 11.2721L17.5368 11.1705H17.3323Z" fill="white"/>
<path d="M17.5367 11.3736V11.1705H17.4343L17.5367 11.3736Z" fill="white"/>
<path d="M17.5367 11.3736L17.4343 11.2721L17.5367 11.1705V11.3736Z" fill="white"/>
<path d="M17.3323 11.3736L17.5368 11.2721L17.4345 11.1705L17.3323 11.3736Z" fill="white"/>
<path d="M17.3323 11.3736L17.4345 11.1705H17.5368L17.3323 11.3736Z" fill="white"/>
<path d="M16.9231 10.5612L16.8208 10.7643H16.9231V10.5612Z" fill="white"/>
<path d="M16.9231 10.5612V10.7643H16.8208L16.9231 10.5612Z" fill="white"/>
<path d="M17.0252 10.6628H16.9229V10.7643L17.0252 10.6628Z" fill="white"/>
<path d="M17.0254 10.6628L16.9231 10.7643H16.8208L17.0254 10.6628Z" fill="white"/>
<path d="M16.7188 10.6628L16.9233 10.7643L16.7188 10.6628Z" fill="white"/>
<path d="M16.7188 10.6628H16.9233V10.7643L16.7188 10.6628Z" fill="white"/>
<path d="M17.0254 10.8659L16.9231 10.6628L16.8208 10.7643L17.0254 10.8659Z" fill="white"/>
<path d="M17.0254 10.8659L16.8208 10.7643L16.9231 10.6628L17.0254 10.8659Z" fill="white"/>
<path d="M16.8208 10.8659L16.9231 10.7643V10.6628L16.8208 10.8659Z" fill="white"/>
<path d="M16.8208 10.8659V10.6628L16.9231 10.7643L16.8208 10.8659Z" fill="white"/>
<path d="M16.4116 11.069L16.3093 11.1705H16.4116V11.069Z" fill="white"/>
<path d="M16.5137 11.1705L16.4114 11.2721V11.1705H16.5137Z" fill="white"/>
<path d="M16.207 11.1705L16.4116 11.2721V11.1705H16.207Z" fill="white"/>
<path d="M16.5137 11.2721L16.4114 11.1705L16.5137 11.2721Z" fill="white"/>
<path d="M16.5137 11.2721L16.4114 11.1705L16.5137 11.2721Z" fill="white"/>
<path d="M16.3093 11.2721L16.4116 11.1705L16.3093 11.2721Z" fill="white"/>
<path d="M16.3093 11.2721V11.1705H16.4116L16.3093 11.2721Z" fill="white"/>
<path d="M16.616 11.4752H16.7183L16.616 11.5768V11.4752Z" fill="white"/>
<path d="M16.7183 11.4752H16.616V11.5768L16.7183 11.4752Z" fill="white"/>
<path d="M16.7183 11.4752L16.616 11.5768V11.4752H16.7183Z" fill="white"/>
<path d="M16.5139 11.4752L16.6162 11.5768V11.4752H16.5139Z" fill="white"/>
<path d="M16.5139 11.4752H16.6162V11.5768L16.5139 11.4752Z" fill="white"/>
<path d="M16.7183 11.5768V11.4752L16.616 11.5768H16.7183Z" fill="white"/>
<path d="M16.7183 11.5768H16.616V11.4752L16.7183 11.5768Z" fill="white"/>
<path d="M18.3555 13.1V13.3031H18.4578L18.3555 13.1Z" fill="white"/>
<path d="M18.3555 13.1L18.4578 13.3031H18.3555V13.1Z" fill="white"/>
<path d="M18.5601 13.2015H18.3555V13.3031L18.5601 13.2015Z" fill="white"/>
<path d="M18.5601 13.2015L18.4578 13.3031H18.3555L18.5601 13.2015Z" fill="white"/>
<path d="M18.2529 13.2015L18.3552 13.3031H18.4575L18.2529 13.2015Z" fill="white"/>
<path d="M18.2529 13.2015H18.3552V13.3031L18.2529 13.2015Z" fill="white"/>
<path d="M18.4578 13.4046V13.3031H18.3555L18.4578 13.4046Z" fill="white"/>
<path d="M18.4578 13.4046L18.3555 13.3031H18.4578V13.4046Z" fill="white"/>
<path d="M18.2529 13.4046L18.4575 13.3031H18.3552L18.2529 13.4046Z" fill="white"/>
<path d="M18.2529 13.4046L18.3552 13.3031H18.4575L18.2529 13.4046Z" fill="white"/>
<path d="M18.8667 12.6938L18.7644 12.7953L18.8667 12.8969V12.6938Z" fill="white"/>
<path d="M18.8667 12.6938V12.7953L18.7644 12.8969L18.8667 12.6938Z" fill="white"/>
<path d="M18.969 12.7953H18.7644V12.8969L18.969 12.7953Z" fill="white"/>
<path d="M18.969 12.7953L18.8667 12.8969L18.7644 12.7953H18.969Z" fill="white"/>
<path d="M18.6621 12.7953L18.7644 12.8969L18.8667 12.7953H18.6621Z" fill="white"/>
<path d="M18.6621 12.7953H18.8667V12.8969L18.6621 12.7953Z" fill="white"/>
<path d="M18.8667 12.9984V12.7953L18.7644 12.8969L18.8667 12.9984Z" fill="white"/>
<path d="M18.8667 12.9984L18.7644 12.8969L18.8667 12.7953V12.9984Z" fill="white"/>
<path d="M18.7644 12.9984L18.8667 12.8969L18.7644 12.7953V12.9984Z" fill="white"/>
<path d="M18.7644 12.9984V12.7953L18.8667 12.8969L18.7644 12.9984Z" fill="white"/>
<path d="M18.0484 12.5922L17.946 12.6938H18.0484V12.5922Z" fill="white"/>
<path d="M18.0484 12.5922V12.6938H17.946L18.0484 12.5922Z" fill="white"/>
<path d="M18.1507 12.6938H17.946V12.7953L18.1507 12.6938Z" fill="white"/>
<path d="M18.1507 12.6938L18.0483 12.7953L17.946 12.6938H18.1507Z" fill="white"/>
<path d="M17.844 12.6938L17.9463 12.7953L18.0485 12.6938H17.844Z" fill="white"/>
<path d="M17.844 12.6938H18.0485V12.7953L17.844 12.6938Z" fill="white"/>
<path d="M18.0484 12.7953V12.6938H17.946L18.0484 12.7953Z" fill="white"/>
<path d="M18.0484 12.7953H17.946L18.0484 12.6938V12.7953Z" fill="white"/>
<path d="M17.946 12.7953H18.0484L17.946 12.6938V12.7953Z" fill="white"/>
<path d="M17.946 12.7953V12.6938H18.0484L17.946 12.7953Z" fill="white"/>
<path d="M14.8772 12.3891L14.7749 12.5922H14.8772V12.3891Z" fill="white"/>
<path d="M14.8772 12.3891L14.9795 12.5922H14.8772V12.3891Z" fill="white"/>
<path d="M15.0818 12.4907H14.8772V12.5922L15.0818 12.4907Z" fill="white"/>
<path d="M15.0818 12.4907L14.8772 12.5922L15.0818 12.4907Z" fill="white"/>
<path d="M14.6726 12.4907L14.8772 12.5922L14.6726 12.4907Z" fill="white"/>
<path d="M14.6726 12.4907H14.8772V12.5922L14.6726 12.4907Z" fill="white"/>
<path d="M14.9795 12.7953V12.5922H14.8772L14.9795 12.7953Z" fill="white"/>
<path d="M14.9795 12.7953L14.8772 12.5922V12.4907L14.9795 12.7953Z" fill="white"/>
<path d="M14.7749 12.7953L14.9795 12.5922L14.8772 12.4907L14.7749 12.7953Z" fill="white"/>
<path d="M14.7749 12.7953L14.8772 12.5922H14.9795L14.7749 12.7953Z" fill="white"/>
<path d="M16.8208 13.9124L16.9231 13.8108L16.8208 13.9124Z" fill="white"/>
<path d="M16.8208 13.9124L16.9231 13.8108L16.8208 13.9124Z" fill="white"/>
</g>
<defs>
<clipPath id="clip0">
<rect width="34.2857" height="20" rx="8" fill="white"/>
</clipPath>
</defs>
</svg>
