<svg width="35" height="20" viewBox="0 0 35 20" fill="none" xmlns="http://www.w3.org/2000/svg">
<path d="M30.9778 0H3.31633C1.48477 0 0 1.48477 0 3.31633C0 5.14788 1.48477 6.63265 3.31633 6.63265H30.9778C32.8094 6.63265 34.2941 5.14788 34.2941 3.31633C34.2941 1.48477 32.8094 0 30.9778 0Z" fill="#333333"/>
<path d="M30.9778 6.63265H3.31633C1.48477 6.63265 0 8.11742 0 9.94898C0 11.7805 1.48477 13.2653 3.31633 13.2653H30.9778C32.8094 13.2653 34.2941 11.7805 34.2941 9.94898C34.2941 8.11742 32.8094 6.63265 30.9778 6.63265Z" fill="#DC1C37"/>
<path d="M30.9778 13.3673H3.31632C1.48477 13.3673 0 14.8521 0 16.6837C0 18.5152 1.48477 20 3.31632 20H30.9778C32.8094 20 34.2941 18.5152 34.2941 16.6837C34.2941 14.8521 32.8094 13.3673 30.9778 13.3673Z" fill="#F2C94C"/>
</svg>
