<svg width="35" height="20" viewBox="0 0 35 20" fill="none" xmlns="http://www.w3.org/2000/svg">
<path d="M11.4314 14.2843V5.71569C11.4314 2.559 8.87238 0 5.71569 0C2.559 0 0 2.559 0 5.71569V14.2843C0 17.441 2.559 20 5.71569 20C8.87238 20 11.4314 17.441 11.4314 14.2843Z" fill="#009246"/>
<path d="M22.8628 14.2843V5.71568C22.8628 2.559 20.3038 0 17.1471 0C13.9904 0 11.4314 2.559 11.4314 5.71569V14.2843C11.4314 17.441 13.9904 20 17.1471 20C20.3038 20 22.8628 17.441 22.8628 14.2843Z" fill="#F1F2F1"/>
<path d="M34.2942 14.2843V5.71568C34.2942 2.559 31.7352 0 28.5785 0C25.4218 0 22.8628 2.559 22.8628 5.71569V14.2843C22.8628 17.441 25.4218 20 28.5785 20C31.7352 20 34.2942 17.441 34.2942 14.2843Z" fill="#CE2B37"/>
</svg>
