<svg width="19" height="14" viewBox="0 0 19 14" fill="none" xmlns="http://www.w3.org/2000/svg">
<path opacity="0.4" d="M19 10.0655C19 12.2355 16.872 13.9933 14.2215 14.0011H14.212H4.7975C2.1565 14.0011 0 12.2511 0 10.0811V10.0733C0 10.0733 0.0057 6.63086 0.0133 4.89953C0.01425 4.57442 0.47025 4.39242 0.7809 4.59464C3.0381 6.06075 7.07465 8.73397 7.125 8.76897C7.7995 9.21153 8.6545 9.4612 9.5285 9.4612C10.4025 9.4612 11.2575 9.21153 11.932 8.76042C11.9824 8.7332 15.9287 6.14009 18.2201 4.64986C18.5317 4.44686 18.9895 4.62886 18.9905 4.9532C19 6.67131 19 10.0655 19 10.0655Z" fill="#7643FF"/>
<path d="M18.5028 2.07978C17.6801 0.810444 16.0613 0 14.2791 0H4.79812C3.01592 0 1.39712 0.810444 0.574422 2.07978C0.390122 2.36367 0.477522 2.71756 0.784372 2.91822L7.83812 7.53744C8.33212 7.86411 8.93062 8.02667 9.52912 8.02667C9.53292 8.02667 9.53577 8.02667 9.53862 8.02667C9.54147 8.02667 9.54527 8.02667 9.54812 8.02667C10.1466 8.02667 10.7451 7.86411 11.2391 7.53744L18.2929 2.91822C18.5997 2.71756 18.6871 2.36367 18.5028 2.07978Z" fill="#7643FF"/>
</svg>
