<svg width="13" height="19" viewBox="0 0 13 19" fill="none" xmlns="http://www.w3.org/2000/svg">
<path fill-rule="evenodd" clip-rule="evenodd" d="M3.27936 0.889933C5.30816 -0.316089 7.80188 -0.29501 9.81164 0.94515C11.8016 2.21057 13.0111 4.46897 12.9998 6.89837C12.9535 9.31184 11.6566 11.5805 10.0355 13.3343C9.09984 14.3511 8.05314 15.2502 6.91678 16.0132C6.79975 16.0825 6.67155 16.1288 6.53852 16.15C6.41049 16.1444 6.28579 16.1057 6.1757 16.0374C4.44082 14.8908 2.91881 13.4273 1.68288 11.7173C0.648689 10.2898 0.0611331 8.56521 1.07875e-06 6.7777C-0.00134148 4.34363 1.25057 2.09595 3.27936 0.889933ZM4.45172 7.78504C4.79299 8.64579 5.59852 9.20725 6.4922 9.20726C7.07766 9.21156 7.64045 8.97164 8.05517 8.54095C8.46989 8.11027 8.70208 7.52461 8.70001 6.91446C8.70313 5.98313 8.1672 5.1417 7.34245 4.78304C6.5177 4.42437 5.56682 4.61923 4.93379 5.27663C4.30076 5.93403 4.11045 6.92429 4.45172 7.78504Z" fill="#7643FF"/>
<ellipse opacity="0.4" cx="6.50028" cy="18.0496" rx="4.64286" ry="0.95" fill="#7643FF"/>
</svg>
