<svg width="18" height="18" viewBox="0 0 18 18" fill="none" xmlns="http://www.w3.org/2000/svg">
<path fill-rule="evenodd" clip-rule="evenodd" d="M8.73458 17.3298H8.731C7.28133 17.3293 5.85689 16.9656 4.59175 16.2755L0 17.48L1.22883 12.9916C0.470827 11.6779 0.0719708 10.1879 0.0726208 8.66125C0.0745209 3.88547 3.9602 0 8.7345 0C11.0516 0.00100005 13.2264 0.903052 14.8618 2.54031C16.4971 4.17749 17.3972 6.3537 17.3963 8.66808C17.3944 13.4428 13.5103 17.3278 8.73458 17.3298ZM4.80451 14.7078L5.0674 14.8638C6.17276 15.5197 7.43982 15.8668 8.73169 15.8673H8.7346C12.7027 15.8673 15.9323 12.6376 15.9338 8.66792C15.9346 6.74423 15.1865 4.93546 13.8272 3.57463C12.468 2.21381 10.6604 1.46401 8.73744 1.46335C4.76631 1.46335 1.53667 4.6927 1.53509 8.66209C1.53453 10.0224 1.91516 11.3472 2.63582 12.4935L2.807 12.7659L2.07971 15.4225L4.80451 14.7078ZM12.8019 10.5327C12.9529 10.6057 13.0548 10.6549 13.0983 10.7276C13.1524 10.8178 13.1524 11.2511 12.9722 11.7568C12.7917 12.2623 11.9271 12.7237 11.5112 12.7858C11.1384 12.8416 10.6665 12.8648 10.1481 12.7001C9.83373 12.6004 9.43063 12.4672 8.91426 12.2442C6.88528 11.3681 5.51411 9.40156 5.25496 9.02989C5.23681 9.00385 5.22411 8.98565 5.21703 8.97618L5.21528 8.97386C5.10074 8.82103 4.33329 7.79707 4.33329 6.73731C4.33329 5.74038 4.823 5.21784 5.04841 4.97731C5.06386 4.96083 5.07806 4.94568 5.09078 4.93179C5.28916 4.71511 5.52364 4.66094 5.66792 4.66094C5.81219 4.66094 5.95663 4.66227 6.08273 4.6686C6.09829 4.66939 6.11447 4.66929 6.1312 4.66919C6.25732 4.66845 6.41456 4.66753 6.56968 5.04013C6.62935 5.18351 6.71666 5.39608 6.80875 5.62028C6.99499 6.07368 7.20077 6.57464 7.23697 6.64713C7.29109 6.75547 7.32715 6.88181 7.25501 7.02632C7.24418 7.04799 7.23416 7.06844 7.22459 7.08798C7.17041 7.1986 7.13055 7.27997 7.03859 7.38734C7.00243 7.42957 6.96505 7.47508 6.92768 7.5206C6.85322 7.61128 6.77877 7.70195 6.71394 7.76653C6.60559 7.87445 6.4928 7.99154 6.61905 8.20822C6.7453 8.4249 7.17966 9.13361 7.82306 9.70752C8.51469 10.3244 9.1158 10.5852 9.42049 10.7173C9.47999 10.7431 9.52819 10.764 9.56355 10.7817C9.7799 10.8901 9.90615 10.872 10.0324 10.7276C10.1587 10.5831 10.5734 10.0956 10.7177 9.87894C10.862 9.66235 11.0063 9.69843 11.2046 9.77062C11.4031 9.84292 12.4671 10.3664 12.6836 10.4748C12.7258 10.4959 12.7653 10.515 12.8019 10.5327Z" fill="#7643FF"/>
</svg>
