<svg width="22" height="22" viewBox="0 0 22 22" fill="none" xmlns="http://www.w3.org/2000/svg">
<path fill-rule="evenodd" clip-rule="evenodd" d="M17.1482 8.06334C17.1482 9.21461 17.4524 9.89319 18.1221 10.6752C18.6295 11.2513 18.7917 11.9908 18.7917 12.7931C18.7917 13.5944 18.5284 14.3552 18.0009 14.9728C17.3103 15.7132 16.3364 16.1859 15.3425 16.2681C13.9021 16.3909 12.4609 16.4943 11.0005 16.4943C9.53916 16.4943 8.0988 16.4324 6.65845 16.2681C5.6636 16.1859 4.68969 15.7132 4.00004 14.9728C3.47255 14.3552 3.20834 13.5944 3.20834 12.7931C3.20834 11.9908 3.37142 11.2513 3.87796 10.6752C4.56853 9.89319 4.85277 9.21461 4.85277 8.06334V7.67282C4.85277 6.13102 5.23723 5.12285 6.02892 4.13591C7.20599 2.6966 9.09275 1.83337 10.9595 1.83337H11.0415C12.9483 1.83337 14.8961 2.73814 16.0531 4.23932C16.8038 5.20594 17.1482 6.17164 17.1482 7.67282V8.06334ZM8.31754 18.3892C8.31754 17.9275 8.74117 17.7161 9.13292 17.6256C9.59117 17.5287 12.3835 17.5287 12.8418 17.6256C13.2335 17.7161 13.6571 17.9275 13.6571 18.3892C13.6344 18.8286 13.3765 19.2182 13.0203 19.4656C12.5584 19.8257 12.0164 20.0537 11.4497 20.1359C11.1363 20.1765 10.8284 20.1775 10.5259 20.1359C9.95832 20.0537 9.41625 19.8257 8.95527 19.4647C8.59814 19.2182 8.34032 18.8286 8.31754 18.3892Z" fill="#B8B8B8"/>
</svg>
