<svg width="20" height="17" viewBox="0 0 20 17" fill="none" xmlns="http://www.w3.org/2000/svg">
<path d="M0.5585 7.65725C0.598052 7.6221 0.747394 7.47181 0.886508 7.34818C1.70209 6.57066 3.82971 5.29802 4.9433 4.90956C5.11242 4.84714 5.53999 4.71503 5.76844 4.70654C5.98734 4.70654 6.19601 4.75018 6.39513 4.83865C6.64335 4.96228 6.84247 5.15681 6.95158 5.3865C7.02182 5.54588 7.13093 6.02282 7.13093 6.0313C7.24004 6.55308 7.30005 7.4009 7.30005 8.33781C7.30005 9.23047 7.24004 10.0437 7.15071 10.5734C7.14048 10.5819 7.03137 11.1746 6.91203 11.3776C6.69313 11.7485 6.26556 11.9788 5.80799 11.9788H5.76844C5.47043 11.9697 4.84374 11.7394 4.84374 11.7309C3.79016 11.3418 1.71164 10.1316 0.876279 9.32743C0.876279 9.32743 0.641013 9.12078 0.538724 8.9917C0.379153 8.80626 0.300049 8.57658 0.300049 8.3469C0.300049 8.09055 0.389382 7.85178 0.5585 7.65725Z" fill="#7643FF"/>
<rect y="14.4814" width="20" height="2.51852" rx="1.25926" fill="#7643FF"/>
<rect width="20" height="2.51852" rx="1.25926" fill="#7643FF"/>
<rect x="9.67743" y="5.03699" width="10.3226" height="2.51852" rx="1.25926" fill="#7643FF"/>
<rect x="9.67743" y="10.074" width="10.3226" height="2.51852" rx="1.25926" fill="#7643FF"/>
</svg>
