<svg width="48" height="24" viewBox="0 0 48 24" fill="none" xmlns="http://www.w3.org/2000/svg">
<rect width="48" height="24" fill="white"/>
<path d="M24 0C17.376 0 12 5.376 12 12C12 18.624 17.376 24 24 24C30.624 24 36 18.624 36 12C36 5.376 30.624 0 24 0ZM24 3.6C25.992 3.6 27.6 5.208 27.6 7.2C27.6 9.192 25.992 10.8 24 10.8C22.008 10.8 20.4 9.192 20.4 7.2C20.4 5.208 22.008 3.6 24 3.6ZM24 20.64C21 20.64 18.348 19.104 16.8 16.776C16.836 14.388 21.6 13.08 24 13.08C26.388 13.08 31.164 14.388 31.2 16.776C29.652 19.104 27 20.64 24 20.64Z" fill="#B8B8B8"/>
</svg>
