<svg width="15" height="15" viewBox="0 0 15 15" fill="none" xmlns="http://www.w3.org/2000/svg">
<path d="M12.8306 14.2125H2.0012C0.990448 14.2125 0.196289 13.3875 0.196289 12.3375V3.26245C0.196289 2.21245 0.990448 1.38745 2.0012 1.38745H9.94279C10.3399 1.38745 10.6647 1.72495 10.6647 2.13745C10.6647 2.54995 10.3399 2.88745 9.94279 2.88745H2.0012C1.78461 2.88745 1.64021 3.03745 1.64021 3.26245V12.3375C1.64021 12.5625 1.78461 12.7125 2.0012 12.7125H12.8306C13.0472 12.7125 13.1916 12.5625 13.1916 12.3375V3.26245C13.1916 3.03745 13.0472 2.88745 12.8306 2.88745H12.217C11.8199 2.88745 11.495 2.54995 11.495 2.13745C11.495 1.72495 11.8199 1.38745 12.217 1.38745H12.8306C13.8414 1.38745 14.6355 2.21245 14.6355 3.26245V12.3375C14.6355 13.3499 13.8414 14.2125 12.8306 14.2125Z" fill="white"/>
<path d="M10.1947 4.3125C9.79766 4.3125 9.47278 3.975 9.47278 3.5625V0.75C9.47278 0.3375 9.79766 0 10.1947 0C10.5918 0 10.9167 0.3375 10.9167 0.75V3.5625C10.9167 3.975 10.5918 4.3125 10.1947 4.3125Z" fill="white"/>
<path d="M4.637 4.3125C4.23992 4.3125 3.91504 3.975 3.91504 3.5625V0.75C3.91504 0.3375 4.23992 0 4.637 0C5.03408 0 5.35896 0.3375 5.35896 0.75V3.5625C5.35896 3.975 5.03408 4.3125 4.637 4.3125Z" fill="white"/>
<path d="M4.63712 7.72534C4.24004 7.72534 3.91516 7.38784 3.91516 6.97534C3.91516 6.56284 4.24004 6.22534 4.63712 6.22534C5.0342 6.22534 5.35909 6.56284 5.35909 6.97534C5.35909 7.38784 5.0342 7.72534 4.63712 7.72534Z" fill="white"/>
<path d="M4.63712 10.6504C4.24004 10.6504 3.91516 10.3129 3.91516 9.90039C3.91516 9.48789 4.24004 9.15039 4.63712 9.15039C5.0342 9.15039 5.35909 9.48789 5.35909 9.90039C5.35909 10.3129 5.0342 10.6504 4.63712 10.6504Z" fill="white"/>
<path d="M7.41493 7.7251C7.23443 7.7251 7.05398 7.6501 6.90958 7.5001C6.6208 7.2001 6.6208 6.7501 6.90958 6.4501C7.19837 6.1501 7.63152 6.1501 7.92031 6.4501C8.2091 6.7501 8.2091 7.2376 7.92031 7.5376C7.77592 7.6501 7.59542 7.7251 7.41493 7.7251Z" fill="white"/>
<path d="M7.41493 10.6501C7.23443 10.6501 7.05398 10.5751 6.90958 10.4251C6.6208 10.1251 6.6208 9.67515 6.90958 9.37515C7.19837 9.07515 7.63152 9.07515 7.92031 9.37515C8.2091 9.67515 8.2091 10.1626 7.92031 10.4626C7.77592 10.5751 7.59542 10.6501 7.41493 10.6501Z" fill="white"/>
<path d="M10.1947 7.7251C9.79766 7.7251 9.47278 7.3876 9.47278 6.9751C9.47278 6.5626 9.79766 6.2251 10.1947 6.2251C10.5918 6.2251 10.9167 6.5626 10.9167 6.9751C10.9167 7.3876 10.5918 7.7251 10.1947 7.7251Z" fill="white"/>
<path d="M10.1947 10.6501C9.79766 10.6501 9.47278 10.3126 9.47278 9.90015C9.47278 9.48765 9.79766 9.15015 10.1947 9.15015C10.5918 9.15015 10.9167 9.48765 10.9167 9.90015C10.9167 10.3126 10.5918 10.6501 10.1947 10.6501Z" fill="white"/>
</svg>
