<svg width="362" height="539" viewBox="0 0 362 539" fill="none" xmlns="http://www.w3.org/2000/svg">
<g opacity="0.7">
<g clip-path="url(#clip0)">
<path d="M47.1482 42.4309L50.3837 40.582C46.2238 42.9855 42.711 46.4058 39.8454 50.9354L36.6099 52.7843C39.568 48.2547 43.0808 44.8343 47.1482 42.4309Z" fill="#3D2385"/>
<path d="M36.6983 52.7844L39.9338 50.9355C39.0094 52.4146 38.1774 53.9861 37.3454 55.6501L34.11 57.4989C34.8495 55.8349 35.6815 54.2634 36.6983 52.7844Z" fill="#7643FF"/>
<path d="M34.0213 57.4992L37.2568 55.6504C36.6097 57.037 35.9626 58.4236 35.4079 59.9027L32.1725 61.7515C32.8196 60.2725 33.3742 58.8858 34.0213 57.4992Z" fill="#42268F"/>
<path d="M32.2622 61.8435L35.4976 59.9947C35.0354 61.3813 34.4808 62.7679 34.111 64.247L30.8755 66.0958C31.2453 64.6168 31.7075 63.1377 32.2622 61.8435Z" fill="#442794"/>
<path d="M30.8766 66.0959L34.112 64.247C33.8347 65.079 33.6498 66.0034 33.3725 66.9278C33.2801 67.2976 33.1876 67.7598 33.0952 68.1296L29.8597 69.9784C29.9522 69.6086 30.0446 69.1464 30.1371 68.7767C30.3219 67.8522 30.5993 66.9278 30.8766 66.0959Z" fill="#472899"/>
<path d="M29.8625 69.8859L33.098 68.0371C32.9131 69.054 32.6358 70.0708 32.4509 71.0877L29.2155 72.9365C29.4003 71.9197 29.5852 70.9028 29.8625 69.8859Z" fill="#492A9E"/>
<path d="M29.2128 72.9367L32.4483 71.0879C32.2634 72.0123 32.1709 73.0292 31.9861 73.9536L28.7506 75.8024C28.9355 74.878 29.0279 73.8611 29.2128 72.9367Z" fill="#4C2BA3"/>
<path d="M28.7499 75.8023L31.9853 73.9535C31.8929 74.8779 31.8004 75.8948 31.708 76.8192L28.4725 78.668C28.565 77.7436 28.6574 76.8192 28.7499 75.8023Z" fill="#4E2CA8"/>
<path d="M28.4746 78.6679L31.71 76.8191C31.6176 77.7435 31.6176 78.6679 31.5251 79.6847L28.2897 81.5336C28.3821 80.6092 28.3821 79.5923 28.4746 78.6679Z" fill="#502EAD"/>
<path d="M28.2884 81.5336L31.5238 79.6848C31.5238 80.6092 31.4314 81.5336 31.4314 82.5504L28.1959 84.3993C28.2884 83.3824 28.2884 82.458 28.2884 81.5336Z" fill="#532FB3"/>
<path d="M28.2897 84.3996L31.5251 82.5508C31.5251 83.4752 31.5251 84.492 31.5251 85.4165L28.2897 87.2653C28.2897 86.2484 28.2897 85.324 28.2897 84.3996Z" fill="#5530B8"/>
<path d="M28.2897 87.2648L31.5251 85.416C31.5251 86.3404 31.6176 87.3573 31.6176 88.3741L28.3821 90.223C28.3821 89.2061 28.2897 88.1893 28.2897 87.2648Z" fill="#5732BD"/>
<path d="M28.4725 90.1307L31.708 88.2819C31.8004 89.2988 31.8929 90.2232 31.9853 91.24L28.7499 93.0889C28.565 92.1644 28.4725 91.1476 28.4725 90.1307Z" fill="#5A33C2"/>
<path d="M28.6569 93.0891L31.8923 91.2402C31.9847 92.2571 32.0772 93.2739 32.2621 94.2908L29.0266 96.1396C28.8417 95.2152 28.7493 94.1984 28.6569 93.0891Z" fill="#5C34C7"/>
<path d="M29.028 96.2316L32.2634 94.3828C32.3558 95.4921 32.5407 96.509 32.7256 97.6183L29.4902 99.4671C29.3053 98.3578 29.1204 97.2485 29.028 96.2316Z" fill="#7643FF"/>
<path d="M29.4883 99.3742L32.7238 97.5254C32.9087 98.6347 33.0936 99.744 33.2784 100.853L30.043 102.702C29.8581 101.593 29.6732 100.484 29.4883 99.3742Z" fill="#6137D1"/>
<path d="M30.0436 102.702L33.279 100.854C33.4639 102.055 33.7412 103.165 34.0186 104.366L30.7831 106.215C30.5058 105.106 30.2285 103.904 30.0436 102.702Z" fill="#6338D6"/>
<path d="M30.7858 106.215L34.0212 104.366C34.2985 105.568 34.5759 106.862 34.8532 108.064L31.6177 109.913C31.3404 108.711 31.0631 107.509 30.7858 106.215Z" fill="#7643FF"/>
<path d="M31.6168 109.913L34.8523 108.064C35.222 109.358 35.4994 110.745 35.9616 112.039L32.7261 113.888C32.3564 112.594 31.9866 111.3 31.6168 109.913Z" fill="#7643FF"/>
<path d="M32.7239 113.888L35.9593 112.039C36.3291 113.518 36.7913 114.905 37.2535 116.291L34.0181 118.14C33.5558 116.753 33.0936 115.367 32.7239 113.888Z" fill="#6A3CE6"/>
<path d="M34.0194 118.233L37.2549 116.384C37.7171 117.955 38.2717 119.527 38.8264 121.098L35.5909 122.947C35.0363 121.376 34.4816 119.804 34.0194 118.233Z" fill="#6D3EEB"/>
<path d="M35.591 122.855L38.8264 121.006C39.4735 122.762 40.1206 124.519 40.7677 126.275L37.5323 128.124C36.8852 126.46 36.2381 124.704 35.591 122.855Z" fill="#6F3FF0"/>
<path d="M37.5358 128.124L40.7712 126.275C41.6032 128.309 42.4352 130.25 43.2671 132.192L40.0317 134.04C39.1997 132.192 38.3677 130.158 37.5358 128.124Z" fill="#7140F5"/>
<path d="M40.0283 134.133L43.2638 132.284C44.3731 134.872 45.5748 137.276 46.7765 139.679L43.5411 141.528C42.3394 139.124 41.2301 136.628 40.0283 134.133Z" fill="#7442FA"/>
<path d="M43.543 141.435L46.7784 139.586C47.8877 141.712 48.997 143.839 50.1063 145.78C53.0644 150.864 56.4847 155.763 60.09 160.94C61.9388 163.621 63.88 166.394 65.8213 169.26C72.1998 178.874 78.116 188.857 83.3852 199.303L80.1497 201.152C74.8806 190.799 68.9643 180.723 62.5859 171.109C60.6446 168.243 58.7958 165.47 56.8545 162.789C53.2493 157.612 49.829 152.713 46.8709 147.629C45.7616 145.687 44.6523 143.654 43.543 141.435Z" fill="#7643FF"/>
<path d="M80.1481 201.152L83.3836 199.304C85.8795 204.11 88.1905 209.01 90.4091 214.002L87.1737 215.85C84.9551 210.859 82.644 205.959 80.1481 201.152Z" fill="#7442FA"/>
<path d="M87.1734 215.758L90.4088 213.909C91.6106 216.498 92.7199 219.178 93.8292 221.859C94.4763 223.338 95.0309 224.817 95.678 226.389L92.4425 228.238C91.8879 226.759 91.2408 225.28 90.5937 223.708C89.4844 221.027 88.3751 218.439 87.1734 215.758Z" fill="#7140F5"/>
<path d="M92.3488 228.238L95.5843 226.389C97.1557 230.271 98.5424 234.154 99.929 237.944L96.6935 239.793C95.3994 236.003 93.9203 232.12 92.3488 228.238Z" fill="#6F3FF0"/>
<path d="M96.7858 239.793L100.021 237.944C101.223 241.18 102.24 244.415 103.257 247.651L100.021 249.499C99.0044 246.264 97.8951 243.029 96.7858 239.793Z" fill="#6D3EEB"/>
<path d="M100.023 249.499L103.259 247.65C104.183 250.516 105.015 253.382 105.847 256.155L102.611 258.004C101.779 255.138 100.947 252.365 100.023 249.499Z" fill="#6A3CE6"/>
<path d="M102.61 258.004L105.845 256.155C106.585 258.744 107.324 261.424 107.972 264.013L104.736 265.862C103.997 263.273 103.35 260.592 102.61 258.004Z" fill="#7643FF"/>
<path d="M104.645 265.861L107.88 264.013C108.527 266.508 109.082 268.912 109.637 271.408L106.401 273.257C105.847 270.761 105.292 268.265 104.645 265.861Z" fill="#7643FF"/>
<path d="M106.402 273.164L109.638 271.315C110.193 273.718 110.655 276.03 111.117 278.433L107.882 280.282C107.419 277.971 106.957 275.567 106.402 273.164Z" fill="#6338D6"/>
<path d="M107.88 280.282L111.116 278.433C111.208 279.08 111.393 279.635 111.485 280.282C111.67 281.299 111.855 282.408 112.04 283.425L108.805 285.274C108.62 284.257 108.435 283.24 108.25 282.131C108.065 281.576 107.973 280.929 107.88 280.282Z" fill="#6137D1"/>
<path d="M108.715 285.275L111.951 283.426C112.228 285.275 112.506 287.123 112.69 288.972L109.455 290.821C109.27 288.972 108.993 287.123 108.715 285.275Z" fill="#7643FF"/>
<path d="M109.544 290.821L112.78 288.972C113.242 292.577 113.612 296.09 113.981 299.603C114.351 302.93 114.628 306.166 115.091 309.401L111.855 311.25C111.485 308.015 111.116 304.779 110.746 301.451C110.284 297.939 110.006 294.426 109.544 290.821Z" fill="#5C34C7"/>
<path d="M111.762 311.25L114.997 309.401C115.09 310.141 115.182 310.788 115.274 311.527C115.367 312.359 115.552 313.191 115.644 313.931L112.409 315.78C112.316 314.948 112.131 314.116 112.039 313.376C111.947 312.637 111.854 311.897 111.762 311.25Z" fill="#7643FF"/>
<path d="M112.411 315.78L115.647 313.931C115.832 315.318 116.109 316.612 116.386 317.906L113.151 319.755C112.874 318.461 112.596 317.166 112.411 315.78Z" fill="#6137D1"/>
<path d="M113.056 319.755L116.292 317.906C116.569 319.2 116.846 320.494 117.124 321.788L113.888 323.637C113.611 322.436 113.334 321.141 113.056 319.755Z" fill="#6338D6"/>
<path d="M113.887 323.73L117.123 321.881C117.4 323.175 117.677 324.469 118.047 325.671L114.812 327.52C114.442 326.226 114.165 324.931 113.887 323.73Z" fill="#7643FF"/>
<path d="M114.813 327.519L118.049 325.671C118.326 326.965 118.696 328.259 119.066 329.461L115.83 331.31C115.46 330.108 115.091 328.814 114.813 327.519Z" fill="#7643FF"/>
<path d="M115.83 331.31L119.065 329.461C119.435 330.755 119.805 332.049 120.267 333.343L117.031 335.192C116.569 333.991 116.199 332.696 115.83 331.31Z" fill="#6A3CE6"/>
<path d="M116.938 335.285L120.174 333.437C120.636 334.823 121.098 336.117 121.56 337.504L118.325 339.353C117.863 337.966 117.4 336.672 116.938 335.285Z" fill="#6D3EEB"/>
<path d="M118.325 339.352L121.56 337.503C122.115 338.982 122.67 340.461 123.224 341.94L119.989 343.789C119.434 342.31 118.879 340.831 118.325 339.352Z" fill="#6F3FF0"/>
<path d="M119.989 343.789L123.224 341.94C123.871 343.604 124.611 345.361 125.35 347.025L122.115 348.874C121.376 347.21 120.728 345.453 119.989 343.789Z" fill="#7140F5"/>
<path d="M122.118 348.874L125.353 347.025C126.37 349.243 127.387 351.462 128.496 353.681L125.261 355.529C124.244 353.311 123.135 351.092 122.118 348.874Z" fill="#7442FA"/>
<path d="M125.352 355.529L128.588 353.681C130.067 356.639 131.731 359.597 133.487 362.463C138.941 371.429 144.025 378.917 149.387 385.388L146.151 387.237C140.79 380.766 135.706 373.278 130.252 364.311C128.495 361.353 126.831 358.488 125.352 355.529Z" fill="#7643FF"/>
<path d="M146.152 387.237L149.388 385.388C150.959 387.329 152.623 389.178 154.195 390.934L150.959 392.783C149.295 391.027 147.724 389.178 146.152 387.237Z" fill="#7442FA"/>
<path d="M150.958 392.876L154.193 391.027C155.395 392.414 156.689 393.708 157.984 394.909L154.748 396.758C153.454 395.464 152.16 394.17 150.958 392.876Z" fill="#7140F5"/>
<path d="M154.746 396.758L157.982 394.909C159.091 396.018 160.293 397.128 161.402 398.237L158.167 400.086C157.057 398.977 155.856 397.867 154.746 396.758Z" fill="#6F3FF0"/>
<path d="M158.169 400.086L161.404 398.237C162.513 399.254 163.623 400.271 164.824 401.288L161.589 403.137C160.48 402.12 159.37 401.103 158.169 400.086Z" fill="#6D3EEB"/>
<path d="M161.59 403.044L164.826 401.195C166.028 402.212 167.229 403.137 168.431 404.153L165.196 406.002C163.994 405.078 162.792 404.061 161.59 403.044Z" fill="#6A3CE6"/>
<path d="M165.192 406.002L168.427 404.153C168.52 404.246 168.705 404.338 168.797 404.431C169.537 405.078 170.369 405.632 171.201 406.279L167.965 408.128C167.133 407.574 166.394 406.927 165.562 406.279C165.469 406.187 165.377 406.095 165.192 406.002Z" fill="#7643FF"/>
<path d="M167.965 408.129L171.201 406.28C172.125 406.927 173.05 407.667 174.067 408.314L170.831 410.163C169.814 409.516 168.89 408.776 167.965 408.129Z" fill="#7643FF"/>
<path d="M170.833 410.162L174.068 408.313C175.085 408.96 176.102 409.7 177.119 410.347L173.883 412.196C172.867 411.549 171.85 410.809 170.833 410.162Z" fill="#6338D6"/>
<path d="M173.883 412.195L177.119 410.347C178.136 410.994 179.153 411.641 180.169 412.195L176.934 414.044C175.917 413.397 174.9 412.843 173.883 412.195Z" fill="#6137D1"/>
<path d="M176.934 414.045L180.17 412.196C180.447 412.381 180.632 412.474 180.909 412.566C181.649 413.028 182.481 413.49 183.22 413.86L179.985 415.709C179.245 415.247 178.413 414.877 177.674 414.415C177.396 414.322 177.212 414.23 176.934 414.045Z" fill="#7643FF"/>
<path d="M179.985 415.801L183.221 413.952C184.237 414.507 185.162 414.969 186.086 415.431L182.851 417.28C181.926 416.818 181.002 416.263 179.985 415.801Z" fill="#5C34C7"/>
<path d="M182.848 417.28L186.084 415.432C187.008 415.894 187.84 416.264 188.764 416.726L185.529 418.575C184.697 418.112 183.773 417.743 182.848 417.28Z" fill="#5A33C2"/>
<path d="M185.531 418.574L188.766 416.725C189.598 417.095 190.338 417.465 191.17 417.742L187.934 419.591C187.195 419.221 186.363 418.944 185.531 418.574Z" fill="#5732BD"/>
<path d="M187.935 419.591L191.17 417.742C191.91 418.02 192.649 418.297 193.296 418.574L190.061 420.423C189.414 420.146 188.674 419.869 187.935 419.591Z" fill="#5530B8"/>
<path d="M190.063 420.33L193.299 418.481C193.483 418.574 193.668 418.574 193.853 418.666C194.593 418.944 195.24 419.129 195.979 419.313L192.744 421.162C192.004 420.977 191.357 420.7 190.618 420.515C190.433 420.515 190.248 420.423 190.063 420.33Z" fill="#532FB3"/>
<path d="M192.743 421.255L195.978 419.406C196.903 419.684 197.827 419.961 198.659 420.146L195.424 421.995C194.592 421.717 193.667 421.532 192.743 421.255Z" fill="#502EAD"/>
<path d="M195.419 421.994L198.654 420.146C199.578 420.33 200.503 420.608 201.427 420.793L198.192 422.641C197.267 422.364 196.343 422.179 195.419 421.994Z" fill="#4E2CA8"/>
<path d="M198.192 422.55L201.427 420.701C202.352 420.886 203.276 421.071 204.201 421.163L200.965 423.012C200.041 422.92 199.116 422.735 198.192 422.55Z" fill="#4C2BA3"/>
<path d="M200.965 423.012L204.201 421.163C205.218 421.256 206.142 421.348 207.067 421.44L203.831 423.289C202.907 423.289 201.89 423.197 200.965 423.012Z" fill="#492A9E"/>
<path d="M203.833 423.289L207.068 421.44C208.085 421.533 209.102 421.533 210.119 421.533L206.883 423.382C205.866 423.474 204.849 423.382 203.833 423.289Z" fill="#472899"/>
<path d="M206.884 423.474L210.12 421.625C211.229 421.625 212.338 421.532 213.355 421.44L210.12 423.289C209.103 423.381 207.994 423.474 206.884 423.474Z" fill="#442794"/>
<path d="M210.122 423.288L213.357 421.439C214.651 421.347 215.853 421.162 217.055 420.885L213.819 422.734C212.618 423.011 211.416 423.196 210.122 423.288Z" fill="#42268F"/>
<path d="M213.817 422.734L217.053 420.885C218.624 420.608 220.103 420.146 221.582 419.684L218.347 421.533C216.868 421.995 215.389 422.457 213.817 422.734Z" fill="#7643FF"/>
<path d="M218.348 421.532L221.583 419.684C223.525 419.036 225.281 418.204 227.037 417.188L223.802 419.036C222.138 420.053 220.289 420.885 218.348 421.532Z" fill="#3D2385"/>
<path d="M148.832 209.102L152.067 207.16L152.899 209.194L149.664 211.043L148.832 209.102Z" fill="#7241F7"/>
<path d="M149.664 211.043L152.9 209.194C155.211 214.556 157.244 219.64 159.278 224.632L156.043 226.481C154.009 221.489 151.975 216.405 149.664 211.043Z" fill="#7140F5"/>
<path d="M156.043 226.481L159.278 224.632C161.405 230.086 163.438 235.447 165.472 241.086C165.564 241.271 165.564 241.456 165.657 241.549L162.421 243.397C162.329 243.213 162.329 243.028 162.237 242.935C160.203 237.296 158.169 231.935 156.043 226.481Z" fill="#6F3FF0"/>
<path d="M162.422 243.49L165.657 241.642C166.304 243.398 166.859 245.154 167.414 247.003C167.968 248.76 168.523 250.516 169.17 252.18L165.935 254.029C165.38 252.365 164.733 250.608 164.178 248.852C163.624 247.003 163.069 245.154 162.422 243.49Z" fill="#6D3EEB"/>
<path d="M165.934 254.029L169.169 252.18C169.446 253.012 169.724 253.844 170.093 254.583L166.858 256.432C166.581 255.6 166.303 254.86 165.934 254.029Z" fill="#6F3FF0"/>
<path d="M166.859 256.432L170.095 254.583C170.28 255.137 170.557 255.692 170.742 256.247L167.506 258.095C167.322 257.541 167.137 256.986 166.859 256.432Z" fill="#7140F5"/>
<path d="M167.598 258.003L170.833 256.154C170.833 256.247 170.926 256.339 170.926 256.432C171.203 256.986 171.388 257.448 171.665 258.003L168.43 259.852C168.152 259.297 167.875 258.835 167.69 258.28C167.69 258.188 167.598 258.096 167.598 258.003Z" fill="#7442FA"/>
<path d="M168.429 259.852L171.665 258.003C172.867 260.314 174.253 262.44 175.732 264.197L172.497 266.046C171.018 264.289 169.631 262.163 168.429 259.852Z" fill="#7643FF"/>
<path d="M172.497 266.138L175.732 264.29C176.102 264.752 176.472 265.122 176.842 265.584L173.606 267.433C173.236 266.97 172.867 266.508 172.497 266.138Z" fill="#7442FA"/>
<path d="M173.605 267.34L176.84 265.491C177.118 265.769 177.395 266.139 177.672 266.416L174.437 268.265C174.16 267.987 173.882 267.71 173.605 267.34Z" fill="#7140F5"/>
<path d="M174.438 268.264L177.674 266.415C177.951 266.693 178.136 266.877 178.413 267.062L175.178 268.911C174.901 268.726 174.716 268.449 174.438 268.264Z" fill="#6F3FF0"/>
<path d="M175.18 268.911L178.415 267.062C178.6 267.247 178.877 267.432 179.062 267.617L175.827 269.466C175.642 269.373 175.365 269.096 175.18 268.911Z" fill="#6D3EEB"/>
<path d="M175.825 269.559L179.06 267.71C179.245 267.895 179.43 268.079 179.707 268.172L176.472 270.021C176.194 269.836 176.009 269.651 175.825 269.559Z" fill="#6A3CE6"/>
<path d="M176.378 270.02L179.614 268.172C179.799 268.356 179.983 268.449 180.168 268.634L176.933 270.483C176.84 270.298 176.563 270.205 176.378 270.02Z" fill="#7643FF"/>
<path d="M177.028 270.483L180.263 268.634C180.448 268.726 180.633 268.911 180.818 269.004L177.583 270.852C177.305 270.76 177.213 270.575 177.028 270.483Z" fill="#7643FF"/>
<path d="M177.488 270.853L180.724 269.004C180.909 269.096 181.093 269.281 181.278 269.374L178.043 271.223C177.858 271.038 177.673 270.945 177.488 270.853Z" fill="#6338D6"/>
<path d="M178.044 271.223L181.279 269.374C181.464 269.466 181.649 269.559 181.741 269.651L178.506 271.5C178.413 271.408 178.229 271.315 178.044 271.223Z" fill="#6137D1"/>
<path d="M178.598 271.5L181.833 269.651C181.833 269.651 181.926 269.651 181.926 269.743C182.018 269.836 182.203 269.928 182.296 269.928L179.06 271.777C178.968 271.684 178.783 271.592 178.69 271.592C178.598 271.5 178.598 271.5 178.598 271.5Z" fill="#7643FF"/>
<path d="M179.059 271.777L182.294 269.928C182.479 270.02 182.664 270.113 182.756 270.205L179.521 272.054C179.336 271.961 179.243 271.869 179.059 271.777Z" fill="#5C34C7"/>
<path d="M179.523 272.054L182.759 270.205C182.944 270.298 183.036 270.39 183.221 270.39L179.986 272.239C179.893 272.146 179.708 272.146 179.523 272.054Z" fill="#5A33C2"/>
<path d="M179.984 272.239L183.22 270.39C183.405 270.483 183.497 270.575 183.682 270.575L180.446 272.424C180.354 272.424 180.169 272.332 179.984 272.239Z" fill="#5732BD"/>
<path d="M180.539 272.425L183.775 270.576C183.959 270.669 184.052 270.669 184.237 270.761L181.001 272.61C180.816 272.61 180.632 272.517 180.539 272.425Z" fill="#5530B8"/>
<path d="M181 272.609L184.235 270.76C184.42 270.852 184.605 270.852 184.698 270.945L181.462 272.794C181.277 272.794 181.185 272.701 181 272.609Z" fill="#532FB3"/>
<path d="M181.461 272.794L184.696 270.945C184.881 271.038 185.066 271.038 185.159 271.038L181.923 272.887C181.831 272.887 181.646 272.887 181.461 272.794Z" fill="#502EAD"/>
<path d="M181.926 272.979L185.161 271.13C185.346 271.13 185.531 271.222 185.623 271.222L182.388 273.071C182.296 272.979 182.111 272.979 181.926 272.979Z" fill="#4E2CA8"/>
<path d="M182.481 273.071L185.716 271.223C185.901 271.223 186.086 271.315 186.271 271.315L183.036 273.164C182.851 273.071 182.666 273.071 182.481 273.071Z" fill="#4C2BA3"/>
<path d="M183.035 273.164L186.271 271.315C186.455 271.315 186.64 271.315 186.825 271.408L183.59 273.257C183.405 273.164 183.22 273.164 183.035 273.164Z" fill="#492A9E"/>
<path d="M183.591 273.164L186.826 271.315C187.011 271.315 187.196 271.315 187.381 271.315L184.145 273.164C183.96 273.256 183.775 273.164 183.591 273.164Z" fill="#472899"/>
<path d="M184.145 273.256L187.38 271.407C187.565 271.407 187.843 271.407 188.027 271.407L184.792 273.256C184.607 273.164 184.33 273.256 184.145 273.256Z" fill="#442794"/>
<path d="M184.793 273.164L188.028 271.315C188.306 271.315 188.491 271.223 188.768 271.223L185.533 273.071C185.255 273.164 184.978 273.164 184.793 273.164Z" fill="#42268F"/>
<path d="M185.531 273.071L188.766 271.222C188.859 271.222 188.859 271.222 188.859 271.222C189.136 271.13 189.321 271.13 189.598 271.037L186.363 272.886C186.086 272.979 185.901 273.071 185.623 273.071H185.531Z" fill="#7643FF"/>
<path d="M186.364 272.886L189.599 271.038C190.062 270.853 190.431 270.668 190.894 270.483L187.658 272.332C187.196 272.517 186.826 272.702 186.364 272.886Z" fill="#3D2385"/>
<path d="M95.6748 113.702L98.9103 111.854C96.5992 113.24 94.5655 115.089 93.0865 117.585L89.851 119.434C91.3301 117.03 93.3638 115.089 95.6748 113.702Z" fill="#3D2385"/>
<path d="M89.7603 119.434L92.9958 117.585C92.5336 118.324 92.1638 119.064 91.794 119.803L88.5586 121.652C88.9284 120.913 89.3906 120.173 89.7603 119.434Z" fill="#7643FF"/>
<path d="M88.5585 121.652L91.794 119.803C91.5167 120.45 91.2393 121.097 90.962 121.744L87.7266 123.593C88.0039 122.946 88.2812 122.299 88.5585 121.652Z" fill="#42268F"/>
<path d="M87.7247 123.686L90.9602 121.837C90.7753 122.392 90.498 123.039 90.3131 123.686L87.0776 125.535C87.355 124.887 87.5398 124.24 87.7247 123.686Z" fill="#442794"/>
<path d="M87.1731 125.443L90.4086 123.594C90.2237 124.148 90.1313 124.703 89.9464 125.258L86.7109 127.107C86.8034 126.552 86.9883 125.997 87.1731 125.443Z" fill="#472899"/>
<path d="M86.7096 127.198L89.9451 125.35C89.8526 125.904 89.6677 126.459 89.5753 127.014L86.3398 128.862C86.4323 128.308 86.6172 127.753 86.7096 127.198Z" fill="#492A9E"/>
<path d="M86.3372 128.863L89.5727 127.015C89.4802 127.477 89.3878 128.032 89.3878 128.494C89.3878 128.586 89.3878 128.679 89.3878 128.679L86.1523 130.527C86.1523 130.435 86.1523 130.343 86.1523 130.343C86.1523 129.88 86.2448 129.326 86.3372 128.863Z" fill="#4C2BA3"/>
<path d="M86.0638 130.619L89.2992 128.77C89.2068 129.417 89.1144 130.064 89.1144 130.619L85.8789 132.468C85.9713 131.821 86.0638 131.266 86.0638 130.619Z" fill="#4E2CA8"/>
<path d="M85.8776 132.468L89.113 130.619C89.0206 131.174 89.0206 131.821 89.0206 132.376L85.7852 134.224C85.7852 133.67 85.8776 133.115 85.8776 132.468Z" fill="#502EAD"/>
<path d="M85.7852 134.224L89.0206 132.375C89.0206 132.93 89.0206 133.485 89.0206 134.039L85.7852 135.888C85.7852 135.426 85.7852 134.779 85.7852 134.224Z" fill="#532FB3"/>
<path d="M85.7852 135.981L89.0206 134.132C89.0206 134.687 89.0206 135.241 89.0206 135.704L85.7852 137.552C85.7852 136.998 85.7852 136.536 85.7852 135.981Z" fill="#5530B8"/>
<path d="M85.7852 137.552L89.0206 135.703C89.0206 136.258 89.0206 136.72 89.113 137.275L85.8776 139.124C85.7852 138.662 85.7852 138.107 85.7852 137.552Z" fill="#5732BD"/>
<path d="M85.8789 139.124L89.1143 137.275C89.1143 137.829 89.2068 138.292 89.2068 138.846L85.9713 140.695C85.9713 140.233 85.8789 139.678 85.8789 139.124Z" fill="#5A33C2"/>
<path d="M85.9688 140.696L89.2042 138.847C89.2966 139.401 89.2966 139.864 89.3891 140.418L86.1536 142.267C86.0612 141.805 86.0612 141.25 85.9688 140.696Z" fill="#5C34C7"/>
<path d="M86.1523 142.267L89.3878 140.418C89.4802 140.973 89.5727 141.435 89.5727 141.989L86.3372 143.838C86.3372 143.376 86.2448 142.821 86.1523 142.267Z" fill="#7643FF"/>
<path d="M86.3398 143.838L89.5753 141.989C89.6677 142.544 89.7602 143.099 89.8526 143.653L86.6172 145.502C86.5247 144.947 86.4323 144.393 86.3398 143.838Z" fill="#6137D1"/>
<path d="M86.6172 145.502L89.8526 143.653C89.9451 144.208 90.0375 144.763 90.2224 145.317L86.987 147.166C86.8945 146.611 86.8021 146.057 86.6172 145.502Z" fill="#6338D6"/>
<path d="M86.9883 147.166L90.2237 145.317C90.3162 145.872 90.5011 146.519 90.5935 147.074L87.358 148.923C87.2656 148.368 87.1732 147.813 86.9883 147.166Z" fill="#7643FF"/>
<path d="M87.449 148.923L90.6845 147.074C90.8693 147.721 91.0542 148.368 91.2391 149.015L88.0037 150.864C87.7264 150.217 87.5415 149.57 87.449 148.923Z" fill="#7643FF"/>
<path d="M87.9111 150.864L91.1465 149.015C91.3314 149.754 91.6087 150.401 91.7936 151.141L88.5582 152.99C88.3733 152.343 88.096 151.603 87.9111 150.864Z" fill="#6A3CE6"/>
<path d="M88.5586 152.99L91.794 151.141C92.0714 151.973 92.3487 152.805 92.626 153.545L89.3906 155.393C89.1132 154.654 88.8359 153.822 88.5586 152.99Z" fill="#6D3EEB"/>
<path d="M89.3906 155.486L92.6261 153.637C92.9958 154.654 93.3656 155.578 93.7354 156.595L90.4999 158.444C90.1302 157.427 89.7604 156.41 89.3906 155.486Z" fill="#6F3FF0"/>
<path d="M90.5006 158.444L93.7361 156.595C94.2907 157.982 94.8453 159.276 95.4 160.57L92.1645 162.419C91.6099 161.125 91.0553 159.738 90.5006 158.444Z" fill="#7140F5"/>
<path d="M92.2578 162.419L95.4933 160.57C96.5101 162.974 97.7118 165.285 98.9136 167.596L95.6781 169.445C94.384 167.134 93.2747 164.823 92.2578 162.419Z" fill="#7442FA"/>
<path d="M95.5854 169.444L98.8208 167.595C100.762 171.478 102.888 175.268 105.014 179.058C107.141 182.848 109.174 186.546 111.023 190.243L107.788 192.092C105.939 188.487 103.905 184.789 101.779 180.907C99.7452 177.209 97.6191 173.327 95.5854 169.444Z" fill="#7643FF"/>
<path d="M107.875 192.092L111.11 190.243C111.295 190.613 111.48 190.89 111.665 191.26C114.901 197.823 117.951 204.202 120.817 210.58L117.581 212.429C114.716 206.051 111.665 199.58 108.43 193.109C108.152 192.832 107.967 192.462 107.875 192.092Z" fill="#7442FA"/>
<path d="M117.493 212.522L120.728 210.673C123.039 215.85 125.165 221.027 127.199 226.111L123.963 227.96C122.022 222.783 119.804 217.699 117.493 212.522Z" fill="#7140F5"/>
<path d="M124.054 227.959L127.29 226.11C128.954 230.363 130.618 234.615 132.097 238.867L128.861 240.716C127.29 236.464 125.718 232.212 124.054 227.959Z" fill="#6F3FF0"/>
<path d="M128.863 240.717L132.099 238.868C133.485 242.658 134.687 246.448 135.981 250.331L132.746 252.18C131.452 248.39 130.157 244.507 128.863 240.717Z" fill="#6D3EEB"/>
<path d="M132.652 252.18L135.888 250.331C136.997 253.936 138.106 257.541 139.123 261.147L135.888 262.996C134.871 259.298 133.854 255.785 132.652 252.18Z" fill="#6A3CE6"/>
<path d="M135.98 262.902L139.216 261.053C140.233 264.566 141.157 268.079 142.081 271.592L138.846 273.441C137.829 269.928 136.905 266.415 135.98 262.902Z" fill="#7643FF"/>
<path d="M138.754 273.533L141.989 271.684C142.914 275.197 143.745 278.802 144.485 282.408L141.25 284.256C140.51 280.651 139.678 277.046 138.754 273.533Z" fill="#7643FF"/>
<path d="M141.25 284.256L144.485 282.408C144.577 282.962 144.762 283.517 144.855 284.164C144.947 284.349 144.947 284.626 145.04 284.811L141.804 286.66C141.712 286.475 141.712 286.198 141.619 286.013C141.527 285.366 141.434 284.811 141.25 284.256Z" fill="#6338D6"/>
<path d="M141.805 286.659L145.04 284.811C145.317 286.197 145.687 287.584 146.057 288.97L142.822 290.819C142.452 289.433 142.082 288.046 141.805 286.659Z" fill="#7643FF"/>
<path d="M142.73 290.727L145.966 288.879C146.336 290.173 146.613 291.467 146.983 292.761L143.747 294.61C143.47 293.316 143.1 292.114 142.73 290.727Z" fill="#7643FF"/>
<path d="M143.84 294.61L147.075 292.761C147.445 293.962 147.815 295.164 148.185 296.366L144.949 298.215C144.487 297.013 144.117 295.811 143.84 294.61Z" fill="#6A3CE6"/>
<path d="M144.852 298.215L148.087 296.366C148.457 297.568 148.827 298.677 149.289 299.879L146.053 301.728C145.684 300.618 145.221 299.417 144.852 298.215Z" fill="#6D3EEB"/>
<path d="M146.058 301.728L149.293 299.879C149.755 301.081 150.125 302.19 150.587 303.392L147.352 305.24C146.89 304.039 146.52 302.929 146.058 301.728Z" fill="#6F3FF0"/>
<path d="M147.352 305.241L150.588 303.392C151.05 304.594 151.604 305.888 152.159 306.997L148.924 308.846C148.369 307.644 147.907 306.442 147.352 305.241Z" fill="#7140F5"/>
<path d="M148.922 308.846L152.158 306.997C152.805 308.476 153.452 309.863 154.191 311.249L150.956 313.098C150.216 311.712 149.569 310.325 148.922 308.846Z" fill="#7442FA"/>
<path d="M150.957 313.098L154.192 311.249C156.411 315.686 158.999 319.661 161.865 323.359C162.235 323.821 162.605 324.283 162.974 324.745L159.739 326.594C159.369 326.132 158.999 325.67 158.63 325.208C155.764 321.51 153.176 317.443 150.957 313.098Z" fill="#7643FF"/>
<path d="M159.645 326.502L162.88 324.654C163.712 325.67 164.636 326.687 165.561 327.704L162.325 329.553C161.401 328.629 160.569 327.612 159.645 326.502Z" fill="#7442FA"/>
<path d="M162.328 329.553L165.564 327.704C166.303 328.536 167.043 329.276 167.782 330.015L164.547 331.864C163.807 331.124 163.068 330.385 162.328 329.553Z" fill="#7140F5"/>
<path d="M164.547 331.956L167.782 330.107C168.429 330.755 169.169 331.402 169.816 332.049L166.581 333.898C165.933 333.25 165.286 332.603 164.547 331.956Z" fill="#6F3FF0"/>
<path d="M166.671 333.897L169.907 332.049C170.554 332.603 171.201 333.25 171.848 333.805L168.613 335.654C167.966 335.099 167.318 334.452 166.671 333.897Z" fill="#6D3EEB"/>
<path d="M168.613 335.653L171.849 333.805C172.496 334.359 173.143 334.822 173.698 335.376L170.462 337.225C169.907 336.67 169.26 336.208 168.613 335.653Z" fill="#6A3CE6"/>
<path d="M170.554 337.225L173.79 335.376C174.437 335.839 174.992 336.301 175.639 336.763L172.403 338.612C171.756 338.15 171.109 337.687 170.554 337.225Z" fill="#7643FF"/>
<path d="M172.403 338.612L175.638 336.763C176.193 337.225 176.84 337.595 177.394 338.057L174.159 339.906C173.512 339.444 172.957 339.074 172.403 338.612Z" fill="#7643FF"/>
<path d="M174.16 339.906L177.396 338.057C177.95 338.427 178.597 338.797 179.152 339.167L175.917 341.015C175.269 340.646 174.715 340.276 174.16 339.906Z" fill="#6338D6"/>
<path d="M175.914 341.015L179.15 339.166C179.704 339.536 180.259 339.906 180.813 340.183L177.578 342.032C177.023 341.754 176.469 341.385 175.914 341.015Z" fill="#6137D1"/>
<path d="M177.578 342.032L180.814 340.184C180.906 340.276 181.091 340.368 181.183 340.368C181.646 340.646 182.015 340.831 182.477 341.108L179.242 342.957C178.78 342.772 178.41 342.495 177.948 342.217C177.855 342.217 177.671 342.125 177.578 342.032Z" fill="#7643FF"/>
<path d="M179.246 342.957L182.482 341.108C183.036 341.386 183.498 341.663 184.053 341.94L180.818 343.789C180.263 343.512 179.708 343.235 179.246 342.957Z" fill="#5C34C7"/>
<path d="M180.812 343.788L184.048 341.939C184.603 342.217 185.065 342.402 185.619 342.679L182.384 344.528C181.829 344.251 181.275 344.066 180.812 343.788Z" fill="#5A33C2"/>
<path d="M182.293 344.529L185.528 342.68C185.991 342.865 186.545 343.142 187.007 343.327L183.772 345.176C183.31 344.991 182.848 344.713 182.293 344.529Z" fill="#5732BD"/>
<path d="M183.867 345.176L187.102 343.327C187.564 343.512 188.119 343.697 188.581 343.881L185.346 345.73C184.791 345.545 184.329 345.36 183.867 345.176Z" fill="#5530B8"/>
<path d="M185.254 345.73L188.489 343.881C188.952 344.066 189.414 344.158 189.876 344.343L186.641 346.192C186.271 346.007 185.809 345.915 185.254 345.73Z" fill="#532FB3"/>
<path d="M186.73 346.192L189.966 344.343C190.428 344.528 190.89 344.62 191.353 344.713L188.117 346.561C187.655 346.469 187.193 346.284 186.73 346.192Z" fill="#502EAD"/>
<path d="M188.118 346.562L191.353 344.713C191.816 344.805 192.278 344.898 192.74 344.99L189.505 346.839C189.042 346.747 188.58 346.654 188.118 346.562Z" fill="#4E2CA8"/>
<path d="M189.413 346.839L192.649 344.991C193.111 345.083 193.573 345.175 193.943 345.175L190.708 347.024C190.338 347.024 189.876 346.932 189.413 346.839Z" fill="#4C2BA3"/>
<path d="M190.801 347.116L194.036 345.268C194.498 345.36 194.961 345.36 195.33 345.36L192.095 347.209C191.725 347.209 191.263 347.116 190.801 347.116Z" fill="#492A9E"/>
<path d="M192.094 347.209L195.329 345.36H195.422C196.069 345.36 196.716 345.453 197.363 345.453L194.127 347.302C193.573 347.302 192.833 347.302 192.094 347.209C192.186 347.209 192.186 347.209 192.094 347.209Z" fill="#472899"/>
<path d="M194.125 347.302L197.36 345.453C198.1 345.453 198.747 345.453 199.394 345.36L196.159 347.209C195.512 347.209 194.865 347.302 194.125 347.302Z" fill="#442794"/>
<path d="M196.254 347.209L199.489 345.36C200.229 345.268 200.968 345.175 201.615 345.083L198.38 346.932C197.641 347.024 196.993 347.117 196.254 347.209Z" fill="#42268F"/>
<path d="M198.379 346.932L201.614 345.083C202.446 344.898 203.278 344.713 204.11 344.436L200.875 346.285C200.043 346.47 199.211 346.747 198.379 346.932Z" fill="#7643FF"/>
<path d="M200.875 346.192L204.11 344.343C205.127 343.974 206.144 343.511 207.068 342.957L203.833 344.806C202.908 345.36 201.891 345.822 200.875 346.192Z" fill="#3D2385"/>
<path d="M147.259 185.345L150.494 183.496C149.662 183.958 148.923 184.698 148.368 185.53L145.133 187.379C145.687 186.547 146.427 185.807 147.259 185.345Z" fill="#3D2385"/>
<path d="M145.131 187.379L148.367 185.53C148.182 185.715 148.09 185.992 147.997 186.27L144.762 188.119C144.854 187.841 145.039 187.656 145.131 187.379Z" fill="#7643FF"/>
<path d="M144.762 188.118L147.997 186.27C147.905 186.454 147.812 186.639 147.72 186.824L144.484 188.673C144.577 188.488 144.669 188.303 144.762 188.118Z" fill="#42268F"/>
<path d="M144.482 188.672L147.717 186.823C147.625 187.008 147.625 187.193 147.532 187.378L144.297 189.227C144.389 189.042 144.482 188.857 144.482 188.672Z" fill="#442794"/>
<path d="M144.299 189.227L147.534 187.379C147.534 187.563 147.442 187.656 147.442 187.841L144.206 189.69C144.206 189.505 144.299 189.412 144.299 189.227Z" fill="#472899"/>
<path d="M144.208 189.69L147.444 187.841C147.444 187.934 147.444 188.026 147.351 188.118C147.351 188.211 147.351 188.303 147.259 188.396L144.023 190.245C144.023 190.152 144.023 190.06 144.116 189.967C144.208 189.875 144.208 189.782 144.208 189.69Z" fill="#492A9E"/>
<path d="M144.116 190.244L147.351 188.395C147.351 188.58 147.259 188.765 147.259 188.95L144.023 190.799C144.023 190.614 144.116 190.429 144.116 190.244Z" fill="#4C2BA3"/>
<path d="M144.022 190.799L147.258 188.95C147.258 189.135 147.258 189.32 147.165 189.505L143.93 191.353C144.022 191.169 144.022 190.984 144.022 190.799Z" fill="#4E2CA8"/>
<path d="M143.93 191.354L147.165 189.505C147.165 189.69 147.165 189.875 147.165 190.059L143.93 191.908C143.93 191.723 143.93 191.538 143.93 191.354Z" fill="#502EAD"/>
<path d="M143.93 191.908L147.165 190.06C147.165 190.244 147.165 190.429 147.165 190.614L143.93 192.463C143.93 192.278 143.93 192.093 143.93 191.908Z" fill="#532FB3"/>
<path d="M143.93 192.463L147.165 190.614C147.165 190.799 147.165 190.984 147.165 191.169L143.93 193.018C143.93 192.833 143.93 192.648 143.93 192.463Z" fill="#5530B8"/>
<path d="M143.93 193.018L147.165 191.169C147.165 191.354 147.165 191.539 147.165 191.723L143.93 193.572C143.93 193.387 143.93 193.203 143.93 193.018Z" fill="#5732BD"/>
<path d="M143.93 193.572L147.165 191.723C147.165 191.908 147.165 192.093 147.258 192.37L144.022 194.219C144.022 194.034 143.93 193.757 143.93 193.572Z" fill="#5A33C2"/>
<path d="M144.023 194.219L147.259 192.37C147.259 192.555 147.259 192.832 147.351 193.017L144.116 194.866C144.023 194.589 144.023 194.404 144.023 194.219Z" fill="#5C34C7"/>
<path d="M144.113 194.866L147.349 193.018C147.349 193.202 147.441 193.48 147.441 193.665L144.206 195.514C144.113 195.329 144.113 195.051 144.113 194.866Z" fill="#7643FF"/>
<path d="M144.206 195.513L147.442 193.665C147.442 193.942 147.534 194.127 147.534 194.404L144.299 196.253C144.299 195.976 144.206 195.791 144.206 195.513Z" fill="#6137D1"/>
<path d="M144.297 196.253L147.532 194.404C147.625 194.682 147.625 194.959 147.717 195.236L144.482 197.085C144.389 196.808 144.389 196.53 144.297 196.253Z" fill="#6338D6"/>
<path d="M144.484 197.085L147.72 195.236C147.812 195.514 147.812 195.883 147.905 196.161L144.669 198.01C144.577 197.64 144.577 197.362 144.484 197.085Z" fill="#7643FF"/>
<path d="M144.668 198.009L147.903 196.16C147.996 196.53 148.088 196.9 148.181 197.177L144.945 199.026C144.853 198.656 144.76 198.379 144.668 198.009Z" fill="#7643FF"/>
<path d="M144.949 199.027L148.185 197.178C148.277 197.64 148.462 198.01 148.554 198.472L145.319 200.321C145.227 199.859 145.042 199.489 144.949 199.027Z" fill="#6A3CE6"/>
<path d="M145.316 200.32L148.551 198.471C148.736 199.026 148.921 199.581 149.106 200.135L145.871 201.984C145.686 201.337 145.501 200.875 145.316 200.32Z" fill="#6D3EEB"/>
<path d="M145.871 201.893L149.107 200.044C149.384 200.876 149.661 201.615 150.031 202.355L146.796 204.204C146.426 203.464 146.148 202.725 145.871 201.893Z" fill="#6F3FF0"/>
<path d="M146.797 204.295L150.032 202.446C150.679 204.11 151.419 205.774 152.066 207.253L148.831 209.102C148.183 207.531 147.444 205.959 146.797 204.295Z" fill="#7140F5"/>
<path d="M73.582 78.9451L76.8175 77.0962C78.0192 76.3567 79.3134 75.802 80.7 75.3398L77.4646 77.1887C76.1704 77.6509 74.8762 78.2055 73.582 78.9451Z" fill="#3D2385"/>
<path d="M77.465 77.1887L80.7005 75.3399C81.7173 74.9701 82.7342 74.6928 83.8435 74.5079L80.608 76.3567C79.4987 76.5416 78.4819 76.8189 77.465 77.1887Z" fill="#7643FF"/>
<path d="M80.6088 76.3568L83.8443 74.508C84.6762 74.3231 85.5082 74.2307 86.4326 74.1382L83.1972 75.9871C82.2728 75.9871 81.4408 76.172 80.6088 76.3568Z" fill="#42268F"/>
<path d="M83.1016 75.9872L86.337 74.1383C87.0765 74.0459 87.8161 74.0459 88.648 74.0459L85.4126 75.8947C84.6731 75.8023 83.8411 75.8947 83.1016 75.9872Z" fill="#442794"/>
<path d="M85.4144 75.802L88.6499 73.9531C89.3894 73.9531 90.1289 73.9531 90.776 74.0456L87.5406 75.8944C86.8935 75.8944 86.154 75.802 85.4144 75.802Z" fill="#472899"/>
<path d="M87.6335 75.8944L90.869 74.0456C91.5161 74.138 92.2556 74.138 92.9951 74.2305L89.7597 76.0793C89.0202 75.9869 88.2806 75.9869 87.6335 75.8944Z" fill="#492A9E"/>
<path d="M89.6641 76.1721L92.8995 74.3232C93.5466 74.4157 94.2861 74.5081 95.0257 74.693L91.7902 76.5418C91.0507 76.3569 90.4036 76.2645 89.6641 76.1721Z" fill="#4C2BA3"/>
<path d="M91.7932 76.4489L95.0286 74.6001C95.7682 74.6925 96.4153 74.8774 97.1548 75.0623L93.9194 76.9111C93.1798 76.7262 92.5327 76.6338 91.7932 76.4489Z" fill="#4E2CA8"/>
<path d="M93.918 76.9113L97.1534 75.0625C97.8929 75.2474 98.54 75.4323 99.2796 75.6172L96.0441 77.466C95.3046 77.2811 94.6575 77.0962 93.918 76.9113Z" fill="#502EAD"/>
<path d="M96.0469 77.5578L99.2823 75.709C100.022 75.8939 100.761 76.1712 101.501 76.4485L98.2655 78.2973C97.5259 78.02 96.7864 77.7427 96.0469 77.5578Z" fill="#532FB3"/>
<path d="M98.3563 78.2977L101.592 76.4489C102.331 76.7262 103.163 77.0036 103.903 77.3733L100.667 79.2222C99.8354 78.8524 99.0959 78.5751 98.3563 78.2977Z" fill="#5530B8"/>
<path d="M100.668 79.1301L103.903 77.2812C104.735 77.651 105.567 77.9283 106.399 78.2981L103.164 80.1469C102.332 79.8696 101.5 79.4998 100.668 79.1301Z" fill="#5732BD"/>
<path d="M103.163 80.2392L106.399 78.3904C107.046 78.6677 107.693 78.945 108.34 79.3148L105.105 81.1636C104.458 80.7939 103.811 80.5165 103.163 80.2392Z" fill="#5A33C2"/>
<path d="M270.205 363.663L273.44 361.814C272.978 362.646 272.608 363.571 272.146 364.495L268.911 366.344C269.28 365.42 269.743 364.495 270.205 363.663Z" fill="#7643FF"/>
<path d="M268.91 366.344L272.145 364.495C271.313 366.159 270.574 367.915 269.927 369.764L266.691 371.613C267.338 369.672 268.078 368.008 268.91 366.344Z" fill="#42268F"/>
<path d="M266.692 371.521L269.927 369.672C269.558 370.596 269.28 371.613 268.911 372.63L265.675 374.479C265.952 373.462 266.322 372.445 266.692 371.521Z" fill="#442794"/>
<path d="M265.675 374.479L268.911 372.63C268.818 372.907 268.726 373.185 268.633 373.462C268.356 374.571 267.986 375.865 267.709 377.16L264.473 379.008C264.751 377.714 265.12 376.513 265.398 375.311C265.49 375.033 265.583 374.756 265.675 374.479Z" fill="#472899"/>
<path d="M264.567 379.008L267.803 377.159C267.248 379.563 266.693 382.244 266.231 385.109L262.996 386.958C263.458 384.092 264.012 381.412 264.567 379.008Z" fill="#492A9E"/>
<path d="M262.994 386.958L266.23 385.11C265.583 388.715 265.028 392.597 264.473 396.757L261.238 398.606C261.793 394.446 262.347 390.564 262.994 386.958Z" fill="#4C2BA3"/>
<path d="M261.241 398.606L264.476 396.757C263.922 401.379 263.367 406.278 262.997 411.363L259.762 413.211C260.131 408.127 260.686 403.228 261.241 398.606Z" fill="#4E2CA8"/>
<path d="M259.76 413.212L262.996 411.363C262.996 411.733 262.903 412.103 262.903 412.473C262.903 412.565 262.903 412.565 262.903 412.657L259.668 414.506C259.668 414.414 259.668 414.414 259.668 414.321C259.668 413.952 259.76 413.582 259.76 413.212Z" fill="#502EAD"/>
<path d="M259.666 414.413L262.901 412.565C262.809 413.212 262.809 413.951 262.716 414.598L259.481 416.447C259.481 415.8 259.573 415.153 259.666 414.413Z" fill="#4E2CA8"/>
<path d="M259.479 416.446L262.715 414.598C262.622 415.337 262.53 416.077 262.345 416.816L259.109 418.665C259.202 417.926 259.387 417.186 259.479 416.446Z" fill="#4C2BA3"/>
<path d="M259.113 418.666L262.349 416.817C262.164 417.742 261.979 418.574 261.794 419.406L258.559 421.255C258.743 420.423 258.928 419.591 259.113 418.666Z" fill="#492A9E"/>
<path d="M258.555 421.254L261.791 419.405C261.513 420.515 261.236 421.624 260.959 422.641L257.723 424.49C258.093 423.473 258.37 422.363 258.555 421.254Z" fill="#472899"/>
<path d="M257.724 424.489L260.959 422.641C260.497 424.305 259.942 425.784 259.388 427.355L256.152 429.204C256.707 427.725 257.262 426.153 257.724 424.489Z" fill="#442794"/>
<path d="M256.152 429.204L259.388 427.355C258.925 428.557 258.463 429.759 258.001 430.868C257.539 431.978 257.077 432.994 256.614 434.011L253.379 435.86C253.841 434.843 254.303 433.826 254.766 432.717C255.32 431.515 255.782 430.406 256.152 429.204Z" fill="#42268F"/>
<path d="M253.473 435.86L256.708 434.011C255.691 436.137 254.582 438.079 253.473 439.928L250.237 441.776C251.347 439.928 252.456 437.986 253.473 435.86Z" fill="#7643FF"/>
<path d="M250.145 441.776L253.38 439.927C249.59 445.936 244.876 450.558 239.329 453.794L236.094 455.642C241.64 452.407 246.355 447.785 250.145 441.776Z" fill="#3D2385"/>
<path d="M271.312 361.446L274.548 359.505L273.439 361.723L270.203 363.665L271.312 361.446Z" fill="#442692"/>
<path d="M105.105 81.0709L108.341 79.222C108.525 79.3145 108.71 79.4069 108.895 79.4994L105.66 81.3482C105.382 81.2558 105.29 81.1633 105.105 81.0709Z" fill="#5A33C2"/>
<path d="M105.566 81.3482L108.801 79.4994C109.264 79.7767 109.818 80.054 110.281 80.3314L107.045 82.1802C106.583 81.9029 106.121 81.6255 105.566 81.3482Z" fill="#5C34C7"/>
<path d="M107.14 82.1802L110.376 80.3314C110.838 80.5163 111.208 80.7936 111.67 81.0709C111.762 81.1634 111.947 81.2558 112.04 81.3483L108.804 83.1971C108.712 83.1047 108.527 83.0122 108.434 82.9198C107.972 82.6424 107.51 82.3651 107.14 82.1802Z" fill="#7643FF"/>
<path d="M108.804 83.105L112.04 81.2562C112.687 81.626 113.334 81.9958 113.981 82.458L110.746 84.3068C110.099 83.8446 109.451 83.4748 108.804 83.105Z" fill="#6137D1"/>
<path d="M110.746 84.3063L113.981 82.4575C114.721 82.9197 115.46 83.3819 116.2 83.9366L112.964 85.7854C112.132 85.2308 111.485 84.7685 110.746 84.3063Z" fill="#6338D6"/>
<path d="M112.867 85.6929L116.102 83.8441C116.934 84.3988 117.766 85.0459 118.691 85.6929L115.455 87.5418C114.623 86.8947 113.699 86.34 112.867 85.6929Z" fill="#7643FF"/>
<path d="M115.461 87.5416L118.696 85.6927C119.713 86.4323 120.73 87.2642 121.747 88.0038L118.511 89.8526C117.494 89.1131 116.477 88.2811 115.461 87.5416Z" fill="#7643FF"/>
<path d="M118.507 89.8531L121.743 88.0043C123.037 89.0211 124.239 90.038 125.441 91.0548L122.205 92.9037C121.003 91.8868 119.709 90.87 118.507 89.8531Z" fill="#6A3CE6"/>
<path d="M122.207 92.9035L125.442 91.0547C127.106 92.4413 128.678 93.8279 130.064 95.2145L126.829 97.0634C125.35 95.6767 123.871 94.2901 122.207 92.9035Z" fill="#6D3EEB"/>
<path d="M126.828 97.0634L130.064 95.2145C130.618 95.7692 131.173 96.3238 131.728 96.786L128.492 98.6349C128.03 98.0802 127.383 97.5256 126.828 97.0634Z" fill="#6F3FF0"/>
<path d="M128.496 98.6346L131.824 96.6934L134.967 99.7439L131.732 101.593L128.496 98.6346Z" fill="#7140F5"/>
<path d="M230.087 259.113L233.323 257.264C226.944 262.533 221.12 269.466 215.944 277.601L212.708 279.45C217.885 271.315 223.709 264.474 230.087 259.113Z" fill="#3D2385"/>
<path d="M212.71 279.45L215.945 277.601C213.45 281.576 211.138 285.828 208.92 290.358L205.684 292.207C207.811 287.677 210.214 283.425 212.71 279.45Z" fill="#7643FF"/>
<path d="M205.682 292.207L208.917 290.358C208.547 291.097 208.178 291.837 207.9 292.669C207.438 293.686 206.976 294.702 206.514 295.812L203.278 297.661C203.74 296.644 204.203 295.534 204.665 294.518C205.035 293.686 205.312 292.946 205.682 292.207Z" fill="#42268F"/>
<path d="M203.186 297.569L206.422 295.72C205.59 297.569 204.665 299.325 203.556 300.989L200.32 302.838C201.43 301.174 202.354 299.417 203.186 297.569Z" fill="#7643FF"/>
<path d="M200.413 302.838L203.649 300.989C202.077 303.485 200.136 305.703 197.732 307.09L194.497 308.939C196.9 307.644 198.749 305.426 200.413 302.838Z" fill="#3D2385"/>
<path d="M231.196 258.188L234.431 256.34L233.322 257.264L230.086 259.113L231.196 258.188Z" fill="#3B2280"/>
<path d="M266.971 293.316L270.206 291.467C267.248 293.223 264.567 295.257 262.256 298.123C261.332 299.324 260.13 300.341 258.836 301.266C258.097 301.82 257.357 302.375 256.71 303.114C253.567 306.442 250.794 310.232 247.466 314.854C246.911 315.594 246.356 316.426 245.802 317.258L242.566 319.107C243.121 318.275 243.676 317.443 244.23 316.703C247.558 312.081 250.331 308.291 253.474 304.963C254.122 304.316 254.861 303.669 255.601 303.114C256.802 302.19 258.004 301.173 259.021 299.971C261.332 297.106 264.013 295.072 266.971 293.316Z" fill="#3D2385"/>
<path d="M242.655 319.199L245.891 317.35C244.412 319.754 242.84 322.527 241.361 325.67L238.126 327.519C239.605 324.376 241.084 321.603 242.655 319.199Z" fill="#7643FF"/>
<path d="M238.127 327.519L241.363 325.67C239.791 329.09 238.127 332.881 236.556 337.225L233.32 339.074C234.984 334.729 236.556 330.847 238.127 327.519Z" fill="#42268F"/>
<path d="M233.321 339.074L236.556 337.225C235.539 339.998 234.522 342.956 233.413 346.192C233.043 347.209 232.766 348.318 232.396 349.335L229.161 351.184C229.438 350.167 229.808 349.058 230.178 348.041C231.287 344.805 232.304 341.847 233.321 339.074Z" fill="#442794"/>
<path d="M229.253 351.183L232.488 349.335C231.934 351.183 231.471 353.032 231.009 354.881C230.547 356.545 230.085 358.209 229.623 359.873L226.387 361.722C226.849 360.15 227.312 358.486 227.774 356.73C228.236 354.973 228.698 353.125 229.253 351.183Z" fill="#472899"/>
<path d="M226.385 361.63L229.621 359.781C229.159 361.445 228.604 363.016 228.142 364.495L224.906 366.344C225.368 364.865 225.831 363.294 226.385 361.63Z" fill="#442794"/>
<path d="M224.814 366.344L228.05 364.495C227.957 364.773 227.865 365.05 227.68 365.327C227.403 366.067 227.033 366.807 226.755 367.454L223.52 369.302C223.89 368.563 224.167 367.916 224.444 367.176C224.629 366.991 224.722 366.622 224.814 366.344Z" fill="#42268F"/>
<path d="M223.521 369.395L226.756 367.546C226.201 368.748 225.554 369.857 224.907 370.874L221.672 372.723C222.411 371.706 222.966 370.596 223.521 369.395Z" fill="#7643FF"/>
<path d="M221.764 372.723L224.999 370.874C222.688 374.479 219.822 377.252 216.587 379.101L213.352 380.95C216.587 379.101 219.453 376.328 221.764 372.723Z" fill="#3D2385"/>
<path d="M294.241 335.931L297.476 334.082C289.711 338.612 283.333 344.806 278.341 352.663L275.105 354.512C280.005 346.747 286.476 340.461 294.241 335.931Z" fill="#3D2385"/>
<path d="M275.013 354.604L278.248 352.755C276.861 354.882 275.66 357.193 274.458 359.596L271.222 361.445C272.424 359.041 273.718 356.73 275.013 354.604Z" fill="#7643FF"/>
<path d="M121.93 149.662L125.165 147.814C125.72 147.444 126.275 147.259 126.922 146.982L123.686 148.83C123.132 149.108 122.485 149.293 121.93 149.662Z" fill="#3D2385"/>
<path d="M123.685 148.83L126.92 146.982C127.382 146.797 127.937 146.704 128.399 146.612L125.164 148.461C124.701 148.553 124.239 148.645 123.685 148.83Z" fill="#7643FF"/>
<path d="M125.258 148.46L128.494 146.611C128.863 146.519 129.326 146.426 129.788 146.426L126.552 148.275C126.09 148.275 125.628 148.368 125.258 148.46Z" fill="#42268F"/>
<path d="M126.458 148.276L129.693 146.427C130.063 146.427 130.433 146.335 130.803 146.335L127.567 148.183C127.198 148.183 126.828 148.183 126.458 148.276Z" fill="#442794"/>
<path d="M127.661 148.183L130.897 146.335C131.267 146.335 131.636 146.335 132.006 146.335L128.771 148.183C128.308 148.183 128.031 148.183 127.661 148.183Z" fill="#472899"/>
<path d="M128.676 148.276L131.912 146.427C132.281 146.427 132.559 146.52 132.928 146.52L129.693 148.369C129.416 148.276 129.046 148.276 128.676 148.276Z" fill="#492A9E"/>
<path d="M129.786 148.368L133.021 146.519C133.391 146.519 133.668 146.612 134.038 146.704L130.802 148.553C130.433 148.46 130.063 148.368 129.786 148.368Z" fill="#4C2BA3"/>
<path d="M130.805 148.554L134.04 146.705C134.41 146.797 134.688 146.89 135.057 146.89L131.822 148.738C131.452 148.646 131.082 148.554 130.805 148.554Z" fill="#4E2CA8"/>
<path d="M131.821 148.738L135.056 146.889C135.426 146.982 135.703 147.074 136.073 147.167L132.838 149.015C132.468 148.923 132.098 148.831 131.821 148.738Z" fill="#502EAD"/>
<path d="M132.84 149.015L136.076 147.167C136.445 147.259 136.723 147.352 137.092 147.536L133.857 149.385C133.487 149.2 133.118 149.108 132.84 149.015Z" fill="#532FB3"/>
<path d="M133.852 149.385L137.087 147.536C137.457 147.628 137.734 147.813 138.104 147.906L134.869 149.754C134.499 149.569 134.129 149.477 133.852 149.385Z" fill="#5530B8"/>
<path d="M134.872 149.755L138.108 147.906C138.477 148.091 138.847 148.183 139.124 148.368L135.889 150.217C135.612 150.032 135.242 149.847 134.872 149.755Z" fill="#5732BD"/>
<path d="M135.891 150.218L139.126 148.369C139.496 148.554 139.866 148.739 140.236 148.923L137 150.772C136.631 150.495 136.261 150.31 135.891 150.218Z" fill="#5A33C2"/>
<path d="M136.996 150.68L140.232 148.831C140.509 148.923 140.694 149.108 140.971 149.2C141.156 149.293 141.341 149.385 141.526 149.478L138.291 151.327C138.106 151.234 137.921 151.142 137.736 151.049C137.459 150.957 137.274 150.864 136.996 150.68Z" fill="#5C34C7"/>
<path d="M138.293 151.326L141.528 149.477C141.898 149.662 142.268 149.847 142.638 150.124C142.73 150.217 142.915 150.217 143.007 150.309L139.772 152.158C139.68 152.066 139.495 151.973 139.402 151.973C139.032 151.788 138.663 151.604 138.293 151.326Z" fill="#7643FF"/>
<path d="M139.77 152.158L143.005 150.309C143.56 150.679 144.115 150.956 144.669 151.326L141.434 153.175C140.879 152.898 140.325 152.528 139.77 152.158Z" fill="#6137D1"/>
<path d="M141.438 153.176L144.673 151.327C145.32 151.789 145.968 152.159 146.615 152.621L143.379 154.47C142.732 154.1 142.085 153.638 141.438 153.176Z" fill="#6338D6"/>
<path d="M143.375 154.47L146.611 152.621C147.443 153.268 148.367 153.822 149.199 154.47L145.964 156.318C145.132 155.764 144.207 155.117 143.375 154.47Z" fill="#7643FF"/>
<path d="M145.965 156.41L149.2 154.562C151.141 155.948 152.99 157.52 154.932 158.906C156.595 160.201 158.352 161.587 160.016 162.789L156.78 164.638C155.116 163.436 153.36 162.049 151.696 160.755C149.847 159.276 147.906 157.797 145.965 156.41Z" fill="#7643FF"/>
<path d="M156.781 164.638L160.016 162.789C160.386 163.067 160.756 163.344 161.033 163.529C162.512 164.638 164.084 165.655 165.563 166.672L162.327 168.521C160.756 167.504 159.277 166.394 157.798 165.378C157.428 165.193 157.151 164.915 156.781 164.638Z" fill="#7643FF"/>
<path d="M162.328 168.613L165.563 166.764C168.429 168.705 171.294 170.647 174.16 172.403L170.925 174.252C168.059 172.403 165.193 170.554 162.328 168.613Z" fill="#6338D6"/>
<path d="M170.926 174.252L174.162 172.403C177.027 174.252 179.893 176.008 182.759 177.672L179.523 179.521C176.658 177.857 173.792 176.101 170.926 174.252Z" fill="#6137D1"/>
<path d="M179.52 179.521L182.756 177.672C183.403 178.042 184.05 178.412 184.697 178.781C186.731 179.983 188.672 181.092 190.706 182.109L187.47 183.958C185.529 182.849 183.495 181.74 181.462 180.63C180.722 180.26 180.075 179.891 179.52 179.521Z" fill="#7643FF"/>
<path d="M187.379 183.958L190.614 182.109C192.925 183.404 195.236 184.513 197.362 185.622L194.127 187.471C191.908 186.362 189.69 185.16 187.379 183.958Z" fill="#5C34C7"/>
<path d="M194.129 187.471L197.365 185.623C198.566 186.27 199.861 186.824 200.97 187.379C201.34 187.564 201.617 187.656 201.987 187.841L198.751 189.69C198.382 189.505 198.104 189.413 197.734 189.228C196.625 188.673 195.331 188.119 194.129 187.471Z" fill="#5A33C2"/>
<path d="M198.841 189.689L202.077 187.841C203.371 188.395 204.572 188.95 205.774 189.412L202.539 191.261C201.337 190.799 200.043 190.244 198.841 189.689Z" fill="#5732BD"/>
<path d="M202.54 191.261L205.775 189.412C206.792 189.782 207.716 190.152 208.641 190.522C209.288 190.799 209.842 190.984 210.49 191.261L207.254 193.11C206.607 192.833 205.96 192.648 205.405 192.37C204.481 192.001 203.556 191.631 202.54 191.261Z" fill="#5530B8"/>
<path d="M207.344 193.109L210.58 191.261C212.059 191.815 213.538 192.462 215.109 193.202L211.874 195.051C210.302 194.404 208.823 193.757 207.344 193.109Z" fill="#5732BD"/>
<path d="M211.875 195.051L215.111 193.202C216.035 193.664 217.052 194.034 217.976 194.496L214.741 196.345C213.724 195.883 212.8 195.513 211.875 195.051Z" fill="#5A33C2"/>
<path d="M214.649 196.345L217.884 194.497C218.624 194.866 219.363 195.236 220.01 195.606L216.775 197.455C216.128 197.085 215.388 196.715 214.649 196.345Z" fill="#5C34C7"/>
<path d="M216.868 197.455L220.103 195.606C220.288 195.698 220.473 195.791 220.658 195.883L217.422 197.732C217.145 197.64 216.96 197.547 216.868 197.455Z" fill="#7643FF"/>
<path d="M241.641 233.229L244.877 231.381C244.877 231.658 244.969 231.935 244.969 232.213L241.734 234.061C241.734 233.784 241.641 233.507 241.641 233.229Z" fill="#7643FF"/>
<path d="M241.731 234.061L244.967 232.213C245.059 232.582 245.059 232.952 245.059 233.322L241.824 235.171C241.824 234.801 241.824 234.431 241.731 234.061Z" fill="#5C34C7"/>
<path d="M241.825 235.171L245.06 233.322C245.06 233.692 245.153 234.062 245.153 234.431L241.917 236.28C241.917 235.91 241.917 235.541 241.825 235.171Z" fill="#5A33C2"/>
<path d="M241.919 236.187L245.154 234.339C245.154 234.708 245.154 235.078 245.246 235.355L242.011 237.204C242.011 236.927 242.011 236.557 241.919 236.187Z" fill="#5732BD"/>
<path d="M242.012 237.297L245.247 235.448C245.247 235.818 245.247 236.188 245.247 236.465L242.012 238.314C242.012 237.944 242.012 237.574 242.012 237.297Z" fill="#5530B8"/>
<path d="M242.012 238.314L245.247 236.465C245.247 236.835 245.247 237.112 245.247 237.482L242.012 239.331C242.012 238.961 242.012 238.683 242.012 238.314Z" fill="#532FB3"/>
<path d="M242.011 239.33L245.246 237.481C245.246 237.851 245.246 238.221 245.154 238.591L241.919 240.439C241.919 240.07 242.011 239.7 242.011 239.33Z" fill="#502EAD"/>
<path d="M241.917 240.348L245.153 238.499C245.153 238.869 245.06 239.238 245.06 239.608L241.825 241.457C241.825 241.087 241.917 240.717 241.917 240.348Z" fill="#4E2CA8"/>
<path d="M241.826 241.456L245.061 239.608C244.969 239.977 244.969 240.347 244.877 240.717L241.641 242.566C241.734 242.196 241.734 241.826 241.826 241.456Z" fill="#4C2BA3"/>
<path d="M241.642 242.566L244.877 240.717C244.785 241.087 244.692 241.549 244.6 241.919L241.365 243.768C241.457 243.398 241.549 243.028 241.642 242.566Z" fill="#492A9E"/>
<path d="M241.366 243.768L244.601 241.919C244.509 242.382 244.416 242.751 244.232 243.214L240.996 245.062C241.181 244.693 241.273 244.23 241.366 243.768Z" fill="#472899"/>
<path d="M241.087 245.062L244.322 243.213C244.138 243.675 244.045 244.23 243.86 244.692L240.625 246.541C240.717 246.079 240.902 245.617 241.087 245.062Z" fill="#442794"/>
<path d="M240.623 246.541L243.858 244.693C243.674 245.247 243.396 245.894 243.119 246.356L239.883 248.205C240.068 247.651 240.346 247.096 240.623 246.541Z" fill="#42268F"/>
<path d="M239.885 248.205L243.121 246.356C242.751 247.188 242.289 247.928 241.827 248.667L238.591 250.516C239.053 249.776 239.423 249.037 239.885 248.205Z" fill="#7643FF"/>
<path d="M238.591 250.516L241.827 248.667C239.608 252.18 236.65 254.583 234.431 256.34L231.196 258.189C233.415 256.432 236.373 254.029 238.591 250.516Z" fill="#3D2385"/>
<path d="M217.328 197.824L220.564 195.976C220.564 195.976 220.564 195.976 220.656 195.976L217.328 197.824C217.421 197.824 217.328 197.824 217.328 197.824Z" fill="#7643FF"/>
<path d="M217.421 197.824L220.657 195.976C221.026 196.253 221.489 196.438 221.858 196.715L218.623 198.564C218.253 198.287 217.791 198.102 217.421 197.824Z" fill="#6137D1"/>
<path d="M218.621 198.564L221.856 196.715C222.226 196.992 222.688 197.269 223.058 197.547L219.822 199.396C219.453 199.118 219.083 198.841 218.621 198.564Z" fill="#6338D6"/>
<path d="M219.918 199.396L223.153 197.547C223.616 197.824 223.985 198.102 224.355 198.471L221.12 200.32C220.75 199.95 220.288 199.673 219.918 199.396Z" fill="#7643FF"/>
<path d="M221.121 200.228L224.357 198.379C224.819 198.656 225.189 199.026 225.651 199.396L222.415 201.245C221.953 200.875 221.583 200.598 221.121 200.228Z" fill="#7643FF"/>
<path d="M222.414 201.244L225.65 199.396C226.112 199.765 226.574 200.135 226.944 200.505L223.708 202.354C223.338 201.984 222.876 201.614 222.414 201.244Z" fill="#6A3CE6"/>
<path d="M223.707 202.355L226.942 200.506C227.405 200.876 227.867 201.338 228.329 201.708L225.094 203.556C224.631 203.187 224.169 202.724 223.707 202.355Z" fill="#6D3EEB"/>
<path d="M225.09 203.556L228.325 201.707C228.787 202.169 229.342 202.631 229.804 203.094L226.569 204.942C226.107 204.48 225.644 204.018 225.09 203.556Z" fill="#6F3FF0"/>
<path d="M226.668 205.034L229.903 203.186C230.458 203.74 231.013 204.295 231.567 204.942L228.332 206.791C227.777 206.144 227.223 205.589 226.668 205.034Z" fill="#7140F5"/>
<path d="M228.328 206.791L231.564 204.942C232.303 205.682 232.95 206.514 233.597 207.346L230.362 209.195C229.715 208.27 228.975 207.531 228.328 206.791Z" fill="#7442FA"/>
<path d="M230.364 209.102L233.599 207.254C236.188 210.397 238.406 213.724 240.163 217.237L236.927 219.086C235.171 215.573 232.86 212.245 230.364 209.102Z" fill="#7643FF"/>
<path d="M236.925 219.179L240.161 217.33C240.623 218.162 240.993 218.994 241.363 219.826L238.127 221.674C237.757 220.843 237.388 220.011 236.925 219.179Z" fill="#7442FA"/>
<path d="M238.129 221.674L241.364 219.825C241.642 220.472 241.919 221.119 242.196 221.766L238.961 223.615C238.684 222.968 238.406 222.321 238.129 221.674Z" fill="#7140F5"/>
<path d="M238.958 223.616L242.193 221.767C242.378 222.322 242.655 222.876 242.84 223.431L239.605 225.28C239.42 224.725 239.235 224.171 238.958 223.616Z" fill="#6F3FF0"/>
<path d="M239.609 225.279L242.845 223.431C243.03 223.893 243.215 224.448 243.307 224.91L240.072 226.759C239.979 226.296 239.794 225.834 239.609 225.279Z" fill="#6D3EEB"/>
<path d="M240.07 226.758L243.306 224.91C243.491 225.372 243.583 225.834 243.676 226.296L240.44 228.145C240.348 227.683 240.255 227.221 240.07 226.758Z" fill="#6A3CE6"/>
<path d="M240.531 228.145L243.767 226.296C243.859 226.758 244.044 227.128 244.136 227.59L240.901 229.439C240.716 228.977 240.624 228.514 240.531 228.145Z" fill="#7643FF"/>
<path d="M240.902 229.44L244.138 227.591C244.23 227.961 244.323 228.423 244.415 228.793L241.18 230.641C241.087 230.179 240.995 229.809 240.902 229.44Z" fill="#7643FF"/>
<path d="M241.176 230.641L244.411 228.792C244.504 229.162 244.596 229.532 244.689 229.994L241.453 231.843C241.268 231.38 241.268 231.011 241.176 230.641Z" fill="#6338D6"/>
<path d="M241.363 231.75L244.598 229.902C244.691 230.271 244.691 230.641 244.783 231.011L241.548 232.86C241.548 232.582 241.455 232.213 241.363 231.75Z" fill="#6137D1"/>
<path d="M241.547 232.952L244.782 231.104C244.782 231.196 244.782 231.288 244.782 231.381L241.547 233.23C241.639 233.137 241.639 233.045 241.547 232.952Z" fill="#7643FF"/>
<path d="M298.952 237.852C304.406 266.046 292.759 278.248 289.061 281.391C284.624 285.089 279.632 287.308 274.917 289.526C268.909 292.207 263.177 294.795 259.11 300.064C258.186 301.266 256.984 302.283 255.69 303.207C254.95 303.762 254.211 304.317 253.563 305.056C250.42 308.384 247.647 312.174 244.319 316.796C239.512 323.545 234.983 333.528 230.268 348.042C229.344 351 228.512 353.958 227.772 356.731C226.756 360.614 225.739 364.219 224.537 367.269C217.234 385.665 198.284 389.548 177.022 377.253C176.375 376.883 175.728 376.513 174.988 376.051C161.307 367.547 148.92 353.126 139.029 334.175C134.961 326.41 132.188 318.553 129.6 308.107C128.49 303.762 127.843 299.325 127.104 294.61C126.457 290.635 125.81 286.476 124.885 282.223C117.675 249.592 106.582 219.825 90.9593 191.169C87.1692 184.236 83.3791 177.672 79.589 170.924C77.3704 167.042 75.1518 163.067 72.8408 158.999C63.6891 142.822 59.0671 128.124 58.5124 114.165C58.1426 103.072 60.3612 93.4583 64.7984 87.1723C73.8577 74.4154 87.0768 72.3817 105.01 81.0711C106.12 81.6258 107.229 82.1804 108.338 82.8275C115.641 87.0798 123.129 93.5507 128.49 98.5425L131.726 101.593C136.995 106.585 141.987 111.299 147.256 115.737C157.517 124.334 168.98 132.376 181.459 139.586C184.695 141.435 187.93 143.192 191.258 144.948C206.141 152.713 220.007 156.503 231.562 159.092C238.218 160.571 244.689 163.159 250.883 166.764C259.942 171.941 268.262 179.336 275.657 188.58C287.212 203.001 295.717 220.935 298.952 237.852ZM256.614 270.391C263.362 265.954 270.942 260.962 271.127 245.801C271.22 236.927 269.741 231.011 267.245 223.893C262.53 210.674 253.933 198.102 243.58 189.227C241.084 187.101 238.496 185.345 236 183.866C229.806 180.353 223.705 178.504 217.327 176.655C213.167 175.454 208.914 174.252 204.57 172.496C197.821 169.815 190.519 166.117 183.031 161.865C168.24 153.268 152.525 141.99 138.289 129.51L135.701 127.199C131.264 123.224 126.642 119.157 121.927 116.384C121.095 115.922 120.263 115.459 119.431 115.09C101.867 106.862 88.4634 113.056 86.2448 130.527C83.9338 148.553 93.0854 165.1 101.96 181.093C104.271 185.252 106.489 189.32 108.523 193.295C124.423 225.002 135.054 254.491 141.802 286.106C145.315 302.376 150.861 315.225 158.719 325.301C164.265 332.419 171.198 338.428 178.039 342.403C183.031 345.268 188.023 347.117 192.275 347.394C201.796 348.042 208.175 343.974 213.167 334.268C214.368 331.864 215.293 328.629 216.217 325.486C217.049 322.528 217.881 319.662 218.99 317.259C226.848 299.51 234.89 288.14 245.798 279.265L248.664 276.862C251.068 274.551 253.748 272.24 256.614 270.391Z" fill="#3F2489"/>
<path d="M281.113 313.931L284.349 312.082C288.139 309.864 292.114 308.015 296.459 306.536L293.223 308.385C288.878 309.956 284.811 311.805 281.113 313.931Z" fill="#3D2385"/>
<path d="M293.227 308.384L296.462 306.535C297.479 306.166 298.496 305.888 299.513 305.519L296.277 307.367C295.26 307.737 294.243 308.107 293.227 308.384Z" fill="#7643FF"/>
<path d="M296.277 307.46L299.513 305.519L303.21 304.502L299.975 306.351L296.277 307.46Z" fill="#7643FF"/>
<path d="M299.973 306.35L303.208 304.501C305.149 303.947 307.091 303.392 308.847 302.838L305.612 304.686C303.855 305.333 301.914 305.796 299.973 306.35Z" fill="#7643FF"/>
<path d="M305.613 304.687L308.849 302.838C310.605 302.283 312.177 301.544 313.748 300.619L310.513 302.468C309.034 303.392 307.37 304.039 305.613 304.687Z" fill="#3D2385"/>
<path d="M298.953 237.852L302.189 236.003C302.189 236.095 302.189 236.188 302.281 236.28L299.046 238.129C298.953 238.037 298.953 237.944 298.953 237.852Z" fill="#6338D6"/>
<path d="M298.953 238.129L302.189 236.28C302.374 237.112 302.466 238.037 302.651 238.869L299.416 240.717C299.323 239.886 299.138 239.054 298.953 238.129Z" fill="#6137D1"/>
<path d="M299.414 240.718L302.65 238.869C302.742 239.701 302.927 240.533 303.019 241.273L299.784 243.121C299.691 242.382 299.599 241.55 299.414 240.718Z" fill="#7643FF"/>
<path d="M299.785 243.121L303.021 241.272C303.113 242.104 303.205 242.844 303.298 243.583L300.062 245.432C299.97 244.693 299.878 243.953 299.785 243.121Z" fill="#5C34C7"/>
<path d="M300.062 245.525L303.298 243.676C303.39 244.415 303.39 245.247 303.483 245.987L300.247 247.836C300.155 247.004 300.155 246.264 300.062 245.525Z" fill="#5A33C2"/>
<path d="M300.25 247.743L303.485 245.895C303.578 246.634 303.578 247.374 303.578 248.113L300.342 249.962C300.342 249.315 300.25 248.575 300.25 247.743Z" fill="#5732BD"/>
<path d="M300.341 249.962L303.576 248.113C303.576 248.852 303.576 249.592 303.576 250.332L300.341 252.18C300.341 251.441 300.341 250.701 300.341 249.962Z" fill="#5530B8"/>
<path d="M300.342 252.18L303.578 250.331C303.578 251.071 303.578 251.81 303.485 252.55L300.25 254.399C300.342 253.659 300.342 252.919 300.342 252.18Z" fill="#532FB3"/>
<path d="M300.342 254.4L303.578 252.551C303.578 253.29 303.485 254.03 303.485 254.769L300.25 256.618C300.25 255.879 300.25 255.139 300.342 254.4Z" fill="#502EAD"/>
<path d="M300.155 256.617L303.39 254.769C303.298 255.508 303.205 256.248 303.205 256.987L299.97 258.836C300.062 258.097 300.155 257.357 300.155 256.617Z" fill="#4E2CA8"/>
<path d="M299.967 258.836L303.203 256.987C303.11 257.819 303.018 258.559 302.833 259.298L299.598 261.147C299.69 260.315 299.875 259.576 299.967 258.836Z" fill="#4C2BA3"/>
<path d="M299.599 261.054L302.835 259.205C302.65 260.037 302.558 260.777 302.373 261.609L299.137 263.458C299.322 262.718 299.415 261.886 299.599 261.054Z" fill="#492A9E"/>
<path d="M299.138 263.458L302.374 261.609C302.189 262.441 302.004 263.273 301.727 264.105L298.491 265.954C298.676 265.122 298.954 264.29 299.138 263.458Z" fill="#472899"/>
<path d="M298.492 265.954L301.727 264.105C301.45 265.029 301.172 265.954 300.803 266.786L297.567 268.635C297.937 267.803 298.214 266.878 298.492 265.954Z" fill="#442794"/>
<path d="M297.568 268.635L300.803 266.786C300.433 267.895 299.971 268.912 299.509 269.837L296.273 271.686C296.736 270.761 297.198 269.744 297.568 268.635Z" fill="#42268F"/>
<path d="M296.273 271.685L299.508 269.837C298.861 271.131 298.214 272.332 297.567 273.442L294.332 275.29C294.979 274.181 295.718 272.979 296.273 271.685Z" fill="#7643FF"/>
<path d="M294.331 275.29L297.567 273.442C295.533 276.585 293.499 278.526 292.298 279.543C290.541 281.022 288.692 282.223 286.751 283.333L283.516 285.182C285.364 284.072 287.213 282.871 289.062 281.391C290.264 280.375 292.298 278.433 294.331 275.29Z" fill="#3D2385"/>
<path d="M131.73 101.593L134.966 99.7444C137.647 102.24 140.235 104.736 142.823 107.14L139.588 108.989C137 106.585 134.411 104.182 131.73 101.593Z" fill="#6F3FF0"/>
<path d="M139.68 108.989L142.915 107.14C145.134 109.174 147.445 111.207 149.756 113.149L146.52 114.997C144.117 113.056 141.898 111.022 139.68 108.989Z" fill="#6D3EEB"/>
<path d="M146.426 114.998L149.661 113.149C149.939 113.334 150.216 113.611 150.493 113.796C152.157 115.182 153.729 116.477 155.393 117.863L152.157 119.712C150.493 118.418 148.829 117.031 147.258 115.645C146.98 115.46 146.703 115.275 146.426 114.998Z" fill="#6A3CE6"/>
<path d="M152.253 119.712L155.488 117.863C157.522 119.527 159.648 121.099 161.774 122.67L158.539 124.519C156.32 122.947 154.287 121.376 152.253 119.712Z" fill="#7643FF"/>
<path d="M158.445 124.519L161.68 122.67C163.806 124.241 166.025 125.813 168.336 127.384L165.101 129.233C162.882 127.754 160.663 126.183 158.445 124.519Z" fill="#7643FF"/>
<path d="M165.102 129.234L168.337 127.385C170.648 128.957 172.959 130.528 175.363 132.007L172.127 133.856C169.724 132.377 167.413 130.805 165.102 129.234Z" fill="#6338D6"/>
<path d="M172.128 133.855L175.363 132.006C177.859 133.578 180.355 135.149 182.851 136.628L179.616 138.477C177.12 136.998 174.624 135.427 172.128 133.855Z" fill="#6137D1"/>
<path d="M179.617 138.477L182.853 136.628C183.5 136.998 184.054 137.368 184.701 137.645C186.735 138.847 188.861 140.049 190.987 141.158L187.752 143.007C185.626 141.897 183.5 140.696 181.466 139.494C180.819 139.217 180.264 138.847 179.617 138.477Z" fill="#7643FF"/>
<path d="M187.75 143.1L190.985 141.251C192.187 141.898 193.296 142.545 194.498 143.1C195.423 143.562 196.347 144.117 197.364 144.579L194.128 146.428C193.204 145.966 192.28 145.504 191.263 144.949C190.061 144.302 188.859 143.655 187.75 143.1Z" fill="#5C34C7"/>
<path d="M194.129 146.334L197.364 144.486C198.936 145.318 200.507 146.057 202.079 146.704L198.843 148.553C197.272 147.906 195.7 147.166 194.129 146.334Z" fill="#5A33C2"/>
<path d="M198.844 148.646L202.08 146.797C203.836 147.537 205.5 148.276 207.256 149.016L204.021 150.865C202.265 150.125 200.601 149.386 198.844 148.646Z" fill="#5732BD"/>
<path d="M203.93 150.772L207.165 148.923C209.106 149.663 211.048 150.402 212.896 151.049L209.661 152.898C207.812 152.251 205.871 151.604 203.93 150.772Z" fill="#5530B8"/>
<path d="M209.749 152.99L212.985 151.141C215.296 151.973 217.514 152.713 219.733 153.36L216.498 155.209C214.279 154.469 211.968 153.73 209.749 152.99Z" fill="#532FB3"/>
<path d="M216.406 155.117L219.642 153.268C222.692 154.192 225.65 154.932 228.424 155.671L225.188 157.52C222.415 156.873 219.457 156.041 216.406 155.117Z" fill="#502EAD"/>
<path d="M225.281 157.52L228.516 155.671C230.642 156.226 232.769 156.688 234.802 157.15C235.357 157.243 235.819 157.428 236.374 157.52L233.138 159.369C232.584 159.277 232.122 159.092 231.567 158.999C229.533 158.629 227.407 158.075 225.281 157.52Z" fill="#4E2CA8"/>
<path d="M233.047 159.369L236.283 157.52C237.3 157.797 238.317 158.075 239.333 158.352L236.098 160.201C235.174 159.924 234.064 159.646 233.047 159.369Z" fill="#502EAD"/>
<path d="M236.188 160.293L239.423 158.445C240.347 158.722 241.364 158.999 242.289 159.369L239.053 161.218C238.036 160.848 237.112 160.571 236.188 160.293Z" fill="#532FB3"/>
<path d="M238.961 161.218L242.196 159.369C243.121 159.647 243.953 160.017 244.877 160.386L241.642 162.235C240.81 161.865 239.885 161.496 238.961 161.218Z" fill="#5530B8"/>
<path d="M241.734 162.235L244.97 160.386C245.802 160.756 246.726 161.126 247.558 161.495L244.323 163.344C243.398 162.882 242.566 162.512 241.734 162.235Z" fill="#5732BD"/>
<path d="M244.23 163.251L247.466 161.403C248.298 161.772 249.13 162.142 249.962 162.604L246.726 164.453C245.894 164.083 245.062 163.621 244.23 163.251Z" fill="#5A33C2"/>
<path d="M246.726 164.453L249.961 162.604C250.793 162.974 251.533 163.436 252.365 163.806L249.129 165.655C248.297 165.285 247.465 164.823 246.726 164.453Z" fill="#5C34C7"/>
<path d="M249.039 165.655L252.275 163.806C252.829 164.083 253.476 164.453 254.031 164.823C254.216 164.915 254.401 165.008 254.586 165.1L251.35 166.949C251.165 166.857 250.98 166.764 250.795 166.672C250.241 166.302 249.686 166.025 249.039 165.655Z" fill="#7643FF"/>
<path d="M251.441 166.949L254.677 165.1C255.416 165.563 256.156 166.025 256.988 166.487L253.752 168.336C252.92 167.874 252.181 167.411 251.441 166.949Z" fill="#6137D1"/>
<path d="M253.66 168.336L256.896 166.488C257.635 166.95 258.375 167.504 259.114 167.967L255.879 169.815C255.139 169.353 254.4 168.891 253.66 168.336Z" fill="#6338D6"/>
<path d="M255.879 169.907L259.114 168.058C259.854 168.613 260.593 169.075 261.333 169.63L258.097 171.479C257.45 170.924 256.711 170.37 255.879 169.907Z" fill="#7643FF"/>
<path d="M258.191 171.479L261.427 169.63C262.166 170.185 262.998 170.739 263.738 171.387L260.502 173.235C259.67 172.588 258.931 172.034 258.191 171.479Z" fill="#7643FF"/>
<path d="M260.409 173.235L263.645 171.386C264.477 172.034 265.216 172.681 265.956 173.328L262.72 175.176C261.981 174.437 261.241 173.79 260.409 173.235Z" fill="#6A3CE6"/>
<path d="M262.812 175.084L266.047 173.235C266.879 173.975 267.711 174.622 268.543 175.361L265.308 177.21C264.476 176.563 263.644 175.824 262.812 175.084Z" fill="#6D3EEB"/>
<path d="M265.215 177.303L268.45 175.454C269.375 176.286 270.207 177.118 271.131 177.95L267.896 179.799C267.064 178.967 266.139 178.135 265.215 177.303Z" fill="#6F3FF0"/>
<path d="M267.898 179.798L271.134 177.949C272.151 178.966 273.168 179.983 274.092 181.092L270.857 182.941C269.932 181.832 268.915 180.815 267.898 179.798Z" fill="#7140F5"/>
<path d="M270.855 182.942L274.091 181.093C275.385 182.48 276.587 183.959 277.881 185.438L274.646 187.287C273.444 185.808 272.15 184.328 270.855 182.942Z" fill="#7442FA"/>
<path d="M274.645 187.287L277.88 185.438C278.25 185.808 278.527 186.27 278.804 186.639C283.796 192.833 288.233 199.766 291.839 206.977L288.603 208.825C284.906 201.615 280.561 194.774 275.569 188.488C275.292 188.026 275.014 187.656 274.645 187.287Z" fill="#7643FF"/>
<path d="M288.696 208.733L291.931 206.884C292.948 208.825 293.872 210.859 294.797 212.8L291.561 214.649C290.637 212.708 289.713 210.674 288.696 208.733Z" fill="#7442FA"/>
<path d="M291.559 214.649L294.794 212.8C295.441 214.279 296.088 215.758 296.735 217.33L293.5 219.179C292.853 217.699 292.206 216.22 291.559 214.649Z" fill="#7140F5"/>
<path d="M293.41 219.179L296.646 217.33C297.2 218.625 297.662 219.919 298.125 221.213L294.889 223.062C294.427 221.768 293.965 220.473 293.41 219.179Z" fill="#6F3FF0"/>
<path d="M294.891 223.061L298.126 221.212C298.496 222.321 298.958 223.523 299.328 224.632L296.092 226.481C295.723 225.372 295.26 224.263 294.891 223.061Z" fill="#6D3EEB"/>
<path d="M296 226.574L299.235 224.725C299.605 225.742 299.883 226.851 300.16 227.868L296.924 229.717C296.74 228.7 296.37 227.591 296 226.574Z" fill="#6A3CE6"/>
<path d="M297.015 229.717L300.25 227.868C300.528 228.885 300.805 229.809 301.082 230.826L297.847 232.675C297.57 231.658 297.292 230.734 297.015 229.717Z" fill="#7643FF"/>
<path d="M297.758 232.675L300.993 230.826C301.271 231.751 301.455 232.675 301.64 233.6L298.405 235.449C298.22 234.524 298.035 233.6 297.758 232.675Z" fill="#7643FF"/>
<path d="M298.493 235.448L301.728 233.599C301.913 234.431 302.098 235.171 302.19 236.003L298.955 237.851C298.77 237.112 298.585 236.28 298.493 235.448Z" fill="#6338D6"/>
<path d="M358.303 259.39C360.706 290.266 352.294 312.174 333.99 322.528C328.721 325.486 322.343 326.872 316.149 328.259C313.561 328.814 311.065 329.368 308.662 330.015C291.56 334.73 278.988 345.268 271.223 361.445L270.114 363.664C268.357 367.269 266.601 370.874 265.399 375.312C262.996 384.371 260.869 398.514 259.575 414.229C259.021 421.347 256.894 427.264 254.768 432.625C246.449 452.87 230.826 462.669 209.565 460.727C199.304 459.803 188.118 455.92 176.286 449.08C174.344 447.97 172.311 446.769 170.277 445.382C159.092 438.079 147.721 427.356 135.519 412.565C125.628 400.548 117.308 387.421 110.745 373.555C103.442 358.302 98.2653 342.495 96.0467 329.091C94.9374 322.713 94.6601 316.889 94.2903 311.25C94.1979 309.031 94.013 306.905 93.8281 304.779C91.8868 280.19 87.8194 260.315 80.609 240.347C76.634 229.254 71.0875 214.834 63.8771 201.984C57.4987 190.614 50.2883 179.429 41.0441 166.764C27.6401 148.276 8.96701 119.619 2.2188 83.9368C-4.99162 46.3132 6.4711 21.2616 18.396 11.2779C29.2116 2.21868 42.4307 -0.184795 59.8097 3.51286C64.9864 4.62215 71.5497 7.21051 80.0543 11.4628C81.3485 12.1099 82.6427 12.8494 83.9369 13.589C98.1728 21.8162 111.484 34.9429 118.51 42.5231C121.376 45.6661 124.241 48.8091 127.107 52.0445C134.132 59.902 140.788 67.2973 148.553 74.2304C160.108 84.4914 170.462 92.2565 180.723 98.1727C182.479 99.1896 184.143 100.114 185.9 101.038C200.043 108.434 211.506 112.594 220.842 113.703C224.355 114.165 227.868 114.442 231.288 114.72C237.944 115.274 244.785 115.829 252.272 117.4C259.76 118.972 268.265 122.392 276.584 127.199C282.039 130.342 287.585 134.132 292.669 138.292C315.964 157.428 334.175 182.479 346.84 212.707C353.218 228.238 357.101 243.953 358.303 259.39ZM329.831 271.13C332.419 256.525 329.368 238.499 320.679 215.943C311.157 192.555 297.476 173.327 278.896 157.612C274.736 154.1 270.483 151.234 266.416 148.831C258.558 144.301 251.256 141.62 246.818 140.326C241.919 138.847 237.297 138.385 232.305 138.015C227.96 137.645 223.431 137.183 218.809 135.981C207.069 132.931 195.236 128.031 183.866 121.375C171.479 114.257 159.184 105.568 148.276 96.2314C140.881 89.9454 134.317 83.1048 127.939 76.449C117.308 65.3561 107.14 54.8178 93.5508 46.9602C92.0717 46.1283 90.5927 45.2963 89.0211 44.4643L87.8194 44.0946C57.3138 31.4301 37.3465 39.9347 30.1361 68.7764C23.6652 94.3826 35.1279 127.292 46.9604 147.721C49.9185 152.805 53.3388 157.705 56.944 162.882C58.7929 165.562 60.7341 168.336 62.6754 171.201C73.5835 187.563 83.0125 205.22 90.5926 223.708C99.0972 244.322 104.829 263.458 108.249 282.131C109.451 288.787 110.098 295.257 110.745 301.359C111.115 305.334 111.577 309.309 112.131 313.284C114.627 331.494 120.636 348.134 130.342 364.311C141.898 383.539 152.159 395.649 165.655 406.279C169.445 409.238 173.605 412.011 177.765 414.414C182.294 417.003 186.824 419.129 190.707 420.515C210.304 427.171 226.574 422.272 236.557 406.557C240.717 400.086 242.566 389.64 244.6 378.639C245.617 373.001 246.726 367.084 248.113 361.815C250.331 353.588 253.012 346.285 255.97 340.739C265.029 323.914 278.248 313.006 296.367 307.46L300.065 306.443C304.317 305.241 308.292 304.132 311.62 301.913C318.183 297.476 326.78 288.509 329.831 271.13Z" fill="#3F2489"/>
<path d="M241.641 233.229C243.86 248.02 235.91 254.398 231.195 258.188L230.086 259.113C220.102 267.433 211.32 279.635 204.665 294.425C200.875 302.745 196.252 313.099 184.512 309.956C182.571 309.401 180.722 308.569 178.781 307.552C171.108 303.115 164.083 294.61 160.293 287.03C157.335 280.929 155.301 273.441 153.36 266.138C152.528 262.903 151.696 259.668 150.771 256.894C144.948 238.314 137.552 219.271 129.972 203.186C128.863 200.782 127.569 198.379 126.274 195.883C123.039 189.597 119.341 182.572 117.215 175.084C115.366 168.705 115.274 159.831 117.03 155.671C120.358 147.721 128.123 146.057 137.737 151.049C138.292 151.326 138.846 151.604 139.401 151.973C143.653 154.469 147.721 157.612 151.696 160.755C153.729 162.327 155.763 163.991 157.797 165.377C165.47 170.831 173.512 176.008 181.369 180.538C187.101 183.866 192.647 186.731 197.732 189.135C200.32 190.337 202.908 191.353 205.404 192.37C209.379 193.942 213.447 195.606 217.329 197.732C229.624 204.942 239.607 219.548 241.641 233.229ZM213.724 238.406C215.85 231.288 210.304 220.842 205.681 216.405C203.74 214.464 200.967 212.707 198.009 210.951C195.698 209.564 193.109 208.27 190.614 206.976C187.933 205.589 185.16 204.11 182.571 202.631C181.832 202.169 181.092 201.799 180.445 201.337L175.823 198.564C172.68 196.623 169.722 194.866 166.856 193.017C165.747 192.278 164.545 191.538 163.343 190.706C161.217 189.227 158.999 187.748 157.057 186.639C156.041 186.084 155.116 185.53 154.284 185.252C149.57 183.311 145.225 185.437 144.3 189.967C143.099 195.791 146.334 203.186 148.923 209.102L149.755 211.043C154.561 222.321 158.444 232.12 162.327 242.936C162.974 244.785 163.621 246.818 164.268 248.759C165.377 252.087 166.486 255.6 167.688 258.281C170.461 264.382 174.529 269.189 178.689 271.5C181.092 272.887 183.496 273.441 185.622 272.979C189.782 272.055 193.387 266.508 196.53 261.516C197.639 259.852 198.656 258.096 199.765 256.617C202.354 253.104 204.85 249.869 207.253 247.096C207.808 246.356 208.455 245.709 209.102 245.062C211.043 243.121 212.984 241.087 213.724 238.406Z" fill="#3F2489"/>
<path d="M358.301 259.39L361.536 257.541C361.628 258.188 361.628 258.835 361.628 259.482L358.393 261.331C358.393 260.684 358.393 260.037 358.301 259.39Z" fill="#5A33C2"/>
<path d="M358.485 261.331L361.72 259.482C361.813 260.962 361.905 262.441 361.905 263.827L358.67 265.676C358.67 264.289 358.577 262.81 358.485 261.331Z" fill="#5732BD"/>
<path d="M358.672 265.676L361.907 263.827C361.907 265.214 362 266.693 362 268.079L358.764 269.928C358.764 268.542 358.672 267.155 358.672 265.676Z" fill="#5530B8"/>
<path d="M358.764 269.928L362 268.079C362 269.466 362 270.852 361.907 272.146L358.672 273.995C358.672 272.701 358.672 271.315 358.764 269.928Z" fill="#532FB3"/>
<path d="M358.669 273.995L361.904 272.147C361.812 273.533 361.812 274.827 361.627 276.122L358.391 277.97C358.484 276.676 358.576 275.382 358.669 273.995Z" fill="#502EAD"/>
<path d="M358.393 277.971L361.628 276.122C361.536 277.416 361.351 278.803 361.258 280.004L358.023 281.853C358.115 280.651 358.3 279.265 358.393 277.971Z" fill="#4E2CA8"/>
<path d="M358.023 281.945L361.259 280.097C361.074 281.391 360.889 282.685 360.704 283.979L357.469 285.828C357.654 284.534 357.838 283.24 358.023 281.945Z" fill="#4C2BA3"/>
<path d="M357.375 285.828L360.61 283.979C360.333 285.273 360.148 286.66 359.778 287.954L356.543 289.803C356.913 288.416 357.19 287.122 357.375 285.828Z" fill="#492A9E"/>
<path d="M356.635 289.71L359.87 287.861C359.593 289.248 359.223 290.542 358.853 291.836L355.618 293.685C355.988 292.484 356.265 291.097 356.635 289.71Z" fill="#472899"/>
<path d="M355.527 293.778L358.762 291.929C358.3 293.408 357.838 294.795 357.375 296.089L354.14 297.938C354.695 296.551 355.157 295.164 355.527 293.778Z" fill="#442794"/>
<path d="M354.141 297.938L357.376 296.089C356.822 297.66 356.174 299.232 355.435 300.619L352.199 302.467C352.939 301.081 353.586 299.509 354.141 297.938Z" fill="#42268F"/>
<path d="M352.293 302.56L355.529 300.711C354.605 302.56 353.68 304.409 352.571 306.073L349.335 307.922C350.352 306.165 351.369 304.409 352.293 302.56Z" fill="#7643FF"/>
<path d="M349.334 307.829L352.569 305.98C348.686 312.174 343.51 317.073 337.224 320.678L333.988 322.527C340.274 318.922 345.359 314.022 349.334 307.829Z" fill="#3D2385"/>
<path d="M24.1289 7.30295L27.3644 5.45413C29.4905 4.25239 31.7091 3.23554 34.0201 2.40356L30.7847 4.25239C28.4736 4.99192 26.3475 6.00877 24.1289 7.30295Z" fill="#3D2385"/>
<path d="M30.875 4.15992L34.1104 2.31109C35.8668 1.664 37.6232 1.2018 39.5645 0.832031L36.329 2.68086C34.3878 3.14306 32.5389 3.60527 30.875 4.15992Z" fill="#7643FF"/>
<path d="M36.2422 2.77326L39.4776 0.924433C40.9567 0.647109 42.5282 0.369785 44.0997 0.277344L40.8643 2.12617C39.2928 2.21861 37.7212 2.40349 36.2422 2.77326Z" fill="#42268F"/>
<path d="M40.8633 2.1255L44.0987 0.276679C45.4853 0.184238 46.872 0.0917969 48.351 0.0917969L45.1156 1.94062C43.6365 1.94062 42.2499 1.94062 40.8633 2.1255Z" fill="#442794"/>
<path d="M45.1135 1.84883L48.3489 0C49.7355 0 51.1222 0 52.5088 0.184883L49.2733 2.03371C47.8867 1.94127 46.5001 1.84883 45.1135 1.84883Z" fill="#472899"/>
<path d="M49.2731 2.03376L52.5085 0.184937C53.8951 0.277378 55.3742 0.46226 56.7608 0.647143L53.5254 2.49597C52.1388 2.31109 50.7521 2.1262 49.2731 2.03376Z" fill="#492A9E"/>
<path d="M53.6166 2.49601L56.852 0.647186C58.3311 0.832069 59.8101 1.10939 61.2892 1.38672L58.0538 3.23554C56.4823 2.95822 55.0032 2.68089 53.6166 2.49601Z" fill="#4C2BA3"/>
<path d="M58.0554 3.23554L61.2909 1.38672C61.8455 1.47916 62.4926 1.66404 63.0472 1.75648C63.417 1.75648 63.7868 1.84892 64.249 1.94137L61.0135 3.79019C60.6438 3.69775 60.1816 3.60531 59.8118 3.51287C59.1647 3.42043 58.6101 3.32798 58.0554 3.23554Z" fill="#4E2CA8"/>
<path d="M61.0117 3.88273L64.2472 2.03391C64.9867 2.21879 65.7262 2.40367 66.4658 2.68099L63.2303 4.52982C62.3983 4.2525 61.6588 4.06761 61.0117 3.88273Z" fill="#502EAD"/>
<path d="M63.2314 4.43733L66.4668 2.5885C67.2988 2.86582 68.2232 3.14315 69.1476 3.42047L65.9122 5.2693C64.9878 4.99197 64.0634 4.71465 63.2314 4.43733Z" fill="#532FB3"/>
<path d="M65.8209 5.36152L69.0564 3.5127C70.0732 3.88246 71.1825 4.25223 72.2918 4.71443L69.0564 6.56326C67.9471 6.10105 66.9302 5.73129 65.8209 5.36152Z" fill="#5530B8"/>
<path d="M69.1481 6.56349L72.3835 4.71466C73.6777 5.26931 75.0643 5.82396 76.4509 6.47104L73.2155 8.31987C71.7364 7.67278 70.4422 7.11813 69.1481 6.56349Z" fill="#5732BD"/>
<path d="M73.2188 8.31953L76.4542 6.4707C78.2106 7.21023 79.967 8.13465 81.9082 9.05906L78.6728 10.9079C76.7315 9.98347 74.8827 9.05906 73.2188 8.31953Z" fill="#5A33C2"/>
<path d="M78.668 10.9084L81.9034 9.05957C82.3656 9.24445 82.8278 9.52178 83.29 9.70666C83.9371 9.98398 84.5842 10.3537 85.2313 10.7235L81.9959 12.5723C81.3488 12.2026 80.7017 11.9252 80.0546 11.5555C79.4999 11.3706 79.1302 11.0933 78.668 10.9084Z" fill="#5C34C7"/>
<path d="M81.9062 12.5725L85.1417 10.7236C85.7888 11.0934 86.4359 11.4632 87.083 11.8329C87.2678 11.9254 87.4527 12.1103 87.73 12.2027L84.4946 14.0515C84.3097 13.9591 84.1248 13.7742 83.8475 13.6818C83.2004 13.312 82.5533 12.9422 81.9062 12.5725Z" fill="#7643FF"/>
<path d="M84.4926 14.0511L87.728 12.2022C88.6524 12.7569 89.5768 13.3115 90.5012 13.8662L87.2658 15.715C86.3414 15.1604 85.417 14.6057 84.4926 14.0511Z" fill="#6137D1"/>
<path d="M87.266 15.7149L90.5014 13.8661C91.5183 14.5132 92.5351 15.1603 93.552 15.8998L90.3165 17.7486C89.2997 17.0091 88.2828 16.362 87.266 15.7149Z" fill="#6338D6"/>
<path d="M90.3203 17.7492L93.5557 15.9004C94.665 16.6399 95.8668 17.4719 96.9761 18.3039L93.7406 20.1527C92.5389 19.3207 91.4296 18.4887 90.3203 17.7492Z" fill="#7643FF"/>
<path d="M93.6448 20.1522L96.8802 18.3033C98.1744 19.2278 99.3761 20.2446 100.67 21.169L97.4349 23.0178C96.2331 22.001 94.939 21.0766 93.6448 20.1522Z" fill="#7643FF"/>
<path d="M97.4345 23.0178L100.67 21.169C102.149 22.3707 103.536 23.48 104.922 24.6817L101.687 26.5306C100.393 25.3288 98.9136 24.2195 97.4345 23.0178Z" fill="#6A3CE6"/>
<path d="M101.781 26.5305L105.017 24.6816C106.773 26.1607 108.437 27.6398 110.009 29.0264L106.773 30.8752C105.109 29.4886 103.445 28.0095 101.781 26.5305Z" fill="#6D3EEB"/>
<path d="M106.679 30.9677L109.914 29.1189C111.948 31.0601 113.889 32.909 115.646 34.6653L112.41 36.5142C110.746 34.6653 108.805 32.8165 106.679 30.9677Z" fill="#6F3FF0"/>
<path d="M112.504 36.4222L115.739 34.5734C118.05 36.792 119.992 38.9181 121.656 40.6745C122.025 41.0443 122.395 41.414 122.765 41.8762L119.529 43.7251C119.16 43.3553 118.79 42.9855 118.42 42.5233C116.756 40.7669 114.722 38.7332 112.504 36.4222Z" fill="#7140F5"/>
<path d="M119.527 43.7248L122.763 41.876C125.259 44.6492 127.847 47.4225 130.343 50.1957C132.839 52.9689 135.242 55.6497 137.646 58.3305L134.41 60.1794C132.007 57.4986 129.603 54.8178 127.108 52.0445C124.519 49.2713 122.023 46.498 119.527 43.7248Z" fill="#7442FA"/>
<path d="M134.32 60.1789L137.556 58.3301C140.144 61.1033 142.64 63.7841 145.321 66.4649L142.085 68.3137C139.497 65.6329 136.909 62.9521 134.32 60.1789Z" fill="#7140F5"/>
<path d="M142.085 68.3145L145.321 66.4657C146.892 68.0372 148.464 69.6087 150.128 71.0877L146.892 72.9366C145.321 71.3651 143.657 69.7936 142.085 68.3145Z" fill="#6F3FF0"/>
<path d="M146.98 72.9367L150.216 71.0879C150.678 71.5501 151.233 72.0123 151.695 72.3821C153.451 73.9536 155.115 75.4326 156.779 76.8192L153.544 78.6681C151.88 77.2815 150.123 75.71 148.46 74.2309C147.905 73.7687 147.443 73.3065 146.98 72.9367Z" fill="#6D3EEB"/>
<path d="M153.546 78.6675L156.782 76.8187C159 78.76 161.219 80.5164 163.438 82.2728L160.202 84.1216C157.984 82.4576 155.765 80.6088 153.546 78.6675Z" fill="#6A3CE6"/>
<path d="M160.203 84.1214L163.438 82.2726C165.287 83.7517 167.136 85.1383 168.985 86.5249L165.749 88.3737C163.9 87.0796 162.052 85.6005 160.203 84.1214Z" fill="#7643FF"/>
<path d="M165.75 88.374L168.985 86.5252C170.649 87.7269 172.313 88.9287 173.884 90.038L170.649 91.8868C169.078 90.7775 167.414 89.6682 165.75 88.374Z" fill="#7643FF"/>
<path d="M170.648 91.8864L173.883 90.0376C175.455 91.0544 176.934 92.0713 178.413 93.0881L175.178 94.937C173.698 94.0125 172.219 92.9957 170.648 91.8864Z" fill="#6338D6"/>
<path d="M175.27 94.9377L178.505 93.0889C179.984 94.0133 181.371 94.9377 182.85 95.7697L179.614 97.6185C178.135 96.7865 176.749 95.8621 175.27 94.9377Z" fill="#6137D1"/>
<path d="M179.617 97.6184L182.853 95.7695C183.222 95.9544 183.5 96.1393 183.869 96.3242C184.979 96.9713 186.088 97.6184 187.197 98.173L183.962 100.022C182.853 99.4672 181.743 98.8201 180.634 98.173C180.264 97.9881 179.895 97.8032 179.617 97.6184Z" fill="#7643FF"/>
<path d="M183.867 100.021L187.103 98.1726C187.75 98.5424 188.397 98.8197 188.952 99.1895C190.431 99.929 191.91 100.669 193.296 101.408L190.061 103.257C188.674 102.517 187.195 101.778 185.716 101.038C185.162 100.669 184.515 100.391 183.867 100.021Z" fill="#5C34C7"/>
<path d="M190.156 103.257L193.392 101.408C195.518 102.425 197.552 103.442 199.493 104.274L196.257 106.123C194.316 105.291 192.282 104.274 190.156 103.257Z" fill="#5A33C2"/>
<path d="M196.254 106.122L199.489 104.273C201.246 105.105 203.002 105.845 204.666 106.492L201.431 108.341C199.767 107.694 198.103 106.954 196.254 106.122Z" fill="#5732BD"/>
<path d="M201.43 108.341L204.665 106.492C206.237 107.139 207.716 107.694 209.195 108.156L205.959 110.005C204.48 109.543 203.001 108.988 201.43 108.341Z" fill="#5530B8"/>
<path d="M205.962 110.005L209.197 108.156C210.584 108.618 211.878 109.081 213.172 109.45L209.937 111.299C208.642 110.929 207.348 110.56 205.962 110.005Z" fill="#532FB3"/>
<path d="M209.938 111.299L213.173 109.45C214.375 109.82 215.576 110.19 216.778 110.467L213.543 112.316C212.341 112.039 211.139 111.669 209.938 111.299Z" fill="#502EAD"/>
<path d="M213.54 112.316L216.775 110.467C217.884 110.745 218.994 111.022 220.103 111.207L216.868 113.056C215.758 112.871 214.649 112.593 213.54 112.316Z" fill="#4E2CA8"/>
<path d="M216.867 113.056L220.103 111.207C221.212 111.392 222.229 111.577 223.246 111.762L220.01 113.611C218.993 113.426 217.976 113.333 216.867 113.056Z" fill="#4C2BA3"/>
<path d="M220.012 113.611L223.247 111.762C223.524 111.762 223.709 111.854 223.987 111.854C227.499 112.316 231.012 112.594 234.433 112.871C238.592 113.241 242.845 113.611 247.282 114.165L244.046 116.014C239.609 115.367 235.357 115.09 231.197 114.72C227.777 114.443 224.264 114.165 220.751 113.703C220.474 113.703 220.289 113.611 220.012 113.611Z" fill="#492A9E"/>
<path d="M244.047 116.014L247.282 114.165C249.593 114.442 251.997 114.812 254.4 115.367L251.165 117.216C248.761 116.753 246.358 116.384 244.047 116.014Z" fill="#4C2BA3"/>
<path d="M251.164 117.215L254.4 115.366C254.769 115.459 255.047 115.459 255.416 115.551C256.156 115.736 256.988 115.921 257.727 116.106L254.492 117.955C253.66 117.77 252.92 117.585 252.181 117.4C251.904 117.307 251.534 117.307 251.164 117.215Z" fill="#4E2CA8"/>
<path d="M254.585 117.955L257.821 116.106C258.745 116.384 259.762 116.661 260.779 116.938L257.543 118.787C256.526 118.417 255.509 118.14 254.585 117.955Z" fill="#502EAD"/>
<path d="M257.449 118.787L260.685 116.938C261.702 117.216 262.718 117.585 263.735 117.955L260.5 119.804C259.483 119.342 258.466 119.064 257.449 118.787Z" fill="#532FB3"/>
<path d="M260.5 119.711L263.735 117.862C264.752 118.232 265.862 118.602 266.971 119.064L263.735 120.913C262.626 120.543 261.609 120.081 260.5 119.711Z" fill="#5530B8"/>
<path d="M263.737 120.913L266.973 119.064C268.082 119.527 269.191 119.989 270.301 120.451L267.065 122.3C265.956 121.838 264.847 121.376 263.737 120.913Z" fill="#5732BD"/>
<path d="M267.062 122.392L270.298 120.543C271.407 121.005 272.517 121.56 273.718 122.114L270.483 123.963C269.281 123.409 268.172 122.854 267.062 122.392Z" fill="#5A33C2"/>
<path d="M270.391 123.963L273.627 122.115C274.736 122.669 275.938 123.316 277.047 123.871L273.811 125.72C272.702 125.073 271.593 124.518 270.391 123.963Z" fill="#5C34C7"/>
<path d="M273.906 125.72L277.141 123.871C278.066 124.334 278.898 124.888 279.822 125.35C280.099 125.535 280.377 125.628 280.654 125.813L277.419 127.661C277.141 127.477 276.864 127.384 276.587 127.199C275.662 126.737 274.738 126.182 273.906 125.72Z" fill="#7643FF"/>
<path d="M277.324 127.754L280.56 125.905C281.761 126.552 282.871 127.292 284.072 128.031L280.837 129.88C279.728 129.141 278.526 128.401 277.324 127.754Z" fill="#6137D1"/>
<path d="M280.839 129.88L284.074 128.031C285.276 128.771 286.385 129.51 287.495 130.342L284.259 132.191C283.15 131.359 282.041 130.62 280.839 129.88Z" fill="#6338D6"/>
<path d="M284.257 132.099L287.493 130.25C288.602 130.99 289.804 131.822 290.913 132.653L287.678 134.502C286.568 133.67 285.459 132.931 284.257 132.099Z" fill="#7643FF"/>
<path d="M287.68 134.502L290.916 132.653C292.025 133.485 293.134 134.317 294.243 135.149L291.008 136.998C289.899 136.166 288.789 135.334 287.68 134.502Z" fill="#7643FF"/>
<path d="M291.007 137.09L294.243 135.242C294.797 135.704 295.352 136.074 295.814 136.536C296.646 137.183 297.386 137.83 298.218 138.477L294.982 140.326C294.243 139.679 293.411 139.032 292.579 138.385C292.117 137.922 291.562 137.46 291.007 137.09Z" fill="#6A3CE6"/>
<path d="M294.98 140.326L298.216 138.478C299.88 139.864 301.451 141.343 303.023 142.73L299.787 144.579C298.216 143.192 296.644 141.713 294.98 140.326Z" fill="#6D3EEB"/>
<path d="M299.789 144.671L303.024 142.822C304.781 144.393 306.444 146.057 308.108 147.629L304.873 149.477C303.209 147.814 301.545 146.242 299.789 144.671Z" fill="#6F3FF0"/>
<path d="M304.875 149.478L308.11 147.629C309.959 149.478 311.808 151.419 313.657 153.36L310.421 155.209C308.665 153.268 306.816 151.327 304.875 149.478Z" fill="#7140F5"/>
<path d="M310.418 155.208L313.653 153.359C315.964 155.855 318.183 158.444 320.402 161.124L317.166 162.973C314.948 160.292 312.729 157.704 310.418 155.208Z" fill="#7442FA"/>
<path d="M317.168 162.974L320.403 161.125C329 171.571 336.581 183.219 343.052 195.791L339.816 197.639C333.345 184.975 325.765 173.42 317.168 162.974Z" fill="#7643FF"/>
<path d="M339.723 197.639L342.958 195.79C344.714 199.21 346.378 202.631 347.95 206.236L344.714 208.085C343.143 204.48 341.479 201.059 339.723 197.639Z" fill="#7442FA"/>
<path d="M344.715 208.086L347.95 206.237C348.69 207.808 349.337 209.38 349.984 210.951C350.354 211.876 350.723 212.8 351.093 213.817L347.858 215.666C347.488 214.741 347.118 213.817 346.748 212.8C346.101 211.229 345.454 209.657 344.715 208.086Z" fill="#7140F5"/>
<path d="M347.95 215.573L351.186 213.724C351.925 215.573 352.665 217.514 353.312 219.363L350.076 221.212C349.429 219.363 348.69 217.514 347.95 215.573Z" fill="#6F3FF0"/>
<path d="M350.079 221.212L353.314 219.363C353.961 221.027 354.516 222.783 355.07 224.447L351.835 226.296C351.188 224.632 350.633 222.968 350.079 221.212Z" fill="#6D3EEB"/>
<path d="M351.738 226.389L354.974 224.54C355.436 226.112 355.991 227.683 356.36 229.255L353.125 231.103C352.755 229.532 352.293 227.96 351.738 226.389Z" fill="#6A3CE6"/>
<path d="M353.219 231.103L356.455 229.254C356.917 230.734 357.287 232.305 357.657 233.784L354.421 235.633C354.051 234.154 353.589 232.582 353.219 231.103Z" fill="#7643FF"/>
<path d="M354.421 235.633L357.657 233.784C358.026 235.263 358.396 236.742 358.673 238.129L355.438 239.977C355.161 238.498 354.791 237.112 354.421 235.633Z" fill="#7643FF"/>
<path d="M355.437 239.977L358.672 238.128C358.95 239.515 359.319 240.994 359.504 242.381L356.269 244.229C356.084 242.843 355.714 241.456 355.437 239.977Z" fill="#6338D6"/>
<path d="M356.27 244.23L359.506 242.381C359.783 243.767 360.06 245.246 360.245 246.633L357.01 248.482C356.825 247.095 356.548 245.709 356.27 244.23Z" fill="#6137D1"/>
<path d="M357.012 248.482L360.247 246.633C360.432 248.02 360.709 249.499 360.894 250.886L357.659 252.734C357.474 251.348 357.289 249.961 357.012 248.482Z" fill="#7643FF"/>
<path d="M357.657 252.734L360.892 250.885C361.077 252.272 361.262 253.751 361.354 255.138L358.119 256.987C358.026 255.6 357.841 254.213 357.657 252.734Z" fill="#5C34C7"/>
<path d="M358.117 256.987L361.353 255.138C361.445 255.877 361.538 256.709 361.538 257.449L358.302 259.298C358.302 258.558 358.21 257.818 358.117 256.987Z" fill="#5A33C2"/>
</g>
<g filter="url(#filter0_f)">
<ellipse cx="192.277" cy="515.823" rx="134.964" ry="2.77324" fill="#C7C3D9"/>
</g>
</g>
<defs>
<filter id="filter0_f" x="37.3125" y="493.05" width="309.928" height="45.5465" filterUnits="userSpaceOnUse" color-interpolation-filters="sRGB">
<feFlood flood-opacity="0" result="BackgroundImageFix"/>
<feBlend mode="normal" in="SourceGraphic" in2="BackgroundImageFix" result="shape"/>
<feGaussianBlur stdDeviation="10" result="effect1_foregroundBlur"/>
</filter>
<clipPath id="clip0">
<rect width="362" height="461.005" fill="white"/>
</clipPath>
</defs>
</svg>
