<svg width="556" height="556" viewBox="0 0 556 556" fill="none" xmlns="http://www.w3.org/2000/svg">
<path opacity="0.9" d="M278.329 439.793C367.505 439.793 439.796 367.502 439.796 278.326C439.796 189.15 367.505 116.859 278.329 116.859C189.154 116.859 116.863 189.15 116.863 278.326C116.863 367.502 189.154 439.793 278.329 439.793Z" stroke="url(#paint0_linear)" stroke-width="5" stroke-miterlimit="10"/>
<path opacity="0.8" d="M276.668 108.851C299.893 108.604 322.81 108.235 343.201 116.49C364.27 124.93 380.903 141.563 396.921 157.272C412.876 172.859 429.633 188.691 438.627 209.698C447.375 230.09 447.56 253.561 447.745 276.663C447.991 299.888 448.361 322.805 440.106 343.197C431.666 364.265 415.033 380.899 399.323 396.916C383.737 412.872 367.905 429.628 346.897 438.623C326.506 447.371 303.035 447.555 279.933 447.74C256.708 447.987 233.791 448.356 213.399 440.101C192.392 431.661 175.697 414.966 159.68 399.257C143.724 383.671 126.967 367.839 117.973 346.831C109.225 326.44 109.04 302.968 108.855 279.867C108.609 256.641 108.239 233.724 116.494 213.333C124.934 192.326 141.629 175.631 157.339 159.613C172.925 143.658 188.757 126.901 209.765 117.907C230.094 109.221 253.566 109.036 276.668 108.851Z" stroke="url(#paint1_linear)" stroke-width="5.0531" stroke-miterlimit="10"/>
<path opacity="0.7" d="M275.002 100.842C299.521 100.349 324.471 95.2978 346.279 103.799C368.641 112.547 384.227 133.924 401.415 150.434C418.418 166.821 439.98 180.682 449.714 202.922C459.262 224.607 455.258 250.666 455.689 274.938C456.182 299.457 461.234 324.407 452.732 346.215C443.984 368.578 422.607 384.164 406.097 401.352C389.71 418.355 375.849 439.917 353.61 449.65C331.925 459.199 305.866 455.195 281.593 455.626C257.075 456.119 232.125 461.17 210.316 452.669C187.954 443.921 172.368 422.544 155.18 406.034C138.177 389.647 116.615 375.786 106.881 353.546C97.3327 331.861 101.337 305.802 100.906 281.53C100.413 257.011 95.3613 232.061 103.863 210.253C112.611 187.89 133.988 172.304 150.498 155.116C166.885 138.113 180.746 116.552 202.985 106.818C224.67 97.3308 250.729 101.274 275.002 100.842Z" stroke="url(#paint2_linear)" stroke-width="4.5686" stroke-miterlimit="10"/>
<path opacity="0.6" d="M273.401 92.8329C299.275 92.0936 326.258 82.2984 349.421 91.1695C373.078 100.225 387.555 126.284 405.913 143.657C424.025 160.783 450.331 172.735 460.865 196.206C471.215 219.246 463.021 247.831 463.76 273.336C464.5 299.21 474.295 326.193 465.424 349.356C456.368 373.013 430.309 387.49 412.936 405.848C395.81 423.96 383.859 450.265 360.387 460.8C337.347 471.15 308.762 462.956 283.258 463.695C257.383 464.435 230.4 474.23 207.237 465.359C183.581 456.303 169.103 430.244 150.745 412.871C132.633 395.745 106.328 383.794 95.7934 360.322C85.4437 337.282 93.6372 308.697 92.8979 283.192C92.1587 257.318 82.3635 230.335 91.2346 207.172C100.291 183.516 126.349 169.038 143.722 150.68C160.848 132.568 172.8 106.263 196.271 95.7283C219.312 85.3787 247.896 93.5721 273.401 92.8329Z" stroke="url(#paint3_linear)" stroke-width="4.084" stroke-miterlimit="10"/>
<path opacity="0.5" d="M271.736 84.8867C298.904 83.9626 327.92 69.4238 352.5 78.6029C377.45 87.9669 390.88 118.708 410.409 136.881C429.568 154.747 460.617 164.727 471.952 189.554C483.103 213.949 470.782 245.06 471.706 271.796C472.63 298.964 487.169 327.98 477.99 352.561C468.626 377.511 437.885 390.941 419.711 410.469C401.846 429.629 391.866 460.677 367.039 472.013C342.643 483.163 311.533 470.842 284.796 471.766C257.628 472.69 228.612 487.229 204.032 478.05C179.082 468.686 165.652 437.945 146.123 419.772C126.964 401.906 95.915 391.926 84.5797 367.099C73.4292 342.704 85.7502 311.593 84.8261 284.857C83.902 257.689 69.3632 228.673 78.5424 204.092C87.9064 179.142 118.647 165.712 136.821 146.184C154.686 127.025 164.666 95.9756 189.493 84.6402C213.889 73.4281 245.061 85.8107 271.736 84.8867Z" stroke="url(#paint4_linear)" stroke-width="3.5995" stroke-miterlimit="10"/>
<path opacity="0.4" d="M270.136 76.8776C298.66 75.7071 329.709 56.4863 355.644 65.9735C381.95 75.5839 394.271 111.068 414.97 130.104C435.238 148.709 471.031 156.779 483.167 182.838C495.118 208.528 478.608 242.226 479.779 270.133C480.949 298.656 500.17 329.705 490.683 355.64C481.072 381.946 445.588 394.267 426.552 414.966C407.947 435.234 399.877 471.027 373.818 483.163C348.128 495.114 314.43 478.604 286.523 479.775C258 480.945 226.951 500.166 201.016 490.679C174.71 481.068 162.389 445.584 141.69 426.548C121.422 407.943 85.6293 399.873 73.4931 373.814C61.5417 348.125 78.0518 314.427 76.8814 286.52C75.7109 257.996 56.4901 226.947 65.9773 201.012C75.5876 174.706 111.072 162.385 130.108 141.686C148.713 121.418 156.783 85.6255 182.842 73.4893C208.47 61.5379 242.229 78.0481 270.136 76.8776Z" stroke="url(#paint5_linear)" stroke-width="3.1149" stroke-miterlimit="10"/>
<path opacity="0.3" d="M268.47 68.8686C298.349 67.4517 331.369 43.549 358.722 53.3442C386.321 63.2626 397.533 103.429 419.403 123.266C440.718 142.61 481.316 148.77 494.191 176.061C507.005 203.106 486.306 239.33 487.661 268.469C489.078 298.348 513.042 331.368 503.247 358.72C493.329 386.32 453.162 397.532 433.325 419.401C413.981 440.717 407.821 481.315 380.53 494.252C353.485 507.065 317.2 486.366 288.122 487.721C258.244 489.138 225.223 513.103 197.871 503.308C170.272 493.389 159.06 453.223 137.19 433.386C115.874 414.042 75.2767 407.881 62.4013 380.59C49.5874 353.546 70.2867 317.26 68.9314 288.183C67.5145 258.304 43.5501 225.284 53.3453 197.931C63.2637 170.332 103.43 159.12 123.267 137.25C142.611 115.935 148.772 75.3372 176.063 62.4617C203.107 49.5862 239.393 70.2855 268.47 68.8686Z" stroke="url(#paint6_linear)" stroke-width="2" stroke-miterlimit="10"/>
<path opacity="0.3" d="M266.809 60.9217C297.981 59.2584 333.096 30.612 361.804 40.7153C390.697 50.9417 400.861 95.7902 423.902 116.489C446.264 136.573 491.667 140.762 505.344 169.347C518.958 197.685 494.07 236.558 495.672 266.867C497.335 298.04 525.981 333.154 515.878 361.862C505.652 390.755 460.803 400.92 440.104 423.96C420.021 446.323 415.832 491.726 387.247 505.402C358.908 519.017 320.036 494.129 289.726 495.73C258.554 497.394 223.439 526.04 194.731 515.937C165.838 505.71 155.673 460.862 132.633 440.163C110.27 420.079 64.8675 415.89 51.1911 387.305C37.5764 358.967 62.4649 320.094 60.8631 289.785C59.1998 258.612 30.5534 223.497 40.6567 194.79C50.8831 165.897 95.7316 155.732 116.431 132.692C136.514 110.329 140.703 64.926 169.288 51.2497C197.688 37.635 236.499 62.5234 266.809 60.9217Z" stroke="url(#paint7_linear)" stroke-width="2" stroke-miterlimit="10"/>
<path opacity="0.3" d="M265.205 52.9131C297.733 51.0034 334.819 17.6134 364.944 28.0863C395.192 38.5592 404.248 88.2128 428.459 109.713C451.93 130.536 502.077 132.815 516.554 162.632C530.969 192.325 501.953 233.724 503.74 265.204C505.65 297.732 539.04 334.818 528.567 364.943C518.094 395.191 468.44 404.247 446.94 428.458C426.118 451.929 423.838 502.076 394.021 516.553C364.328 530.968 322.929 501.952 291.449 503.739C258.921 505.649 221.835 539.039 191.71 528.566C161.462 518.093 152.406 468.439 128.196 446.939C104.724 426.117 54.5775 423.837 40.1003 394.02C25.6847 364.327 54.7007 322.928 52.9141 291.448C51.0044 258.92 17.6144 221.834 28.0873 191.709C38.5601 161.461 88.2138 152.405 109.714 128.195C130.537 104.723 132.816 54.5765 162.633 40.0993C192.265 25.6837 233.663 54.7613 265.205 52.9131Z" stroke="url(#paint8_linear)" stroke-miterlimit="10"/>
<path opacity="0.2" d="M263.545 44.9669C297.366 42.8107 336.547 4.67717 368.027 15.4581C399.569 26.2389 407.516 80.5746 432.897 102.876C457.416 124.499 512.306 124.807 527.584 155.856C542.8 186.843 509.595 230.829 511.628 263.542C513.784 297.363 551.856 336.482 541.137 368.024C530.356 399.566 476.02 407.513 453.719 432.894C432.096 457.413 431.788 512.303 400.739 527.581C369.752 542.797 325.766 509.592 293.053 511.625C259.232 513.781 220.113 551.853 188.571 541.134C157.029 530.353 149.082 476.018 123.701 453.717C99.1823 432.093 44.2922 431.785 29.0142 400.736C13.7977 369.687 47.0028 325.763 44.9699 293.05C42.8137 259.229 4.74178 220.11 15.4611 188.568C26.2419 157.026 80.5776 149.079 102.879 123.698C124.502 99.1793 124.81 44.2892 155.859 29.0112C186.908 13.7947 230.832 46.9998 263.545 44.9669Z" stroke="url(#paint9_linear)" stroke-width="1.1767" stroke-miterlimit="10"/>
<path opacity="0.1" d="M17.8622 407.45C1.84485 375.108 39.2391 328.596 36.9597 294.652C34.5571 259.537 -8.25838 218.323 2.83053 185.487C13.9194 152.59 72.9371 145.752 96.1006 119.2C118.463 93.5726 116.8 33.9389 149.143 17.86C181.485 1.84271 227.997 39.237 261.941 36.9576C297.118 34.6166 338.27 -8.26052 371.106 2.82839C404.003 13.9173 410.841 72.9349 437.393 96.0984C463.02 118.461 522.654 116.798 538.733 149.14C554.75 181.483 517.356 227.995 519.635 261.939C521.976 297.116 564.853 338.268 553.765 371.103C542.676 404 483.658 410.839 460.495 437.39C438.132 463.018 439.795 522.652 407.453 538.731C375.11 554.748 328.598 517.354 294.654 519.633C259.477 521.974 218.325 564.851 185.49 553.762C152.592 542.673 145.754 483.656 119.202 460.492C93.5748 438.191 33.9411 439.793 17.8622 407.45Z" stroke="url(#paint10_linear)" stroke-width="0.6922" stroke-miterlimit="10"/>
<path d="M185.634 225C185.054 225 184.594 224.84 184.254 224.52C183.934 224.2 183.774 223.75 183.774 223.17V205.68C183.774 205.1 183.934 204.65 184.254 204.33C184.594 204.01 185.054 203.85 185.634 203.85H196.464C197.044 203.85 197.494 203.98 197.814 204.24C198.134 204.5 198.294 204.87 198.294 205.35C198.294 205.85 198.134 206.24 197.814 206.52C197.494 206.78 197.044 206.91 196.464 206.91H187.554V212.73H195.864C196.444 212.73 196.894 212.86 197.214 213.12C197.534 213.38 197.694 213.76 197.694 214.26C197.694 214.74 197.534 215.11 197.214 215.37C196.894 215.63 196.444 215.76 195.864 215.76H187.554V221.94H196.464C197.044 221.94 197.494 222.08 197.814 222.36C198.134 222.62 198.294 223 198.294 223.5C198.294 223.98 198.134 224.35 197.814 224.61C197.494 224.87 197.044 225 196.464 225H185.634ZM211.69 210.03C212.27 210.03 212.73 210.19 213.07 210.51C213.41 210.83 213.58 211.26 213.58 211.8V223.44C213.58 223.96 213.4 224.38 213.04 224.7C212.7 225.02 212.25 225.18 211.69 225.18C211.15 225.18 210.72 225.03 210.4 224.73C210.08 224.43 209.92 224.02 209.92 223.5V222.75C209.46 223.55 208.84 224.17 208.06 224.61C207.28 225.03 206.4 225.24 205.42 225.24C201.82 225.24 200.02 223.22 200.02 219.18V211.8C200.02 211.26 200.19 210.83 200.53 210.51C200.87 210.19 201.32 210.03 201.88 210.03C202.46 210.03 202.92 210.19 203.26 210.51C203.6 210.83 203.77 211.26 203.77 211.8V219.21C203.77 220.25 203.98 221.02 204.4 221.52C204.82 222.02 205.48 222.27 206.38 222.27C207.42 222.27 208.25 221.93 208.87 221.25C209.51 220.55 209.83 219.63 209.83 218.49V211.8C209.83 211.26 210 210.83 210.34 210.51C210.68 210.19 211.13 210.03 211.69 210.03ZM229.988 209.97C232.028 209.97 233.538 210.48 234.518 211.5C235.518 212.5 236.018 214.03 236.018 216.09V223.41C236.018 223.95 235.858 224.38 235.538 224.7C235.218 225 234.778 225.15 234.218 225.15C233.698 225.15 233.268 224.99 232.928 224.67C232.608 224.35 232.448 223.93 232.448 223.41V222.75C232.108 223.53 231.568 224.14 230.828 224.58C230.108 225.02 229.268 225.24 228.308 225.24C227.328 225.24 226.438 225.04 225.638 224.64C224.838 224.24 224.208 223.69 223.748 222.99C223.288 222.29 223.058 221.51 223.058 220.65C223.058 219.57 223.328 218.72 223.868 218.1C224.428 217.48 225.328 217.03 226.568 216.75C227.808 216.47 229.518 216.33 231.698 216.33H232.448V215.64C232.448 214.66 232.238 213.95 231.818 213.51C231.398 213.05 230.718 212.82 229.778 212.82C229.198 212.82 228.608 212.91 228.008 213.09C227.408 213.25 226.698 213.49 225.878 213.81C225.358 214.07 224.978 214.2 224.738 214.2C224.378 214.2 224.078 214.07 223.838 213.81C223.618 213.55 223.508 213.21 223.508 212.79C223.508 212.45 223.588 212.16 223.748 211.92C223.928 211.66 224.218 211.42 224.618 211.2C225.318 210.82 226.148 210.52 227.108 210.3C228.088 210.08 229.048 209.97 229.988 209.97ZM229.058 222.54C230.058 222.54 230.868 222.21 231.488 221.55C232.128 220.87 232.448 220 232.448 218.94V218.31H231.908C230.568 218.31 229.528 218.37 228.788 218.49C228.048 218.61 227.518 218.82 227.198 219.12C226.878 219.42 226.718 219.83 226.718 220.35C226.718 220.99 226.938 221.52 227.378 221.94C227.838 222.34 228.398 222.54 229.058 222.54ZM236.729 230.46C236.009 230.5 235.459 230.4 235.079 230.16C234.679 229.92 234.479 229.55 234.479 229.05C234.479 228.23 234.979 227.78 235.979 227.7L236.789 227.64C237.469 227.6 237.979 227.39 238.319 227.01C238.659 226.63 238.829 226.05 238.829 225.27V211.8C238.829 211.22 238.999 210.78 239.339 210.48C239.699 210.18 240.149 210.03 240.689 210.03C241.229 210.03 241.679 210.18 242.039 210.48C242.399 210.78 242.579 211.22 242.579 211.8V225C242.579 228.36 240.899 230.16 237.539 230.4L236.729 230.46ZM240.659 207.36C239.979 207.36 239.439 207.18 239.039 206.82C238.639 206.44 238.439 205.95 238.439 205.35C238.439 204.75 238.639 204.27 239.039 203.91C239.439 203.55 239.979 203.37 240.659 203.37C241.319 203.37 241.849 203.55 242.249 203.91C242.669 204.27 242.879 204.75 242.879 205.35C242.879 205.95 242.679 206.44 242.279 206.82C241.879 207.18 241.339 207.36 240.659 207.36ZM257.026 210.03C257.606 210.03 258.066 210.19 258.406 210.51C258.746 210.83 258.916 211.26 258.916 211.8V223.44C258.916 223.96 258.736 224.38 258.376 224.7C258.036 225.02 257.586 225.18 257.026 225.18C256.486 225.18 256.056 225.03 255.736 224.73C255.416 224.43 255.256 224.02 255.256 223.5V222.75C254.796 223.55 254.176 224.17 253.396 224.61C252.616 225.03 251.736 225.24 250.756 225.24C247.156 225.24 245.356 223.22 245.356 219.18V211.8C245.356 211.26 245.526 210.83 245.866 210.51C246.206 210.19 246.656 210.03 247.216 210.03C247.796 210.03 248.256 210.19 248.596 210.51C248.936 210.83 249.106 211.26 249.106 211.8V219.21C249.106 220.25 249.316 221.02 249.736 221.52C250.156 222.02 250.816 222.27 251.716 222.27C252.756 222.27 253.586 221.93 254.206 221.25C254.846 220.55 255.166 219.63 255.166 218.49V211.8C255.166 211.26 255.336 210.83 255.676 210.51C256.016 210.19 256.466 210.03 257.026 210.03ZM274.059 203.7C274.619 203.7 275.079 203.86 275.439 204.18C275.799 204.5 275.979 204.92 275.979 205.44V223.38C275.979 223.92 275.809 224.35 275.469 224.67C275.129 224.99 274.679 225.15 274.119 225.15C273.559 225.15 273.109 224.99 272.769 224.67C272.429 224.35 272.259 223.92 272.259 223.38V222.63C271.819 223.45 271.179 224.09 270.339 224.55C269.519 225.01 268.579 225.24 267.519 225.24C266.259 225.24 265.129 224.92 264.129 224.28C263.149 223.64 262.379 222.74 261.819 221.58C261.279 220.4 261.009 219.05 261.009 217.53C261.009 216.01 261.279 214.68 261.819 213.54C262.379 212.4 263.149 211.52 264.129 210.9C265.109 210.28 266.239 209.97 267.519 209.97C268.579 209.97 269.519 210.19 270.339 210.63C271.159 211.07 271.789 211.69 272.229 212.49V205.38C272.229 204.88 272.389 204.48 272.709 204.18C273.049 203.86 273.499 203.7 274.059 203.7ZM268.509 222.33C269.709 222.33 270.629 221.92 271.269 221.1C271.929 220.28 272.259 219.11 272.259 217.59C272.259 216.07 271.929 214.91 271.269 214.11C270.629 213.29 269.719 212.88 268.539 212.88C267.339 212.88 266.409 213.28 265.749 214.08C265.089 214.88 264.759 216.03 264.759 217.53C264.759 219.05 265.089 220.23 265.749 221.07C266.409 221.91 267.329 222.33 268.509 222.33ZM285.527 225.24C284.027 225.24 282.707 224.93 281.567 224.31C280.447 223.69 279.577 222.8 278.957 221.64C278.337 220.48 278.027 219.13 278.027 217.59C278.027 216.05 278.337 214.71 278.957 213.57C279.577 212.41 280.447 211.52 281.567 210.9C282.707 210.28 284.027 209.97 285.527 209.97C287.027 209.97 288.337 210.28 289.457 210.9C290.597 211.52 291.467 212.41 292.067 213.57C292.687 214.71 292.997 216.05 292.997 217.59C292.997 219.13 292.687 220.48 292.067 221.64C291.467 222.8 290.597 223.69 289.457 224.31C288.337 224.93 287.027 225.24 285.527 225.24ZM285.497 222.33C286.717 222.33 287.647 221.93 288.287 221.13C288.927 220.33 289.247 219.15 289.247 217.59C289.247 216.05 288.927 214.88 288.287 214.08C287.647 213.26 286.727 212.85 285.527 212.85C284.327 212.85 283.397 213.26 282.737 214.08C282.097 214.88 281.777 216.05 281.777 217.59C281.777 219.15 282.097 220.33 282.737 221.13C283.377 221.93 284.297 222.33 285.497 222.33ZM312.467 211.11C312.627 210.75 312.837 210.48 313.097 210.3C313.377 210.12 313.677 210.03 313.997 210.03C314.457 210.03 314.867 210.19 315.227 210.51C315.607 210.81 315.797 211.19 315.797 211.65C315.797 211.89 315.737 212.13 315.617 212.37L310.067 223.98C309.887 224.36 309.627 224.65 309.287 224.85C308.967 225.05 308.607 225.15 308.207 225.15C307.827 225.15 307.457 225.05 307.097 224.85C306.757 224.65 306.497 224.36 306.317 223.98L300.737 212.37C300.637 212.17 300.587 211.94 300.587 211.68C300.587 211.22 300.777 210.83 301.157 210.51C301.557 210.19 302.007 210.03 302.507 210.03C303.227 210.03 303.757 210.38 304.097 211.08L308.297 220.35L312.467 211.11ZM323.718 225.24C322.218 225.24 320.898 224.93 319.758 224.31C318.638 223.69 317.768 222.8 317.148 221.64C316.528 220.48 316.218 219.13 316.218 217.59C316.218 216.05 316.528 214.71 317.148 213.57C317.768 212.41 318.638 211.52 319.758 210.9C320.898 210.28 322.218 209.97 323.718 209.97C325.218 209.97 326.528 210.28 327.648 210.9C328.788 211.52 329.658 212.41 330.258 213.57C330.878 214.71 331.188 216.05 331.188 217.59C331.188 219.13 330.878 220.48 330.258 221.64C329.658 222.8 328.788 223.69 327.648 224.31C326.528 224.93 325.218 225.24 323.718 225.24ZM323.688 222.33C324.908 222.33 325.838 221.93 326.478 221.13C327.118 220.33 327.438 219.15 327.438 217.59C327.438 216.05 327.118 214.88 326.478 214.08C325.838 213.26 324.918 212.85 323.718 212.85C322.518 212.85 321.588 213.26 320.928 214.08C320.288 214.88 319.968 216.05 319.968 217.59C319.968 219.15 320.288 220.33 320.928 221.13C321.568 221.93 322.488 222.33 323.688 222.33ZM339.794 225.24C338.334 225.24 337.044 224.93 335.924 224.31C334.824 223.69 333.974 222.81 333.374 221.67C332.774 220.53 332.474 219.2 332.474 217.68C332.474 216.16 332.784 214.82 333.404 213.66C334.044 212.48 334.934 211.57 336.074 210.93C337.214 210.29 338.524 209.97 340.004 209.97C340.784 209.97 341.564 210.08 342.344 210.3C343.144 210.52 343.844 210.82 344.444 211.2C345.084 211.62 345.404 212.15 345.404 212.79C345.404 213.23 345.294 213.59 345.074 213.87C344.874 214.13 344.604 214.26 344.264 214.26C344.044 214.26 343.814 214.21 343.574 214.11C343.334 214.01 343.094 213.89 342.854 213.75C342.414 213.49 341.994 213.29 341.594 213.15C341.194 212.99 340.734 212.91 340.214 212.91C338.974 212.91 338.014 213.32 337.334 214.14C336.674 214.94 336.344 216.1 336.344 217.62C336.344 219.12 336.674 220.28 337.334 221.1C338.014 221.9 338.974 222.3 340.214 222.3C340.714 222.3 341.154 222.23 341.534 222.09C341.934 221.93 342.374 221.72 342.854 221.46C343.154 221.28 343.414 221.15 343.634 221.07C343.854 220.97 344.074 220.92 344.294 220.92C344.614 220.92 344.884 221.06 345.104 221.34C345.324 221.62 345.434 221.97 345.434 222.39C345.434 222.73 345.354 223.03 345.194 223.29C345.054 223.53 344.814 223.75 344.474 223.95C343.854 224.35 343.134 224.67 342.314 224.91C341.494 225.13 340.654 225.24 339.794 225.24ZM358.542 220.98C358.882 220.98 359.152 221.11 359.352 221.37C359.572 221.63 359.682 221.98 359.682 222.42C359.682 223.04 359.312 223.56 358.572 223.98C357.892 224.36 357.122 224.67 356.262 224.91C355.402 225.13 354.582 225.24 353.802 225.24C351.442 225.24 349.572 224.56 348.192 223.2C346.812 221.84 346.122 219.98 346.122 217.62C346.122 216.12 346.422 214.79 347.022 213.63C347.622 212.47 348.462 211.57 349.542 210.93C350.642 210.29 351.882 209.97 353.262 209.97C354.582 209.97 355.732 210.26 356.712 210.84C357.692 211.42 358.452 212.24 358.992 213.3C359.532 214.36 359.802 215.61 359.802 217.05C359.802 217.91 359.422 218.34 358.662 218.34H349.812C349.932 219.72 350.322 220.74 350.982 221.4C351.642 222.04 352.602 222.36 353.862 222.36C354.502 222.36 355.062 222.28 355.542 222.12C356.042 221.96 356.602 221.74 357.222 221.46C357.822 221.14 358.262 220.98 358.542 220.98ZM353.352 212.61C352.332 212.61 351.512 212.93 350.892 213.57C350.292 214.21 349.932 215.13 349.812 216.33H356.592C356.552 215.11 356.252 214.19 355.692 213.57C355.132 212.93 354.352 212.61 353.352 212.61ZM351.132 207.93C350.852 208.35 350.502 208.56 350.082 208.56C349.762 208.56 349.472 208.44 349.212 208.2C348.972 207.96 348.852 207.68 348.852 207.36C348.852 207.1 348.942 206.84 349.122 206.58L351.762 203.01C352.002 202.71 352.232 202.49 352.452 202.35C352.672 202.21 352.942 202.14 353.262 202.14C353.602 202.14 353.882 202.21 354.102 202.35C354.322 202.49 354.542 202.72 354.762 203.04L357.402 206.58C357.582 206.82 357.672 207.08 357.672 207.36C357.672 207.68 357.542 207.96 357.282 208.2C357.042 208.44 356.762 208.56 356.442 208.56C356.022 208.56 355.672 208.35 355.392 207.93L353.262 204.63L351.132 207.93ZM363.64 225.18C363 225.18 362.47 224.97 362.05 224.55C361.63 224.11 361.42 223.57 361.42 222.93C361.42 222.29 361.63 221.76 362.05 221.34C362.47 220.9 363 220.68 363.64 220.68C364.28 220.68 364.81 220.9 365.23 221.34C365.65 221.76 365.86 222.29 365.86 222.93C365.86 223.57 365.65 224.11 365.23 224.55C364.81 224.97 364.28 225.18 363.64 225.18ZM193.334 254.69C193.654 254.01 194.184 253.67 194.924 253.67C195.424 253.67 195.874 253.83 196.274 254.15C196.674 254.47 196.874 254.87 196.874 255.35C196.874 255.57 196.814 255.82 196.694 256.1L188.384 273.98C188.204 274.36 187.924 274.66 187.544 274.88C187.184 275.08 186.794 275.18 186.374 275.18C185.954 275.18 185.554 275.08 185.174 274.88C184.814 274.66 184.544 274.36 184.364 273.98L176.084 256.1C175.964 255.82 175.904 255.58 175.904 255.38C175.904 254.88 176.104 254.47 176.504 254.15C176.924 253.83 177.394 253.67 177.914 253.67C178.254 253.67 178.564 253.76 178.844 253.94C179.144 254.1 179.374 254.35 179.534 254.69L186.434 270.02L193.334 254.69ZM204.72 275.24C203.22 275.24 201.9 274.93 200.76 274.31C199.64 273.69 198.77 272.8 198.15 271.64C197.53 270.48 197.22 269.13 197.22 267.59C197.22 266.05 197.53 264.71 198.15 263.57C198.77 262.41 199.64 261.52 200.76 260.9C201.9 260.28 203.22 259.97 204.72 259.97C206.22 259.97 207.53 260.28 208.65 260.9C209.79 261.52 210.66 262.41 211.26 263.57C211.88 264.71 212.19 266.05 212.19 267.59C212.19 269.13 211.88 270.48 211.26 271.64C210.66 272.8 209.79 273.69 208.65 274.31C207.53 274.93 206.22 275.24 204.72 275.24ZM204.69 272.33C205.91 272.33 206.84 271.93 207.48 271.13C208.12 270.33 208.44 269.15 208.44 267.59C208.44 266.05 208.12 264.88 207.48 264.08C206.84 263.26 205.92 262.85 204.72 262.85C203.52 262.85 202.59 263.26 201.93 264.08C201.29 264.88 200.97 266.05 200.97 267.59C200.97 269.15 201.29 270.33 201.93 271.13C202.57 271.93 203.49 272.33 204.69 272.33ZM220.796 275.24C219.336 275.24 218.046 274.93 216.926 274.31C215.826 273.69 214.976 272.81 214.376 271.67C213.776 270.53 213.476 269.2 213.476 267.68C213.476 266.16 213.786 264.82 214.406 263.66C215.046 262.48 215.936 261.57 217.076 260.93C218.216 260.29 219.526 259.97 221.006 259.97C221.786 259.97 222.566 260.08 223.346 260.3C224.146 260.52 224.846 260.82 225.446 261.2C226.086 261.62 226.406 262.15 226.406 262.79C226.406 263.23 226.296 263.59 226.076 263.87C225.876 264.13 225.606 264.26 225.266 264.26C225.046 264.26 224.816 264.21 224.576 264.11C224.336 264.01 224.096 263.89 223.856 263.75C223.416 263.49 222.996 263.29 222.596 263.15C222.196 262.99 221.736 262.91 221.216 262.91C219.976 262.91 219.016 263.32 218.336 264.14C217.676 264.94 217.346 266.1 217.346 267.62C217.346 269.12 217.676 270.28 218.336 271.1C219.016 271.9 219.976 272.3 221.216 272.3C221.716 272.3 222.156 272.23 222.536 272.09C222.936 271.93 223.376 271.72 223.856 271.46C224.156 271.28 224.416 271.15 224.636 271.07C224.856 270.97 225.076 270.92 225.296 270.92C225.616 270.92 225.886 271.06 226.106 271.34C226.326 271.62 226.436 271.97 226.436 272.39C226.436 272.73 226.356 273.03 226.196 273.29C226.056 273.53 225.816 273.75 225.476 273.95C224.856 274.35 224.136 274.67 223.316 274.91C222.496 275.13 221.656 275.24 220.796 275.24ZM239.544 270.98C239.884 270.98 240.154 271.11 240.354 271.37C240.574 271.63 240.684 271.98 240.684 272.42C240.684 273.04 240.314 273.56 239.574 273.98C238.894 274.36 238.124 274.67 237.264 274.91C236.404 275.13 235.584 275.24 234.804 275.24C232.444 275.24 230.574 274.56 229.194 273.2C227.814 271.84 227.124 269.98 227.124 267.62C227.124 266.12 227.424 264.79 228.024 263.63C228.624 262.47 229.464 261.57 230.544 260.93C231.644 260.29 232.884 259.97 234.264 259.97C235.584 259.97 236.734 260.26 237.714 260.84C238.694 261.42 239.454 262.24 239.994 263.3C240.534 264.36 240.804 265.61 240.804 267.05C240.804 267.91 240.424 268.34 239.664 268.34H230.814C230.934 269.72 231.324 270.74 231.984 271.4C232.644 272.04 233.604 272.36 234.864 272.36C235.504 272.36 236.064 272.28 236.544 272.12C237.044 271.96 237.604 271.74 238.224 271.46C238.824 271.14 239.264 270.98 239.544 270.98ZM234.354 262.61C233.334 262.61 232.514 262.93 231.894 263.57C231.294 264.21 230.934 265.13 230.814 266.33H237.594C237.554 265.11 237.254 264.19 236.694 263.57C236.134 262.93 235.354 262.61 234.354 262.61ZM232.134 257.93C231.854 258.35 231.504 258.56 231.084 258.56C230.764 258.56 230.474 258.44 230.214 258.2C229.974 257.96 229.854 257.68 229.854 257.36C229.854 257.1 229.944 256.84 230.124 256.58L232.764 253.01C233.004 252.71 233.234 252.49 233.454 252.35C233.674 252.21 233.944 252.14 234.264 252.14C234.604 252.14 234.884 252.21 235.104 252.35C235.324 252.49 235.544 252.72 235.764 253.04L238.404 256.58C238.584 256.82 238.674 257.08 238.674 257.36C238.674 257.68 238.544 257.96 238.284 258.2C238.044 258.44 237.764 258.56 237.444 258.56C237.024 258.56 236.674 258.35 236.394 257.93L234.264 254.63L232.134 257.93ZM267.446 259.97C269.046 259.97 270.266 260.45 271.106 261.41C271.966 262.35 272.396 263.88 272.396 266V273.38C272.396 273.96 272.216 274.41 271.856 274.73C271.516 275.03 271.066 275.18 270.506 275.18C269.966 275.18 269.516 275.03 269.156 274.73C268.816 274.41 268.646 273.96 268.646 273.38V266C268.646 264.9 268.446 264.12 268.046 263.66C267.666 263.18 267.076 262.94 266.276 262.94C265.296 262.94 264.516 263.28 263.936 263.96C263.356 264.62 263.066 265.53 263.066 266.69V273.38C263.066 273.96 262.886 274.41 262.526 274.73C262.186 275.03 261.746 275.18 261.206 275.18C260.666 275.18 260.216 275.03 259.856 274.73C259.496 274.41 259.316 273.96 259.316 273.38V266C259.316 264.9 259.116 264.12 258.716 263.66C258.336 263.18 257.746 262.94 256.946 262.94C255.966 262.94 255.186 263.28 254.606 263.96C254.046 264.62 253.766 265.53 253.766 266.69V273.38C253.766 273.96 253.586 274.41 253.226 274.73C252.866 275.03 252.416 275.18 251.876 275.18C251.336 275.18 250.886 275.03 250.526 274.73C250.186 274.41 250.016 273.96 250.016 273.38V261.77C250.016 261.21 250.196 260.78 250.556 260.48C250.916 260.18 251.366 260.03 251.906 260.03C252.426 260.03 252.846 260.18 253.166 260.48C253.506 260.76 253.676 261.17 253.676 261.71V262.43C254.136 261.63 254.746 261.02 255.506 260.6C256.286 260.18 257.176 259.97 258.176 259.97C260.376 259.97 261.846 260.89 262.586 262.73C263.026 261.89 263.676 261.22 264.536 260.72C265.396 260.22 266.366 259.97 267.446 259.97ZM286.818 270.98C287.158 270.98 287.428 271.11 287.628 271.37C287.848 271.63 287.958 271.98 287.958 272.42C287.958 273.04 287.588 273.56 286.848 273.98C286.168 274.36 285.398 274.67 284.538 274.91C283.678 275.13 282.858 275.24 282.078 275.24C279.718 275.24 277.848 274.56 276.468 273.2C275.088 271.84 274.398 269.98 274.398 267.62C274.398 266.12 274.698 264.79 275.298 263.63C275.898 262.47 276.738 261.57 277.818 260.93C278.918 260.29 280.158 259.97 281.538 259.97C282.858 259.97 284.008 260.26 284.988 260.84C285.968 261.42 286.728 262.24 287.268 263.3C287.808 264.36 288.078 265.61 288.078 267.05C288.078 267.91 287.698 268.34 286.938 268.34H278.088C278.208 269.72 278.598 270.74 279.258 271.4C279.918 272.04 280.878 272.36 282.138 272.36C282.778 272.36 283.338 272.28 283.818 272.12C284.318 271.96 284.878 271.74 285.498 271.46C286.098 271.14 286.538 270.98 286.818 270.98ZM281.628 262.61C280.608 262.61 279.788 262.93 279.168 263.57C278.568 264.21 278.208 265.13 278.088 266.33H284.868C284.828 265.11 284.528 264.19 283.968 263.57C283.408 262.93 282.628 262.61 281.628 262.61ZM303.65 259.97C305.69 259.97 307.2 260.48 308.18 261.5C309.18 262.5 309.68 264.03 309.68 266.09V273.41C309.68 273.95 309.52 274.38 309.2 274.7C308.88 275 308.44 275.15 307.88 275.15C307.36 275.15 306.93 274.99 306.59 274.67C306.27 274.35 306.11 273.93 306.11 273.41V272.75C305.77 273.53 305.23 274.14 304.49 274.58C303.77 275.02 302.93 275.24 301.97 275.24C300.99 275.24 300.1 275.04 299.3 274.64C298.5 274.24 297.87 273.69 297.41 272.99C296.95 272.29 296.72 271.51 296.72 270.65C296.72 269.57 296.99 268.72 297.53 268.1C298.09 267.48 298.99 267.03 300.23 266.75C301.47 266.47 303.18 266.33 305.36 266.33H306.11V265.64C306.11 264.66 305.9 263.95 305.48 263.51C305.06 263.05 304.38 262.82 303.44 262.82C302.86 262.82 302.27 262.91 301.67 263.09C301.07 263.25 300.36 263.49 299.54 263.81C299.02 264.07 298.64 264.2 298.4 264.2C298.04 264.2 297.74 264.07 297.5 263.81C297.28 263.55 297.17 263.21 297.17 262.79C297.17 262.45 297.25 262.16 297.41 261.92C297.59 261.66 297.88 261.42 298.28 261.2C298.98 260.82 299.81 260.52 300.77 260.3C301.75 260.08 302.71 259.97 303.65 259.97ZM302.72 272.54C303.72 272.54 304.53 272.21 305.15 271.55C305.79 270.87 306.11 270 306.11 268.94V268.31H305.57C304.23 268.31 303.19 268.37 302.45 268.49C301.71 268.61 301.18 268.82 300.86 269.12C300.54 269.42 300.38 269.83 300.38 270.35C300.38 270.99 300.6 271.52 301.04 271.94C301.5 272.34 302.06 272.54 302.72 272.54ZM310.391 280.46C309.671 280.5 309.121 280.4 308.741 280.16C308.341 279.92 308.141 279.55 308.141 279.05C308.141 278.23 308.641 277.78 309.641 277.7L310.451 277.64C311.131 277.6 311.641 277.39 311.981 277.01C312.321 276.63 312.491 276.05 312.491 275.27V261.8C312.491 261.22 312.661 260.78 313.001 260.48C313.361 260.18 313.811 260.03 314.351 260.03C314.891 260.03 315.341 260.18 315.701 260.48C316.061 260.78 316.241 261.22 316.241 261.8V275C316.241 278.36 314.561 280.16 311.201 280.4L310.391 280.46ZM314.321 257.36C313.641 257.36 313.101 257.18 312.701 256.82C312.301 256.44 312.101 255.95 312.101 255.35C312.101 254.75 312.301 254.27 312.701 253.91C313.101 253.55 313.641 253.37 314.321 253.37C314.981 253.37 315.511 253.55 315.911 253.91C316.331 254.27 316.541 254.75 316.541 255.35C316.541 255.95 316.341 256.44 315.941 256.82C315.541 257.18 315.001 257.36 314.321 257.36ZM330.688 260.03C331.268 260.03 331.728 260.19 332.068 260.51C332.408 260.83 332.578 261.26 332.578 261.8V273.44C332.578 273.96 332.398 274.38 332.038 274.7C331.698 275.02 331.248 275.18 330.688 275.18C330.148 275.18 329.718 275.03 329.398 274.73C329.078 274.43 328.918 274.02 328.918 273.5V272.75C328.458 273.55 327.838 274.17 327.058 274.61C326.278 275.03 325.398 275.24 324.418 275.24C320.818 275.24 319.018 273.22 319.018 269.18V261.8C319.018 261.26 319.188 260.83 319.528 260.51C319.868 260.19 320.318 260.03 320.878 260.03C321.458 260.03 321.918 260.19 322.258 260.51C322.598 260.83 322.768 261.26 322.768 261.8V269.21C322.768 270.25 322.978 271.02 323.398 271.52C323.818 272.02 324.478 272.27 325.378 272.27C326.418 272.27 327.248 271.93 327.868 271.25C328.508 270.55 328.828 269.63 328.828 268.49V261.8C328.828 261.26 328.998 260.83 329.338 260.51C329.678 260.19 330.128 260.03 330.688 260.03ZM347.721 253.7C348.281 253.7 348.741 253.86 349.101 254.18C349.461 254.5 349.641 254.92 349.641 255.44V273.38C349.641 273.92 349.471 274.35 349.131 274.67C348.791 274.99 348.341 275.15 347.781 275.15C347.221 275.15 346.771 274.99 346.431 274.67C346.091 274.35 345.921 273.92 345.921 273.38V272.63C345.481 273.45 344.841 274.09 344.001 274.55C343.181 275.01 342.241 275.24 341.181 275.24C339.921 275.24 338.791 274.92 337.791 274.28C336.811 273.64 336.041 272.74 335.481 271.58C334.941 270.4 334.671 269.05 334.671 267.53C334.671 266.01 334.941 264.68 335.481 263.54C336.041 262.4 336.811 261.52 337.791 260.9C338.771 260.28 339.901 259.97 341.181 259.97C342.241 259.97 343.181 260.19 344.001 260.63C344.821 261.07 345.451 261.69 345.891 262.49V255.38C345.891 254.88 346.051 254.48 346.371 254.18C346.711 253.86 347.161 253.7 347.721 253.7ZM342.171 272.33C343.371 272.33 344.291 271.92 344.931 271.1C345.591 270.28 345.921 269.11 345.921 267.59C345.921 266.07 345.591 264.91 344.931 264.11C344.291 263.29 343.381 262.88 342.201 262.88C341.001 262.88 340.071 263.28 339.411 264.08C338.751 264.88 338.421 266.03 338.421 267.53C338.421 269.05 338.751 270.23 339.411 271.07C340.071 271.91 340.991 272.33 342.171 272.33ZM358.859 259.97C360.899 259.97 362.409 260.48 363.389 261.5C364.389 262.5 364.889 264.03 364.889 266.09V273.41C364.889 273.95 364.729 274.38 364.409 274.7C364.089 275 363.649 275.15 363.089 275.15C362.569 275.15 362.139 274.99 361.799 274.67C361.479 274.35 361.319 273.93 361.319 273.41V272.75C360.979 273.53 360.439 274.14 359.699 274.58C358.979 275.02 358.139 275.24 357.179 275.24C356.199 275.24 355.309 275.04 354.509 274.64C353.709 274.24 353.079 273.69 352.619 272.99C352.159 272.29 351.929 271.51 351.929 270.65C351.929 269.57 352.199 268.72 352.739 268.1C353.299 267.48 354.199 267.03 355.439 266.75C356.679 266.47 358.389 266.33 360.569 266.33H361.319V265.64C361.319 264.66 361.109 263.95 360.689 263.51C360.269 263.05 359.589 262.82 358.649 262.82C358.069 262.82 357.479 262.91 356.879 263.09C356.279 263.25 355.569 263.49 354.749 263.81C354.229 264.07 353.849 264.2 353.609 264.2C353.249 264.2 352.949 264.07 352.709 263.81C352.489 263.55 352.379 263.21 352.379 262.79C352.379 262.45 352.459 262.16 352.619 261.92C352.799 261.66 353.089 261.42 353.489 261.2C354.189 260.82 355.019 260.52 355.979 260.3C356.959 260.08 357.919 259.97 358.859 259.97ZM357.929 272.54C358.929 272.54 359.739 272.21 360.359 271.55C360.999 270.87 361.319 270 361.319 268.94V268.31H360.779C359.439 268.31 358.399 268.37 357.659 268.49C356.919 268.61 356.389 268.82 356.069 269.12C355.749 269.42 355.589 269.83 355.589 270.35C355.589 270.99 355.809 271.52 356.249 271.94C356.709 272.34 357.269 272.54 357.929 272.54ZM369.47 275.18C368.83 275.18 368.3 274.97 367.88 274.55C367.46 274.11 367.25 273.57 367.25 272.93C367.25 272.29 367.46 271.76 367.88 271.34C368.3 270.9 368.83 270.68 369.47 270.68C370.11 270.68 370.64 270.9 371.06 271.34C371.48 271.76 371.69 272.29 371.69 272.93C371.69 273.57 371.48 274.11 371.06 274.55C370.64 274.97 370.11 275.18 369.47 275.18ZM203.904 303.7C204.464 303.7 204.904 303.88 205.224 304.24C205.564 304.58 205.734 305.04 205.734 305.62V323.23C205.734 323.81 205.564 324.28 205.224 324.64C204.884 325 204.444 325.18 203.904 325.18C203.264 325.18 202.774 324.95 202.434 324.49L191.484 310.24V323.23C191.484 323.81 191.324 324.28 191.004 324.64C190.684 325 190.244 325.18 189.684 325.18C189.124 325.18 188.684 325 188.364 324.64C188.044 324.28 187.884 323.81 187.884 323.23V305.62C187.884 305.04 188.054 304.58 188.394 304.24C188.734 303.88 189.184 303.7 189.744 303.7C190.364 303.7 190.844 303.93 191.184 304.39L202.104 318.58V305.62C202.104 305.04 202.264 304.58 202.584 304.24C202.924 303.88 203.364 303.7 203.904 303.7ZM215.657 325.24C214.157 325.24 212.837 324.93 211.697 324.31C210.577 323.69 209.707 322.8 209.087 321.64C208.467 320.48 208.157 319.13 208.157 317.59C208.157 316.05 208.467 314.71 209.087 313.57C209.707 312.41 210.577 311.52 211.697 310.9C212.837 310.28 214.157 309.97 215.657 309.97C217.157 309.97 218.467 310.28 219.587 310.9C220.727 311.52 221.597 312.41 222.197 313.57C222.817 314.71 223.127 316.05 223.127 317.59C223.127 319.13 222.817 320.48 222.197 321.64C221.597 322.8 220.727 323.69 219.587 324.31C218.467 324.93 217.157 325.24 215.657 325.24ZM215.627 322.33C216.847 322.33 217.777 321.93 218.417 321.13C219.057 320.33 219.377 319.15 219.377 317.59C219.377 316.05 219.057 314.88 218.417 314.08C217.777 313.26 216.857 312.85 215.657 312.85C214.457 312.85 213.527 313.26 212.867 314.08C212.227 314.88 211.907 316.05 211.907 317.59C211.907 319.15 212.227 320.33 212.867 321.13C213.507 321.93 214.427 322.33 215.627 322.33ZM216.407 308.32C216.187 308.48 215.967 308.56 215.747 308.56C215.467 308.56 215.227 308.47 215.027 308.29C214.847 308.09 214.757 307.86 214.757 307.6C214.757 307.38 214.837 307.16 214.997 306.94L217.907 303.07C218.367 302.47 218.897 302.17 219.497 302.17C219.937 302.17 220.307 302.33 220.607 302.65C220.927 302.95 221.087 303.31 221.087 303.73C221.087 304.29 220.817 304.77 220.277 305.17L216.407 308.32ZM230.532 325.24C228.352 325.24 226.592 324.81 225.252 323.95C224.612 323.57 224.292 323.03 224.292 322.33C224.292 321.93 224.402 321.61 224.622 321.37C224.842 321.11 225.112 320.98 225.432 320.98C225.772 320.98 226.242 321.14 226.842 321.46C227.482 321.76 228.062 321.99 228.582 322.15C229.122 322.31 229.802 322.39 230.622 322.39C231.462 322.39 232.112 322.25 232.572 321.97C233.052 321.69 233.292 321.3 233.292 320.8C233.292 320.46 233.192 320.19 232.992 319.99C232.812 319.79 232.472 319.61 231.972 319.45C231.492 319.27 230.752 319.07 229.752 318.85C227.972 318.49 226.692 317.98 225.912 317.32C225.152 316.66 224.772 315.75 224.772 314.59C224.772 313.71 225.032 312.92 225.552 312.22C226.072 311.5 226.782 310.95 227.682 310.57C228.602 310.17 229.642 309.97 230.802 309.97C231.642 309.97 232.452 310.08 233.232 310.3C234.012 310.5 234.712 310.8 235.332 311.2C235.972 311.6 236.292 312.13 236.292 312.79C236.292 313.19 236.182 313.53 235.962 313.81C235.742 314.07 235.472 314.2 235.152 314.2C234.932 314.2 234.712 314.16 234.492 314.08C234.292 313.98 234.032 313.84 233.712 313.66C233.132 313.36 232.632 313.14 232.212 313C231.792 312.84 231.272 312.76 230.652 312.76C229.912 312.76 229.322 312.91 228.882 313.21C228.462 313.51 228.252 313.92 228.252 314.44C228.252 314.94 228.472 315.32 228.912 315.58C229.352 315.84 230.202 316.1 231.462 316.36C232.802 316.64 233.852 316.96 234.612 317.32C235.372 317.68 235.912 318.13 236.232 318.67C236.572 319.21 236.742 319.9 236.742 320.74C236.742 322.1 236.172 323.19 235.032 324.01C233.912 324.83 232.412 325.24 230.532 325.24ZM252.288 309.97C254.328 309.97 255.838 310.48 256.818 311.5C257.818 312.5 258.318 314.03 258.318 316.09V323.41C258.318 323.95 258.158 324.38 257.838 324.7C257.518 325 257.078 325.15 256.518 325.15C255.998 325.15 255.568 324.99 255.228 324.67C254.908 324.35 254.748 323.93 254.748 323.41V322.75C254.408 323.53 253.868 324.14 253.128 324.58C252.408 325.02 251.568 325.24 250.608 325.24C249.628 325.24 248.738 325.04 247.938 324.64C247.138 324.24 246.508 323.69 246.048 322.99C245.588 322.29 245.358 321.51 245.358 320.65C245.358 319.57 245.628 318.72 246.168 318.1C246.728 317.48 247.628 317.03 248.868 316.75C250.108 316.47 251.818 316.33 253.998 316.33H254.748V315.64C254.748 314.66 254.538 313.95 254.118 313.51C253.698 313.05 253.018 312.82 252.078 312.82C251.498 312.82 250.908 312.91 250.308 313.09C249.708 313.25 248.998 313.49 248.178 313.81C247.658 314.07 247.278 314.2 247.038 314.2C246.678 314.2 246.378 314.07 246.138 313.81C245.918 313.55 245.808 313.21 245.808 312.79C245.808 312.45 245.888 312.16 246.048 311.92C246.228 311.66 246.518 311.42 246.918 311.2C247.618 310.82 248.448 310.52 249.408 310.3C250.388 310.08 251.348 309.97 252.288 309.97ZM251.358 322.54C252.358 322.54 253.168 322.21 253.788 321.55C254.428 320.87 254.748 320 254.748 318.94V318.31H254.208C252.868 318.31 251.828 318.37 251.088 318.49C250.348 318.61 249.818 318.82 249.498 319.12C249.178 319.42 249.018 319.83 249.018 320.35C249.018 320.99 249.238 321.52 249.678 321.94C250.138 322.34 250.698 322.54 251.358 322.54ZM259.029 330.46C258.309 330.5 257.759 330.4 257.379 330.16C256.979 329.92 256.779 329.55 256.779 329.05C256.779 328.23 257.279 327.78 258.279 327.7L259.089 327.64C259.769 327.6 260.279 327.39 260.619 327.01C260.959 326.63 261.129 326.05 261.129 325.27V311.8C261.129 311.22 261.299 310.78 261.639 310.48C261.999 310.18 262.449 310.03 262.989 310.03C263.529 310.03 263.979 310.18 264.339 310.48C264.699 310.78 264.879 311.22 264.879 311.8V325C264.879 328.36 263.199 330.16 259.839 330.4L259.029 330.46ZM262.959 307.36C262.279 307.36 261.739 307.18 261.339 306.82C260.939 306.44 260.739 305.95 260.739 305.35C260.739 304.75 260.939 304.27 261.339 303.91C261.739 303.55 262.279 303.37 262.959 303.37C263.619 303.37 264.149 303.55 264.549 303.91C264.969 304.27 265.179 304.75 265.179 305.35C265.179 305.95 264.979 306.44 264.579 306.82C264.179 307.18 263.639 307.36 262.959 307.36ZM279.326 310.03C279.906 310.03 280.366 310.19 280.706 310.51C281.046 310.83 281.216 311.26 281.216 311.8V323.44C281.216 323.96 281.036 324.38 280.676 324.7C280.336 325.02 279.886 325.18 279.326 325.18C278.786 325.18 278.356 325.03 278.036 324.73C277.716 324.43 277.556 324.02 277.556 323.5V322.75C277.096 323.55 276.476 324.17 275.696 324.61C274.916 325.03 274.036 325.24 273.056 325.24C269.456 325.24 267.656 323.22 267.656 319.18V311.8C267.656 311.26 267.826 310.83 268.166 310.51C268.506 310.19 268.956 310.03 269.516 310.03C270.096 310.03 270.556 310.19 270.896 310.51C271.236 310.83 271.406 311.26 271.406 311.8V319.21C271.406 320.25 271.616 321.02 272.036 321.52C272.456 322.02 273.116 322.27 274.016 322.27C275.056 322.27 275.886 321.93 276.506 321.25C277.146 320.55 277.466 319.63 277.466 318.49V311.8C277.466 311.26 277.636 310.83 277.976 310.51C278.316 310.19 278.766 310.03 279.326 310.03ZM296.359 303.7C296.919 303.7 297.379 303.86 297.739 304.18C298.099 304.5 298.279 304.92 298.279 305.44V323.38C298.279 323.92 298.109 324.35 297.769 324.67C297.429 324.99 296.979 325.15 296.419 325.15C295.859 325.15 295.409 324.99 295.069 324.67C294.729 324.35 294.559 323.92 294.559 323.38V322.63C294.119 323.45 293.479 324.09 292.639 324.55C291.819 325.01 290.879 325.24 289.819 325.24C288.559 325.24 287.429 324.92 286.429 324.28C285.449 323.64 284.679 322.74 284.119 321.58C283.579 320.4 283.309 319.05 283.309 317.53C283.309 316.01 283.579 314.68 284.119 313.54C284.679 312.4 285.449 311.52 286.429 310.9C287.409 310.28 288.539 309.97 289.819 309.97C290.879 309.97 291.819 310.19 292.639 310.63C293.459 311.07 294.089 311.69 294.529 312.49V305.38C294.529 304.88 294.689 304.48 295.009 304.18C295.349 303.86 295.799 303.7 296.359 303.7ZM290.809 322.33C292.009 322.33 292.929 321.92 293.569 321.1C294.229 320.28 294.559 319.11 294.559 317.59C294.559 316.07 294.229 314.91 293.569 314.11C292.929 313.29 292.019 312.88 290.839 312.88C289.639 312.88 288.709 313.28 288.049 314.08C287.389 314.88 287.059 316.03 287.059 317.53C287.059 319.05 287.389 320.23 288.049 321.07C288.709 321.91 289.629 322.33 290.809 322.33ZM307.497 309.97C309.537 309.97 311.047 310.48 312.027 311.5C313.027 312.5 313.527 314.03 313.527 316.09V323.41C313.527 323.95 313.367 324.38 313.047 324.7C312.727 325 312.287 325.15 311.727 325.15C311.207 325.15 310.777 324.99 310.437 324.67C310.117 324.35 309.957 323.93 309.957 323.41V322.75C309.617 323.53 309.077 324.14 308.337 324.58C307.617 325.02 306.777 325.24 305.817 325.24C304.837 325.24 303.947 325.04 303.147 324.64C302.347 324.24 301.717 323.69 301.257 322.99C300.797 322.29 300.567 321.51 300.567 320.65C300.567 319.57 300.837 318.72 301.377 318.1C301.937 317.48 302.837 317.03 304.077 316.75C305.317 316.47 307.027 316.33 309.207 316.33H309.957V315.64C309.957 314.66 309.747 313.95 309.327 313.51C308.907 313.05 308.227 312.82 307.287 312.82C306.707 312.82 306.117 312.91 305.517 313.09C304.917 313.25 304.207 313.49 303.387 313.81C302.867 314.07 302.487 314.2 302.247 314.2C301.887 314.2 301.587 314.07 301.347 313.81C301.127 313.55 301.017 313.21 301.017 312.79C301.017 312.45 301.097 312.16 301.257 311.92C301.437 311.66 301.727 311.42 302.127 311.2C302.827 310.82 303.657 310.52 304.617 310.3C305.597 310.08 306.557 309.97 307.497 309.97ZM306.567 322.54C307.567 322.54 308.377 322.21 308.997 321.55C309.637 320.87 309.957 320 309.957 318.94V318.31H309.417C308.077 318.31 307.037 318.37 306.297 318.49C305.557 318.61 305.027 318.82 304.707 319.12C304.387 319.42 304.227 319.83 304.227 320.35C304.227 320.99 304.447 321.52 304.887 321.94C305.347 322.34 305.907 322.54 306.567 322.54ZM333.768 309.97C335.368 309.97 336.588 310.45 337.428 311.41C338.288 312.35 338.718 313.88 338.718 316V323.38C338.718 323.96 338.538 324.41 338.178 324.73C337.838 325.03 337.388 325.18 336.828 325.18C336.288 325.18 335.838 325.03 335.478 324.73C335.138 324.41 334.968 323.96 334.968 323.38V316C334.968 314.9 334.768 314.12 334.368 313.66C333.988 313.18 333.398 312.94 332.598 312.94C331.618 312.94 330.838 313.28 330.258 313.96C329.678 314.62 329.388 315.53 329.388 316.69V323.38C329.388 323.96 329.208 324.41 328.848 324.73C328.508 325.03 328.068 325.18 327.528 325.18C326.988 325.18 326.538 325.03 326.178 324.73C325.818 324.41 325.638 323.96 325.638 323.38V316C325.638 314.9 325.438 314.12 325.038 313.66C324.658 313.18 324.068 312.94 323.268 312.94C322.288 312.94 321.508 313.28 320.928 313.96C320.368 314.62 320.088 315.53 320.088 316.69V323.38C320.088 323.96 319.908 324.41 319.548 324.73C319.188 325.03 318.738 325.18 318.198 325.18C317.658 325.18 317.208 325.03 316.848 324.73C316.508 324.41 316.338 323.96 316.338 323.38V311.77C316.338 311.21 316.518 310.78 316.878 310.48C317.238 310.18 317.688 310.03 318.228 310.03C318.748 310.03 319.168 310.18 319.488 310.48C319.828 310.76 319.998 311.17 319.998 311.71V312.43C320.458 311.63 321.068 311.02 321.828 310.6C322.608 310.18 323.498 309.97 324.498 309.97C326.698 309.97 328.168 310.89 328.908 312.73C329.348 311.89 329.998 311.22 330.858 310.72C331.718 310.22 332.688 309.97 333.768 309.97ZM348.219 325.24C346.719 325.24 345.399 324.93 344.259 324.31C343.139 323.69 342.269 322.8 341.649 321.64C341.029 320.48 340.719 319.13 340.719 317.59C340.719 316.05 341.029 314.71 341.649 313.57C342.269 312.41 343.139 311.52 344.259 310.9C345.399 310.28 346.719 309.97 348.219 309.97C349.719 309.97 351.029 310.28 352.149 310.9C353.289 311.52 354.159 312.41 354.759 313.57C355.379 314.71 355.689 316.05 355.689 317.59C355.689 319.13 355.379 320.48 354.759 321.64C354.159 322.8 353.289 323.69 352.149 324.31C351.029 324.93 349.719 325.24 348.219 325.24ZM348.189 322.33C349.409 322.33 350.339 321.93 350.979 321.13C351.619 320.33 351.939 319.15 351.939 317.59C351.939 316.05 351.619 314.88 350.979 314.08C350.339 313.26 349.419 312.85 348.219 312.85C347.019 312.85 346.089 313.26 345.429 314.08C344.789 314.88 344.469 316.05 344.469 317.59C344.469 319.15 344.789 320.33 345.429 321.13C346.069 321.93 346.989 322.33 348.189 322.33ZM363.095 325.24C360.915 325.24 359.155 324.81 357.815 323.95C357.175 323.57 356.855 323.03 356.855 322.33C356.855 321.93 356.965 321.61 357.185 321.37C357.405 321.11 357.675 320.98 357.995 320.98C358.335 320.98 358.805 321.14 359.405 321.46C360.045 321.76 360.625 321.99 361.145 322.15C361.685 322.31 362.365 322.39 363.185 322.39C364.025 322.39 364.675 322.25 365.135 321.97C365.615 321.69 365.855 321.3 365.855 320.8C365.855 320.46 365.755 320.19 365.555 319.99C365.375 319.79 365.035 319.61 364.535 319.45C364.055 319.27 363.315 319.07 362.315 318.85C360.535 318.49 359.255 317.98 358.475 317.32C357.715 316.66 357.335 315.75 357.335 314.59C357.335 313.71 357.595 312.92 358.115 312.22C358.635 311.5 359.345 310.95 360.245 310.57C361.165 310.17 362.205 309.97 363.365 309.97C364.205 309.97 365.015 310.08 365.795 310.3C366.575 310.5 367.275 310.8 367.895 311.2C368.535 311.6 368.855 312.13 368.855 312.79C368.855 313.19 368.745 313.53 368.525 313.81C368.305 314.07 368.035 314.2 367.715 314.2C367.495 314.2 367.275 314.16 367.055 314.08C366.855 313.98 366.595 313.84 366.275 313.66C365.695 313.36 365.195 313.14 364.775 313C364.355 312.84 363.835 312.76 363.215 312.76C362.475 312.76 361.885 312.91 361.445 313.21C361.025 313.51 360.815 313.92 360.815 314.44C360.815 314.94 361.035 315.32 361.475 315.58C361.915 315.84 362.765 316.1 364.025 316.36C365.365 316.64 366.415 316.96 367.175 317.32C367.935 317.68 368.475 318.13 368.795 318.67C369.135 319.21 369.305 319.9 369.305 320.74C369.305 322.1 368.735 323.19 367.595 324.01C366.475 324.83 364.975 325.24 363.095 325.24ZM236.497 360.24C234.997 360.24 233.677 359.93 232.537 359.31C231.417 358.69 230.547 357.8 229.927 356.64C229.307 355.48 228.997 354.13 228.997 352.59C228.997 351.05 229.307 349.71 229.927 348.57C230.547 347.41 231.417 346.52 232.537 345.9C233.677 345.28 234.997 344.97 236.497 344.97C237.997 344.97 239.307 345.28 240.427 345.9C241.567 346.52 242.437 347.41 243.037 348.57C243.657 349.71 243.967 351.05 243.967 352.59C243.967 354.13 243.657 355.48 243.037 356.64C242.437 357.8 241.567 358.69 240.427 359.31C239.307 359.93 237.997 360.24 236.497 360.24ZM236.467 357.33C237.687 357.33 238.617 356.93 239.257 356.13C239.897 355.33 240.217 354.15 240.217 352.59C240.217 351.05 239.897 349.88 239.257 349.08C238.617 348.26 237.697 347.85 236.497 347.85C235.297 347.85 234.367 348.26 233.707 349.08C233.067 349.88 232.747 351.05 232.747 352.59C232.747 354.15 233.067 355.33 233.707 356.13C234.347 356.93 235.267 357.33 236.467 357.33ZM259.898 360.24C258.398 360.24 257.078 359.93 255.938 359.31C254.818 358.69 253.948 357.8 253.328 356.64C252.708 355.48 252.398 354.13 252.398 352.59C252.398 351.05 252.708 349.71 253.328 348.57C253.948 347.41 254.818 346.52 255.938 345.9C257.078 345.28 258.398 344.97 259.898 344.97C261.398 344.97 262.708 345.28 263.828 345.9C264.968 346.52 265.838 347.41 266.438 348.57C267.058 349.71 267.368 351.05 267.368 352.59C267.368 354.13 267.058 355.48 266.438 356.64C265.838 357.8 264.968 358.69 263.828 359.31C262.708 359.93 261.398 360.24 259.898 360.24ZM259.868 357.33C261.088 357.33 262.018 356.93 262.658 356.13C263.298 355.33 263.618 354.15 263.618 352.59C263.618 351.05 263.298 349.88 262.658 349.08C262.018 348.26 261.098 347.85 259.898 347.85C258.698 347.85 257.768 348.26 257.108 349.08C256.468 349.88 256.148 351.05 256.148 352.59C256.148 354.15 256.468 355.33 257.108 356.13C257.748 356.93 258.668 357.33 259.868 357.33ZM281.044 345.03C281.624 345.03 282.084 345.19 282.424 345.51C282.764 345.83 282.934 346.26 282.934 346.8V358.44C282.934 358.96 282.754 359.38 282.394 359.7C282.054 360.02 281.604 360.18 281.044 360.18C280.504 360.18 280.074 360.03 279.754 359.73C279.434 359.43 279.274 359.02 279.274 358.5V357.75C278.814 358.55 278.194 359.17 277.414 359.61C276.634 360.03 275.754 360.24 274.774 360.24C271.174 360.24 269.374 358.22 269.374 354.18V346.8C269.374 346.26 269.544 345.83 269.884 345.51C270.224 345.19 270.674 345.03 271.234 345.03C271.814 345.03 272.274 345.19 272.614 345.51C272.954 345.83 273.124 346.26 273.124 346.8V354.21C273.124 355.25 273.334 356.02 273.754 356.52C274.174 357.02 274.834 357.27 275.734 357.27C276.774 357.27 277.604 356.93 278.224 356.25C278.864 355.55 279.184 354.63 279.184 353.49V346.8C279.184 346.26 279.354 345.83 279.694 345.51C280.034 345.19 280.484 345.03 281.044 345.03ZM293.457 357.39C294.457 357.45 294.957 357.9 294.957 358.74C294.957 359.22 294.757 359.59 294.357 359.85C293.977 360.09 293.427 360.19 292.707 360.15L291.897 360.09C288.537 359.85 286.857 358.05 286.857 354.69V348.15H285.357C284.817 348.15 284.397 348.03 284.097 347.79C283.817 347.55 283.677 347.2 283.677 346.74C283.677 346.28 283.817 345.93 284.097 345.69C284.397 345.45 284.817 345.33 285.357 345.33H286.857V342.57C286.857 342.03 287.027 341.6 287.367 341.28C287.707 340.96 288.167 340.8 288.747 340.8C289.307 340.8 289.757 340.96 290.097 341.28C290.437 341.6 290.607 342.03 290.607 342.57V345.33H293.157C293.697 345.33 294.107 345.45 294.387 345.69C294.687 345.93 294.837 346.28 294.837 346.74C294.837 347.2 294.687 347.55 294.387 347.79C294.107 348.03 293.697 348.15 293.157 348.15H290.607V354.96C290.607 356.44 291.287 357.23 292.647 357.33L293.457 357.39ZM304.101 345.03C304.621 344.99 305.031 345.1 305.331 345.36C305.631 345.62 305.781 346.01 305.781 346.53C305.781 347.07 305.651 347.47 305.391 347.73C305.131 347.99 304.661 348.16 303.981 348.24L303.081 348.33C301.901 348.45 301.031 348.85 300.471 349.53C299.931 350.21 299.661 351.06 299.661 352.08V358.38C299.661 358.96 299.481 359.41 299.121 359.73C298.761 360.03 298.311 360.18 297.771 360.18C297.231 360.18 296.781 360.03 296.421 359.73C296.081 359.41 295.911 358.96 295.911 358.38V346.77C295.911 346.21 296.081 345.78 296.421 345.48C296.781 345.18 297.221 345.03 297.741 345.03C298.261 345.03 298.681 345.18 299.001 345.48C299.321 345.76 299.481 346.17 299.481 346.71V347.91C299.861 347.03 300.421 346.35 301.161 345.87C301.921 345.39 302.761 345.12 303.681 345.06L304.101 345.03ZM313.085 360.24C311.585 360.24 310.265 359.93 309.125 359.31C308.005 358.69 307.135 357.8 306.515 356.64C305.895 355.48 305.585 354.13 305.585 352.59C305.585 351.05 305.895 349.71 306.515 348.57C307.135 347.41 308.005 346.52 309.125 345.9C310.265 345.28 311.585 344.97 313.085 344.97C314.585 344.97 315.895 345.28 317.015 345.9C318.155 346.52 319.025 347.41 319.625 348.57C320.245 349.71 320.555 351.05 320.555 352.59C320.555 354.13 320.245 355.48 319.625 356.64C319.025 357.8 318.155 358.69 317.015 359.31C315.895 359.93 314.585 360.24 313.085 360.24ZM313.055 357.33C314.275 357.33 315.205 356.93 315.845 356.13C316.485 355.33 316.805 354.15 316.805 352.59C316.805 351.05 316.485 349.88 315.845 349.08C315.205 348.26 314.285 347.85 313.085 347.85C311.885 347.85 310.955 348.26 310.295 349.08C309.655 349.88 309.335 351.05 309.335 352.59C309.335 354.15 309.655 355.33 310.295 356.13C310.935 356.93 311.855 357.33 313.055 357.33ZM324.421 360.18C323.781 360.18 323.251 359.97 322.831 359.55C322.411 359.11 322.201 358.57 322.201 357.93C322.201 357.29 322.411 356.76 322.831 356.34C323.251 355.9 323.781 355.68 324.421 355.68C325.061 355.68 325.591 355.9 326.011 356.34C326.431 356.76 326.641 357.29 326.641 357.93C326.641 358.57 326.431 359.11 326.011 359.55C325.591 359.97 325.061 360.18 324.421 360.18Z" fill="url(#paint11_linear)"/>
<defs>
<linearGradient id="paint0_linear" x1="116.863" y1="116.859" x2="442.443" y2="119.55" gradientUnits="userSpaceOnUse">
<stop stop-color="#00A9E0"/>
<stop offset="0.515625" stop-color="#8C38B6"/>
<stop offset="1" stop-color="#EE2737"/>
</linearGradient>
<linearGradient id="paint1_linear" x1="108.761" y1="108.757" x2="450.618" y2="111.582" gradientUnits="userSpaceOnUse">
<stop stop-color="#00A9E0"/>
<stop offset="0.515625" stop-color="#8C38B6"/>
<stop offset="1" stop-color="#EE2737"/>
</linearGradient>
<linearGradient id="paint2_linear" x1="98.9687" y1="98.9053" x2="460.566" y2="101.894" gradientUnits="userSpaceOnUse">
<stop stop-color="#00A9E0"/>
<stop offset="0.515625" stop-color="#8C38B6"/>
<stop offset="1" stop-color="#EE2737"/>
</linearGradient>
<linearGradient id="paint3_linear" x1="87.54" y1="87.4749" x2="472.246" y2="90.6543" gradientUnits="userSpaceOnUse">
<stop stop-color="#00A9E0"/>
<stop offset="0.515625" stop-color="#8C38B6"/>
<stop offset="1" stop-color="#EE2737"/>
</linearGradient>
<linearGradient id="paint4_linear" x1="75.5156" y1="75.5762" x2="484.34" y2="78.9549" gradientUnits="userSpaceOnUse">
<stop stop-color="#00A9E0"/>
<stop offset="0.515625" stop-color="#8C38B6"/>
<stop offset="1" stop-color="#EE2737"/>
</linearGradient>
<linearGradient id="paint5_linear" x1="63.3552" y1="63.3514" x2="496.828" y2="66.9339" gradientUnits="userSpaceOnUse">
<stop stop-color="#00A9E0"/>
<stop offset="0.515625" stop-color="#8C38B6"/>
<stop offset="1" stop-color="#EE2737"/>
</linearGradient>
<linearGradient id="paint6_linear" x1="51" y1="50.9941" x2="509.318" y2="54.7813" gradientUnits="userSpaceOnUse">
<stop stop-color="#00A9E0"/>
<stop offset="0.515625" stop-color="#8C38B6"/>
<stop offset="1" stop-color="#EE2737"/>
</linearGradient>
<linearGradient id="paint7_linear" x1="38.5039" y1="38.5625" x2="521.961" y2="42.558" gradientUnits="userSpaceOnUse">
<stop stop-color="#00A9E0"/>
<stop offset="0.515625" stop-color="#8C38B6"/>
<stop offset="1" stop-color="#EE2737"/>
</linearGradient>
<linearGradient id="paint8_linear" x1="26.0586" y1="26.0576" x2="534.73" y2="30.2615" gradientUnits="userSpaceOnUse">
<stop stop-color="#00A9E0"/>
<stop offset="0.515625" stop-color="#8C38B6"/>
<stop offset="1" stop-color="#EE2737"/>
</linearGradient>
<linearGradient id="paint9_linear" x1="13.5625" y1="13.542" x2="547.375" y2="17.9535" gradientUnits="userSpaceOnUse">
<stop stop-color="#00A9E0"/>
<stop offset="0.515625" stop-color="#8C38B6"/>
<stop offset="1" stop-color="#EE2737"/>
</linearGradient>
<linearGradient id="paint10_linear" x1="1" y1="1" x2="560.138" y2="5.621" gradientUnits="userSpaceOnUse">
<stop stop-color="#00A9E0"/>
<stop offset="0.515625" stop-color="#8C38B6"/>
<stop offset="1" stop-color="#EE2737"/>
</linearGradient>
<linearGradient id="paint11_linear" x1="240.259" y1="173.786" x2="245.866" y2="508.444" gradientUnits="userSpaceOnUse">
<stop stop-color="#00A9E0"/>
<stop offset="0.507654" stop-color="#8C38B6"/>
<stop offset="1" stop-color="#EE2737"/>
</linearGradient>
</defs>
</svg>
