<svg id="Camada_1" data-name="Camada 1" xmlns="http://www.w3.org/2000/svg" viewBox="0 0 500 200"><defs><style>.cls-1{fill:#fff;}</style></defs><title>Prancheta 1 cópia 16</title><path class="cls-1" d="M169.78,128.27a6,6,0,0,1,1.09,3.62,5.58,5.58,0,0,1-2.12,4.64,9.16,9.16,0,0,1-5.84,1.68h-8.5a2,2,0,0,1-1.49-.53,2,2,0,0,1-.54-1.48V117a2,2,0,0,1,.54-1.48,2.09,2.09,0,0,1,1.49-.54h8.17a9,9,0,0,1,5.68,1.61,5.79,5.79,0,0,1,1.08,7.65,5.53,5.53,0,0,1-2.67,2A5.68,5.68,0,0,1,169.78,128.27Zm-13.25-3.48h5.36c2.91,0,4.38-1.1,4.38-3.26a2.81,2.81,0,0,0-1.09-2.44,5.56,5.56,0,0,0-3.29-.79h-5.36Zm9.28,9.3a3.07,3.07,0,0,0,1.05-2.57,3.17,3.17,0,0,0-1.07-2.6,5.41,5.41,0,0,0-3.34-.85h-5.92v6.85h5.92A5.47,5.47,0,0,0,165.81,134.09Z"/><path class="cls-1" d="M210.16,136.69a1.56,1.56,0,0,1-.61,1.26,2.21,2.21,0,0,1-1.43.49,2.17,2.17,0,0,1-1.81-1l-4.37-6.65a4.42,4.42,0,0,0-1.4-1.47,3.7,3.7,0,0,0-1.93-.44h-3.23v7.38a2.14,2.14,0,0,1-.55,1.56,2.31,2.31,0,0,1-3,0,2.07,2.07,0,0,1-.58-1.56V117a2,2,0,0,1,.54-1.48,2.07,2.07,0,0,1,1.5-.54h8.22a9,9,0,0,1,6,1.77,6.32,6.32,0,0,1,2.06,5.08,6.41,6.41,0,0,1-1.54,4.43,7.22,7.22,0,0,1-4.32,2.22,4,4,0,0,1,1.68.83,7.45,7.45,0,0,1,1.42,1.64l3,4.57A2.09,2.09,0,0,1,210.16,136.69Zm-5.75-12a3.36,3.36,0,0,0,1.11-2.78,3.29,3.29,0,0,0-1.11-2.77,5.68,5.68,0,0,0-3.52-.88h-5.54v7.34h5.54A5.54,5.54,0,0,0,204.41,124.73Z"/><path class="cls-1" d="M253.51,136.53a1.62,1.62,0,0,1-.62,1.29,2,2,0,0,1-1.39.52,1.83,1.83,0,0,1-1-.28,1.91,1.91,0,0,1-.72-.87l-2-4.41H236.23l-2,4.41a1.89,1.89,0,0,1-.71.87,1.94,1.94,0,0,1-1,.28,2.08,2.08,0,0,1-1.38-.52,1.63,1.63,0,0,1-.63-1.29,2.11,2.11,0,0,1,.2-.86l9.09-19.51a2,2,0,0,1,.9-1,2.59,2.59,0,0,1,2.6,0,2.07,2.07,0,0,1,.91,1l9.11,19.51A2.11,2.11,0,0,1,253.51,136.53Zm-15.84-7h8.69L242,119.72Z"/><path class="cls-1" d="M278.27,137.83a10.46,10.46,0,0,1-3.66-1.83,1.82,1.82,0,0,1-.75-1.57,1.79,1.79,0,0,1,.41-1.2,1.17,1.17,0,0,1,1-.51,2.75,2.75,0,0,1,1.36.45,9.88,9.88,0,0,0,3,1.49,12.28,12.28,0,0,0,3.43.45,6.73,6.73,0,0,0,3.68-.83,2.78,2.78,0,0,0,1.29-2.45,2.1,2.1,0,0,0-1.2-1.93,15.43,15.43,0,0,0-4-1.3,22.94,22.94,0,0,1-4.7-1.45,6.53,6.53,0,0,1-2.74-2.1,5.49,5.49,0,0,1-.92-3.26,6.16,6.16,0,0,1,1.15-3.65,7.55,7.55,0,0,1,3.21-2.52,11.42,11.42,0,0,1,4.63-.91,11.56,11.56,0,0,1,7.67,2.5,2.49,2.49,0,0,1,.6.71,1.89,1.89,0,0,1,.18.88,1.81,1.81,0,0,1-.42,1.2,1.23,1.23,0,0,1-1,.51,1.74,1.74,0,0,1-.61-.1,6.26,6.26,0,0,1-.74-.37,10.81,10.81,0,0,0-2.61-1.46,9.11,9.11,0,0,0-3.11-.48,6.23,6.23,0,0,0-3.55.9,2.94,2.94,0,0,0-1.3,2.53,2.32,2.32,0,0,0,1.15,2.07,13.77,13.77,0,0,0,3.92,1.35,25.45,25.45,0,0,1,4.76,1.46,7.17,7.17,0,0,1,2.79,2.06,4.91,4.91,0,0,1,1,3.12A6,6,0,0,1,291,135.2a7.41,7.41,0,0,1-3.19,2.43,12.06,12.06,0,0,1-4.73.87A16.65,16.65,0,0,1,278.27,137.83Z"/><path class="cls-1" d="M313,137.82a2.11,2.11,0,0,1-.57-1.55V117a2,2,0,0,1,2.1-2.11,2.11,2.11,0,0,1,1.56.58,2.07,2.07,0,0,1,.59,1.53v19.32a2.12,2.12,0,0,1-.59,1.55,2.07,2.07,0,0,1-1.56.58A2,2,0,0,1,313,137.82Z"/><path class="cls-1" d="M337.52,137.68a1.92,1.92,0,0,1-.53-1.44V117a2,2,0,0,1,2.11-2.11,2.15,2.15,0,0,1,1.56.58,2.1,2.1,0,0,1,.57,1.53v17.77h9.26c1.32,0,2,.59,2,1.74s-.65,1.75-2,1.75H339A2,2,0,0,1,337.52,137.68Z"/><path class="cls-1" d="M133.32,102.54a4.38,4.38,0,0,1-1.27-3.31V69.35h-9.57c-2.91,0-4.37-1.25-4.37-3.77s1.46-3.72,4.37-3.72h28.35q4.36,0,4.37,3.72c0,2.52-1.46,3.77-4.37,3.77h-9.57V99.23a4.43,4.43,0,0,1-1.24,3.31,5.11,5.11,0,0,1-6.7,0Z"/><path class="cls-1" d="M213.81,62.8A4.45,4.45,0,0,1,215,66.1V99.23a4.57,4.57,0,0,1-1.23,3.35,4.45,4.45,0,0,1-3.31,1.26,4.35,4.35,0,0,1-3.28-1.24A4.59,4.59,0,0,1,206,99.23V86h-19.2V99.23a4.58,4.58,0,0,1-1.24,3.35,4.35,4.35,0,0,1-3.25,1.26,4.46,4.46,0,0,1-3.3-1.24,4.53,4.53,0,0,1-1.24-3.37V66.1a4.27,4.27,0,0,1,4.54-4.54,4.37,4.37,0,0,1,3.29,1.24,4.55,4.55,0,0,1,1.2,3.3V78.68H206V66.1a4.52,4.52,0,0,1,1.21-3.3,4.35,4.35,0,0,1,3.28-1.24A4.48,4.48,0,0,1,213.81,62.8Z"/><path class="cls-1" d="M238.75,102.37a4.3,4.3,0,0,1-1.12-3.2v-33a3.9,3.9,0,0,1,4.3-4.3h20.91q4.37,0,4.37,3.54T262.84,69H246.6v9.74h15c2.92,0,4.38,1.21,4.38,3.61s-1.46,3.54-4.38,3.54h-15V96.35h16.24q4.37,0,4.37,3.59t-4.37,3.55H241.93A4.27,4.27,0,0,1,238.75,102.37Z"/><path class="cls-1" d="M303.63,102.54a4.41,4.41,0,0,1-1.27-3.31V69.35H292.8c-2.91,0-4.37-1.25-4.37-3.77s1.46-3.72,4.37-3.72h28.34c2.91,0,4.38,1.24,4.38,3.72s-1.47,3.77-4.38,3.77h-9.57V99.23a4.27,4.27,0,0,1-4.59,4.56A4.61,4.61,0,0,1,303.63,102.54Z"/><path class="cls-1" d="M381.89,99.77a3.59,3.59,0,0,1-1.34,2.81,4.47,4.47,0,0,1-3,1.15,4.17,4.17,0,0,1-2.13-.62,3.86,3.86,0,0,1-1.52-1.87l-3.14-7h-20l-3.14,7a3.94,3.94,0,0,1-1.5,1.87,4.06,4.06,0,0,1-2.16.62,4.62,4.62,0,0,1-3.07-1.15,3.55,3.55,0,0,1-1.36-2.81,4.74,4.74,0,0,1,.48-1.9L355.9,64.4a4.66,4.66,0,0,1,2-2.16,5.56,5.56,0,0,1,2.78-.74,5.43,5.43,0,0,1,2.82.77,5.29,5.29,0,0,1,2,2.13l16,33.47A4.74,4.74,0,0,1,381.89,99.77ZM353.83,87.3h13.76L360.75,72Z"/></svg>