<svg width="754" height="237" viewBox="0 0 754 237" fill="none" xmlns="http://www.w3.org/2000/svg">
<path d="M180.754 103.64C180.778 103.712 180.79 103.76 180.79 103.784C180.79 103.88 180.754 103.952 180.682 104C180.622 104.06 180.544 104.09 180.448 104.09C180.268 104.09 180.142 104.006 180.07 103.838L178.612 100.49H171.43L169.954 103.838C169.882 104.006 169.762 104.09 169.594 104.09C169.462 104.09 169.36 104.048 169.288 103.964C169.216 103.88 169.204 103.772 169.252 103.64L174.58 91.49C174.652 91.298 174.796 91.202 175.012 91.202C175.108 91.202 175.192 91.232 175.264 91.292C175.348 91.34 175.408 91.406 175.444 91.49L180.754 103.64ZM171.736 99.77H178.288L175.012 92.282L171.736 99.77ZM196.503 95.072C198.423 95.072 199.383 96.176 199.383 98.384V103.676C199.383 103.796 199.347 103.898 199.275 103.982C199.215 104.054 199.125 104.09 199.005 104.09C198.885 104.09 198.789 104.054 198.717 103.982C198.657 103.898 198.627 103.796 198.627 103.676V98.474C198.627 97.538 198.459 96.86 198.123 96.44C197.787 96.008 197.253 95.792 196.521 95.792C195.681 95.792 195.009 96.074 194.505 96.638C194.013 97.202 193.767 97.964 193.767 98.924V103.676C193.767 103.796 193.731 103.898 193.659 103.982C193.599 104.054 193.509 104.09 193.389 104.09C193.269 104.09 193.173 104.054 193.101 103.982C193.041 103.898 193.011 103.796 193.011 103.676V98.474C193.011 97.538 192.843 96.86 192.507 96.44C192.171 96.008 191.637 95.792 190.905 95.792C190.053 95.792 189.381 96.074 188.889 96.638C188.397 97.202 188.151 97.964 188.151 98.924V103.676C188.151 103.796 188.115 103.898 188.043 103.982C187.983 104.054 187.893 104.09 187.773 104.09C187.653 104.09 187.557 104.054 187.485 103.982C187.425 103.898 187.395 103.796 187.395 103.676V95.522C187.395 95.246 187.521 95.108 187.773 95.108C187.893 95.108 187.983 95.144 188.043 95.216C188.103 95.288 188.133 95.39 188.133 95.522V96.818C188.373 96.254 188.727 95.822 189.195 95.522C189.675 95.222 190.239 95.072 190.887 95.072C192.291 95.072 193.191 95.654 193.587 96.818C193.827 96.278 194.205 95.852 194.721 95.54C195.237 95.228 195.831 95.072 196.503 95.072ZM209.013 102.29C209.097 102.29 209.169 102.326 209.229 102.398C209.289 102.458 209.319 102.53 209.319 102.614C209.319 102.734 209.271 102.854 209.175 102.974C209.091 103.082 208.935 103.208 208.707 103.352C207.843 103.868 206.949 104.126 206.025 104.126C204.717 104.126 203.685 103.724 202.929 102.92C202.185 102.116 201.813 101.012 201.813 99.608C201.813 98.708 201.981 97.916 202.317 97.232C202.653 96.548 203.127 96.02 203.739 95.648C204.351 95.264 205.053 95.072 205.845 95.072C206.949 95.072 207.819 95.432 208.455 96.152C209.091 96.872 209.409 97.856 209.409 99.104C209.409 99.32 209.367 99.476 209.283 99.572C209.199 99.668 209.049 99.716 208.833 99.716H202.641C202.653 100.892 202.947 101.798 203.523 102.434C204.111 103.07 204.933 103.388 205.989 103.388C206.565 103.388 207.039 103.31 207.411 103.154C207.795 102.998 208.167 102.794 208.527 102.542C208.779 102.374 208.941 102.29 209.013 102.29ZM205.845 95.774C204.933 95.774 204.195 96.062 203.631 96.638C203.079 97.202 202.755 97.994 202.659 99.014H208.689C208.665 97.97 208.407 97.172 207.915 96.62C207.423 96.056 206.733 95.774 205.845 95.774ZM215.608 95.072C217.72 95.072 218.776 96.176 218.776 98.384V103.676C218.776 103.952 218.65 104.09 218.398 104.09C218.278 104.09 218.182 104.054 218.11 103.982C218.05 103.91 218.02 103.808 218.02 103.676V98.456C218.02 97.532 217.834 96.86 217.462 96.44C217.09 96.008 216.49 95.792 215.662 95.792C214.738 95.792 213.994 96.08 213.43 96.656C212.878 97.22 212.602 97.976 212.602 98.924V103.676C212.602 103.808 212.566 103.91 212.494 103.982C212.434 104.054 212.344 104.09 212.224 104.09C212.104 104.09 212.008 104.054 211.936 103.982C211.876 103.91 211.846 103.808 211.846 103.676V95.522C211.846 95.246 211.972 95.108 212.224 95.108C212.344 95.108 212.434 95.144 212.494 95.216C212.554 95.288 212.584 95.39 212.584 95.522V96.854C212.848 96.278 213.244 95.84 213.772 95.54C214.312 95.228 214.924 95.072 215.608 95.072ZM225.36 103.388C225.624 103.412 225.756 103.532 225.756 103.748C225.756 104.012 225.582 104.126 225.234 104.09L224.766 104.054C223.866 103.994 223.206 103.724 222.786 103.244C222.366 102.752 222.156 101.996 222.156 100.976V95.936H220.662C220.578 95.936 220.506 95.906 220.446 95.846C220.386 95.786 220.356 95.714 220.356 95.63C220.356 95.534 220.386 95.456 220.446 95.396C220.506 95.324 220.578 95.288 220.662 95.288H222.156V92.894C222.156 92.762 222.192 92.66 222.264 92.588C222.336 92.516 222.426 92.48 222.534 92.48C222.642 92.48 222.732 92.516 222.804 92.588C222.876 92.66 222.912 92.762 222.912 92.894V95.288H225.306C225.39 95.288 225.462 95.324 225.522 95.396C225.582 95.456 225.612 95.534 225.612 95.63C225.612 95.714 225.582 95.786 225.522 95.846C225.474 95.906 225.402 95.936 225.306 95.936H222.912V100.994C222.912 101.81 223.068 102.392 223.38 102.74C223.704 103.088 224.202 103.292 224.874 103.352L225.36 103.388ZM234.062 102.29C234.146 102.29 234.218 102.326 234.278 102.398C234.338 102.458 234.368 102.53 234.368 102.614C234.368 102.734 234.32 102.854 234.224 102.974C234.14 103.082 233.984 103.208 233.756 103.352C232.892 103.868 231.998 104.126 231.074 104.126C229.766 104.126 228.734 103.724 227.978 102.92C227.234 102.116 226.862 101.012 226.862 99.608C226.862 98.708 227.03 97.916 227.366 97.232C227.702 96.548 228.176 96.02 228.788 95.648C229.4 95.264 230.102 95.072 230.894 95.072C231.998 95.072 232.868 95.432 233.504 96.152C234.14 96.872 234.458 97.856 234.458 99.104C234.458 99.32 234.416 99.476 234.332 99.572C234.248 99.668 234.098 99.716 233.882 99.716H227.69C227.702 100.892 227.996 101.798 228.572 102.434C229.16 103.07 229.982 103.388 231.038 103.388C231.614 103.388 232.088 103.31 232.46 103.154C232.844 102.998 233.216 102.794 233.576 102.542C233.828 102.374 233.99 102.29 234.062 102.29ZM230.894 95.774C229.982 95.774 229.244 96.062 228.68 96.638C228.128 97.202 227.804 97.994 227.708 99.014H233.738C233.714 97.97 233.456 97.172 232.964 96.62C232.472 96.056 231.782 95.774 230.894 95.774ZM247.931 102.29C248.015 102.29 248.087 102.326 248.147 102.398C248.207 102.458 248.237 102.53 248.237 102.614C248.237 102.734 248.189 102.854 248.093 102.974C248.009 103.082 247.853 103.208 247.625 103.352C246.761 103.868 245.867 104.126 244.943 104.126C243.635 104.126 242.603 103.724 241.847 102.92C241.103 102.116 240.731 101.012 240.731 99.608C240.731 98.708 240.899 97.916 241.235 97.232C241.571 96.548 242.045 96.02 242.657 95.648C243.269 95.264 243.971 95.072 244.763 95.072C245.867 95.072 246.737 95.432 247.373 96.152C248.009 96.872 248.327 97.856 248.327 99.104C248.327 99.32 248.285 99.476 248.201 99.572C248.117 99.668 247.967 99.716 247.751 99.716H241.559C241.571 100.892 241.865 101.798 242.441 102.434C243.029 103.07 243.851 103.388 244.907 103.388C245.483 103.388 245.957 103.31 246.329 103.154C246.713 102.998 247.085 102.794 247.445 102.542C247.697 102.374 247.859 102.29 247.931 102.29ZM244.763 95.774C243.851 95.774 243.113 96.062 242.549 96.638C241.997 97.202 241.673 97.994 241.577 99.014H247.607C247.583 97.97 247.325 97.172 246.833 96.62C246.341 96.056 245.651 95.774 244.763 95.774ZM244.961 94.118C244.901 94.178 244.835 94.208 244.763 94.208C244.703 94.208 244.643 94.184 244.583 94.136C244.535 94.088 244.511 94.028 244.511 93.956C244.511 93.896 244.535 93.842 244.583 93.794L246.977 90.716C247.121 90.5 247.301 90.392 247.517 90.392C247.637 90.392 247.739 90.434 247.823 90.518C247.907 90.602 247.949 90.71 247.949 90.842C247.949 91.022 247.865 91.196 247.697 91.364L244.961 94.118ZM258.542 95.072C260.546 95.072 261.548 96.146 261.548 98.294V103.658C261.548 103.79 261.512 103.892 261.44 103.964C261.38 104.036 261.29 104.072 261.17 104.072C261.05 104.072 260.954 104.036 260.882 103.964C260.81 103.88 260.774 103.778 260.774 103.658V102.398C260.51 102.95 260.126 103.376 259.622 103.676C259.13 103.976 258.566 104.126 257.93 104.126C257.378 104.126 256.874 104.012 256.418 103.784C255.962 103.556 255.596 103.25 255.32 102.866C255.056 102.47 254.918 102.032 254.906 101.552C254.894 100.892 255.056 100.382 255.392 100.022C255.728 99.662 256.292 99.404 257.084 99.248C257.876 99.092 258.986 99.014 260.414 99.014H260.774V98.258C260.774 97.406 260.6 96.788 260.252 96.404C259.916 96.008 259.382 95.81 258.65 95.81C258.074 95.81 257.558 95.888 257.102 96.044C256.658 96.188 256.304 96.356 256.04 96.548C255.992 96.584 255.89 96.656 255.734 96.764C255.59 96.86 255.47 96.908 255.374 96.908C255.29 96.908 255.212 96.878 255.14 96.818C255.08 96.746 255.05 96.662 255.05 96.566C255.05 96.338 255.26 96.098 255.68 95.846C256.1 95.594 256.556 95.402 257.048 95.27C257.552 95.138 258.05 95.072 258.542 95.072ZM257.93 103.37C258.47 103.37 258.956 103.244 259.388 102.992C259.82 102.728 260.156 102.368 260.396 101.912C260.648 101.456 260.774 100.94 260.774 100.364V99.716H260.432C259.172 99.716 258.212 99.77 257.552 99.878C256.892 99.974 256.43 100.148 256.166 100.4C255.902 100.64 255.77 101 255.77 101.48C255.77 102.032 255.974 102.488 256.382 102.848C256.79 103.196 257.306 103.37 257.93 103.37ZM272.358 104.126C271.59 104.126 270.906 103.94 270.306 103.568C269.706 103.196 269.238 102.668 268.902 101.984C268.578 101.3 268.416 100.514 268.416 99.626C268.416 98.726 268.578 97.934 268.902 97.25C269.238 96.554 269.706 96.02 270.306 95.648C270.918 95.264 271.614 95.072 272.394 95.072C272.838 95.072 273.27 95.132 273.69 95.252C274.11 95.36 274.482 95.534 274.806 95.774C275.034 95.954 275.19 96.104 275.274 96.224C275.37 96.332 275.418 96.452 275.418 96.584C275.418 96.668 275.388 96.746 275.328 96.818C275.268 96.878 275.196 96.908 275.112 96.908C275.052 96.908 274.98 96.884 274.896 96.836C274.812 96.776 274.722 96.71 274.626 96.638C274.302 96.386 273.972 96.182 273.636 96.026C273.312 95.87 272.904 95.792 272.412 95.792C271.416 95.792 270.636 96.134 270.072 96.818C269.508 97.502 269.226 98.444 269.226 99.644C269.226 100.82 269.502 101.738 270.054 102.398C270.618 103.058 271.398 103.388 272.394 103.388C272.898 103.388 273.324 103.31 273.672 103.154C274.032 102.998 274.374 102.794 274.698 102.542C274.926 102.374 275.082 102.29 275.166 102.29C275.25 102.29 275.322 102.32 275.382 102.38C275.442 102.44 275.472 102.512 275.472 102.596C275.472 102.716 275.43 102.824 275.346 102.92C275.262 103.016 275.1 103.16 274.86 103.352C274.548 103.58 274.164 103.766 273.708 103.91C273.252 104.054 272.802 104.126 272.358 104.126ZM280.814 95.072C282.818 95.072 283.82 96.146 283.82 98.294V103.658C283.82 103.79 283.784 103.892 283.712 103.964C283.652 104.036 283.562 104.072 283.442 104.072C283.322 104.072 283.226 104.036 283.154 103.964C283.082 103.88 283.046 103.778 283.046 103.658V102.398C282.782 102.95 282.398 103.376 281.894 103.676C281.402 103.976 280.838 104.126 280.202 104.126C279.65 104.126 279.146 104.012 278.69 103.784C278.234 103.556 277.868 103.25 277.592 102.866C277.328 102.47 277.19 102.032 277.178 101.552C277.166 100.892 277.328 100.382 277.664 100.022C278 99.662 278.564 99.404 279.356 99.248C280.148 99.092 281.258 99.014 282.686 99.014H283.046V98.258C283.046 97.406 282.872 96.788 282.524 96.404C282.188 96.008 281.654 95.81 280.922 95.81C280.346 95.81 279.83 95.888 279.374 96.044C278.93 96.188 278.576 96.356 278.312 96.548C278.264 96.584 278.162 96.656 278.006 96.764C277.862 96.86 277.742 96.908 277.646 96.908C277.562 96.908 277.484 96.878 277.412 96.818C277.352 96.746 277.322 96.662 277.322 96.566C277.322 96.338 277.532 96.098 277.952 95.846C278.372 95.594 278.828 95.402 279.32 95.27C279.824 95.138 280.322 95.072 280.814 95.072ZM280.202 103.37C280.742 103.37 281.228 103.244 281.66 102.992C282.092 102.728 282.428 102.368 282.668 101.912C282.92 101.456 283.046 100.94 283.046 100.364V99.716H282.704C281.444 99.716 280.484 99.77 279.824 99.878C279.164 99.974 278.702 100.148 278.438 100.4C278.174 100.64 278.042 101 278.042 101.48C278.042 102.032 278.246 102.488 278.654 102.848C279.062 103.196 279.578 103.37 280.202 103.37ZM293.224 95.108C293.344 95.108 293.434 95.144 293.494 95.216C293.566 95.288 293.602 95.384 293.602 95.504V103.676C293.602 103.952 293.476 104.09 293.224 104.09C293.116 104.09 293.026 104.054 292.954 103.982C292.894 103.898 292.864 103.796 292.864 103.676V102.362C292.588 102.926 292.186 103.364 291.658 103.676C291.142 103.976 290.554 104.126 289.894 104.126C288.886 104.126 288.118 103.844 287.59 103.28C287.074 102.716 286.816 101.888 286.816 100.796V95.504C286.816 95.384 286.846 95.288 286.906 95.216C286.978 95.144 287.074 95.108 287.194 95.108C287.314 95.108 287.404 95.144 287.464 95.216C287.536 95.288 287.572 95.384 287.572 95.504V100.724C287.572 101.636 287.758 102.308 288.13 102.74C288.502 103.172 289.078 103.388 289.858 103.388C290.758 103.388 291.478 103.106 292.018 102.542C292.57 101.966 292.846 101.204 292.846 100.256V95.504C292.846 95.384 292.876 95.288 292.936 95.216C293.008 95.144 293.104 95.108 293.224 95.108ZM299.379 104.126C298.911 104.126 298.443 104.06 297.975 103.928C297.507 103.784 297.087 103.592 296.715 103.352C296.475 103.196 296.313 103.07 296.229 102.974C296.145 102.866 296.103 102.746 296.103 102.614C296.103 102.53 296.133 102.458 296.193 102.398C296.253 102.326 296.325 102.29 296.409 102.29C296.469 102.29 296.547 102.326 296.643 102.398C296.751 102.458 296.823 102.5 296.859 102.524C297.207 102.776 297.567 102.986 297.939 103.154C298.323 103.31 298.803 103.388 299.379 103.388C300.159 103.388 300.759 103.244 301.179 102.956C301.599 102.668 301.809 102.26 301.809 101.732C301.809 101.42 301.731 101.162 301.575 100.958C301.431 100.754 301.185 100.58 300.837 100.436C300.501 100.28 300.015 100.13 299.379 99.986C298.323 99.746 297.567 99.44 297.111 99.068C296.655 98.696 296.427 98.204 296.427 97.592C296.427 96.848 296.715 96.242 297.291 95.774C297.879 95.306 298.635 95.072 299.559 95.072C300.003 95.072 300.429 95.132 300.837 95.252C301.245 95.372 301.605 95.54 301.917 95.756C302.145 95.924 302.307 96.074 302.403 96.206C302.511 96.326 302.565 96.452 302.565 96.584C302.565 96.668 302.535 96.746 302.475 96.818C302.415 96.878 302.343 96.908 302.259 96.908C302.163 96.908 302.007 96.818 301.791 96.638C301.479 96.398 301.149 96.2 300.801 96.044C300.465 95.888 300.039 95.81 299.523 95.81C298.851 95.81 298.305 95.972 297.885 96.296C297.477 96.608 297.273 97.022 297.273 97.538C297.273 97.85 297.339 98.108 297.471 98.312C297.603 98.504 297.825 98.672 298.137 98.816C298.461 98.96 298.917 99.098 299.505 99.23C300.333 99.434 300.969 99.644 301.413 99.86C301.857 100.064 302.169 100.316 302.349 100.616C302.541 100.904 302.637 101.276 302.637 101.732C302.637 102.452 302.337 103.034 301.737 103.478C301.149 103.91 300.363 104.126 299.379 104.126ZM308.569 95.072C310.573 95.072 311.575 96.146 311.575 98.294V103.658C311.575 103.79 311.539 103.892 311.467 103.964C311.407 104.036 311.317 104.072 311.197 104.072C311.077 104.072 310.981 104.036 310.909 103.964C310.837 103.88 310.801 103.778 310.801 103.658V102.398C310.537 102.95 310.153 103.376 309.649 103.676C309.157 103.976 308.593 104.126 307.957 104.126C307.405 104.126 306.901 104.012 306.445 103.784C305.989 103.556 305.623 103.25 305.347 102.866C305.083 102.47 304.945 102.032 304.933 101.552C304.921 100.892 305.083 100.382 305.419 100.022C305.755 99.662 306.319 99.404 307.111 99.248C307.903 99.092 309.013 99.014 310.441 99.014H310.801V98.258C310.801 97.406 310.627 96.788 310.279 96.404C309.943 96.008 309.409 95.81 308.677 95.81C308.101 95.81 307.585 95.888 307.129 96.044C306.685 96.188 306.331 96.356 306.067 96.548C306.019 96.584 305.917 96.656 305.761 96.764C305.617 96.86 305.497 96.908 305.401 96.908C305.317 96.908 305.239 96.878 305.167 96.818C305.107 96.746 305.077 96.662 305.077 96.566C305.077 96.338 305.287 96.098 305.707 95.846C306.127 95.594 306.583 95.402 307.075 95.27C307.579 95.138 308.077 95.072 308.569 95.072ZM307.957 103.37C308.497 103.37 308.983 103.244 309.415 102.992C309.847 102.728 310.183 102.368 310.423 101.912C310.675 101.456 310.801 100.94 310.801 100.364V99.716H310.459C309.199 99.716 308.239 99.77 307.579 99.878C306.919 99.974 306.457 100.148 306.193 100.4C305.929 100.64 305.797 101 305.797 101.48C305.797 102.032 306.001 102.488 306.409 102.848C306.817 103.196 307.333 103.37 307.957 103.37ZM325.77 91.22C325.89 91.22 325.98 91.256 326.04 91.328C326.112 91.4 326.148 91.502 326.148 91.634V103.658C326.148 103.79 326.112 103.892 326.04 103.964C325.98 104.036 325.89 104.072 325.77 104.072C325.518 104.072 325.392 103.934 325.392 103.658V102.236C325.128 102.848 324.732 103.316 324.204 103.64C323.688 103.964 323.064 104.126 322.332 104.126C321.564 104.126 320.886 103.94 320.298 103.568C319.71 103.184 319.254 102.65 318.93 101.966C318.606 101.27 318.444 100.466 318.444 99.554C318.444 98.654 318.606 97.868 318.93 97.196C319.254 96.524 319.71 96.002 320.298 95.63C320.886 95.258 321.564 95.072 322.332 95.072C323.064 95.072 323.688 95.234 324.204 95.558C324.732 95.882 325.128 96.344 325.392 96.944V91.634C325.392 91.358 325.518 91.22 325.77 91.22ZM322.332 103.388C323.304 103.388 324.054 103.058 324.582 102.398C325.122 101.738 325.392 100.802 325.392 99.59C325.392 98.39 325.128 97.46 324.6 96.8C324.072 96.14 323.322 95.81 322.35 95.81C321.378 95.81 320.616 96.14 320.064 96.8C319.524 97.448 319.254 98.366 319.254 99.554C319.254 100.754 319.524 101.696 320.064 102.38C320.616 103.052 321.372 103.388 322.332 103.388ZM335.822 102.29C335.906 102.29 335.978 102.326 336.038 102.398C336.098 102.458 336.128 102.53 336.128 102.614C336.128 102.734 336.08 102.854 335.984 102.974C335.9 103.082 335.744 103.208 335.516 103.352C334.652 103.868 333.758 104.126 332.834 104.126C331.526 104.126 330.494 103.724 329.738 102.92C328.994 102.116 328.622 101.012 328.622 99.608C328.622 98.708 328.79 97.916 329.126 97.232C329.462 96.548 329.936 96.02 330.548 95.648C331.16 95.264 331.862 95.072 332.654 95.072C333.758 95.072 334.628 95.432 335.264 96.152C335.9 96.872 336.218 97.856 336.218 99.104C336.218 99.32 336.176 99.476 336.092 99.572C336.008 99.668 335.858 99.716 335.642 99.716H329.45C329.462 100.892 329.756 101.798 330.332 102.434C330.92 103.07 331.742 103.388 332.798 103.388C333.374 103.388 333.848 103.31 334.22 103.154C334.604 102.998 334.976 102.794 335.336 102.542C335.588 102.374 335.75 102.29 335.822 102.29ZM332.654 95.774C331.742 95.774 331.004 96.062 330.44 96.638C329.888 97.202 329.564 97.994 329.468 99.014H335.498C335.474 97.97 335.216 97.172 334.724 96.62C334.232 96.056 333.542 95.774 332.654 95.774ZM346.649 103.388C346.913 103.412 347.045 103.532 347.045 103.748C347.045 104.012 346.871 104.126 346.523 104.09L346.055 104.054C345.155 103.994 344.495 103.724 344.075 103.244C343.655 102.752 343.445 101.996 343.445 100.976V95.936H341.951C341.867 95.936 341.795 95.906 341.735 95.846C341.675 95.786 341.645 95.714 341.645 95.63C341.645 95.534 341.675 95.456 341.735 95.396C341.795 95.324 341.867 95.288 341.951 95.288H343.445V92.894C343.445 92.762 343.481 92.66 343.553 92.588C343.625 92.516 343.715 92.48 343.823 92.48C343.931 92.48 344.021 92.516 344.093 92.588C344.165 92.66 344.201 92.762 344.201 92.894V95.288H346.595C346.679 95.288 346.751 95.324 346.811 95.396C346.871 95.456 346.901 95.534 346.901 95.63C346.901 95.714 346.871 95.786 346.811 95.846C346.763 95.906 346.691 95.936 346.595 95.936H344.201V100.994C344.201 101.81 344.357 102.392 344.669 102.74C344.993 103.088 345.491 103.292 346.163 103.352L346.649 103.388ZM352.039 104.126C351.271 104.126 350.593 103.94 350.005 103.568C349.417 103.196 348.961 102.668 348.637 101.984C348.313 101.3 348.151 100.502 348.151 99.59C348.151 98.69 348.313 97.898 348.637 97.214C348.961 96.53 349.417 96.002 350.005 95.63C350.593 95.258 351.271 95.072 352.039 95.072C352.807 95.072 353.485 95.258 354.073 95.63C354.661 96.002 355.117 96.53 355.441 97.214C355.765 97.898 355.927 98.69 355.927 99.59C355.927 100.502 355.765 101.3 355.441 101.984C355.117 102.668 354.661 103.196 354.073 103.568C353.485 103.94 352.807 104.126 352.039 104.126ZM352.021 103.388C353.017 103.388 353.779 103.064 354.307 102.416C354.847 101.756 355.117 100.814 355.117 99.59C355.117 98.402 354.841 97.478 354.289 96.818C353.749 96.146 352.999 95.81 352.039 95.81C351.079 95.81 350.323 96.146 349.771 96.818C349.231 97.478 348.961 98.402 348.961 99.59C348.961 100.814 349.225 101.756 349.753 102.416C350.293 103.064 351.049 103.388 352.021 103.388ZM365.127 91.22C365.247 91.22 365.337 91.256 365.397 91.328C365.469 91.4 365.505 91.502 365.505 91.634V103.658C365.505 103.79 365.469 103.892 365.397 103.964C365.337 104.036 365.247 104.072 365.127 104.072C364.875 104.072 364.749 103.934 364.749 103.658V102.236C364.485 102.848 364.089 103.316 363.561 103.64C363.045 103.964 362.421 104.126 361.689 104.126C360.921 104.126 360.243 103.94 359.655 103.568C359.067 103.184 358.611 102.65 358.287 101.966C357.963 101.27 357.801 100.466 357.801 99.554C357.801 98.654 357.963 97.868 358.287 97.196C358.611 96.524 359.067 96.002 359.655 95.63C360.243 95.258 360.921 95.072 361.689 95.072C362.421 95.072 363.045 95.234 363.561 95.558C364.089 95.882 364.485 96.344 364.749 96.944V91.634C364.749 91.358 364.875 91.22 365.127 91.22ZM361.689 103.388C362.661 103.388 363.411 103.058 363.939 102.398C364.479 101.738 364.749 100.802 364.749 99.59C364.749 98.39 364.485 97.46 363.957 96.8C363.429 96.14 362.679 95.81 361.707 95.81C360.735 95.81 359.973 96.14 359.421 96.8C358.881 97.448 358.611 98.366 358.611 99.554C358.611 100.754 358.881 101.696 359.421 102.38C359.973 103.052 360.729 103.388 361.689 103.388ZM371.921 95.072C373.925 95.072 374.927 96.146 374.927 98.294V103.658C374.927 103.79 374.891 103.892 374.819 103.964C374.759 104.036 374.669 104.072 374.549 104.072C374.429 104.072 374.333 104.036 374.261 103.964C374.189 103.88 374.153 103.778 374.153 103.658V102.398C373.889 102.95 373.505 103.376 373.001 103.676C372.509 103.976 371.945 104.126 371.309 104.126C370.757 104.126 370.253 104.012 369.797 103.784C369.341 103.556 368.975 103.25 368.699 102.866C368.435 102.47 368.297 102.032 368.285 101.552C368.273 100.892 368.435 100.382 368.771 100.022C369.107 99.662 369.671 99.404 370.463 99.248C371.255 99.092 372.365 99.014 373.793 99.014H374.153V98.258C374.153 97.406 373.979 96.788 373.631 96.404C373.295 96.008 372.761 95.81 372.029 95.81C371.453 95.81 370.937 95.888 370.481 96.044C370.037 96.188 369.683 96.356 369.419 96.548C369.371 96.584 369.269 96.656 369.113 96.764C368.969 96.86 368.849 96.908 368.753 96.908C368.669 96.908 368.591 96.878 368.519 96.818C368.459 96.746 368.429 96.662 368.429 96.566C368.429 96.338 368.639 96.098 369.059 95.846C369.479 95.594 369.935 95.402 370.427 95.27C370.931 95.138 371.429 95.072 371.921 95.072ZM371.309 103.37C371.849 103.37 372.335 103.244 372.767 102.992C373.199 102.728 373.535 102.368 373.775 101.912C374.027 101.456 374.153 100.94 374.153 100.364V99.716H373.811C372.551 99.716 371.591 99.77 370.931 99.878C370.271 99.974 369.809 100.148 369.545 100.4C369.281 100.64 369.149 101 369.149 101.48C369.149 102.032 369.353 102.488 369.761 102.848C370.169 103.196 370.685 103.37 371.309 103.37ZM380.678 104.126C380.21 104.126 379.742 104.06 379.274 103.928C378.806 103.784 378.386 103.592 378.014 103.352C377.774 103.196 377.612 103.07 377.528 102.974C377.444 102.866 377.402 102.746 377.402 102.614C377.402 102.53 377.432 102.458 377.492 102.398C377.552 102.326 377.624 102.29 377.708 102.29C377.768 102.29 377.846 102.326 377.942 102.398C378.05 102.458 378.122 102.5 378.158 102.524C378.506 102.776 378.866 102.986 379.238 103.154C379.622 103.31 380.102 103.388 380.678 103.388C381.458 103.388 382.058 103.244 382.478 102.956C382.898 102.668 383.108 102.26 383.108 101.732C383.108 101.42 383.03 101.162 382.874 100.958C382.73 100.754 382.484 100.58 382.136 100.436C381.8 100.28 381.314 100.13 380.678 99.986C379.622 99.746 378.866 99.44 378.41 99.068C377.954 98.696 377.726 98.204 377.726 97.592C377.726 96.848 378.014 96.242 378.59 95.774C379.178 95.306 379.934 95.072 380.858 95.072C381.302 95.072 381.728 95.132 382.136 95.252C382.544 95.372 382.904 95.54 383.216 95.756C383.444 95.924 383.606 96.074 383.702 96.206C383.81 96.326 383.864 96.452 383.864 96.584C383.864 96.668 383.834 96.746 383.774 96.818C383.714 96.878 383.642 96.908 383.558 96.908C383.462 96.908 383.306 96.818 383.09 96.638C382.778 96.398 382.448 96.2 382.1 96.044C381.764 95.888 381.338 95.81 380.822 95.81C380.15 95.81 379.604 95.972 379.184 96.296C378.776 96.608 378.572 97.022 378.572 97.538C378.572 97.85 378.638 98.108 378.77 98.312C378.902 98.504 379.124 98.672 379.436 98.816C379.76 98.96 380.216 99.098 380.804 99.23C381.632 99.434 382.268 99.644 382.712 99.86C383.156 100.064 383.468 100.316 383.648 100.616C383.84 100.904 383.936 101.276 383.936 101.732C383.936 102.452 383.636 103.034 383.036 103.478C382.448 103.91 381.662 104.126 380.678 104.126ZM394.298 95.072C396.302 95.072 397.304 96.146 397.304 98.294V103.658C397.304 103.79 397.268 103.892 397.196 103.964C397.136 104.036 397.046 104.072 396.926 104.072C396.806 104.072 396.71 104.036 396.638 103.964C396.566 103.88 396.53 103.778 396.53 103.658V102.398C396.266 102.95 395.882 103.376 395.378 103.676C394.886 103.976 394.322 104.126 393.686 104.126C393.134 104.126 392.63 104.012 392.174 103.784C391.718 103.556 391.352 103.25 391.076 102.866C390.812 102.47 390.674 102.032 390.662 101.552C390.65 100.892 390.812 100.382 391.148 100.022C391.484 99.662 392.048 99.404 392.84 99.248C393.632 99.092 394.742 99.014 396.17 99.014H396.53V98.258C396.53 97.406 396.356 96.788 396.008 96.404C395.672 96.008 395.138 95.81 394.406 95.81C393.83 95.81 393.314 95.888 392.858 96.044C392.414 96.188 392.06 96.356 391.796 96.548C391.748 96.584 391.646 96.656 391.49 96.764C391.346 96.86 391.226 96.908 391.13 96.908C391.046 96.908 390.968 96.878 390.896 96.818C390.836 96.746 390.806 96.662 390.806 96.566C390.806 96.338 391.016 96.098 391.436 95.846C391.856 95.594 392.312 95.402 392.804 95.27C393.308 95.138 393.806 95.072 394.298 95.072ZM393.686 103.37C394.226 103.37 394.712 103.244 395.144 102.992C395.576 102.728 395.912 102.368 396.152 101.912C396.404 101.456 396.53 100.94 396.53 100.364V99.716H396.188C394.928 99.716 393.968 99.77 393.308 99.878C392.648 99.974 392.186 100.148 391.922 100.4C391.658 100.64 391.526 101 391.526 101.48C391.526 102.032 391.73 102.488 392.138 102.848C392.546 103.196 393.062 103.37 393.686 103.37ZM403.055 104.126C402.587 104.126 402.119 104.06 401.651 103.928C401.183 103.784 400.763 103.592 400.391 103.352C400.151 103.196 399.989 103.07 399.905 102.974C399.821 102.866 399.779 102.746 399.779 102.614C399.779 102.53 399.809 102.458 399.869 102.398C399.929 102.326 400.001 102.29 400.085 102.29C400.145 102.29 400.223 102.326 400.319 102.398C400.427 102.458 400.499 102.5 400.535 102.524C400.883 102.776 401.243 102.986 401.615 103.154C401.999 103.31 402.479 103.388 403.055 103.388C403.835 103.388 404.435 103.244 404.855 102.956C405.275 102.668 405.485 102.26 405.485 101.732C405.485 101.42 405.407 101.162 405.251 100.958C405.107 100.754 404.861 100.58 404.513 100.436C404.177 100.28 403.691 100.13 403.055 99.986C401.999 99.746 401.243 99.44 400.787 99.068C400.331 98.696 400.103 98.204 400.103 97.592C400.103 96.848 400.391 96.242 400.967 95.774C401.555 95.306 402.311 95.072 403.235 95.072C403.679 95.072 404.105 95.132 404.513 95.252C404.921 95.372 405.281 95.54 405.593 95.756C405.821 95.924 405.983 96.074 406.079 96.206C406.187 96.326 406.241 96.452 406.241 96.584C406.241 96.668 406.211 96.746 406.151 96.818C406.091 96.878 406.019 96.908 405.935 96.908C405.839 96.908 405.683 96.818 405.467 96.638C405.155 96.398 404.825 96.2 404.477 96.044C404.141 95.888 403.715 95.81 403.199 95.81C402.527 95.81 401.981 95.972 401.561 96.296C401.153 96.608 400.949 97.022 400.949 97.538C400.949 97.85 401.015 98.108 401.147 98.312C401.279 98.504 401.501 98.672 401.813 98.816C402.137 98.96 402.593 99.098 403.181 99.23C404.009 99.434 404.645 99.644 405.089 99.86C405.533 100.064 405.845 100.316 406.025 100.616C406.217 100.904 406.313 101.276 406.313 101.732C406.313 102.452 406.013 103.034 405.413 103.478C404.825 103.91 404.039 104.126 403.055 104.126ZM420.059 91.22C420.179 91.22 420.269 91.256 420.329 91.328C420.401 91.4 420.437 91.502 420.437 91.634V103.658C420.437 103.79 420.401 103.892 420.329 103.964C420.269 104.036 420.179 104.072 420.059 104.072C419.807 104.072 419.681 103.934 419.681 103.658V102.236C419.417 102.848 419.021 103.316 418.493 103.64C417.977 103.964 417.353 104.126 416.621 104.126C415.853 104.126 415.175 103.94 414.587 103.568C413.999 103.184 413.543 102.65 413.219 101.966C412.895 101.27 412.733 100.466 412.733 99.554C412.733 98.654 412.895 97.868 413.219 97.196C413.543 96.524 413.999 96.002 414.587 95.63C415.175 95.258 415.853 95.072 416.621 95.072C417.353 95.072 417.977 95.234 418.493 95.558C419.021 95.882 419.417 96.344 419.681 96.944V91.634C419.681 91.358 419.807 91.22 420.059 91.22ZM416.621 103.388C417.593 103.388 418.343 103.058 418.871 102.398C419.411 101.738 419.681 100.802 419.681 99.59C419.681 98.39 419.417 97.46 418.889 96.8C418.361 96.14 417.611 95.81 416.639 95.81C415.667 95.81 414.905 96.14 414.353 96.8C413.813 97.448 413.543 98.366 413.543 99.554C413.543 100.754 413.813 101.696 414.353 102.38C414.905 103.052 415.661 103.388 416.621 103.388ZM426.799 104.126C426.031 104.126 425.353 103.94 424.765 103.568C424.177 103.196 423.721 102.668 423.397 101.984C423.073 101.3 422.911 100.502 422.911 99.59C422.911 98.69 423.073 97.898 423.397 97.214C423.721 96.53 424.177 96.002 424.765 95.63C425.353 95.258 426.031 95.072 426.799 95.072C427.567 95.072 428.245 95.258 428.833 95.63C429.421 96.002 429.877 96.53 430.201 97.214C430.525 97.898 430.687 98.69 430.687 99.59C430.687 100.502 430.525 101.3 430.201 101.984C429.877 102.668 429.421 103.196 428.833 103.568C428.245 103.94 427.567 104.126 426.799 104.126ZM426.781 103.388C427.777 103.388 428.539 103.064 429.067 102.416C429.607 101.756 429.877 100.814 429.877 99.59C429.877 98.402 429.601 97.478 429.049 96.818C428.509 96.146 427.759 95.81 426.799 95.81C425.839 95.81 425.083 96.146 424.531 96.818C423.991 97.478 423.721 98.402 423.721 99.59C423.721 100.814 423.985 101.756 424.513 102.416C425.053 103.064 425.809 103.388 426.781 103.388ZM439.761 102.29C439.845 102.29 439.917 102.326 439.977 102.398C440.037 102.458 440.067 102.53 440.067 102.614C440.067 102.734 440.019 102.854 439.923 102.974C439.839 103.082 439.683 103.208 439.455 103.352C438.591 103.868 437.697 104.126 436.773 104.126C435.465 104.126 434.433 103.724 433.677 102.92C432.933 102.116 432.561 101.012 432.561 99.608C432.561 98.708 432.729 97.916 433.065 97.232C433.401 96.548 433.875 96.02 434.487 95.648C435.099 95.264 435.801 95.072 436.593 95.072C437.697 95.072 438.567 95.432 439.203 96.152C439.839 96.872 440.157 97.856 440.157 99.104C440.157 99.32 440.115 99.476 440.031 99.572C439.947 99.668 439.797 99.716 439.581 99.716H433.389C433.401 100.892 433.695 101.798 434.271 102.434C434.859 103.07 435.681 103.388 436.737 103.388C437.313 103.388 437.787 103.31 438.159 103.154C438.543 102.998 438.915 102.794 439.275 102.542C439.527 102.374 439.689 102.29 439.761 102.29ZM436.593 95.774C435.681 95.774 434.943 96.062 434.379 96.638C433.827 97.202 433.503 97.994 433.407 99.014H439.437C439.413 97.97 439.155 97.172 438.663 96.62C438.171 96.056 437.481 95.774 436.593 95.774ZM446.356 95.072C448.468 95.072 449.524 96.176 449.524 98.384V103.676C449.524 103.952 449.398 104.09 449.146 104.09C449.026 104.09 448.93 104.054 448.858 103.982C448.798 103.91 448.768 103.808 448.768 103.676V98.456C448.768 97.532 448.582 96.86 448.21 96.44C447.838 96.008 447.238 95.792 446.41 95.792C445.486 95.792 444.742 96.08 444.178 96.656C443.626 97.22 443.35 97.976 443.35 98.924V103.676C443.35 103.808 443.314 103.91 443.242 103.982C443.182 104.054 443.092 104.09 442.972 104.09C442.852 104.09 442.756 104.054 442.684 103.982C442.624 103.91 442.594 103.808 442.594 103.676V95.522C442.594 95.246 442.72 95.108 442.972 95.108C443.092 95.108 443.182 95.144 443.242 95.216C443.302 95.288 443.332 95.39 443.332 95.522V96.854C443.596 96.278 443.992 95.84 444.52 95.54C445.06 95.228 445.672 95.072 446.356 95.072ZM458.7 102.29C458.784 102.29 458.856 102.32 458.916 102.38C458.976 102.44 459.006 102.512 459.006 102.596C459.006 102.716 458.964 102.824 458.88 102.92C458.796 103.016 458.634 103.16 458.394 103.352C458.106 103.568 457.758 103.748 457.35 103.892C456.942 104.024 456.528 104.102 456.108 104.126L456.036 104.828C456.192 104.768 456.366 104.738 456.558 104.738C456.918 104.738 457.23 104.84 457.494 105.044C457.758 105.248 457.89 105.56 457.89 105.98C457.89 106.4 457.716 106.742 457.368 107.006C457.02 107.282 456.54 107.42 455.928 107.42C455.484 107.42 455.088 107.348 454.74 107.204C454.644 107.168 454.572 107.114 454.524 107.042C454.476 106.982 454.452 106.916 454.452 106.844C454.452 106.76 454.482 106.688 454.542 106.628C454.614 106.58 454.704 106.556 454.812 106.556C454.884 106.556 454.944 106.562 454.992 106.574C455.34 106.67 455.676 106.718 456 106.718C456.384 106.718 456.666 106.652 456.846 106.52C457.038 106.388 457.134 106.208 457.134 105.98C457.134 105.812 457.08 105.674 456.972 105.566C456.864 105.47 456.714 105.422 456.522 105.422C456.366 105.422 456.18 105.452 455.964 105.512C455.76 105.584 455.628 105.62 455.568 105.62C455.484 105.62 455.4 105.59 455.316 105.53C455.244 105.47 455.214 105.392 455.226 105.296L455.352 104.09C454.332 103.958 453.51 103.49 452.886 102.686C452.262 101.882 451.95 100.862 451.95 99.626C451.95 98.726 452.112 97.934 452.436 97.25C452.772 96.554 453.24 96.02 453.84 95.648C454.452 95.264 455.148 95.072 455.928 95.072C456.372 95.072 456.804 95.132 457.224 95.252C457.644 95.36 458.016 95.534 458.34 95.774C458.568 95.954 458.724 96.104 458.808 96.224C458.904 96.332 458.952 96.452 458.952 96.584C458.952 96.668 458.922 96.746 458.862 96.818C458.802 96.878 458.73 96.908 458.646 96.908C458.586 96.908 458.514 96.884 458.43 96.836C458.346 96.776 458.256 96.71 458.16 96.638C457.836 96.386 457.506 96.182 457.17 96.026C456.846 95.87 456.438 95.792 455.946 95.792C454.95 95.792 454.17 96.134 453.606 96.818C453.042 97.502 452.76 98.444 452.76 99.644C452.76 100.82 453.036 101.738 453.588 102.398C454.152 103.058 454.932 103.388 455.928 103.388C456.432 103.388 456.858 103.31 457.206 103.154C457.566 102.998 457.908 102.794 458.232 102.542C458.46 102.374 458.616 102.29 458.7 102.29ZM464.347 95.072C466.351 95.072 467.353 96.146 467.353 98.294V103.658C467.353 103.79 467.317 103.892 467.245 103.964C467.185 104.036 467.095 104.072 466.975 104.072C466.855 104.072 466.759 104.036 466.687 103.964C466.615 103.88 466.579 103.778 466.579 103.658V102.398C466.315 102.95 465.931 103.376 465.427 103.676C464.935 103.976 464.371 104.126 463.735 104.126C463.183 104.126 462.679 104.012 462.223 103.784C461.767 103.556 461.401 103.25 461.125 102.866C460.861 102.47 460.723 102.032 460.711 101.552C460.699 100.892 460.861 100.382 461.197 100.022C461.533 99.662 462.097 99.404 462.889 99.248C463.681 99.092 464.791 99.014 466.219 99.014H466.579V98.258C466.579 97.406 466.405 96.788 466.057 96.404C465.721 96.008 465.187 95.81 464.455 95.81C463.879 95.81 463.363 95.888 462.907 96.044C462.463 96.188 462.109 96.356 461.845 96.548C461.797 96.584 461.695 96.656 461.539 96.764C461.395 96.86 461.275 96.908 461.179 96.908C461.095 96.908 461.017 96.878 460.945 96.818C460.885 96.746 460.855 96.662 460.855 96.566C460.855 96.338 461.065 96.098 461.485 95.846C461.905 95.594 462.361 95.402 462.853 95.27C463.357 95.138 463.855 95.072 464.347 95.072ZM463.735 103.37C464.275 103.37 464.761 103.244 465.193 102.992C465.625 102.728 465.961 102.368 466.201 101.912C466.453 101.456 466.579 100.94 466.579 100.364V99.716H466.237C464.977 99.716 464.017 99.77 463.357 99.878C462.697 99.974 462.235 100.148 461.971 100.4C461.707 100.64 461.575 101 461.575 101.48C461.575 102.032 461.779 102.488 462.187 102.848C462.595 103.196 463.111 103.37 463.735 103.37ZM473.103 104.126C472.635 104.126 472.167 104.06 471.699 103.928C471.231 103.784 470.811 103.592 470.439 103.352C470.199 103.196 470.037 103.07 469.953 102.974C469.869 102.866 469.827 102.746 469.827 102.614C469.827 102.53 469.857 102.458 469.917 102.398C469.977 102.326 470.049 102.29 470.133 102.29C470.193 102.29 470.271 102.326 470.367 102.398C470.475 102.458 470.547 102.5 470.583 102.524C470.931 102.776 471.291 102.986 471.663 103.154C472.047 103.31 472.527 103.388 473.103 103.388C473.883 103.388 474.483 103.244 474.903 102.956C475.323 102.668 475.533 102.26 475.533 101.732C475.533 101.42 475.455 101.162 475.299 100.958C475.155 100.754 474.909 100.58 474.561 100.436C474.225 100.28 473.739 100.13 473.103 99.986C472.047 99.746 471.291 99.44 470.835 99.068C470.379 98.696 470.151 98.204 470.151 97.592C470.151 96.848 470.439 96.242 471.015 95.774C471.603 95.306 472.359 95.072 473.283 95.072C473.727 95.072 474.153 95.132 474.561 95.252C474.969 95.372 475.329 95.54 475.641 95.756C475.869 95.924 476.031 96.074 476.127 96.206C476.235 96.326 476.289 96.452 476.289 96.584C476.289 96.668 476.259 96.746 476.199 96.818C476.139 96.878 476.067 96.908 475.983 96.908C475.887 96.908 475.731 96.818 475.515 96.638C475.203 96.398 474.873 96.2 474.525 96.044C474.189 95.888 473.763 95.81 473.247 95.81C472.575 95.81 472.029 95.972 471.609 96.296C471.201 96.608 470.997 97.022 470.997 97.538C470.997 97.85 471.063 98.108 471.195 98.312C471.327 98.504 471.549 98.672 471.861 98.816C472.185 98.96 472.641 99.098 473.229 99.23C474.057 99.434 474.693 99.644 475.137 99.86C475.581 100.064 475.893 100.316 476.073 100.616C476.265 100.904 476.361 101.276 476.361 101.732C476.361 102.452 476.061 103.034 475.461 103.478C474.873 103.91 474.087 104.126 473.103 104.126ZM489.982 102.29C490.066 102.29 490.138 102.326 490.198 102.398C490.258 102.458 490.288 102.53 490.288 102.614C490.288 102.734 490.24 102.854 490.144 102.974C490.06 103.082 489.904 103.208 489.676 103.352C488.812 103.868 487.918 104.126 486.994 104.126C485.686 104.126 484.654 103.724 483.898 102.92C483.154 102.116 482.782 101.012 482.782 99.608C482.782 98.708 482.95 97.916 483.286 97.232C483.622 96.548 484.096 96.02 484.708 95.648C485.32 95.264 486.022 95.072 486.814 95.072C487.918 95.072 488.788 95.432 489.424 96.152C490.06 96.872 490.378 97.856 490.378 99.104C490.378 99.32 490.336 99.476 490.252 99.572C490.168 99.668 490.018 99.716 489.802 99.716H483.61C483.622 100.892 483.916 101.798 484.492 102.434C485.08 103.07 485.902 103.388 486.958 103.388C487.534 103.388 488.008 103.31 488.38 103.154C488.764 102.998 489.136 102.794 489.496 102.542C489.748 102.374 489.91 102.29 489.982 102.29ZM486.814 95.774C485.902 95.774 485.164 96.062 484.6 96.638C484.048 97.202 483.724 97.994 483.628 99.014H489.658C489.634 97.97 489.376 97.172 488.884 96.62C488.392 96.056 487.702 95.774 486.814 95.774ZM500.539 104.126C499.771 104.126 499.093 103.94 498.505 103.568C497.917 103.196 497.461 102.668 497.137 101.984C496.813 101.3 496.651 100.502 496.651 99.59C496.651 98.69 496.813 97.898 497.137 97.214C497.461 96.53 497.917 96.002 498.505 95.63C499.093 95.258 499.771 95.072 500.539 95.072C501.307 95.072 501.985 95.258 502.573 95.63C503.161 96.002 503.617 96.53 503.941 97.214C504.265 97.898 504.427 98.69 504.427 99.59C504.427 100.502 504.265 101.3 503.941 101.984C503.617 102.668 503.161 103.196 502.573 103.568C501.985 103.94 501.307 104.126 500.539 104.126ZM500.521 103.388C501.517 103.388 502.279 103.064 502.807 102.416C503.347 101.756 503.617 100.814 503.617 99.59C503.617 98.402 503.341 97.478 502.789 96.818C502.249 96.146 501.499 95.81 500.539 95.81C499.579 95.81 498.823 96.146 498.271 96.818C497.731 97.478 497.461 98.402 497.461 99.59C497.461 100.814 497.725 101.756 498.253 102.416C498.793 103.064 499.549 103.388 500.521 103.388ZM514.673 104.126C513.905 104.126 513.221 103.94 512.621 103.568C512.021 103.196 511.553 102.668 511.217 101.984C510.893 101.3 510.731 100.514 510.731 99.626C510.731 98.726 510.893 97.934 511.217 97.25C511.553 96.554 512.021 96.02 512.621 95.648C513.233 95.264 513.929 95.072 514.709 95.072C515.153 95.072 515.585 95.132 516.005 95.252C516.425 95.36 516.797 95.534 517.121 95.774C517.349 95.954 517.505 96.104 517.589 96.224C517.685 96.332 517.733 96.452 517.733 96.584C517.733 96.668 517.703 96.746 517.643 96.818C517.583 96.878 517.511 96.908 517.427 96.908C517.367 96.908 517.295 96.884 517.211 96.836C517.127 96.776 517.037 96.71 516.941 96.638C516.617 96.386 516.287 96.182 515.951 96.026C515.627 95.87 515.219 95.792 514.727 95.792C513.731 95.792 512.951 96.134 512.387 96.818C511.823 97.502 511.541 98.444 511.541 99.644C511.541 100.82 511.817 101.738 512.369 102.398C512.933 103.058 513.713 103.388 514.709 103.388C515.213 103.388 515.639 103.31 515.987 103.154C516.347 102.998 516.689 102.794 517.013 102.542C517.241 102.374 517.397 102.29 517.481 102.29C517.565 102.29 517.637 102.32 517.697 102.38C517.757 102.44 517.787 102.512 517.787 102.596C517.787 102.716 517.745 102.824 517.661 102.92C517.577 103.016 517.415 103.16 517.175 103.352C516.863 103.58 516.479 103.766 516.023 103.91C515.567 104.054 515.117 104.126 514.673 104.126ZM523.074 104.126C522.306 104.126 521.628 103.94 521.04 103.568C520.452 103.196 519.996 102.668 519.672 101.984C519.348 101.3 519.186 100.502 519.186 99.59C519.186 98.69 519.348 97.898 519.672 97.214C519.996 96.53 520.452 96.002 521.04 95.63C521.628 95.258 522.306 95.072 523.074 95.072C523.842 95.072 524.52 95.258 525.108 95.63C525.696 96.002 526.152 96.53 526.476 97.214C526.8 97.898 526.962 98.69 526.962 99.59C526.962 100.502 526.8 101.3 526.476 101.984C526.152 102.668 525.696 103.196 525.108 103.568C524.52 103.94 523.842 104.126 523.074 104.126ZM523.056 103.388C524.052 103.388 524.814 103.064 525.342 102.416C525.882 101.756 526.152 100.814 526.152 99.59C526.152 98.402 525.876 97.478 525.324 96.818C524.784 96.146 524.034 95.81 523.074 95.81C522.114 95.81 521.358 96.146 520.806 96.818C520.266 97.478 519.996 98.402 519.996 99.59C519.996 100.814 520.26 101.756 520.788 102.416C521.328 103.064 522.084 103.388 523.056 103.388ZM533.372 95.108C533.516 95.108 533.612 95.138 533.66 95.198C533.72 95.246 533.75 95.324 533.75 95.432C533.75 95.636 533.624 95.756 533.372 95.792L532.832 95.846C531.956 95.93 531.296 96.254 530.852 96.818C530.408 97.382 530.186 98.03 530.186 98.762V103.676C530.186 103.808 530.15 103.91 530.078 103.982C530.018 104.054 529.928 104.09 529.808 104.09C529.688 104.09 529.592 104.054 529.52 103.982C529.46 103.91 529.43 103.808 529.43 103.676V95.522C529.43 95.246 529.556 95.108 529.808 95.108C529.916 95.108 530.006 95.144 530.078 95.216C530.15 95.288 530.186 95.39 530.186 95.522V96.818C530.702 95.786 531.638 95.222 532.994 95.126L533.246 95.108H533.372ZM538.544 95.072C540.548 95.072 541.55 96.146 541.55 98.294V103.658C541.55 103.79 541.514 103.892 541.442 103.964C541.382 104.036 541.292 104.072 541.172 104.072C541.052 104.072 540.956 104.036 540.884 103.964C540.812 103.88 540.776 103.778 540.776 103.658V102.398C540.512 102.95 540.128 103.376 539.624 103.676C539.132 103.976 538.568 104.126 537.932 104.126C537.38 104.126 536.876 104.012 536.42 103.784C535.964 103.556 535.598 103.25 535.322 102.866C535.058 102.47 534.92 102.032 534.908 101.552C534.896 100.892 535.058 100.382 535.394 100.022C535.73 99.662 536.294 99.404 537.086 99.248C537.878 99.092 538.988 99.014 540.416 99.014H540.776V98.258C540.776 97.406 540.602 96.788 540.254 96.404C539.918 96.008 539.384 95.81 538.652 95.81C538.076 95.81 537.56 95.888 537.104 96.044C536.66 96.188 536.306 96.356 536.042 96.548C535.994 96.584 535.892 96.656 535.736 96.764C535.592 96.86 535.472 96.908 535.376 96.908C535.292 96.908 535.214 96.878 535.142 96.818C535.082 96.746 535.052 96.662 535.052 96.566C535.052 96.338 535.262 96.098 535.682 95.846C536.102 95.594 536.558 95.402 537.05 95.27C537.554 95.138 538.052 95.072 538.544 95.072ZM537.932 103.37C538.472 103.37 538.958 103.244 539.39 102.992C539.822 102.728 540.158 102.368 540.398 101.912C540.65 101.456 540.776 100.94 540.776 100.364V99.716H540.434C539.174 99.716 538.214 99.77 537.554 99.878C536.894 99.974 536.432 100.148 536.168 100.4C535.904 100.64 535.772 101 535.772 101.48C535.772 102.032 535.976 102.488 536.384 102.848C536.792 103.196 537.308 103.37 537.932 103.37ZM550.739 102.29C550.823 102.29 550.895 102.32 550.955 102.38C551.015 102.44 551.045 102.512 551.045 102.596C551.045 102.716 551.003 102.824 550.919 102.92C550.835 103.016 550.673 103.16 550.433 103.352C550.145 103.568 549.797 103.748 549.389 103.892C548.981 104.024 548.567 104.102 548.147 104.126L548.075 104.828C548.231 104.768 548.405 104.738 548.597 104.738C548.957 104.738 549.269 104.84 549.533 105.044C549.797 105.248 549.929 105.56 549.929 105.98C549.929 106.4 549.755 106.742 549.407 107.006C549.059 107.282 548.579 107.42 547.967 107.42C547.523 107.42 547.127 107.348 546.779 107.204C546.683 107.168 546.611 107.114 546.563 107.042C546.515 106.982 546.491 106.916 546.491 106.844C546.491 106.76 546.521 106.688 546.581 106.628C546.653 106.58 546.743 106.556 546.851 106.556C546.923 106.556 546.983 106.562 547.031 106.574C547.379 106.67 547.715 106.718 548.039 106.718C548.423 106.718 548.705 106.652 548.885 106.52C549.077 106.388 549.173 106.208 549.173 105.98C549.173 105.812 549.119 105.674 549.011 105.566C548.903 105.47 548.753 105.422 548.561 105.422C548.405 105.422 548.219 105.452 548.003 105.512C547.799 105.584 547.667 105.62 547.607 105.62C547.523 105.62 547.439 105.59 547.355 105.53C547.283 105.47 547.253 105.392 547.265 105.296L547.391 104.09C546.371 103.958 545.549 103.49 544.925 102.686C544.301 101.882 543.989 100.862 543.989 99.626C543.989 98.726 544.151 97.934 544.475 97.25C544.811 96.554 545.279 96.02 545.879 95.648C546.491 95.264 547.187 95.072 547.967 95.072C548.411 95.072 548.843 95.132 549.263 95.252C549.683 95.36 550.055 95.534 550.379 95.774C550.607 95.954 550.763 96.104 550.847 96.224C550.943 96.332 550.991 96.452 550.991 96.584C550.991 96.668 550.961 96.746 550.901 96.818C550.841 96.878 550.769 96.908 550.685 96.908C550.625 96.908 550.553 96.884 550.469 96.836C550.385 96.776 550.295 96.71 550.199 96.638C549.875 96.386 549.545 96.182 549.209 96.026C548.885 95.87 548.477 95.792 547.985 95.792C546.989 95.792 546.209 96.134 545.645 96.818C545.081 97.502 544.799 98.444 544.799 99.644C544.799 100.82 545.075 101.738 545.627 102.398C546.191 103.058 546.971 103.388 547.967 103.388C548.471 103.388 548.897 103.31 549.245 103.154C549.605 102.998 549.947 102.794 550.271 102.542C550.499 102.374 550.655 102.29 550.739 102.29ZM556.386 95.072C558.39 95.072 559.392 96.146 559.392 98.294V103.658C559.392 103.79 559.356 103.892 559.284 103.964C559.224 104.036 559.134 104.072 559.014 104.072C558.894 104.072 558.798 104.036 558.726 103.964C558.654 103.88 558.618 103.778 558.618 103.658V102.398C558.354 102.95 557.97 103.376 557.466 103.676C556.974 103.976 556.41 104.126 555.774 104.126C555.222 104.126 554.718 104.012 554.262 103.784C553.806 103.556 553.44 103.25 553.164 102.866C552.9 102.47 552.762 102.032 552.75 101.552C552.738 100.892 552.9 100.382 553.236 100.022C553.572 99.662 554.136 99.404 554.928 99.248C555.72 99.092 556.83 99.014 558.258 99.014H558.618V98.258C558.618 97.406 558.444 96.788 558.096 96.404C557.76 96.008 557.226 95.81 556.494 95.81C555.918 95.81 555.402 95.888 554.946 96.044C554.502 96.188 554.148 96.356 553.884 96.548C553.836 96.584 553.734 96.656 553.578 96.764C553.434 96.86 553.314 96.908 553.218 96.908C553.134 96.908 553.056 96.878 552.984 96.818C552.924 96.746 552.894 96.662 552.894 96.566C552.894 96.338 553.104 96.098 553.524 95.846C553.944 95.594 554.4 95.402 554.892 95.27C555.396 95.138 555.894 95.072 556.386 95.072ZM555.774 103.37C556.314 103.37 556.8 103.244 557.232 102.992C557.664 102.728 558 102.368 558.24 101.912C558.492 101.456 558.618 100.94 558.618 100.364V99.716H558.276C557.016 99.716 556.056 99.77 555.396 99.878C554.736 99.974 554.274 100.148 554.01 100.4C553.746 100.64 553.614 101 553.614 101.48C553.614 102.032 553.818 102.488 554.226 102.848C554.634 103.196 555.15 103.37 555.774 103.37ZM557.61 93.272C557.394 93.272 557.178 93.218 556.962 93.11C556.746 92.99 556.488 92.822 556.188 92.606C555.924 92.426 555.714 92.294 555.558 92.21C555.402 92.126 555.258 92.084 555.126 92.084C554.91 92.084 554.742 92.15 554.622 92.282C554.502 92.402 554.394 92.57 554.298 92.786C554.25 92.882 554.196 92.966 554.136 93.038C554.088 93.11 554.034 93.146 553.974 93.146C553.89 93.146 553.818 93.116 553.758 93.056C553.698 92.984 553.668 92.906 553.668 92.822C553.668 92.63 553.728 92.414 553.848 92.174C553.98 91.934 554.154 91.73 554.37 91.562C554.598 91.382 554.862 91.292 555.162 91.292C555.378 91.292 555.594 91.352 555.81 91.472C556.026 91.58 556.284 91.742 556.584 91.958C556.848 92.138 557.058 92.27 557.214 92.354C557.37 92.438 557.514 92.48 557.646 92.48C557.862 92.48 558.03 92.42 558.15 92.3C558.27 92.168 558.378 91.994 558.474 91.778C558.522 91.682 558.57 91.598 558.618 91.526C558.678 91.454 558.738 91.418 558.798 91.418C558.882 91.418 558.954 91.454 559.014 91.526C559.074 91.586 559.104 91.658 559.104 91.742C559.104 91.934 559.038 92.15 558.906 92.39C558.786 92.63 558.612 92.84 558.384 93.02C558.168 93.188 557.91 93.272 557.61 93.272ZM565.719 104.126C564.951 104.126 564.273 103.94 563.685 103.568C563.097 103.196 562.641 102.668 562.317 101.984C561.993 101.3 561.831 100.502 561.831 99.59C561.831 98.69 561.993 97.898 562.317 97.214C562.641 96.53 563.097 96.002 563.685 95.63C564.273 95.258 564.951 95.072 565.719 95.072C566.487 95.072 567.165 95.258 567.753 95.63C568.341 96.002 568.797 96.53 569.121 97.214C569.445 97.898 569.607 98.69 569.607 99.59C569.607 100.502 569.445 101.3 569.121 101.984C568.797 102.668 568.341 103.196 567.753 103.568C567.165 103.94 566.487 104.126 565.719 104.126ZM565.701 103.388C566.697 103.388 567.459 103.064 567.987 102.416C568.527 101.756 568.797 100.814 568.797 99.59C568.797 98.402 568.521 97.478 567.969 96.818C567.429 96.146 566.679 95.81 565.719 95.81C564.759 95.81 564.003 96.146 563.451 96.818C562.911 97.478 562.641 98.402 562.641 99.59C562.641 100.814 562.905 101.756 563.433 102.416C563.973 103.064 564.729 103.388 565.701 103.388ZM583.111 102.29C583.195 102.29 583.267 102.326 583.327 102.398C583.387 102.458 583.417 102.53 583.417 102.614C583.417 102.734 583.369 102.854 583.273 102.974C583.189 103.082 583.033 103.208 582.805 103.352C581.941 103.868 581.047 104.126 580.123 104.126C578.815 104.126 577.783 103.724 577.027 102.92C576.283 102.116 575.911 101.012 575.911 99.608C575.911 98.708 576.079 97.916 576.415 97.232C576.751 96.548 577.225 96.02 577.837 95.648C578.449 95.264 579.151 95.072 579.943 95.072C581.047 95.072 581.917 95.432 582.553 96.152C583.189 96.872 583.507 97.856 583.507 99.104C583.507 99.32 583.465 99.476 583.381 99.572C583.297 99.668 583.147 99.716 582.931 99.716H576.739C576.751 100.892 577.045 101.798 577.621 102.434C578.209 103.07 579.031 103.388 580.087 103.388C580.663 103.388 581.137 103.31 581.509 103.154C581.893 102.998 582.265 102.794 582.625 102.542C582.877 102.374 583.039 102.29 583.111 102.29ZM579.943 95.774C579.031 95.774 578.293 96.062 577.729 96.638C577.177 97.202 576.853 97.994 576.757 99.014H582.787C582.763 97.97 582.505 97.172 582.013 96.62C581.521 96.056 580.831 95.774 579.943 95.774ZM580.141 94.118C580.081 94.178 580.015 94.208 579.943 94.208C579.883 94.208 579.823 94.184 579.763 94.136C579.715 94.088 579.691 94.028 579.691 93.956C579.691 93.896 579.715 93.842 579.763 93.794L582.157 90.716C582.301 90.5 582.481 90.392 582.697 90.392C582.817 90.392 582.919 90.434 583.003 90.518C583.087 90.602 583.129 90.71 583.129 90.842C583.129 91.022 583.045 91.196 582.877 91.364L580.141 94.118ZM301.942 122.072C303.946 122.072 304.948 123.146 304.948 125.294V130.658C304.948 130.79 304.912 130.892 304.84 130.964C304.78 131.036 304.69 131.072 304.57 131.072C304.45 131.072 304.354 131.036 304.282 130.964C304.21 130.88 304.174 130.778 304.174 130.658V129.398C303.91 129.95 303.526 130.376 303.022 130.676C302.53 130.976 301.966 131.126 301.33 131.126C300.778 131.126 300.274 131.012 299.818 130.784C299.362 130.556 298.996 130.25 298.72 129.866C298.456 129.47 298.318 129.032 298.306 128.552C298.294 127.892 298.456 127.382 298.792 127.022C299.128 126.662 299.692 126.404 300.484 126.248C301.276 126.092 302.386 126.014 303.814 126.014H304.174V125.258C304.174 124.406 304 123.788 303.652 123.404C303.316 123.008 302.782 122.81 302.05 122.81C301.474 122.81 300.958 122.888 300.502 123.044C300.058 123.188 299.704 123.356 299.44 123.548C299.392 123.584 299.29 123.656 299.134 123.764C298.99 123.86 298.87 123.908 298.774 123.908C298.69 123.908 298.612 123.878 298.54 123.818C298.48 123.746 298.45 123.662 298.45 123.566C298.45 123.338 298.66 123.098 299.08 122.846C299.5 122.594 299.956 122.402 300.448 122.27C300.952 122.138 301.45 122.072 301.942 122.072ZM301.33 130.37C301.87 130.37 302.356 130.244 302.788 129.992C303.22 129.728 303.556 129.368 303.796 128.912C304.048 128.456 304.174 127.94 304.174 127.364V126.716H303.832C302.572 126.716 301.612 126.77 300.952 126.878C300.292 126.974 299.83 127.148 299.566 127.4C299.302 127.64 299.17 128 299.17 128.48C299.17 129.032 299.374 129.488 299.782 129.848C300.19 130.196 300.706 130.37 301.33 130.37ZM315.741 118.994C315.021 119.054 314.469 119.288 314.085 119.696C313.713 120.092 313.527 120.71 313.527 121.55V122.288H315.921C316.005 122.288 316.077 122.324 316.137 122.396C316.197 122.456 316.227 122.534 316.227 122.63C316.227 122.714 316.197 122.786 316.137 122.846C316.089 122.906 316.017 122.936 315.921 122.936H313.527V130.676C313.527 130.796 313.491 130.898 313.419 130.982C313.347 131.054 313.257 131.09 313.149 131.09C313.029 131.09 312.933 131.054 312.861 130.982C312.801 130.91 312.771 130.808 312.771 130.676V122.936H311.277C311.193 122.936 311.121 122.906 311.061 122.846C311.001 122.786 310.971 122.714 310.971 122.63C310.971 122.534 311.001 122.456 311.061 122.396C311.121 122.324 311.193 122.288 311.277 122.288H312.771V121.766C312.771 120.722 313.011 119.906 313.491 119.318C313.983 118.73 314.703 118.4 315.651 118.328L316.119 118.292H316.263C316.503 118.292 316.623 118.394 316.623 118.598C316.623 118.814 316.485 118.934 316.209 118.958L315.741 118.994ZM321.049 131.126C320.281 131.126 319.603 130.94 319.015 130.568C318.427 130.196 317.971 129.668 317.647 128.984C317.323 128.3 317.161 127.502 317.161 126.59C317.161 125.69 317.323 124.898 317.647 124.214C317.971 123.53 318.427 123.002 319.015 122.63C319.603 122.258 320.281 122.072 321.049 122.072C321.817 122.072 322.495 122.258 323.083 122.63C323.671 123.002 324.127 123.53 324.451 124.214C324.775 124.898 324.937 125.69 324.937 126.59C324.937 127.502 324.775 128.3 324.451 128.984C324.127 129.668 323.671 130.196 323.083 130.568C322.495 130.94 321.817 131.126 321.049 131.126ZM321.031 130.388C322.027 130.388 322.789 130.064 323.317 129.416C323.857 128.756 324.127 127.814 324.127 126.59C324.127 125.402 323.851 124.478 323.299 123.818C322.759 123.146 322.009 122.81 321.049 122.81C320.089 122.81 319.333 123.146 318.781 123.818C318.241 124.478 317.971 125.402 317.971 126.59C317.971 127.814 318.235 128.756 318.763 129.416C319.303 130.064 320.059 130.388 321.031 130.388ZM331.167 122.072C333.279 122.072 334.335 123.176 334.335 125.384V130.676C334.335 130.952 334.209 131.09 333.957 131.09C333.837 131.09 333.741 131.054 333.669 130.982C333.609 130.91 333.579 130.808 333.579 130.676V125.456C333.579 124.532 333.393 123.86 333.021 123.44C332.649 123.008 332.049 122.792 331.221 122.792C330.297 122.792 329.553 123.08 328.989 123.656C328.437 124.22 328.161 124.976 328.161 125.924V130.676C328.161 130.808 328.125 130.91 328.053 130.982C327.993 131.054 327.903 131.09 327.783 131.09C327.663 131.09 327.567 131.054 327.495 130.982C327.435 130.91 327.405 130.808 327.405 130.676V122.522C327.405 122.246 327.531 122.108 327.783 122.108C327.903 122.108 327.993 122.144 328.053 122.216C328.113 122.288 328.143 122.39 328.143 122.522V123.854C328.407 123.278 328.803 122.84 329.331 122.54C329.871 122.228 330.483 122.072 331.167 122.072ZM340.918 130.388C341.182 130.412 341.314 130.532 341.314 130.748C341.314 131.012 341.14 131.126 340.792 131.09L340.324 131.054C339.424 130.994 338.764 130.724 338.344 130.244C337.924 129.752 337.714 128.996 337.714 127.976V122.936H336.22C336.136 122.936 336.064 122.906 336.004 122.846C335.944 122.786 335.914 122.714 335.914 122.63C335.914 122.534 335.944 122.456 336.004 122.396C336.064 122.324 336.136 122.288 336.22 122.288H337.714V119.894C337.714 119.762 337.75 119.66 337.822 119.588C337.894 119.516 337.984 119.48 338.092 119.48C338.2 119.48 338.29 119.516 338.362 119.588C338.434 119.66 338.47 119.762 338.47 119.894V122.288H340.864C340.948 122.288 341.02 122.324 341.08 122.396C341.14 122.456 341.17 122.534 341.17 122.63C341.17 122.714 341.14 122.786 341.08 122.846C341.032 122.906 340.96 122.936 340.864 122.936H338.47V127.994C338.47 128.81 338.626 129.392 338.938 129.74C339.262 130.088 339.76 130.292 340.432 130.352L340.918 130.388ZM349.62 129.29C349.704 129.29 349.776 129.326 349.836 129.398C349.896 129.458 349.926 129.53 349.926 129.614C349.926 129.734 349.878 129.854 349.782 129.974C349.698 130.082 349.542 130.208 349.314 130.352C348.45 130.868 347.556 131.126 346.632 131.126C345.324 131.126 344.292 130.724 343.536 129.92C342.792 129.116 342.42 128.012 342.42 126.608C342.42 125.708 342.588 124.916 342.924 124.232C343.26 123.548 343.734 123.02 344.346 122.648C344.958 122.264 345.66 122.072 346.452 122.072C347.556 122.072 348.426 122.432 349.062 123.152C349.698 123.872 350.016 124.856 350.016 126.104C350.016 126.32 349.974 126.476 349.89 126.572C349.806 126.668 349.656 126.716 349.44 126.716H343.248C343.26 127.892 343.554 128.798 344.13 129.434C344.718 130.07 345.54 130.388 346.596 130.388C347.172 130.388 347.646 130.31 348.018 130.154C348.402 129.998 348.774 129.794 349.134 129.542C349.386 129.374 349.548 129.29 349.62 129.29ZM346.452 122.774C345.54 122.774 344.802 123.062 344.238 123.638C343.686 124.202 343.362 124.994 343.266 126.014H349.296C349.272 124.97 349.014 124.172 348.522 123.62C348.03 123.056 347.34 122.774 346.452 122.774ZM363.616 118.22C363.736 118.22 363.826 118.256 363.886 118.328C363.958 118.4 363.994 118.502 363.994 118.634V130.658C363.994 130.79 363.958 130.892 363.886 130.964C363.826 131.036 363.736 131.072 363.616 131.072C363.364 131.072 363.238 130.934 363.238 130.658V129.236C362.974 129.848 362.578 130.316 362.05 130.64C361.534 130.964 360.91 131.126 360.178 131.126C359.41 131.126 358.732 130.94 358.144 130.568C357.556 130.184 357.1 129.65 356.776 128.966C356.452 128.27 356.29 127.466 356.29 126.554C356.29 125.654 356.452 124.868 356.776 124.196C357.1 123.524 357.556 123.002 358.144 122.63C358.732 122.258 359.41 122.072 360.178 122.072C360.91 122.072 361.534 122.234 362.05 122.558C362.578 122.882 362.974 123.344 363.238 123.944V118.634C363.238 118.358 363.364 118.22 363.616 118.22ZM360.178 130.388C361.15 130.388 361.9 130.058 362.428 129.398C362.968 128.738 363.238 127.802 363.238 126.59C363.238 125.39 362.974 124.46 362.446 123.8C361.918 123.14 361.168 122.81 360.196 122.81C359.224 122.81 358.462 123.14 357.91 123.8C357.37 124.448 357.1 125.366 357.1 126.554C357.1 127.754 357.37 128.696 357.91 129.38C358.462 130.052 359.218 130.388 360.178 130.388ZM373.667 129.29C373.751 129.29 373.823 129.326 373.883 129.398C373.943 129.458 373.973 129.53 373.973 129.614C373.973 129.734 373.925 129.854 373.829 129.974C373.745 130.082 373.589 130.208 373.361 130.352C372.497 130.868 371.603 131.126 370.679 131.126C369.371 131.126 368.339 130.724 367.583 129.92C366.839 129.116 366.467 128.012 366.467 126.608C366.467 125.708 366.635 124.916 366.971 124.232C367.307 123.548 367.781 123.02 368.393 122.648C369.005 122.264 369.707 122.072 370.499 122.072C371.603 122.072 372.473 122.432 373.109 123.152C373.745 123.872 374.063 124.856 374.063 126.104C374.063 126.32 374.021 126.476 373.937 126.572C373.853 126.668 373.703 126.716 373.487 126.716H367.295C367.307 127.892 367.601 128.798 368.177 129.434C368.765 130.07 369.587 130.388 370.643 130.388C371.219 130.388 371.693 130.31 372.065 130.154C372.449 129.998 372.821 129.794 373.181 129.542C373.433 129.374 373.595 129.29 373.667 129.29ZM370.499 122.774C369.587 122.774 368.849 123.062 368.285 123.638C367.733 124.202 367.409 124.994 367.313 126.014H373.343C373.319 124.97 373.061 124.172 372.569 123.62C372.077 123.056 371.387 122.774 370.499 122.774ZM384.494 130.388C384.758 130.412 384.89 130.532 384.89 130.748C384.89 131.012 384.716 131.126 384.368 131.09L383.9 131.054C383 130.994 382.34 130.724 381.92 130.244C381.5 129.752 381.29 128.996 381.29 127.976V122.936H379.796C379.712 122.936 379.64 122.906 379.58 122.846C379.52 122.786 379.49 122.714 379.49 122.63C379.49 122.534 379.52 122.456 379.58 122.396C379.64 122.324 379.712 122.288 379.796 122.288H381.29V119.894C381.29 119.762 381.326 119.66 381.398 119.588C381.47 119.516 381.56 119.48 381.668 119.48C381.776 119.48 381.866 119.516 381.938 119.588C382.01 119.66 382.046 119.762 382.046 119.894V122.288H384.44C384.524 122.288 384.596 122.324 384.656 122.396C384.716 122.456 384.746 122.534 384.746 122.63C384.746 122.714 384.716 122.786 384.656 122.846C384.608 122.906 384.536 122.936 384.44 122.936H382.046V127.994C382.046 128.81 382.202 129.392 382.514 129.74C382.838 130.088 383.336 130.292 384.008 130.352L384.494 130.388ZM389.885 131.126C389.117 131.126 388.439 130.94 387.851 130.568C387.263 130.196 386.807 129.668 386.483 128.984C386.159 128.3 385.997 127.502 385.997 126.59C385.997 125.69 386.159 124.898 386.483 124.214C386.807 123.53 387.263 123.002 387.851 122.63C388.439 122.258 389.117 122.072 389.885 122.072C390.653 122.072 391.331 122.258 391.919 122.63C392.507 123.002 392.963 123.53 393.287 124.214C393.611 124.898 393.773 125.69 393.773 126.59C393.773 127.502 393.611 128.3 393.287 128.984C392.963 129.668 392.507 130.196 391.919 130.568C391.331 130.94 390.653 131.126 389.885 131.126ZM389.867 130.388C390.863 130.388 391.625 130.064 392.153 129.416C392.693 128.756 392.963 127.814 392.963 126.59C392.963 125.402 392.687 124.478 392.135 123.818C391.595 123.146 390.845 122.81 389.885 122.81C388.925 122.81 388.169 123.146 387.617 123.818C387.077 124.478 386.807 125.402 386.807 126.59C386.807 127.814 387.071 128.756 387.599 129.416C388.139 130.064 388.895 130.388 389.867 130.388ZM402.973 118.22C403.093 118.22 403.183 118.256 403.243 118.328C403.315 118.4 403.351 118.502 403.351 118.634V130.658C403.351 130.79 403.315 130.892 403.243 130.964C403.183 131.036 403.093 131.072 402.973 131.072C402.721 131.072 402.595 130.934 402.595 130.658V129.236C402.331 129.848 401.935 130.316 401.407 130.64C400.891 130.964 400.267 131.126 399.535 131.126C398.767 131.126 398.089 130.94 397.501 130.568C396.913 130.184 396.457 129.65 396.133 128.966C395.809 128.27 395.647 127.466 395.647 126.554C395.647 125.654 395.809 124.868 396.133 124.196C396.457 123.524 396.913 123.002 397.501 122.63C398.089 122.258 398.767 122.072 399.535 122.072C400.267 122.072 400.891 122.234 401.407 122.558C401.935 122.882 402.331 123.344 402.595 123.944V118.634C402.595 118.358 402.721 118.22 402.973 118.22ZM399.535 130.388C400.507 130.388 401.257 130.058 401.785 129.398C402.325 128.738 402.595 127.802 402.595 126.59C402.595 125.39 402.331 124.46 401.803 123.8C401.275 123.14 400.525 122.81 399.553 122.81C398.581 122.81 397.819 123.14 397.267 123.8C396.727 124.448 396.457 125.366 396.457 126.554C396.457 127.754 396.727 128.696 397.267 129.38C397.819 130.052 398.575 130.388 399.535 130.388ZM409.767 122.072C411.771 122.072 412.773 123.146 412.773 125.294V130.658C412.773 130.79 412.737 130.892 412.665 130.964C412.605 131.036 412.515 131.072 412.395 131.072C412.275 131.072 412.179 131.036 412.107 130.964C412.035 130.88 411.999 130.778 411.999 130.658V129.398C411.735 129.95 411.351 130.376 410.847 130.676C410.355 130.976 409.791 131.126 409.155 131.126C408.603 131.126 408.099 131.012 407.643 130.784C407.187 130.556 406.821 130.25 406.545 129.866C406.281 129.47 406.143 129.032 406.131 128.552C406.119 127.892 406.281 127.382 406.617 127.022C406.953 126.662 407.517 126.404 408.309 126.248C409.101 126.092 410.211 126.014 411.639 126.014H411.999V125.258C411.999 124.406 411.825 123.788 411.477 123.404C411.141 123.008 410.607 122.81 409.875 122.81C409.299 122.81 408.783 122.888 408.327 123.044C407.883 123.188 407.529 123.356 407.265 123.548C407.217 123.584 407.115 123.656 406.959 123.764C406.815 123.86 406.695 123.908 406.599 123.908C406.515 123.908 406.437 123.878 406.365 123.818C406.305 123.746 406.275 123.662 406.275 123.566C406.275 123.338 406.485 123.098 406.905 122.846C407.325 122.594 407.781 122.402 408.273 122.27C408.777 122.138 409.275 122.072 409.767 122.072ZM409.155 130.37C409.695 130.37 410.181 130.244 410.613 129.992C411.045 129.728 411.381 129.368 411.621 128.912C411.873 128.456 411.999 127.94 411.999 127.364V126.716H411.657C410.397 126.716 409.437 126.77 408.777 126.878C408.117 126.974 407.655 127.148 407.391 127.4C407.127 127.64 406.995 128 406.995 128.48C406.995 129.032 407.199 129.488 407.607 129.848C408.015 130.196 408.531 130.37 409.155 130.37ZM423.583 131.126C422.815 131.126 422.131 130.94 421.531 130.568C420.931 130.196 420.463 129.668 420.127 128.984C419.803 128.3 419.641 127.514 419.641 126.626C419.641 125.726 419.803 124.934 420.127 124.25C420.463 123.554 420.931 123.02 421.531 122.648C422.143 122.264 422.839 122.072 423.619 122.072C424.063 122.072 424.495 122.132 424.915 122.252C425.335 122.36 425.707 122.534 426.031 122.774C426.259 122.954 426.415 123.104 426.499 123.224C426.595 123.332 426.643 123.452 426.643 123.584C426.643 123.668 426.613 123.746 426.553 123.818C426.493 123.878 426.421 123.908 426.337 123.908C426.277 123.908 426.205 123.884 426.121 123.836C426.037 123.776 425.947 123.71 425.851 123.638C425.527 123.386 425.197 123.182 424.861 123.026C424.537 122.87 424.129 122.792 423.637 122.792C422.641 122.792 421.861 123.134 421.297 123.818C420.733 124.502 420.451 125.444 420.451 126.644C420.451 127.82 420.727 128.738 421.279 129.398C421.843 130.058 422.623 130.388 423.619 130.388C424.123 130.388 424.549 130.31 424.897 130.154C425.257 129.998 425.599 129.794 425.923 129.542C426.151 129.374 426.307 129.29 426.391 129.29C426.475 129.29 426.547 129.32 426.607 129.38C426.667 129.44 426.697 129.512 426.697 129.596C426.697 129.716 426.655 129.824 426.571 129.92C426.487 130.016 426.325 130.16 426.085 130.352C425.773 130.58 425.389 130.766 424.933 130.91C424.477 131.054 424.027 131.126 423.583 131.126ZM435.062 122.108C435.182 122.108 435.272 122.144 435.332 122.216C435.404 122.288 435.44 122.384 435.44 122.504V130.676C435.44 130.952 435.314 131.09 435.062 131.09C434.954 131.09 434.864 131.054 434.792 130.982C434.732 130.898 434.702 130.796 434.702 130.676V129.362C434.426 129.926 434.024 130.364 433.496 130.676C432.98 130.976 432.392 131.126 431.732 131.126C430.724 131.126 429.956 130.844 429.428 130.28C428.912 129.716 428.654 128.888 428.654 127.796V122.504C428.654 122.384 428.684 122.288 428.744 122.216C428.816 122.144 428.912 122.108 429.032 122.108C429.152 122.108 429.242 122.144 429.302 122.216C429.374 122.288 429.41 122.384 429.41 122.504V127.724C429.41 128.636 429.596 129.308 429.968 129.74C430.34 130.172 430.916 130.388 431.696 130.388C432.596 130.388 433.316 130.106 433.856 129.542C434.408 128.966 434.684 128.204 434.684 127.256V122.504C434.684 122.384 434.714 122.288 434.774 122.216C434.846 122.144 434.942 122.108 435.062 122.108ZM442.441 122.108C442.585 122.108 442.681 122.138 442.729 122.198C442.789 122.246 442.819 122.324 442.819 122.432C442.819 122.636 442.693 122.756 442.441 122.792L441.901 122.846C441.025 122.93 440.365 123.254 439.921 123.818C439.477 124.382 439.255 125.03 439.255 125.762V130.676C439.255 130.808 439.219 130.91 439.147 130.982C439.087 131.054 438.997 131.09 438.877 131.09C438.757 131.09 438.661 131.054 438.589 130.982C438.529 130.91 438.499 130.808 438.499 130.676V122.522C438.499 122.246 438.625 122.108 438.877 122.108C438.985 122.108 439.075 122.144 439.147 122.216C439.219 122.288 439.255 122.39 439.255 122.522V123.818C439.771 122.786 440.707 122.222 442.063 122.126L442.315 122.108H442.441ZM447.612 122.072C449.616 122.072 450.618 123.146 450.618 125.294V130.658C450.618 130.79 450.582 130.892 450.51 130.964C450.45 131.036 450.36 131.072 450.24 131.072C450.12 131.072 450.024 131.036 449.952 130.964C449.88 130.88 449.844 130.778 449.844 130.658V129.398C449.58 129.95 449.196 130.376 448.692 130.676C448.2 130.976 447.636 131.126 447 131.126C446.448 131.126 445.944 131.012 445.488 130.784C445.032 130.556 444.666 130.25 444.39 129.866C444.126 129.47 443.988 129.032 443.976 128.552C443.964 127.892 444.126 127.382 444.462 127.022C444.798 126.662 445.362 126.404 446.154 126.248C446.946 126.092 448.056 126.014 449.484 126.014H449.844V125.258C449.844 124.406 449.67 123.788 449.322 123.404C448.986 123.008 448.452 122.81 447.72 122.81C447.144 122.81 446.628 122.888 446.172 123.044C445.728 123.188 445.374 123.356 445.11 123.548C445.062 123.584 444.96 123.656 444.804 123.764C444.66 123.86 444.54 123.908 444.444 123.908C444.36 123.908 444.282 123.878 444.21 123.818C444.15 123.746 444.12 123.662 444.12 123.566C444.12 123.338 444.33 123.098 444.75 122.846C445.17 122.594 445.626 122.402 446.118 122.27C446.622 122.138 447.12 122.072 447.612 122.072ZM447 130.37C447.54 130.37 448.026 130.244 448.458 129.992C448.89 129.728 449.226 129.368 449.466 128.912C449.718 128.456 449.844 127.94 449.844 127.364V126.716H449.502C448.242 126.716 447.282 126.77 446.622 126.878C445.962 126.974 445.5 127.148 445.236 127.4C444.972 127.64 444.84 128 444.84 128.48C444.84 129.032 445.044 129.488 445.452 129.848C445.86 130.196 446.376 130.37 447 130.37ZM454.029 131.09C453.825 131.09 453.657 131.024 453.525 130.892C453.393 130.76 453.327 130.586 453.327 130.37C453.327 130.154 453.393 129.98 453.525 129.848C453.657 129.716 453.825 129.65 454.029 129.65C454.221 129.65 454.383 129.716 454.515 129.848C454.647 129.98 454.713 130.154 454.713 130.37C454.713 130.586 454.647 130.76 454.515 130.892C454.383 131.024 454.221 131.09 454.029 131.09Z" fill="#595959"/>
<path d="M75.02 158.162C73.784 158.162 72.71 157.898 71.798 157.37C70.898 156.842 70.202 156.086 69.71 155.102C69.218 154.118 68.972 152.966 68.972 151.646C68.972 150.326 69.212 149.18 69.692 148.208C70.184 147.224 70.886 146.468 71.798 145.94C72.71 145.412 73.784 145.148 75.02 145.148C76.256 145.148 77.324 145.412 78.224 145.94C79.136 146.468 79.832 147.224 80.312 148.208C80.804 149.18 81.05 150.326 81.05 151.646C81.05 152.966 80.804 154.118 80.312 155.102C79.82 156.086 79.118 156.842 78.206 157.37C77.306 157.898 76.244 158.162 75.02 158.162ZM75.02 156.308C76.184 156.308 77.09 155.906 77.738 155.102C78.398 154.298 78.728 153.146 78.728 151.646C78.728 150.146 78.398 149 77.738 148.208C77.09 147.404 76.184 147.002 75.02 147.002C73.844 147.002 72.926 147.404 72.266 148.208C71.618 149 71.294 150.146 71.294 151.646C71.294 153.146 71.618 154.298 72.266 155.102C72.926 155.906 73.844 156.308 75.02 156.308ZM86.3833 158.144C85.0753 158.144 84.0193 157.886 83.2153 157.37C82.8313 157.142 82.6393 156.818 82.6393 156.398C82.6393 156.158 82.7053 155.966 82.8373 155.822C82.9693 155.666 83.1313 155.588 83.3233 155.588C83.5273 155.588 83.8093 155.684 84.1693 155.876C84.5533 156.056 84.9013 156.194 85.2133 156.29C85.5373 156.386 85.9453 156.434 86.4373 156.434C86.9413 156.434 87.3313 156.35 87.6073 156.182C87.8953 156.014 88.0393 155.78 88.0393 155.48C88.0393 155.276 87.9793 155.114 87.8593 154.994C87.7513 154.874 87.5473 154.766 87.2473 154.67C86.9593 154.562 86.5153 154.442 85.9153 154.31C84.8473 154.094 84.0793 153.788 83.6113 153.392C83.1553 152.996 82.9273 152.45 82.9273 151.754C82.9273 151.226 83.0833 150.752 83.3953 150.332C83.7073 149.9 84.1333 149.57 84.6733 149.342C85.2253 149.102 85.8493 148.982 86.5453 148.982C87.0493 148.982 87.5353 149.048 88.0033 149.18C88.4713 149.3 88.8913 149.48 89.2633 149.72C89.6473 149.96 89.8393 150.278 89.8393 150.674C89.8393 150.914 89.7733 151.118 89.6413 151.286C89.5093 151.442 89.3473 151.52 89.1553 151.52C89.0233 151.52 88.8913 151.496 88.7593 151.448C88.6393 151.388 88.4833 151.304 88.2913 151.196C87.9433 151.016 87.6433 150.884 87.3913 150.8C87.1393 150.704 86.8273 150.656 86.4553 150.656C86.0113 150.656 85.6573 150.746 85.3933 150.926C85.1413 151.106 85.0153 151.352 85.0153 151.664C85.0153 151.964 85.1473 152.192 85.4113 152.348C85.6753 152.504 86.1853 152.66 86.9413 152.816C87.7453 152.984 88.3753 153.176 88.8313 153.392C89.2873 153.608 89.6113 153.878 89.8033 154.202C90.0073 154.526 90.1093 154.94 90.1093 155.444C90.1093 156.26 89.7673 156.914 89.0833 157.406C88.4113 157.898 87.5113 158.144 86.3833 158.144ZM97.0817 148.982C99.1457 148.982 100.178 150.188 100.178 152.6V157.028C100.178 157.364 100.076 157.628 99.8717 157.82C99.6797 158.012 99.4097 158.108 99.0617 158.108C98.7137 158.108 98.4377 158.012 98.2337 157.82C98.0297 157.628 97.9277 157.364 97.9277 157.028V152.6C97.9277 151.964 97.7957 151.502 97.5317 151.214C97.2797 150.914 96.8777 150.764 96.3257 150.764C95.6777 150.764 95.1557 150.968 94.7597 151.376C94.3757 151.784 94.1837 152.33 94.1837 153.014V157.028C94.1837 157.364 94.0817 157.628 93.8777 157.82C93.6737 158.012 93.3977 158.108 93.0497 158.108C92.7017 158.108 92.4257 158.012 92.2217 157.82C92.0297 157.628 91.9337 157.364 91.9337 157.028V146.264C91.9337 145.952 92.0357 145.7 92.2397 145.508C92.4557 145.316 92.7317 145.22 93.0677 145.22C93.4037 145.22 93.6737 145.31 93.8777 145.49C94.0817 145.67 94.1837 145.916 94.1837 146.228V150.422C94.4837 149.954 94.8797 149.6 95.3717 149.36C95.8757 149.108 96.4457 148.982 97.0817 148.982ZM106.477 158.144C105.577 158.144 104.785 157.958 104.101 157.586C103.429 157.214 102.907 156.68 102.535 155.984C102.163 155.288 101.977 154.478 101.977 153.554C101.977 152.63 102.163 151.826 102.535 151.142C102.907 150.446 103.429 149.912 104.101 149.54C104.785 149.168 105.577 148.982 106.477 148.982C107.377 148.982 108.163 149.168 108.835 149.54C109.519 149.912 110.041 150.446 110.401 151.142C110.773 151.826 110.959 152.63 110.959 153.554C110.959 154.478 110.773 155.288 110.401 155.984C110.041 156.68 109.519 157.214 108.835 157.586C108.163 157.958 107.377 158.144 106.477 158.144ZM106.459 156.398C107.191 156.398 107.749 156.158 108.133 155.678C108.517 155.198 108.709 154.49 108.709 153.554C108.709 152.63 108.517 151.928 108.133 151.448C107.749 150.956 107.197 150.71 106.477 150.71C105.757 150.71 105.199 150.956 104.803 151.448C104.419 151.928 104.227 152.63 104.227 153.554C104.227 154.49 104.419 155.198 104.803 155.678C105.187 156.158 105.739 156.398 106.459 156.398Z" fill="#7643FF"/>
<path d="M88.5846 28C91.6359 28 93.1615 28.6062 93.1615 29.8186C93.1615 30.3382 92.6821 30.7712 91.7231 31.1176C83.7026 34.3219 79.6923 40.5572 79.6923 49.8235C80.9128 49.6503 81.7846 49.5637 82.3077 49.5637C92.7692 49.5637 98 54.7598 98 65.152C98 75.4575 92.7692 80.6103 82.3077 80.6103C70.1897 80.6103 64.1308 73.9853 64.1308 60.7353C64.1308 46.4461 69.9282 36.1838 81.5231 29.9485C83.9641 28.6495 86.3179 28 88.5846 28ZM54.4538 28.3897C57.5051 28.3897 59.0308 28.9959 59.0308 30.2083C59.0308 30.7279 58.5513 31.1609 57.5923 31.5074C49.5718 34.7116 45.5615 40.9469 45.5615 50.2132C46.7821 50.04 47.6538 49.9534 48.1769 49.9534C58.6385 49.9534 63.8692 55.1495 63.8692 65.5417C63.8692 75.8472 58.6385 81 48.1769 81C36.059 81 30 74.375 30 61.125C30 46.8358 35.7974 36.5735 47.3923 30.3382C49.8333 29.0392 52.1872 28.3897 54.4538 28.3897Z" fill="#CCCCCC"/>
</svg>
