<svg width="339" height="369" viewBox="0 0 339 369" fill="none" xmlns="http://www.w3.org/2000/svg">
<path d="M191.635 33.0606C157.895 22.7041 126.536 27.8922 102.773 44.1697L102.425 44.2475C100.57 45.7585 98.2901 46.9994 96.4358 48.5104L69.4677 68.4279L72.1096 76.9717C62.8884 92.9193 57.3073 112.072 55.9844 133.926C51.7226 211.246 105.093 291.386 175.669 312.868C193.7 318.335 211.144 319.548 226.959 316.741L236.675 322.606L266.734 300.17C267.352 299.666 268.318 299.085 268.936 298.581L269.206 298.156C292.85 279.712 308.394 249.562 310.546 211.81C315.659 135.031 261.863 54.6207 191.635 33.0606Z" fill="url(#paint0_linear)"/>
<path d="M282.574 233.78C278.312 311.1 217.577 356.475 147.349 334.915C77.1206 313.355 23.4026 233.293 27.6643 155.973C31.926 78.653 92.6615 33.2775 162.889 54.8375C233.388 75.9717 286.835 156.46 282.574 233.78Z" fill="url(#paint1_linear)"/>
<path d="M220.454 202.733L133.119 117.767C123.825 108.885 108.362 114.901 107.607 127.859L101.116 242.582C100.512 252.949 110.695 260.902 120.553 257.6L214.378 227.842C225.28 224.307 228.471 210.805 220.454 202.733Z" fill="url(#paint2_linear)"/>
<path d="M220.454 202.733L133.119 117.767C123.825 108.885 108.362 114.901 107.607 127.859L101.116 242.582C100.512 252.949 110.695 260.902 120.553 257.6L214.378 227.842C225.28 224.307 228.471 210.805 220.454 202.733Z" fill="url(#paint3_linear)"/>
<path d="M131.568 246.368C121.71 249.669 111.527 241.716 112.131 231.35L118.622 116.627C118.814 115.853 118.929 114.731 119.121 113.957C113.283 115.629 108.146 120.432 107.963 127.78L101.472 242.504C100.868 252.87 111.051 260.823 120.909 257.522L214.735 227.763C220.224 226.17 223.622 221.756 224.775 217.113L131.568 246.368Z" fill="#7643FF"/>
<defs>
<linearGradient id="paint0_linear" x1="144.46" y1="230.23" x2="255.902" y2="50.8428" gradientUnits="userSpaceOnUse">
<stop offset="2e-06" stop-color="#F3E6FF"/>
<stop offset="1" stop-color="#7643FF"/>
</linearGradient>
<linearGradient id="paint1_linear" x1="241.484" y1="74.8081" x2="79.5301" y2="299.416" gradientUnits="userSpaceOnUse">
<stop offset="2e-06" stop-color="#F3E6FF"/>
<stop offset="1" stop-color="#7643FF"/>
</linearGradient>
<linearGradient id="paint2_linear" x1="-39.3967" y1="352.889" x2="316.71" y2="37.9334" gradientUnits="userSpaceOnUse">
<stop offset="2e-06" stop-color="#F3E6FF"/>
<stop offset="1" stop-color="#7643FF"/>
</linearGradient>
<linearGradient id="paint3_linear" x1="43.0711" y1="293.219" x2="292.926" y2="45.3388" gradientUnits="userSpaceOnUse">
<stop offset="2e-06" stop-color="#F3E6FF"/>
<stop offset="1" stop-color="#7643FF"/>
</linearGradient>
</defs>
</svg>
