<svg width="445" height="390" viewBox="0 0 445 390" fill="none" xmlns="http://www.w3.org/2000/svg">
<path d="M223.175 389.511C315.043 389.511 389.517 313.422 389.517 219.561C389.517 125.7 315.043 49.6113 223.175 49.6113C131.306 49.6113 56.832 125.7 56.832 219.561C56.832 313.422 131.306 389.511 223.175 389.511Z" fill="url(#paint0_linear)"/>
<path d="M299.718 68.5791C304.644 72.4504 310.328 75.9346 314.875 80.5801C395.962 164.2 349.735 269.499 314.875 302.405C270.921 343.054 227.346 348.861 206.506 348.087C178.845 348.087 153.079 340.731 129.208 326.795C118.977 318.665 108.367 310.535 98.1367 302.405C79.1911 282.662 65.9291 259.821 58.7298 233.109C58.3509 229.238 57.5931 225.754 57.2141 221.882C58.3509 314.793 132.618 389.897 223.557 389.897C315.633 389.897 389.899 313.632 389.899 219.947C389.899 153.748 353.145 96.8396 299.718 68.5791Z" fill="#445DCF"/>
<path d="M302.751 243.174C301.614 242.013 300.856 243.561 299.719 242.787C298.583 242.013 296.688 241.238 295.93 242.4C295.172 243.561 294.036 243.561 294.794 241.626C295.172 239.69 292.899 240.077 291.762 238.916C291.004 237.754 289.868 237.754 287.215 236.98C284.563 236.206 283.805 235.819 282.668 235.431C281.532 235.431 281.153 238.141 279.637 238.916C278.121 239.69 281.153 235.431 280.395 234.657C279.637 233.883 275.848 234.27 274.711 233.109C273.195 231.947 272.438 234.657 270.164 237.367C267.891 240.077 268.649 237.754 270.922 235.044C273.195 232.722 274.332 231.56 275.09 230.012C275.848 228.463 274.332 228.076 272.438 226.915C270.543 225.366 271.301 223.043 269.785 221.108C268.648 219.559 267.891 221.108 267.133 219.172C266.375 217.236 262.586 216.075 259.934 214.526C257.281 212.978 256.523 214.139 255.008 214.914C253.492 216.075 248.945 214.914 248.945 214.139C248.566 212.978 248.566 213.365 246.293 212.978C244.019 212.591 244.398 212.978 244.398 211.042C244.398 209.107 242.125 208.332 240.23 207.558C238.335 206.784 238.335 206.784 237.578 205.235C237.199 203.3 236.82 203.3 232.652 202.525C228.863 201.751 229.999 199.041 225.831 198.654C221.663 198.267 223.558 199.816 222.042 201.364C220.148 202.913 217.874 200.977 216.359 199.041C214.843 197.493 214.843 199.428 211.433 199.816C208.401 200.203 209.159 200.203 209.538 198.267C209.917 196.331 207.644 196.331 205.749 195.944C203.476 195.557 200.065 196.331 198.929 197.106C197.792 197.88 199.307 202.525 198.929 204.074C198.55 205.622 194.382 203.3 196.276 201.364C197.792 199.041 197.413 198.654 196.655 196.719C195.897 194.783 198.929 194.396 199.307 192.847C199.686 191.299 196.655 192.847 195.518 194.009C194.003 195.557 192.487 195.17 191.35 195.557C190.971 195.944 189.456 195.944 187.94 195.944C186.424 195.944 184.53 197.106 184.53 199.428C184.53 201.364 184.53 202.913 183.014 202.913C181.499 202.913 180.362 204.074 179.983 205.622C179.604 207.558 177.331 202.913 174.678 201.751C172.026 200.59 170.131 201.751 168.237 202.913C166.342 203.687 164.826 203.687 162.553 202.913C160.279 202.138 158.385 199.041 158.006 196.719C157.627 194.009 159.522 192.46 159.522 190.137C159.522 188.202 160.658 186.653 160.658 184.717C160.658 182.782 160.279 183.556 161.416 182.008C162.553 180.846 158.006 180.459 156.111 179.685C153.838 178.911 150.049 180.072 147.018 180.072C143.986 180.072 143.986 180.072 145.502 178.911C147.018 177.362 148.533 173.491 150.049 170.394C151.564 167.297 152.322 165.361 153.838 161.877C155.733 158.393 151.943 161.103 150.807 161.49C149.67 161.877 146.639 160.715 144.365 161.103C142.092 161.49 141.334 167.297 137.545 170.007C133.756 172.716 134.513 169.619 130.724 170.007C127.314 170.394 126.177 166.91 125.041 164.974C123.904 162.651 124.283 158.78 124.283 158.78C124.283 154.909 129.966 142.52 131.103 141.746C132.24 140.972 134.134 140.585 138.303 139.036C142.471 137.488 142.471 138.262 145.881 139.036C148.912 139.81 148.154 139.036 150.428 137.488C152.701 135.939 151.943 136.713 155.733 135.552C159.522 134.778 158.385 136.326 161.416 137.488C164.448 138.649 164.448 137.875 166.342 139.036C168.237 140.198 166.342 145.23 167.1 146.392C167.858 147.553 168.994 149.876 171.647 151.424C174.299 152.586 174.678 147.166 175.057 145.617C175.057 144.069 174.678 140.972 173.92 139.036C173.163 137.101 172.405 135.552 172.784 132.842C173.162 130.132 180.362 125.874 185.667 124.325C190.971 123.164 192.108 120.841 191.35 118.905C190.592 117.357 191.35 114.647 191.35 113.486C191.35 112.711 191.35 111.937 192.487 112.711C193.245 113.099 194.761 111.55 196.655 110.776C198.929 110.002 198.171 108.066 200.065 106.904C201.96 106.13 203.476 106.517 206.128 106.13C208.78 106.13 203.097 101.485 209.159 99.9361C214.843 98.3876 217.116 99.549 217.495 98.0005C217.874 96.452 218.253 96.8391 220.148 96.452C222.042 96.452 220.148 97.2262 218.253 98.7748C216.359 100.323 219.011 101.485 221.663 101.098C224.316 100.323 226.968 98.7748 228.484 98.0005C229.999 97.2262 231.894 98.0005 231.894 96.452C231.894 94.9035 228.863 94.9035 227.726 94.9035C226.21 94.9035 226.968 94.5163 225.452 94.1292C224.316 93.7421 224.316 92.9678 223.558 92.1936C222.421 91.4193 223.558 91.0322 223.558 90.2579C223.558 89.0965 224.695 89.8708 225.831 88.3223C226.968 87.1609 223.179 86.3866 220.527 86.7737C217.874 87.1609 214.843 87.9351 213.327 88.7094C211.812 89.4836 210.675 89.8708 211.054 89.0965C211.054 88.7094 214.085 86.7737 215.601 86.7737C217.116 86.7737 217.495 86.7737 218.632 85.9995C219.39 85.2252 219.011 84.451 223.179 84.451C227.347 84.451 232.273 85.6124 234.925 83.6767C237.578 81.7411 238.335 82.1282 240.988 81.7411C244.019 80.9668 243.261 79.0311 243.261 78.2569C242.882 77.4826 241.367 77.0955 240.988 76.3212C240.609 75.9341 239.851 75.9341 239.093 75.9341C238.335 75.9341 239.472 75.547 237.957 74.3856C236.441 72.8371 233.41 73.6113 232.652 72.8371C230.378 72.0628 229.999 72.0628 228.863 72.0628C227.726 72.0628 228.484 71.2886 228.863 70.5143C229.621 69.74 225.074 67.8044 222.8 65.8687C220.527 63.9331 220.906 65.8687 220.527 67.0301C220.148 68.1915 217.874 68.1915 217.116 68.5787C216.359 68.9658 215.222 68.1915 214.464 67.4173C213.706 66.643 213.706 65.8687 214.085 64.7074C214.464 63.546 213.327 63.9331 212.191 64.7074C211.433 65.4816 209.538 63.1588 208.401 62.3846C207.265 61.6103 202.339 61.9974 201.202 61.9974C200.065 61.9974 199.307 62.3846 199.307 64.7074C199.307 66.643 198.171 65.8687 197.413 67.8044C196.655 69.74 199.307 69.74 199.307 70.9014C199.307 72.0628 196.276 73.6113 193.624 73.9985C190.592 74.3856 191.35 80.1925 191.35 81.7411C191.35 83.2896 189.835 84.451 188.319 84.451C186.803 84.0638 186.046 79.8054 186.046 77.4826C186.424 75.1599 186.046 73.9985 184.151 74.3856C182.256 74.7727 181.499 73.9985 179.983 73.6113C178.467 72.8371 178.088 73.6113 176.952 71.6757C175.815 69.74 173.162 70.5143 171.647 71.2886C170.51 72.0628 170.131 72.0628 170.889 70.1272C171.268 68.5787 170.131 68.9658 170.889 67.8044C171.647 66.2559 175.815 65.0945 178.467 64.3202C181.12 63.9331 181.499 63.546 183.393 62.3846C185.288 61.6103 187.561 62.3846 188.319 61.6103C189.456 60.8361 191.35 59.6747 192.108 59.2875C192.866 58.9004 194.003 59.6747 195.139 58.9004C196.276 58.5133 199.307 58.5133 200.065 57.739C200.823 56.9648 198.929 56.1905 199.686 55.4163C200.444 54.642 202.339 55.8034 203.854 56.1905C204.991 56.5776 204.991 55.4162 205.37 54.642C206.128 53.8677 206.128 55.4162 207.644 56.5776C209.159 57.739 204.233 56.5776 205.37 57.739C206.507 58.9004 210.296 55.8034 211.433 56.9648C212.191 57.739 203.476 59.2875 201.96 60.0618C200.444 60.4489 201.581 61.2232 204.612 61.2232C207.644 61.2232 209.538 61.9975 211.054 62.7717C212.569 63.546 218.253 64.3202 219.39 63.1588C220.527 61.9975 214.843 61.9974 214.843 61.6103C214.843 60.8361 219.011 61.9975 220.148 61.2232C221.284 60.4489 218.632 60.4489 217.116 59.2875C215.98 58.1262 219.769 58.5133 222.042 59.2875C224.316 60.0618 223.558 58.9004 223.937 58.1262C224.316 57.3519 222.042 57.3519 219.011 56.5776C215.98 55.8034 217.874 55.8034 218.253 55.0291C218.632 54.2549 215.601 54.2549 213.327 53.8677C211.054 53.4806 211.054 53.0935 211.812 51.9321C212.569 50.7707 209.159 51.545 207.644 52.3192C206.507 52.7063 206.128 53.0935 204.233 52.3192C201.96 51.545 198.929 55.0291 198.55 53.8677C198.171 52.7063 196.655 53.4806 195.139 53.8677C193.624 54.2549 195.518 55.0291 196.276 56.1905C197.413 57.3519 193.624 57.739 192.866 58.1262C192.108 58.9004 190.971 58.1262 192.108 57.3519C193.245 56.5776 192.866 55.8034 191.35 55.8034C189.835 55.8034 187.94 57.739 187.182 57.739C186.424 57.739 187.182 56.9648 187.182 55.8034C186.803 54.2549 184.53 57.739 183.393 58.5133C182.256 59.2875 179.983 58.5133 178.088 59.2875C176.194 60.0618 173.541 60.0618 172.405 59.6747C171.268 59.2875 172.405 58.9004 175.057 58.1262C177.709 57.3519 174.678 56.9648 172.026 58.1262C169.373 59.2875 169.373 59.2875 169.373 60.4489C169.373 61.6103 167.858 61.2232 165.963 60.4489C164.448 59.6747 163.311 62.3846 162.553 61.2232C162.174 60.4489 161.416 60.8361 161.416 60.8361C136.787 70.9014 116.326 88.7094 116.326 88.7094C111.779 92.1936 111.779 96.452 107.99 98.7748C104.2 101.098 101.548 108.066 98.5167 111.937C95.4854 115.808 93.5908 124.712 94.7276 127.809C95.8643 130.907 93.2119 139.036 93.9697 140.972C94.7276 143.295 92.0752 144.843 92.833 147.166C93.5908 149.102 93.9697 150.65 93.5908 154.521C93.2119 158.393 98.1378 159.554 99.6534 157.618C100.79 156.07 97.38 140.198 98.1378 138.649C98.8956 137.101 99.6534 139.423 99.2745 141.746C98.8956 144.069 101.548 151.037 102.685 154.909C103.821 158.78 102.306 163.038 102.685 168.845C103.064 174.652 120.873 180.846 123.146 181.62C125.419 182.395 125.798 178.136 128.072 178.911C130.345 179.685 134.513 185.879 137.545 186.653C140.576 187.427 140.197 188.589 142.471 188.976C144.744 188.976 145.881 194.009 148.154 194.396C150.428 195.17 149.291 194.783 148.912 195.944C148.533 197.106 148.912 199.428 151.564 200.59C153.838 201.751 152.701 204.074 154.975 206.397C157.248 208.332 159.143 207.558 161.795 208.72C164.448 209.881 165.205 212.591 168.237 209.494C170.889 206.397 170.51 206.397 173.163 208.332C176.194 210.268 174.299 217.236 173.541 221.108C173.162 225.366 166.721 226.527 165.584 229.625C164.448 233.109 163.69 242.013 161.795 243.948C159.901 245.884 162.553 249.755 162.553 256.724C162.932 263.305 172.405 271.435 177.331 278.79C182.256 286.145 197.413 290.404 199.686 296.598C201.96 302.792 198.929 322.148 199.307 324.084C199.686 326.407 198.929 330.665 199.686 333.375C200.444 336.472 197.792 343.441 197.034 343.828C196.655 344.215 196.655 344.215 196.655 344.989C196.655 345.376 196.276 345.376 195.518 345.763C194.761 346.15 196.655 349.635 196.655 350.409C197.034 351.183 196.655 351.57 195.897 352.345C194.761 353.119 195.139 354.28 195.518 355.054C195.518 355.829 195.897 356.99 194.761 358.152C193.624 359.313 193.624 360.474 195.139 360.474C196.655 360.861 196.655 358.926 197.413 356.99C198.171 355.054 198.55 357.377 198.171 358.926C197.792 360.474 197.792 362.797 197.792 364.346C197.792 365.894 196.276 363.958 195.897 363.184C195.518 362.41 194.761 364.346 194.003 365.12C193.245 365.894 190.971 365.507 190.971 365.894C190.971 366.668 193.245 366.668 194.003 366.281C194.761 365.894 195.139 365.894 195.897 366.281C196.655 366.668 195.518 367.056 195.518 367.443C195.518 367.83 195.518 368.217 194.382 368.217C193.245 368.217 193.245 369.378 194.003 369.765C194.761 370.153 194.382 369.765 195.139 370.927C195.897 371.701 195.897 372.475 195.518 372.862C195.139 373.637 196.655 374.411 197.792 374.411C198.929 374.411 198.55 375.185 198.171 375.959C197.792 376.734 197.034 377.121 202.339 379.444C207.644 381.766 215.601 380.992 217.116 380.218C218.632 379.444 212.191 375.959 210.675 374.024C209.159 372.088 216.737 370.153 218.253 368.217C219.769 366.281 215.601 365.12 218.632 363.571C221.284 362.41 223.937 360.087 223.937 357.764C223.937 355.442 226.589 356.216 228.484 354.28C230.378 352.345 226.968 351.57 231.136 351.57C234.925 351.57 242.504 346.925 244.019 346.538C245.535 345.763 244.019 344.215 242.504 341.505C240.988 338.795 241.746 339.956 245.914 340.731C250.082 341.892 250.082 339.956 254.25 336.085C258.418 332.214 256.902 331.44 259.934 329.504C262.965 327.568 261.07 329.891 259.176 332.601C257.66 335.311 268.648 335.311 271.68 323.697C274.711 312.083 287.594 310.535 291.004 301.243C294.415 291.952 317.528 278.79 320.56 259.434C324.349 240.851 303.887 243.948 302.751 243.174Z" fill="url(#paint1_linear)"/>
<path d="M190.593 62.773C190.593 62.773 188.698 62.3859 189.077 63.1602C189.456 63.9344 190.593 63.9344 190.972 63.5473C191.35 63.1602 192.108 63.1602 192.108 62.773C191.729 62.773 190.972 62.773 190.593 62.773Z" fill="url(#paint2_linear)"/>
<path d="M195.895 62.3861C195.516 61.999 194.379 60.8376 192.863 61.999C192.484 62.3861 191.727 63.1604 192.484 62.7733C193.242 62.7733 194 62.7733 194.758 62.7733C195.516 62.7733 196.652 62.7732 195.895 62.3861Z" fill="url(#paint3_linear)"/>
<path d="M197.414 61.6111C197.035 61.6111 197.035 61.6111 196.656 61.9982C196.277 62.3854 196.656 62.7725 197.035 62.7725C197.793 62.7725 197.793 61.9982 197.414 61.6111Z" fill="url(#paint4_linear)"/>
<path d="M197.031 63.547C196.652 63.547 196.273 64.3213 196.273 64.7084C196.273 65.0955 196.652 65.0955 197.41 65.0955C197.789 65.0955 198.547 65.0955 198.547 64.3213C197.789 63.547 197.789 63.1599 197.031 63.547Z" fill="url(#paint5_linear)"/>
<path d="M193.246 63.5463C192.867 63.5463 191.73 63.9334 191.73 64.3205C191.73 64.7077 192.109 65.0948 192.867 65.0948C193.625 65.0948 194.004 65.0948 194.383 64.7077C194.762 64.3205 195.141 64.3205 194.762 63.9334C194.383 63.1592 193.625 63.1591 193.246 63.5463Z" fill="url(#paint6_linear)"/>
<path d="M233.781 92.1944C233.402 91.033 233.781 89.8716 233.023 89.4845C232.265 89.0974 232.644 89.4845 231.887 90.2588C231.129 90.6459 229.992 91.8073 229.992 92.1944C229.992 92.5816 231.508 93.7429 231.508 94.1301C231.887 94.5172 231.887 93.7429 232.265 93.7429C232.644 94.1301 232.644 94.5172 233.402 94.5172C234.539 94.1301 234.918 94.1301 234.539 93.3558C234.539 92.9687 234.16 93.7429 233.781 92.1944Z" fill="url(#paint7_linear)"/>
<path d="M248.554 85.6137C247.038 84.8395 244.765 84.8395 243.628 84.8395C242.491 84.8395 240.218 84.8395 240.976 84.0652C241.734 82.9038 243.628 80.5811 242.491 80.5811C241.355 80.5811 240.218 81.7424 238.702 81.7424C237.565 81.7424 238.323 83.291 237.565 84.0652C236.808 84.8395 236.808 86.388 236.429 86.7751C235.671 87.1623 234.155 87.1623 234.155 87.9365C234.155 88.7108 236.429 87.5494 236.05 88.3236C235.671 89.0979 233.776 89.485 234.155 89.8722C234.534 90.2593 236.429 90.2593 238.323 89.8722C240.218 89.485 240.597 89.8722 240.976 90.2593C241.355 90.6464 242.112 90.6464 242.87 90.6464C243.628 90.6464 244.765 89.8722 244.007 90.6464C243.249 91.0335 242.112 91.8078 242.491 92.1949C242.87 92.5821 243.249 93.3563 244.007 92.5821C245.144 91.8078 247.038 91.4207 247.417 90.6464C247.796 89.8722 249.312 89.485 248.554 88.7108C247.796 87.9365 247.796 87.5494 248.554 87.1623C249.312 86.7751 250.07 86.388 248.554 85.6137Z" fill="url(#paint8_linear)"/>
<path d="M250.451 89.4841C249.314 89.097 248.556 90.6455 247.799 91.0326C247.42 91.8069 248.177 91.8069 248.556 92.5811C248.556 93.3554 250.451 92.9683 251.209 92.5811C251.967 92.194 251.967 89.8712 252.346 89.097C252.724 88.3227 250.83 89.8712 250.451 89.4841Z" fill="url(#paint9_linear)"/>
<path d="M190.966 164.974C190.208 164.587 187.934 161.877 186.04 161.49C183.766 161.49 183.008 159.554 180.356 158.78C177.704 158.006 176.188 156.07 173.915 156.07C171.641 155.683 167.473 154.909 163.305 155.683C159.137 156.07 160.274 156.457 157.621 158.006C154.59 159.941 156.485 161.49 157.621 161.877C158.758 162.264 164.442 159.941 167.473 160.716C170.504 161.49 173.157 162.264 174.672 162.264C176.188 162.264 176.188 164.587 177.704 165.361C179.219 166.135 177.704 168.071 178.461 168.071C179.219 167.684 186.419 168.458 190.587 168.071C194.755 167.297 191.723 165.361 190.966 164.974Z" fill="url(#paint10_linear)"/>
<path d="M205.362 168.46C203.467 167.298 200.057 166.911 198.541 166.524C196.268 166.137 193.994 168.073 193.994 169.621C193.994 171.17 189.826 171.17 188.311 171.17C186.795 171.557 187.932 173.492 190.584 173.879C193.237 174.267 196.647 174.267 198.162 175.815C199.299 177.364 201.194 174.654 203.088 173.879C204.983 173.105 206.12 173.105 208.393 173.879C210.667 174.654 209.909 173.492 210.667 171.944C211.045 170.395 207.256 169.621 205.362 168.46Z" fill="url(#paint11_linear)"/>
<path d="M216.355 172.718C215.218 172.718 213.702 172.718 212.944 173.492C212.187 174.266 214.46 175.428 215.597 175.428C217.113 175.815 217.113 176.202 218.249 175.815C219.386 175.428 220.144 175.041 220.902 174.266C221.281 173.879 218.628 172.718 216.355 172.718Z" fill="url(#paint12_linear)"/>
<path d="M179.229 148.328C176.198 147.554 176.577 150.264 177.335 152.199C178.093 154.135 178.85 154.522 181.124 154.522C183.397 154.522 182.261 151.038 181.882 150.264C181.503 148.715 180.366 148.328 179.229 148.328Z" fill="url(#paint13_linear)"/>
<path d="M257.272 54.2565C252.725 53.4822 248.936 52.708 241.358 51.1594C233.401 49.9981 228.854 50.3852 226.201 50.3852C223.549 50.7723 220.896 50.7723 219.76 50.7723C217.865 50.7723 215.592 50.7723 213.697 51.1594C211.803 51.5466 215.213 52.3208 217.865 52.708C220.896 53.4822 224.307 52.3208 228.096 52.3208C231.885 52.3208 232.264 54.2565 234.537 54.6436C236.811 55.4179 234.158 55.805 235.674 56.1921C237.19 56.5793 236.053 56.9664 237.19 57.3535C238.326 58.1278 239.084 59.6763 244.768 62.7733C250.452 65.8704 250.452 64.709 253.483 65.4832C256.514 66.2575 259.167 67.4189 261.44 67.806C264.093 68.1931 261.44 62.3862 261.061 60.8377C260.682 58.902 265.608 60.4505 265.229 58.902C264.85 57.3535 267.503 58.902 269.776 57.7406C272.05 56.5793 262.198 55.0307 257.272 54.2565Z" fill="url(#paint14_linear)"/>
<path d="M281.906 61.2239C280.012 60.4497 275.465 58.9012 275.465 60.4497C275.465 61.9982 275.844 63.1596 276.981 63.5467C281.527 64.321 284.18 64.7081 283.801 63.9338C284.18 63.1596 283.801 61.9982 281.906 61.2239Z" fill="url(#paint15_linear)"/>
<path d="M316.759 80.5803C312.97 80.5803 307.286 79.0318 310.696 83.2903C313.349 86.3873 314.864 87.9358 317.138 89.0972C319.411 89.8715 322.443 90.6457 321.685 87.1615C320.548 83.2903 320.927 80.5803 316.759 80.5803Z" fill="url(#paint16_linear)"/>
<path d="M350.488 114.648C347.836 110.39 348.215 106.906 345.183 104.97C342.152 103.034 320.933 78.6452 327.753 92.969C328.89 94.9047 337.605 101.486 335.332 101.873C332.679 102.26 331.921 103.422 334.574 106.519C337.226 109.616 340.636 110.39 341.394 114.648C342.152 118.52 344.047 120.455 346.699 121.617C349.351 122.778 348.594 120.842 350.109 122.004C351.625 123.165 352.383 123.939 352.383 121.229C352.004 118.132 352.762 118.907 350.488 114.648Z" fill="url(#paint17_linear)"/>
<path d="M359.959 123.939C348.213 109.615 356.17 124.326 352.76 124.326C349.35 123.939 349.35 123.939 349.35 125.487C348.971 129.359 351.244 135.165 350.865 138.65C350.486 142.134 350.107 144.844 350.107 145.231C350.486 145.618 350.107 145.618 353.897 146.779C358.065 147.941 358.443 149.102 356.17 149.102C353.897 148.715 352.381 147.941 353.139 150.264C353.897 152.586 352.381 153.748 352.381 155.683C352.76 157.619 356.549 161.103 353.139 161.103C350.107 161.103 347.455 159.942 348.971 166.523C350.486 172.717 351.623 178.524 351.623 182.395C351.623 186.267 354.654 193.622 359.201 201.752C363.748 209.881 367.537 218.398 372.084 216.076C376.631 213.753 377.389 209.881 380.042 213.366C382.694 216.85 386.483 219.173 386.862 212.979C387.241 206.784 388.756 200.59 385.346 185.105C382.315 169.233 371.705 138.263 359.959 123.939Z" fill="url(#paint18_linear)"/>
<path d="M235.305 373.252C233.79 373.639 233.411 373.252 231.895 373.639C231.137 373.639 229.622 373.252 228.864 372.477C228.106 371.703 228.106 373.252 228.106 374.026C228.106 374.8 227.348 375.187 226.59 375.187C225.832 375.187 227.348 377.123 228.106 376.736C228.864 376.736 230.379 376.349 230.379 376.736C230.379 377.123 231.516 377.123 231.895 377.123C232.274 376.736 236.063 375.962 237.958 376.349C239.473 376.349 237.958 374.8 239.094 374.413C240.231 373.252 236.821 372.865 235.305 373.252Z" fill="url(#paint19_linear)"/>
<path d="M276.972 374.8C275.457 374.413 274.32 374.8 274.32 374.8C272.804 374.8 272.804 376.348 273.183 376.736C273.562 377.51 275.078 378.284 275.836 378.284C276.593 378.284 279.246 377.51 278.488 376.349C277.73 375.961 278.488 375.187 276.972 374.8Z" fill="url(#paint20_linear)"/>
<path d="M337.989 175.04C337.231 175.427 336.095 176.202 336.852 176.976C337.231 177.75 338.368 178.137 338.747 177.363C339.126 176.202 338.368 175.04 337.989 175.04Z" fill="url(#paint21_linear)"/>
<path d="M337.606 180.459C337.985 181.621 338.743 182.008 339.122 181.621C339.501 181.234 340.258 180.459 339.501 180.072C339.122 179.685 337.606 180.072 337.606 180.459Z" fill="url(#paint22_linear)"/>
<path d="M341.022 180.459C341.022 180.846 339.885 182.007 340.643 182.394C341.78 183.168 341.78 182.394 342.159 181.233C342.159 180.459 341.401 180.071 341.022 180.459Z" fill="url(#paint23_linear)"/>
<path d="M342.534 180.073C342.534 180.46 342.913 181.234 343.292 181.234C343.671 181.234 344.05 180.847 343.671 180.073C343.671 180.073 342.913 179.686 342.534 180.073Z" fill="url(#paint24_linear)"/>
<path d="M342.535 177.364C342.156 177.364 342.156 177.751 342.156 178.139C342.156 178.526 342.914 179.3 343.293 178.526C344.051 178.139 342.914 177.364 342.535 177.364Z" fill="url(#paint25_linear)"/>
<path d="M342.162 175.816C341.783 175.816 341.025 176.203 341.404 176.977C341.783 177.364 342.541 177.364 342.92 177.364C343.299 176.977 343.299 176.59 343.299 176.59C342.92 175.816 342.162 175.429 342.162 175.816Z" fill="url(#paint26_linear)"/>
<path d="M339.879 176.977C339.5 177.364 338.742 176.977 339.5 178.138C340.258 178.912 340.637 179.686 341.016 178.912C341.395 178.138 341.774 177.751 341.395 177.751C341.016 177.364 340.258 176.589 339.879 176.977Z" fill="url(#paint27_linear)"/>
<g opacity="0.55">
<path opacity="0.55" d="M378.155 105.36C370.198 90.6488 361.104 77.0993 350.495 64.324C339.885 51.9359 327.76 40.322 314.119 30.6438C312.603 29.4824 310.709 28.7081 309.193 27.5467C307.298 26.3854 305.783 25.224 303.888 24.0626L298.583 20.9655C297.826 20.5784 296.689 19.8041 295.931 19.417L293.279 17.8685L287.974 15.1586C286.079 14.3843 284.185 13.6101 282.29 12.8358C278.501 10.9002 274.712 9.73878 270.923 8.57739C255.008 3.15758 238.715 0.447676 222.422 0.0605469C206.129 0.0605469 189.836 2.77045 173.921 7.80314C158.386 12.8358 143.608 20.5784 129.967 29.8695C116.326 39.5478 104.201 50.7745 93.2127 63.1627C82.2243 75.5508 72.7515 89.4875 64.7943 104.198C56.8371 118.522 50.3956 133.62 45.0908 149.493C39.7861 165.365 35.9969 181.624 33.3445 198.271C30.6922 214.917 29.5554 231.564 29.9343 248.211C29.9343 264.857 31.45 281.504 34.4813 298.15L38.2704 297.376C35.2391 281.117 33.7235 264.47 33.7235 248.211C33.7235 231.564 34.4813 215.305 37.1337 198.658C39.4071 182.399 43.1963 166.139 48.5011 150.654C53.4269 135.169 60.2473 119.684 68.2045 105.36C76.1617 91.036 85.2556 77.0993 95.8651 64.7112C106.475 52.323 118.6 41.0963 131.862 31.8052C145.124 22.5141 159.901 15.1586 175.058 9.73878C190.593 4.7061 206.508 1.99619 222.801 1.99619C239.094 1.99619 255.008 4.7061 270.544 9.73878C274.333 11.2873 278.122 12.4487 281.911 13.9972C283.806 14.7715 285.7 15.5457 287.595 16.32L292.9 19.0299L295.552 20.5784C296.31 20.9655 297.447 21.7398 298.205 22.1269L303.13 25.6111C305.025 26.7725 306.541 27.9339 308.435 29.0953C309.951 30.2566 311.845 31.418 313.361 32.5794C326.623 41.8705 338.748 53.0973 349.358 65.4854C359.967 77.8736 369.44 91.8102 377.397 106.134C393.312 135.169 403.542 167.3 408.468 200.206C410.742 216.466 411.878 233.112 411.878 249.759C411.499 266.406 409.984 283.052 407.331 299.312C410.363 283.052 411.878 266.406 412.257 249.759C412.257 233.112 411.499 216.466 409.226 200.206C403.921 166.913 394.069 134.394 378.155 105.36Z" fill="#7643FF"/>
</g>
<g opacity="0.55">
<path opacity="0.55" d="M284.184 126.264C281.531 110.004 278.121 94.1322 273.953 78.2599C271.68 70.5173 269.406 62.7747 266.754 55.0321C264.101 47.2895 261.07 39.9341 257.281 32.5786C253.492 25.2231 249.324 18.2548 244.019 12.0607C241.366 8.9637 238.335 6.25379 234.546 3.93101C231.136 1.60824 226.968 0.0597191 222.8 0.0597191C218.632 -0.32741 214.464 1.22111 210.675 3.15675C206.885 5.0924 203.854 7.80231 201.202 10.8993C195.518 17.0934 191.35 24.0617 187.561 31.0301C180.362 45.741 175.057 61.2262 170.889 76.7114C166.721 92.5837 163.31 108.456 160.658 124.328C158.006 140.588 156.111 156.46 154.595 172.719C151.564 205.238 150.427 237.757 151.185 270.276C151.943 302.795 154.217 335.314 158.764 367.446C154.595 335.314 152.322 302.795 151.943 270.276C151.564 237.757 152.701 205.238 155.732 172.719C157.248 156.46 159.521 140.201 162.174 124.328C164.826 108.456 168.236 92.1965 172.404 76.7114C176.572 61.2262 181.877 45.741 189.455 31.4172C193.245 24.4489 197.413 17.4805 202.717 11.6736C205.37 8.9637 208.401 6.25379 211.811 4.31814C215.222 2.3825 219.011 1.60824 222.8 1.60824C226.589 1.60824 230.378 3.15675 233.409 5.0924C236.82 7.02805 239.472 9.73796 242.124 12.835C247.429 18.6419 251.597 25.6103 255.007 32.9657C258.418 40.3212 261.449 47.6767 264.101 55.4192C266.754 63.1618 269.027 70.9044 271.301 78.647C275.469 94.1322 278.5 110.392 281.152 126.264C283.805 142.136 285.699 158.396 287.215 174.655C290.246 207.174 291.004 239.693 290.246 272.212C289.488 304.731 287.215 337.25 282.668 369.381L286.836 370.156C291.383 337.637 293.656 305.118 294.035 272.599C294.414 240.08 293.278 207.174 290.246 175.042C288.731 158.396 286.836 142.523 284.184 126.264Z" fill="#7643FF"/>
</g>
<g opacity="0.55">
<path opacity="0.55" d="M443.707 179.686L443.328 182.009C442.949 183.558 442.949 185.106 442.57 186.268L441.433 190.526C441.054 191.3 441.054 192.075 441.054 192.462L440.297 194.397C439.918 195.946 439.539 197.107 438.781 198.656C437.644 201.366 436.507 204.076 434.992 206.786C434.234 207.947 433.855 209.495 433.097 210.657L430.824 214.528C430.445 215.302 430.066 215.69 429.687 216.464L428.55 218.399L425.898 221.884L423.245 225.368C422.488 226.529 421.351 227.691 420.593 228.852C418.698 230.788 416.804 233.11 414.53 235.046C406.194 243.176 397.1 250.144 387.249 256.338C377.397 262.532 367.166 267.565 356.557 272.21C335.338 281.114 313.361 287.696 290.626 291.567C279.259 293.503 267.891 295.051 256.524 296.212C245.156 296.987 233.789 297.761 222.043 297.761C210.675 297.761 198.929 297.374 187.562 296.212C176.194 295.051 164.827 293.503 153.46 291.567C142.092 289.631 131.104 286.921 120.115 283.824C109.127 280.727 98.1384 276.856 87.5288 272.21C76.9193 267.565 66.6886 262.532 56.8369 256.338C46.9852 250.144 37.8913 243.176 29.5552 235.046C27.2817 233.11 25.3871 230.788 23.4926 228.852C22.3558 227.691 21.598 226.529 20.8402 225.368L18.1878 221.884L15.5354 218.399L14.3987 216.464C14.0198 215.69 13.6409 215.302 13.2619 214.528L10.9885 210.657C10.2306 209.495 9.47282 207.947 9.0939 206.786C7.57825 204.076 6.82043 201.366 5.30478 198.656C4.92586 197.494 4.54695 195.946 3.78913 194.397L3.0313 192.462C2.65239 191.688 2.65239 190.913 2.65239 190.526L1.51565 186.268C1.13674 184.719 1.13674 183.558 0.757825 182.009L0.378914 179.686C0.378914 178.912 0.378914 178.138 0.378914 177.364L0 173.105V177.364C0 178.138 0 178.912 0 179.686L0.378914 182.009C0.378914 183.558 0.757825 185.106 0.757825 186.268L1.51565 190.526C1.89456 192.075 2.27348 193.236 2.65239 194.785C3.0313 196.333 3.41021 197.494 3.78913 199.043C4.92586 201.753 5.68369 204.463 7.19934 207.173C7.95716 208.334 8.33608 209.883 9.0939 211.044L11.3674 214.915C11.7463 215.69 12.1252 216.077 12.5041 216.851L13.6409 218.787L16.2932 222.271L18.9456 225.755C19.7035 226.916 20.8402 228.078 21.598 229.239C23.4926 231.562 25.3871 233.885 27.6606 235.82C35.9967 244.337 45.0906 251.305 54.9423 257.887C64.7941 264.081 75.0247 269.501 85.6343 274.533C96.2438 279.179 107.232 283.437 118.221 286.534C129.209 290.018 140.577 292.728 151.944 294.664C163.311 296.6 174.679 298.535 186.425 299.309C197.792 300.471 209.539 300.858 221.285 300.858C233.031 300.858 244.399 300.084 256.145 299.309C267.512 298.148 279.259 296.6 290.626 294.664C301.993 292.728 313.361 289.631 324.349 286.534C335.338 283.05 346.326 279.179 356.936 274.533C367.545 269.888 377.776 264.468 387.628 257.887C397.479 251.693 406.573 244.337 414.909 235.82C417.183 233.885 419.077 231.562 420.972 229.239C422.109 228.078 422.867 226.916 423.624 225.755L426.277 222.271L428.929 218.787L430.066 216.851C430.445 216.077 430.824 215.69 431.203 214.915L433.476 211.044C434.234 209.883 434.613 208.334 435.371 207.173C436.886 204.463 437.644 201.753 438.781 199.043C439.16 197.494 439.539 196.333 439.918 194.785C440.297 193.236 440.675 192.075 441.054 190.526L441.812 186.268C442.191 184.719 442.191 183.171 442.191 182.009L443.707 179.686C444.086 178.912 444.086 178.138 444.086 177.364V173.105L443.707 177.364C443.707 178.525 443.707 179.299 443.707 179.686Z" fill="#7643FF"/>
</g>
<g opacity="0.55">
<path opacity="0.55" d="M380.811 94.5192C375.885 101.1 369.822 106.907 363.381 111.94C356.56 116.973 349.74 120.844 342.161 124.328C334.583 127.812 327.005 130.909 319.427 133.619C303.891 138.652 287.598 142.136 271.305 144.459C263.348 145.62 255.012 146.395 246.675 147.169C238.339 147.556 230.382 147.943 222.046 147.943C213.71 147.943 205.753 147.556 197.417 147.169C189.081 146.395 181.124 145.62 172.787 144.459C156.494 142.136 140.58 138.652 124.666 133.619C116.708 130.909 109.13 128.199 101.931 124.328C94.3526 120.844 87.1532 116.586 80.7117 111.94C73.8913 107.294 67.8287 101.488 63.2817 94.5192C61.0082 91.035 59.1137 87.5509 57.598 83.2924C56.0824 79.4211 55.3246 75.1627 55.3246 70.9043C55.3246 75.1627 56.0824 79.4211 57.2191 83.2924C58.3559 87.1637 60.6293 91.035 62.5239 94.9063C67.0708 101.875 73.1335 108.069 79.9539 113.101C93.2158 123.554 108.751 130.522 124.287 136.329C139.822 141.749 156.494 145.62 172.787 147.943C181.124 149.104 189.46 149.879 197.417 150.653C205.753 151.427 214.089 151.427 222.425 151.427C230.761 151.427 239.097 151.04 247.433 150.653C255.769 149.879 264.105 149.104 272.063 147.943C288.356 145.233 304.649 141.749 320.563 136.329C336.099 130.909 351.634 123.554 364.896 113.101C371.717 108.069 377.4 101.875 382.326 94.9063C384.6 91.4222 386.494 87.5509 387.631 83.2924C388.768 79.034 389.526 75.1627 389.526 70.9043C389.526 75.1627 388.389 79.4211 387.252 83.2924C385.358 87.5509 383.084 91.035 380.811 94.5192Z" fill="#7643FF"/>
</g>
<g opacity="0.55">
<path opacity="0.55" d="M262.216 8.57551C261.458 8.96264 260.7 9.34977 259.942 9.7369C258.427 10.5112 256.532 10.8983 254.638 10.8983C251.227 11.6725 247.438 12.0597 244.028 12.4468C240.239 12.8339 236.829 12.8339 233.04 13.2211C229.25 13.2211 225.84 13.6082 222.051 13.6082C218.262 13.6082 214.852 13.6082 211.063 13.6082C207.273 13.6082 203.863 13.2211 200.074 12.8339C196.664 12.4468 192.875 12.0597 189.465 11.2854C187.57 10.8983 186.054 10.5112 184.16 10.124C183.402 9.7369 182.644 9.34977 181.886 8.96264C181.128 8.57551 180.371 7.80125 180.371 7.02699C180.371 8.18838 180.75 8.96264 181.507 9.7369C182.265 10.5112 183.023 10.8983 183.781 11.2854C185.297 12.0597 187.191 12.8339 189.086 13.6082C192.496 14.7696 196.285 15.5438 200.074 16.3181C203.863 17.0924 207.273 17.4795 211.063 17.8666C214.852 18.2537 218.262 18.2537 222.051 18.2537C225.84 18.2537 229.25 18.2537 233.04 17.8666C236.829 17.4795 240.239 17.0924 244.028 16.3181C247.817 15.5438 251.227 14.7696 255.016 13.6082C256.911 12.8339 258.427 12.4468 260.321 11.2854C261.079 10.8983 261.837 10.124 262.595 9.7369C263.353 8.96264 264.11 8.18838 263.731 7.02699C263.731 7.41412 262.974 8.18838 262.216 8.57551Z" fill="#7643FF"/>
</g>
<defs>
<linearGradient id="paint0_linear" x1="56.8843" y1="219.597" x2="389.839" y2="219.597" gradientUnits="userSpaceOnUse">
<stop offset="8e-08" stop-color="#445DCF"/>
<stop offset="1" stop-color="#6A7FFF"/>
</linearGradient>
<linearGradient id="paint1_linear" x1="115.041" y1="118.847" x2="283.499" y2="283.73" gradientUnits="userSpaceOnUse">
<stop offset="8e-08" stop-color="#3BA2A9"/>
<stop offset="1" stop-color="#00E7D5"/>
</linearGradient>
<linearGradient id="paint2_linear" x1="189.04" y1="63.2918" x2="192.048" y2="63.2918" gradientUnits="userSpaceOnUse">
<stop offset="8e-08" stop-color="#3BA2A9"/>
<stop offset="1" stop-color="#00E7D5"/>
</linearGradient>
<linearGradient id="paint3_linear" x1="192.146" y1="62.3242" x2="196.233" y2="62.3242" gradientUnits="userSpaceOnUse">
<stop offset="8e-08" stop-color="#3BA2A9"/>
<stop offset="1" stop-color="#00E7D5"/>
</linearGradient>
<linearGradient id="paint4_linear" x1="196.55" y1="62.2893" x2="197.624" y2="62.2893" gradientUnits="userSpaceOnUse">
<stop offset="8e-08" stop-color="#3BA2A9"/>
<stop offset="1" stop-color="#00E7D5"/>
</linearGradient>
<linearGradient id="paint5_linear" x1="196.075" y1="64.1486" x2="198.181" y2="64.1486" gradientUnits="userSpaceOnUse">
<stop offset="8e-08" stop-color="#3BA2A9"/>
<stop offset="1" stop-color="#00E7D5"/>
</linearGradient>
<linearGradient id="paint6_linear" x1="191.574" y1="64.1262" x2="194.696" y2="64.1262" gradientUnits="userSpaceOnUse">
<stop offset="8e-08" stop-color="#3BA2A9"/>
<stop offset="1" stop-color="#00E7D5"/>
</linearGradient>
<linearGradient id="paint7_linear" x1="230.148" y1="92.1569" x2="235.155" y2="92.1569" gradientUnits="userSpaceOnUse">
<stop offset="8e-08" stop-color="#3BA2A9"/>
<stop offset="1" stop-color="#00E7D5"/>
</linearGradient>
<linearGradient id="paint8_linear" x1="234.628" y1="86.4914" x2="249.595" y2="86.4914" gradientUnits="userSpaceOnUse">
<stop offset="8e-08" stop-color="#3BA2A9"/>
<stop offset="1" stop-color="#00E7D5"/>
</linearGradient>
<linearGradient id="paint9_linear" x1="247.746" y1="90.9896" x2="252.405" y2="90.9896" gradientUnits="userSpaceOnUse">
<stop offset="8e-08" stop-color="#3BA2A9"/>
<stop offset="1" stop-color="#00E7D5"/>
</linearGradient>
<linearGradient id="paint10_linear" x1="156.048" y1="161.606" x2="192.692" y2="161.606" gradientUnits="userSpaceOnUse">
<stop offset="8e-08" stop-color="#3BA2A9"/>
<stop offset="1" stop-color="#00E7D5"/>
</linearGradient>
<linearGradient id="paint11_linear" x1="187.493" y1="171.681" x2="210.502" y2="171.681" gradientUnits="userSpaceOnUse">
<stop offset="8e-08" stop-color="#3BA2A9"/>
<stop offset="1" stop-color="#00E7D5"/>
</linearGradient>
<linearGradient id="paint12_linear" x1="212.812" y1="174.366" x2="220.965" y2="174.366" gradientUnits="userSpaceOnUse">
<stop offset="8e-08" stop-color="#3BA2A9"/>
<stop offset="1" stop-color="#00E7D5"/>
</linearGradient>
<linearGradient id="paint13_linear" x1="176.9" y1="151.193" x2="182.518" y2="151.193" gradientUnits="userSpaceOnUse">
<stop offset="8e-08" stop-color="#723BA9"/>
<stop offset="1" stop-color="#00E7D5"/>
</linearGradient>
<linearGradient id="paint14_linear" x1="213.175" y1="59.3058" x2="269.965" y2="59.3058" gradientUnits="userSpaceOnUse">
<stop offset="8e-08" stop-color="#3BA2A9"/>
<stop offset="1" stop-color="#00E7D5"/>
</linearGradient>
<linearGradient id="paint15_linear" x1="275.618" y1="62.2119" x2="284.29" y2="62.2119" gradientUnits="userSpaceOnUse">
<stop offset="8e-08" stop-color="#3BA2A9"/>
<stop offset="1" stop-color="#00E7D5"/>
</linearGradient>
<linearGradient id="paint16_linear" x1="309.753" y1="84.927" x2="321.841" y2="84.927" gradientUnits="userSpaceOnUse">
<stop offset="8e-08" stop-color="#3BA2A9"/>
<stop offset="1" stop-color="#00E7D5"/>
</linearGradient>
<linearGradient id="paint17_linear" x1="326.442" y1="105.686" x2="352.276" y2="105.686" gradientUnits="userSpaceOnUse">
<stop offset="8e-08" stop-color="#3BA2A9"/>
<stop offset="1" stop-color="#00E7D5"/>
</linearGradient>
<linearGradient id="paint18_linear" x1="348.654" y1="167.027" x2="387.918" y2="167.027" gradientUnits="userSpaceOnUse">
<stop offset="8e-08" stop-color="#3BA2A9"/>
<stop offset="1" stop-color="#00E7D5"/>
</linearGradient>
<linearGradient id="paint19_linear" x1="226.557" y1="374.509" x2="239.283" y2="374.509" gradientUnits="userSpaceOnUse">
<stop offset="8e-08" stop-color="#3BA2A9"/>
<stop offset="1" stop-color="#00E7D5"/>
</linearGradient>
<linearGradient id="paint20_linear" x1="273.058" y1="376.863" x2="278.575" y2="376.863" gradientUnits="userSpaceOnUse">
<stop offset="8e-08" stop-color="#3BA2A9"/>
<stop offset="1" stop-color="#00E7D5"/>
</linearGradient>
<linearGradient id="paint21_linear" x1="336.57" y1="176.403" x2="338.828" y2="176.403" gradientUnits="userSpaceOnUse">
<stop offset="8e-08" stop-color="#3BA2A9"/>
<stop offset="1" stop-color="#00E7D5"/>
</linearGradient>
<linearGradient id="paint22_linear" x1="337.681" y1="180.99" x2="339.828" y2="180.99" gradientUnits="userSpaceOnUse">
<stop offset="8e-08" stop-color="#3BA2A9"/>
<stop offset="1" stop-color="#00E7D5"/>
</linearGradient>
<linearGradient id="paint23_linear" x1="340.504" y1="181.487" x2="342.15" y2="181.487" gradientUnits="userSpaceOnUse">
<stop offset="8e-08" stop-color="#3BA2A9"/>
<stop offset="1" stop-color="#00E7D5"/>
</linearGradient>
<linearGradient id="paint24_linear" x1="342.676" y1="180.631" x2="344.008" y2="180.631" gradientUnits="userSpaceOnUse">
<stop offset="8e-08" stop-color="#3BA2A9"/>
<stop offset="1" stop-color="#00E7D5"/>
</linearGradient>
<linearGradient id="paint25_linear" x1="342.299" y1="178.219" x2="343.579" y2="178.219" gradientUnits="userSpaceOnUse">
<stop offset="8e-08" stop-color="#723BA9"/>
<stop offset="1" stop-color="#00E7D5"/>
</linearGradient>
<linearGradient id="paint26_linear" x1="341.182" y1="176.345" x2="342.994" y2="176.345" gradientUnits="userSpaceOnUse">
<stop offset="8e-08" stop-color="#723BA9"/>
<stop offset="1" stop-color="#00E7D5"/>
</linearGradient>
<linearGradient id="paint27_linear" x1="339.01" y1="177.939" x2="341.278" y2="177.939" gradientUnits="userSpaceOnUse">
<stop offset="8e-08" stop-color="#723BA9"/>
<stop offset="1" stop-color="#00E7D5"/>
</linearGradient>
</defs>
</svg>
